<?xml version="1.0" encoding="utf-8" standalone="no"?>
<!DOCTYPE svg PUBLIC "-//W3C//DTD SVG 1.1//EN"
  "http://www.w3.org/Graphics/SVG/1.1/DTD/svg11.dtd">
<svg xmlns:xlink="http://www.w3.org/1999/xlink" width="864pt" height="576pt" viewBox="0 0 864 576" xmlns="http://www.w3.org/2000/svg" version="1.1">
 <metadata>
  <rdf:RDF xmlns:dc="http://purl.org/dc/elements/1.1/" xmlns:cc="http://creativecommons.org/ns#" xmlns:rdf="http://www.w3.org/1999/02/22-rdf-syntax-ns#">
   <cc:Work>
    <dc:type rdf:resource="http://purl.org/dc/dcmitype/StillImage"/>
    <dc:date>2025-01-14T15:27:09.500836</dc:date>
    <dc:format>image/svg+xml</dc:format>
    <dc:creator>
     <cc:Agent>
      <dc:title>Matplotlib v3.10.0, https://matplotlib.org/</dc:title>
     </cc:Agent>
    </dc:creator>
   </cc:Work>
  </rdf:RDF>
 </metadata>
 <defs>
  <style type="text/css">*{stroke-linejoin: round; stroke-linecap: butt}</style>
 </defs>
 <g id="figure_1">
  <g id="patch_1">
   <path d="M 0 576 
L 864 576 
L 864 0 
L 0 0 
z
" style="fill: #ffffff"/>
  </g>
  <g id="axes_1">
   <g id="patch_2">
    <path d="M 65.54 229.491893 
L 853.2 229.491893 
L 853.2 107.148368 
L 65.54 107.148368 
z
" style="fill: #ffffff"/>
   </g>
   <g id="matplotlib.axis_1">
    <g id="xtick_1">
     <g id="line2d_1">
      <path d="M 101.342727 229.491893 
L 101.342727 107.148368 
" clip-path="url(#p4c7b409923)" style="fill: none; stroke: #b0b0b0; stroke-width: 0.8; stroke-linecap: square"/>
     </g>
     <g id="line2d_2">
      <defs>
       <path id="m4688543e0e" d="M 0 0 
L 0 3.5 
" style="stroke: #000000; stroke-width: 0.8"/>
      </defs>
      <g>
       <use xlink:href="#m4688543e0e" x="101.342727" y="229.491893" style="stroke: #000000; stroke-width: 0.8"/>
      </g>
     </g>
     <g id="text_1">
      <!-- 0 -->
      <g transform="translate(98.161477 244.09033) scale(0.1 -0.1)">
       <defs>
        <path id="DejaVuSans-30" d="M 2034 4250 
Q 1547 4250 1301 3770 
Q 1056 3291 1056 2328 
Q 1056 1369 1301 889 
Q 1547 409 2034 409 
Q 2525 409 2770 889 
Q 3016 1369 3016 2328 
Q 3016 3291 2770 3770 
Q 2525 4250 2034 4250 
z
M 2034 4750 
Q 2819 4750 3233 4129 
Q 3647 3509 3647 2328 
Q 3647 1150 3233 529 
Q 2819 -91 2034 -91 
Q 1250 -91 836 529 
Q 422 1150 422 2328 
Q 422 3509 836 4129 
Q 1250 4750 2034 4750 
z
" transform="scale(0.015625)"/>
       </defs>
       <use xlink:href="#DejaVuSans-30"/>
      </g>
     </g>
    </g>
    <g id="xtick_2">
     <g id="line2d_3">
      <path d="M 223.536336 229.491893 
L 223.536336 107.148368 
" clip-path="url(#p4c7b409923)" style="fill: none; stroke: #b0b0b0; stroke-width: 0.8; stroke-linecap: square"/>
     </g>
     <g id="line2d_4">
      <g>
       <use xlink:href="#m4688543e0e" x="223.536336" y="229.491893" style="stroke: #000000; stroke-width: 0.8"/>
      </g>
     </g>
     <g id="text_2">
      <!-- 1 -->
      <g transform="translate(220.355086 244.09033) scale(0.1 -0.1)">
       <defs>
        <path id="DejaVuSans-31" d="M 794 531 
L 1825 531 
L 1825 4091 
L 703 3866 
L 703 4441 
L 1819 4666 
L 2450 4666 
L 2450 531 
L 3481 531 
L 3481 0 
L 794 0 
L 794 531 
z
" transform="scale(0.015625)"/>
       </defs>
       <use xlink:href="#DejaVuSans-31"/>
      </g>
     </g>
    </g>
    <g id="xtick_3">
     <g id="line2d_5">
      <path d="M 345.729944 229.491893 
L 345.729944 107.148368 
" clip-path="url(#p4c7b409923)" style="fill: none; stroke: #b0b0b0; stroke-width: 0.8; stroke-linecap: square"/>
     </g>
     <g id="line2d_6">
      <g>
       <use xlink:href="#m4688543e0e" x="345.729944" y="229.491893" style="stroke: #000000; stroke-width: 0.8"/>
      </g>
     </g>
     <g id="text_3">
      <!-- 2 -->
      <g transform="translate(342.548694 244.09033) scale(0.1 -0.1)">
       <defs>
        <path id="DejaVuSans-32" d="M 1228 531 
L 3431 531 
L 3431 0 
L 469 0 
L 469 531 
Q 828 903 1448 1529 
Q 2069 2156 2228 2338 
Q 2531 2678 2651 2914 
Q 2772 3150 2772 3378 
Q 2772 3750 2511 3984 
Q 2250 4219 1831 4219 
Q 1534 4219 1204 4116 
Q 875 4013 500 3803 
L 500 4441 
Q 881 4594 1212 4672 
Q 1544 4750 1819 4750 
Q 2544 4750 2975 4387 
Q 3406 4025 3406 3419 
Q 3406 3131 3298 2873 
Q 3191 2616 2906 2266 
Q 2828 2175 2409 1742 
Q 1991 1309 1228 531 
z
" transform="scale(0.015625)"/>
       </defs>
       <use xlink:href="#DejaVuSans-32"/>
      </g>
     </g>
    </g>
    <g id="xtick_4">
     <g id="line2d_7">
      <path d="M 467.923553 229.491893 
L 467.923553 107.148368 
" clip-path="url(#p4c7b409923)" style="fill: none; stroke: #b0b0b0; stroke-width: 0.8; stroke-linecap: square"/>
     </g>
     <g id="line2d_8">
      <g>
       <use xlink:href="#m4688543e0e" x="467.923553" y="229.491893" style="stroke: #000000; stroke-width: 0.8"/>
      </g>
     </g>
     <g id="text_4">
      <!-- 3 -->
      <g transform="translate(464.742303 244.09033) scale(0.1 -0.1)">
       <defs>
        <path id="DejaVuSans-33" d="M 2597 2516 
Q 3050 2419 3304 2112 
Q 3559 1806 3559 1356 
Q 3559 666 3084 287 
Q 2609 -91 1734 -91 
Q 1441 -91 1130 -33 
Q 819 25 488 141 
L 488 750 
Q 750 597 1062 519 
Q 1375 441 1716 441 
Q 2309 441 2620 675 
Q 2931 909 2931 1356 
Q 2931 1769 2642 2001 
Q 2353 2234 1838 2234 
L 1294 2234 
L 1294 2753 
L 1863 2753 
Q 2328 2753 2575 2939 
Q 2822 3125 2822 3475 
Q 2822 3834 2567 4026 
Q 2313 4219 1838 4219 
Q 1578 4219 1281 4162 
Q 984 4106 628 3988 
L 628 4550 
Q 988 4650 1302 4700 
Q 1616 4750 1894 4750 
Q 2613 4750 3031 4423 
Q 3450 4097 3450 3541 
Q 3450 3153 3228 2886 
Q 3006 2619 2597 2516 
z
" transform="scale(0.015625)"/>
       </defs>
       <use xlink:href="#DejaVuSans-33"/>
      </g>
     </g>
    </g>
    <g id="xtick_5">
     <g id="line2d_9">
      <path d="M 590.117161 229.491893 
L 590.117161 107.148368 
" clip-path="url(#p4c7b409923)" style="fill: none; stroke: #b0b0b0; stroke-width: 0.8; stroke-linecap: square"/>
     </g>
     <g id="line2d_10">
      <g>
       <use xlink:href="#m4688543e0e" x="590.117161" y="229.491893" style="stroke: #000000; stroke-width: 0.8"/>
      </g>
     </g>
     <g id="text_5">
      <!-- 4 -->
      <g transform="translate(586.935911 244.09033) scale(0.1 -0.1)">
       <defs>
        <path id="DejaVuSans-34" d="M 2419 4116 
L 825 1625 
L 2419 1625 
L 2419 4116 
z
M 2253 4666 
L 3047 4666 
L 3047 1625 
L 3713 1625 
L 3713 1100 
L 3047 1100 
L 3047 0 
L 2419 0 
L 2419 1100 
L 313 1100 
L 313 1709 
L 2253 4666 
z
" transform="scale(0.015625)"/>
       </defs>
       <use xlink:href="#DejaVuSans-34"/>
      </g>
     </g>
    </g>
    <g id="xtick_6">
     <g id="line2d_11">
      <path d="M 712.310769 229.491893 
L 712.310769 107.148368 
" clip-path="url(#p4c7b409923)" style="fill: none; stroke: #b0b0b0; stroke-width: 0.8; stroke-linecap: square"/>
     </g>
     <g id="line2d_12">
      <g>
       <use xlink:href="#m4688543e0e" x="712.310769" y="229.491893" style="stroke: #000000; stroke-width: 0.8"/>
      </g>
     </g>
     <g id="text_6">
      <!-- 5 -->
      <g transform="translate(709.129519 244.09033) scale(0.1 -0.1)">
       <defs>
        <path id="DejaVuSans-35" d="M 691 4666 
L 3169 4666 
L 3169 4134 
L 1269 4134 
L 1269 2991 
Q 1406 3038 1543 3061 
Q 1681 3084 1819 3084 
Q 2600 3084 3056 2656 
Q 3513 2228 3513 1497 
Q 3513 744 3044 326 
Q 2575 -91 1722 -91 
Q 1428 -91 1123 -41 
Q 819 9 494 109 
L 494 744 
Q 775 591 1075 516 
Q 1375 441 1709 441 
Q 2250 441 2565 725 
Q 2881 1009 2881 1497 
Q 2881 1984 2565 2268 
Q 2250 2553 1709 2553 
Q 1456 2553 1204 2497 
Q 953 2441 691 2322 
L 691 4666 
z
" transform="scale(0.015625)"/>
       </defs>
       <use xlink:href="#DejaVuSans-35"/>
      </g>
     </g>
    </g>
    <g id="xtick_7">
     <g id="line2d_13">
      <path d="M 834.504378 229.491893 
L 834.504378 107.148368 
" clip-path="url(#p4c7b409923)" style="fill: none; stroke: #b0b0b0; stroke-width: 0.8; stroke-linecap: square"/>
     </g>
     <g id="line2d_14">
      <g>
       <use xlink:href="#m4688543e0e" x="834.504378" y="229.491893" style="stroke: #000000; stroke-width: 0.8"/>
      </g>
     </g>
     <g id="text_7">
      <!-- 6 -->
      <g transform="translate(831.323128 244.09033) scale(0.1 -0.1)">
       <defs>
        <path id="DejaVuSans-36" d="M 2113 2584 
Q 1688 2584 1439 2293 
Q 1191 2003 1191 1497 
Q 1191 994 1439 701 
Q 1688 409 2113 409 
Q 2538 409 2786 701 
Q 3034 994 3034 1497 
Q 3034 2003 2786 2293 
Q 2538 2584 2113 2584 
z
M 3366 4563 
L 3366 3988 
Q 3128 4100 2886 4159 
Q 2644 4219 2406 4219 
Q 1781 4219 1451 3797 
Q 1122 3375 1075 2522 
Q 1259 2794 1537 2939 
Q 1816 3084 2150 3084 
Q 2853 3084 3261 2657 
Q 3669 2231 3669 1497 
Q 3669 778 3244 343 
Q 2819 -91 2113 -91 
Q 1303 -91 875 529 
Q 447 1150 447 2328 
Q 447 3434 972 4092 
Q 1497 4750 2381 4750 
Q 2619 4750 2861 4703 
Q 3103 4656 3366 4563 
z
" transform="scale(0.015625)"/>
       </defs>
       <use xlink:href="#DejaVuSans-36"/>
      </g>
     </g>
    </g>
   </g>
   <g id="matplotlib.axis_2">
    <g id="ytick_1">
     <g id="line2d_15">
      <path d="M 65.54 210.275757 
L 853.2 210.275757 
" clip-path="url(#p4c7b409923)" style="fill: none; stroke: #b0b0b0; stroke-width: 0.8; stroke-linecap: square"/>
     </g>
     <g id="line2d_16">
      <defs>
       <path id="m50685c4f3c" d="M 0 0 
L -3.5 0 
" style="stroke: #000000; stroke-width: 0.8"/>
      </defs>
      <g>
       <use xlink:href="#m50685c4f3c" x="65.54" y="210.275757" style="stroke: #000000; stroke-width: 0.8"/>
      </g>
     </g>
     <g id="text_8">
      <!-- 50 -->
      <g transform="translate(45.815 214.074975) scale(0.1 -0.1)">
       <use xlink:href="#DejaVuSans-35"/>
       <use xlink:href="#DejaVuSans-30" transform="translate(63.623047 0)"/>
      </g>
     </g>
    </g>
    <g id="ytick_2">
     <g id="line2d_17">
      <path d="M 65.54 172.616995 
L 853.2 172.616995 
" clip-path="url(#p4c7b409923)" style="fill: none; stroke: #b0b0b0; stroke-width: 0.8; stroke-linecap: square"/>
     </g>
     <g id="line2d_18">
      <g>
       <use xlink:href="#m50685c4f3c" x="65.54" y="172.616995" style="stroke: #000000; stroke-width: 0.8"/>
      </g>
     </g>
     <g id="text_9">
      <!-- 100 -->
      <g transform="translate(39.4525 176.416214) scale(0.1 -0.1)">
       <use xlink:href="#DejaVuSans-31"/>
       <use xlink:href="#DejaVuSans-30" transform="translate(63.623047 0)"/>
       <use xlink:href="#DejaVuSans-30" transform="translate(127.246094 0)"/>
      </g>
     </g>
    </g>
    <g id="ytick_3">
     <g id="line2d_19">
      <path d="M 65.54 134.958234 
L 853.2 134.958234 
" clip-path="url(#p4c7b409923)" style="fill: none; stroke: #b0b0b0; stroke-width: 0.8; stroke-linecap: square"/>
     </g>
     <g id="line2d_20">
      <g>
       <use xlink:href="#m50685c4f3c" x="65.54" y="134.958234" style="stroke: #000000; stroke-width: 0.8"/>
      </g>
     </g>
     <g id="text_10">
      <!-- 150 -->
      <g transform="translate(39.4525 138.757452) scale(0.1 -0.1)">
       <use xlink:href="#DejaVuSans-31"/>
       <use xlink:href="#DejaVuSans-35" transform="translate(63.623047 0)"/>
       <use xlink:href="#DejaVuSans-30" transform="translate(127.246094 0)"/>
      </g>
     </g>
    </g>
    <g id="text_11">
     <!-- x -->
     <g transform="translate(33.372813 171.279505) rotate(-90) scale(0.1 -0.1)">
      <defs>
       <path id="DejaVuSans-78" d="M 3513 3500 
L 2247 1797 
L 3578 0 
L 2900 0 
L 1881 1375 
L 863 0 
L 184 0 
L 1544 1831 
L 300 3500 
L 978 3500 
L 1906 2253 
L 2834 3500 
L 3513 3500 
z
" transform="scale(0.015625)"/>
      </defs>
      <use xlink:href="#DejaVuSans-78"/>
     </g>
    </g>
   </g>
   <g id="line2d_21">
    <path d="M 101.342727 112.709437 
L 113.562088 112.716969 
L 203.985358 112.792286 
L 233.311824 113.327041 
L 250.41893 114.321232 
L 260.194418 115.285297 
L 267.526035 116.07613 
L 277.301523 117.386655 
L 284.63314 118.591736 
L 291.964756 120.165872 
L 296.852501 121.551714 
L 299.296373 122.252167 
L 301.740245 122.817049 
L 306.627989 124.474034 
L 311.515734 126.040639 
L 321.291222 129.821578 
L 331.066711 134.521392 
L 340.8422 140.305778 
L 348.173816 145.276734 
L 360.393177 153.915654 
L 370.168666 160.445683 
L 382.388027 168.067817 
L 389.719643 172.42117 
L 399.495132 177.911817 
L 406.826748 181.83586 
L 416.602237 186.806816 
L 426.377726 191.438844 
L 436.153214 195.731943 
L 443.484831 198.714517 
L 453.26032 202.442734 
L 460.591936 205.048721 
L 467.923553 207.45135 
L 475.255169 209.650621 
L 485.030658 212.316862 
L 492.362274 214.139546 
L 504.581635 216.850976 
L 511.913252 218.312136 
L 519.244868 219.577471 
L 526.576485 220.631916 
L 536.351973 221.799338 
L 543.68359 222.522386 
L 555.902951 223.283093 
L 565.678439 223.682276 
L 575.453928 223.78772 
L 722.086258 223.87057 
L 724.53013 223.930824 
L 731.861747 223.855506 
L 817.397273 223.863038 
L 817.397273 223.863038 
" clip-path="url(#p4c7b409923)" style="fill: none; stroke: #0000ff; stroke-width: 1.5; stroke-linecap: square"/>
   </g>
   <g id="line2d_22">
    <path d="M 350.617688 229.491893 
L 350.617688 107.148368 
" clip-path="url(#p4c7b409923)" style="fill: none; stroke-dasharray: 5.55,2.4; stroke-dashoffset: 0; stroke: #ff0000; stroke-opacity: 0.5; stroke-width: 1.5"/>
   </g>
   <g id="line2d_23">
    <path d="M 731.861747 229.491893 
L 731.861747 107.148368 
" clip-path="url(#p4c7b409923)" style="fill: none; stroke-dasharray: 5.55,2.4; stroke-dashoffset: 0; stroke: #bf00bf; stroke-opacity: 0.7; stroke-width: 1.5"/>
   </g>
   <g id="patch_3">
    <path d="M 65.54 229.491893 
L 65.54 107.148368 
" style="fill: none; stroke: #000000; stroke-width: 0.8; stroke-linejoin: miter; stroke-linecap: square"/>
   </g>
   <g id="patch_4">
    <path d="M 853.2 229.491893 
L 853.2 107.148368 
" style="fill: none; stroke: #000000; stroke-width: 0.8; stroke-linejoin: miter; stroke-linecap: square"/>
   </g>
   <g id="patch_5">
    <path d="M 65.54 229.491893 
L 853.2 229.491893 
" style="fill: none; stroke: #000000; stroke-width: 0.8; stroke-linejoin: miter; stroke-linecap: square"/>
   </g>
   <g id="patch_6">
    <path d="M 65.54 107.148368 
L 853.2 107.148368 
" style="fill: none; stroke: #000000; stroke-width: 0.8; stroke-linejoin: miter; stroke-linecap: square"/>
   </g>
   <g id="text_12">
    <!--  $t_{v,\max}=2.04\,\mathrm{s}$ -->
    <g transform="translate(358.117688 107.148368) rotate(-90) scale(0.1 -0.1)">
     <defs>
      <path id="DejaVuSans-20" transform="scale(0.015625)"/>
      <path id="DejaVuSans-Oblique-74" d="M 2706 3500 
L 2619 3053 
L 1472 3053 
L 1100 1153 
Q 1081 1047 1072 975 
Q 1063 903 1063 863 
Q 1063 663 1183 572 
Q 1303 481 1569 481 
L 2150 481 
L 2053 0 
L 1503 0 
Q 991 0 739 200 
Q 488 400 488 806 
Q 488 878 497 964 
Q 506 1050 525 1153 
L 897 3053 
L 409 3053 
L 500 3500 
L 978 3500 
L 1172 4494 
L 1747 4494 
L 1556 3500 
L 2706 3500 
z
" transform="scale(0.015625)"/>
      <path id="DejaVuSans-Oblique-76" d="M 459 3500 
L 1069 3500 
L 1581 525 
L 3256 3500 
L 3866 3500 
L 1875 0 
L 1100 0 
L 459 3500 
z
" transform="scale(0.015625)"/>
      <path id="DejaVuSans-2c" d="M 750 794 
L 1409 794 
L 1409 256 
L 897 -744 
L 494 -744 
L 750 256 
L 750 794 
z
" transform="scale(0.015625)"/>
      <path id="DejaVuSans-6d" d="M 3328 2828 
Q 3544 3216 3844 3400 
Q 4144 3584 4550 3584 
Q 5097 3584 5394 3201 
Q 5691 2819 5691 2113 
L 5691 0 
L 5113 0 
L 5113 2094 
Q 5113 2597 4934 2840 
Q 4756 3084 4391 3084 
Q 3944 3084 3684 2787 
Q 3425 2491 3425 1978 
L 3425 0 
L 2847 0 
L 2847 2094 
Q 2847 2600 2669 2842 
Q 2491 3084 2119 3084 
Q 1678 3084 1418 2786 
Q 1159 2488 1159 1978 
L 1159 0 
L 581 0 
L 581 3500 
L 1159 3500 
L 1159 2956 
Q 1356 3278 1631 3431 
Q 1906 3584 2284 3584 
Q 2666 3584 2933 3390 
Q 3200 3197 3328 2828 
z
" transform="scale(0.015625)"/>
      <path id="DejaVuSans-61" d="M 2194 1759 
Q 1497 1759 1228 1600 
Q 959 1441 959 1056 
Q 959 750 1161 570 
Q 1363 391 1709 391 
Q 2188 391 2477 730 
Q 2766 1069 2766 1631 
L 2766 1759 
L 2194 1759 
z
M 3341 1997 
L 3341 0 
L 2766 0 
L 2766 531 
Q 2569 213 2275 61 
Q 1981 -91 1556 -91 
Q 1019 -91 701 211 
Q 384 513 384 1019 
Q 384 1609 779 1909 
Q 1175 2209 1959 2209 
L 2766 2209 
L 2766 2266 
Q 2766 2663 2505 2880 
Q 2244 3097 1772 3097 
Q 1472 3097 1187 3025 
Q 903 2953 641 2809 
L 641 3341 
Q 956 3463 1253 3523 
Q 1550 3584 1831 3584 
Q 2591 3584 2966 3190 
Q 3341 2797 3341 1997 
z
" transform="scale(0.015625)"/>
      <path id="DejaVuSans-3d" d="M 678 2906 
L 4684 2906 
L 4684 2381 
L 678 2381 
L 678 2906 
z
M 678 1631 
L 4684 1631 
L 4684 1100 
L 678 1100 
L 678 1631 
z
" transform="scale(0.015625)"/>
      <path id="DejaVuSans-2e" d="M 684 794 
L 1344 794 
L 1344 0 
L 684 0 
L 684 794 
z
" transform="scale(0.015625)"/>
      <path id="DejaVuSans-73" d="M 2834 3397 
L 2834 2853 
Q 2591 2978 2328 3040 
Q 2066 3103 1784 3103 
Q 1356 3103 1142 2972 
Q 928 2841 928 2578 
Q 928 2378 1081 2264 
Q 1234 2150 1697 2047 
L 1894 2003 
Q 2506 1872 2764 1633 
Q 3022 1394 3022 966 
Q 3022 478 2636 193 
Q 2250 -91 1575 -91 
Q 1294 -91 989 -36 
Q 684 19 347 128 
L 347 722 
Q 666 556 975 473 
Q 1284 391 1588 391 
Q 1994 391 2212 530 
Q 2431 669 2431 922 
Q 2431 1156 2273 1281 
Q 2116 1406 1581 1522 
L 1381 1569 
Q 847 1681 609 1914 
Q 372 2147 372 2553 
Q 372 3047 722 3315 
Q 1072 3584 1716 3584 
Q 2034 3584 2315 3537 
Q 2597 3491 2834 3397 
z
" transform="scale(0.015625)"/>
     </defs>
     <use xlink:href="#DejaVuSans-20" transform="translate(0 0.78125)"/>
     <use xlink:href="#DejaVuSans-Oblique-74" transform="translate(31.787109 0.78125)"/>
     <use xlink:href="#DejaVuSans-Oblique-76" transform="translate(70.996094 -15.625) scale(0.7)"/>
     <use xlink:href="#DejaVuSans-2c" transform="translate(112.421875 -15.625) scale(0.7)"/>
     <use xlink:href="#DejaVuSans-6d" transform="translate(148.310547 -15.625) scale(0.7)"/>
     <use xlink:href="#DejaVuSans-61" transform="translate(216.499023 -15.625) scale(0.7)"/>
     <use xlink:href="#DejaVuSans-78" transform="translate(259.394531 -15.625) scale(0.7)"/>
     <use xlink:href="#DejaVuSans-3d" transform="translate(323.037109 0.78125)"/>
     <use xlink:href="#DejaVuSans-32" transform="translate(426.308594 0.78125)"/>
     <use xlink:href="#DejaVuSans-2e" transform="translate(489.931641 0.78125)"/>
     <use xlink:href="#DejaVuSans-30" transform="translate(521.71875 0.78125)"/>
     <use xlink:href="#DejaVuSans-34" transform="translate(585.341797 0.78125)"/>
     <use xlink:href="#DejaVuSans-73" transform="translate(665.20052 0.78125)"/>
    </g>
   </g>
   <g id="text_13">
    <!--  $t_{stop}=5.16\,\mathrm{s}$ -->
    <g transform="translate(739.361747 107.148368) rotate(-90) scale(0.1 -0.1)">
     <defs>
      <path id="DejaVuSans-Oblique-73" d="M 3200 3397 
L 3091 2853 
Q 2863 2978 2609 3040 
Q 2356 3103 2088 3103 
Q 1634 3103 1373 2948 
Q 1113 2794 1113 2528 
Q 1113 2219 1719 2053 
Q 1766 2041 1788 2034 
L 1972 1978 
Q 2547 1819 2739 1644 
Q 2931 1469 2931 1166 
Q 2931 609 2489 259 
Q 2047 -91 1331 -91 
Q 1053 -91 747 -37 
Q 441 16 72 128 
L 184 722 
Q 500 559 806 475 
Q 1113 391 1394 391 
Q 1816 391 2080 572 
Q 2344 753 2344 1031 
Q 2344 1331 1650 1516 
L 1591 1531 
L 1394 1581 
Q 956 1697 753 1886 
Q 550 2075 550 2369 
Q 550 2928 970 3256 
Q 1391 3584 2113 3584 
Q 2397 3584 2667 3537 
Q 2938 3491 3200 3397 
z
" transform="scale(0.015625)"/>
      <path id="DejaVuSans-Oblique-6f" d="M 1625 -91 
Q 1009 -91 651 289 
Q 294 669 294 1325 
Q 294 1706 417 2101 
Q 541 2497 738 2766 
Q 1047 3184 1428 3384 
Q 1809 3584 2291 3584 
Q 2888 3584 3255 3212 
Q 3622 2841 3622 2241 
Q 3622 1825 3500 1412 
Q 3378 1000 3181 728 
Q 2875 309 2494 109 
Q 2113 -91 1625 -91 
z
M 891 1344 
Q 891 869 1089 633 
Q 1288 397 1691 397 
Q 2269 397 2648 901 
Q 3028 1406 3028 2181 
Q 3028 2634 2825 2865 
Q 2622 3097 2228 3097 
Q 1903 3097 1650 2945 
Q 1397 2794 1197 2484 
Q 1050 2253 970 1956 
Q 891 1659 891 1344 
z
" transform="scale(0.015625)"/>
      <path id="DejaVuSans-Oblique-70" d="M 3175 2156 
Q 3175 2616 2975 2859 
Q 2775 3103 2400 3103 
Q 2144 3103 1911 2972 
Q 1678 2841 1497 2591 
Q 1319 2344 1212 1994 
Q 1106 1644 1106 1300 
Q 1106 863 1306 627 
Q 1506 391 1875 391 
Q 2147 391 2380 519 
Q 2613 647 2778 891 
Q 2956 1147 3065 1494 
Q 3175 1841 3175 2156 
z
M 1394 2969 
Q 1625 3272 1939 3428 
Q 2253 3584 2638 3584 
Q 3175 3584 3472 3232 
Q 3769 2881 3769 2247 
Q 3769 1728 3584 1258 
Q 3400 788 3053 416 
Q 2822 169 2531 39 
Q 2241 -91 1919 -91 
Q 1547 -91 1294 64 
Q 1041 219 916 525 
L 556 -1331 
L -19 -1331 
L 922 3500 
L 1497 3500 
L 1394 2969 
z
" transform="scale(0.015625)"/>
     </defs>
     <use xlink:href="#DejaVuSans-20" transform="translate(0 0.78125)"/>
     <use xlink:href="#DejaVuSans-Oblique-74" transform="translate(31.787109 0.78125)"/>
     <use xlink:href="#DejaVuSans-Oblique-73" transform="translate(70.996094 -15.625) scale(0.7)"/>
     <use xlink:href="#DejaVuSans-Oblique-74" transform="translate(107.46582 -15.625) scale(0.7)"/>
     <use xlink:href="#DejaVuSans-Oblique-6f" transform="translate(134.912109 -15.625) scale(0.7)"/>
     <use xlink:href="#DejaVuSans-Oblique-70" transform="translate(177.739258 -15.625) scale(0.7)"/>
     <use xlink:href="#DejaVuSans-3d" transform="translate(244.389648 0.78125)"/>
     <use xlink:href="#DejaVuSans-35" transform="translate(347.661133 0.78125)"/>
     <use xlink:href="#DejaVuSans-2e" transform="translate(411.28418 0.78125)"/>
     <use xlink:href="#DejaVuSans-31" transform="translate(443.071289 0.78125)"/>
     <use xlink:href="#DejaVuSans-36" transform="translate(506.694336 0.78125)"/>
     <use xlink:href="#DejaVuSans-73" transform="translate(586.553059 0.78125)"/>
    </g>
   </g>
   <g id="legend_1">
    <g id="patch_7">
     <path d="M 787.559375 129.826493 
L 846.2 129.826493 
Q 848.2 129.826493 848.2 127.826493 
L 848.2 114.148368 
Q 848.2 112.148368 846.2 112.148368 
L 787.559375 112.148368 
Q 785.559375 112.148368 785.559375 114.148368 
L 785.559375 127.826493 
Q 785.559375 129.826493 787.559375 129.826493 
z
" style="fill: #ffffff; opacity: 0.8; stroke: #cccccc; stroke-linejoin: miter"/>
    </g>
    <g id="line2d_24">
     <path d="M 789.559375 120.246805 
L 799.559375 120.246805 
L 809.559375 120.246805 
" style="fill: none; stroke: #0000ff; stroke-width: 1.5; stroke-linecap: square"/>
    </g>
    <g id="text_14">
     <!-- x (m) -->
     <g transform="translate(817.559375 123.746805) scale(0.1 -0.1)">
      <defs>
       <path id="DejaVuSans-28" d="M 1984 4856 
Q 1566 4138 1362 3434 
Q 1159 2731 1159 2009 
Q 1159 1288 1364 580 
Q 1569 -128 1984 -844 
L 1484 -844 
Q 1016 -109 783 600 
Q 550 1309 550 2009 
Q 550 2706 781 3412 
Q 1013 4119 1484 4856 
L 1984 4856 
z
" transform="scale(0.015625)"/>
       <path id="DejaVuSans-29" d="M 513 4856 
L 1013 4856 
Q 1481 4119 1714 3412 
Q 1947 2706 1947 2009 
Q 1947 1309 1714 600 
Q 1481 -109 1013 -844 
L 513 -844 
Q 928 -128 1133 580 
Q 1338 1288 1338 2009 
Q 1338 2731 1133 3434 
Q 928 4138 513 4856 
z
" transform="scale(0.015625)"/>
      </defs>
      <use xlink:href="#DejaVuSans-78"/>
      <use xlink:href="#DejaVuSans-20" transform="translate(59.179688 0)"/>
      <use xlink:href="#DejaVuSans-28" transform="translate(90.966797 0)"/>
      <use xlink:href="#DejaVuSans-6d" transform="translate(129.980469 0)"/>
      <use xlink:href="#DejaVuSans-29" transform="translate(227.392578 0)"/>
     </g>
    </g>
   </g>
  </g>
  <g id="axes_2">
   <g id="patch_8">
    <path d="M 65.54 381.765946 
L 853.2 381.765946 
L 853.2 259.422421 
L 65.54 259.422421 
z
" style="fill: #ffffff"/>
   </g>
   <g id="matplotlib.axis_3">
    <g id="xtick_8">
     <g id="line2d_25">
      <path d="M 98.890486 381.765946 
L 98.890486 259.422421 
" clip-path="url(#p226cb26a6b)" style="fill: none; stroke: #b0b0b0; stroke-width: 0.8; stroke-linecap: square"/>
     </g>
     <g id="line2d_26">
      <g>
       <use xlink:href="#m4688543e0e" x="98.890486" y="381.765946" style="stroke: #000000; stroke-width: 0.8"/>
      </g>
     </g>
     <g id="text_15">
      <!-- 0 -->
      <g transform="translate(95.709236 396.364384) scale(0.1 -0.1)">
       <use xlink:href="#DejaVuSans-30"/>
      </g>
     </g>
    </g>
    <g id="xtick_9">
     <g id="line2d_27">
      <path d="M 221.502565 381.765946 
L 221.502565 259.422421 
" clip-path="url(#p226cb26a6b)" style="fill: none; stroke: #b0b0b0; stroke-width: 0.8; stroke-linecap: square"/>
     </g>
     <g id="line2d_28">
      <g>
       <use xlink:href="#m4688543e0e" x="221.502565" y="381.765946" style="stroke: #000000; stroke-width: 0.8"/>
      </g>
     </g>
     <g id="text_16">
      <!-- 1 -->
      <g transform="translate(218.321315 396.364384) scale(0.1 -0.1)">
       <use xlink:href="#DejaVuSans-31"/>
      </g>
     </g>
    </g>
    <g id="xtick_10">
     <g id="line2d_29">
      <path d="M 344.114645 381.765946 
L 344.114645 259.422421 
" clip-path="url(#p226cb26a6b)" style="fill: none; stroke: #b0b0b0; stroke-width: 0.8; stroke-linecap: square"/>
     </g>
     <g id="line2d_30">
      <g>
       <use xlink:href="#m4688543e0e" x="344.114645" y="381.765946" style="stroke: #000000; stroke-width: 0.8"/>
      </g>
     </g>
     <g id="text_17">
      <!-- 2 -->
      <g transform="translate(340.933395 396.364384) scale(0.1 -0.1)">
       <use xlink:href="#DejaVuSans-32"/>
      </g>
     </g>
    </g>
    <g id="xtick_11">
     <g id="line2d_31">
      <path d="M 466.726725 381.765946 
L 466.726725 259.422421 
" clip-path="url(#p226cb26a6b)" style="fill: none; stroke: #b0b0b0; stroke-width: 0.8; stroke-linecap: square"/>
     </g>
     <g id="line2d_32">
      <g>
       <use xlink:href="#m4688543e0e" x="466.726725" y="381.765946" style="stroke: #000000; stroke-width: 0.8"/>
      </g>
     </g>
     <g id="text_18">
      <!-- 3 -->
      <g transform="translate(463.545475 396.364384) scale(0.1 -0.1)">
       <use xlink:href="#DejaVuSans-33"/>
      </g>
     </g>
    </g>
    <g id="xtick_12">
     <g id="line2d_33">
      <path d="M 589.338804 381.765946 
L 589.338804 259.422421 
" clip-path="url(#p226cb26a6b)" style="fill: none; stroke: #b0b0b0; stroke-width: 0.8; stroke-linecap: square"/>
     </g>
     <g id="line2d_34">
      <g>
       <use xlink:href="#m4688543e0e" x="589.338804" y="381.765946" style="stroke: #000000; stroke-width: 0.8"/>
      </g>
     </g>
     <g id="text_19">
      <!-- 4 -->
      <g transform="translate(586.157554 396.364384) scale(0.1 -0.1)">
       <use xlink:href="#DejaVuSans-34"/>
      </g>
     </g>
    </g>
    <g id="xtick_13">
     <g id="line2d_35">
      <path d="M 711.950884 381.765946 
L 711.950884 259.422421 
" clip-path="url(#p226cb26a6b)" style="fill: none; stroke: #b0b0b0; stroke-width: 0.8; stroke-linecap: square"/>
     </g>
     <g id="line2d_36">
      <g>
       <use xlink:href="#m4688543e0e" x="711.950884" y="381.765946" style="stroke: #000000; stroke-width: 0.8"/>
      </g>
     </g>
     <g id="text_20">
      <!-- 5 -->
      <g transform="translate(708.769634 396.364384) scale(0.1 -0.1)">
       <use xlink:href="#DejaVuSans-35"/>
      </g>
     </g>
    </g>
    <g id="xtick_14">
     <g id="line2d_37">
      <path d="M 834.562964 381.765946 
L 834.562964 259.422421 
" clip-path="url(#p226cb26a6b)" style="fill: none; stroke: #b0b0b0; stroke-width: 0.8; stroke-linecap: square"/>
     </g>
     <g id="line2d_38">
      <g>
       <use xlink:href="#m4688543e0e" x="834.562964" y="381.765946" style="stroke: #000000; stroke-width: 0.8"/>
      </g>
     </g>
     <g id="text_21">
      <!-- 6 -->
      <g transform="translate(831.381714 396.364384) scale(0.1 -0.1)">
       <use xlink:href="#DejaVuSans-36"/>
      </g>
     </g>
    </g>
   </g>
   <g id="matplotlib.axis_4">
    <g id="ytick_4">
     <g id="line2d_39">
      <path d="M 65.54 360.911937 
L 853.2 360.911937 
" clip-path="url(#p226cb26a6b)" style="fill: none; stroke: #b0b0b0; stroke-width: 0.8; stroke-linecap: square"/>
     </g>
     <g id="line2d_40">
      <g>
       <use xlink:href="#m50685c4f3c" x="65.54" y="360.911937" style="stroke: #000000; stroke-width: 0.8"/>
      </g>
     </g>
     <g id="text_22">
      <!-- −100 -->
      <g transform="translate(31.072813 364.711155) scale(0.1 -0.1)">
       <defs>
        <path id="DejaVuSans-2212" d="M 678 2272 
L 4684 2272 
L 4684 1741 
L 678 1741 
L 678 2272 
z
" transform="scale(0.015625)"/>
       </defs>
       <use xlink:href="#DejaVuSans-2212"/>
       <use xlink:href="#DejaVuSans-31" transform="translate(83.789062 0)"/>
       <use xlink:href="#DejaVuSans-30" transform="translate(147.412109 0)"/>
       <use xlink:href="#DejaVuSans-30" transform="translate(211.035156 0)"/>
      </g>
     </g>
    </g>
    <g id="ytick_5">
     <g id="line2d_41">
      <path d="M 65.54 337.740814 
L 853.2 337.740814 
" clip-path="url(#p226cb26a6b)" style="fill: none; stroke: #b0b0b0; stroke-width: 0.8; stroke-linecap: square"/>
     </g>
     <g id="line2d_42">
      <g>
       <use xlink:href="#m50685c4f3c" x="65.54" y="337.740814" style="stroke: #000000; stroke-width: 0.8"/>
      </g>
     </g>
     <g id="text_23">
      <!-- −75 -->
      <g transform="translate(37.435313 341.540033) scale(0.1 -0.1)">
       <defs>
        <path id="DejaVuSans-37" d="M 525 4666 
L 3525 4666 
L 3525 4397 
L 1831 0 
L 1172 0 
L 2766 4134 
L 525 4134 
L 525 4666 
z
" transform="scale(0.015625)"/>
       </defs>
       <use xlink:href="#DejaVuSans-2212"/>
       <use xlink:href="#DejaVuSans-37" transform="translate(83.789062 0)"/>
       <use xlink:href="#DejaVuSans-35" transform="translate(147.412109 0)"/>
      </g>
     </g>
    </g>
    <g id="ytick_6">
     <g id="line2d_43">
      <path d="M 65.54 314.569692 
L 853.2 314.569692 
" clip-path="url(#p226cb26a6b)" style="fill: none; stroke: #b0b0b0; stroke-width: 0.8; stroke-linecap: square"/>
     </g>
     <g id="line2d_44">
      <g>
       <use xlink:href="#m50685c4f3c" x="65.54" y="314.569692" style="stroke: #000000; stroke-width: 0.8"/>
      </g>
     </g>
     <g id="text_24">
      <!-- −50 -->
      <g transform="translate(37.435313 318.368911) scale(0.1 -0.1)">
       <use xlink:href="#DejaVuSans-2212"/>
       <use xlink:href="#DejaVuSans-35" transform="translate(83.789062 0)"/>
       <use xlink:href="#DejaVuSans-30" transform="translate(147.412109 0)"/>
      </g>
     </g>
    </g>
    <g id="ytick_7">
     <g id="line2d_45">
      <path d="M 65.54 291.39857 
L 853.2 291.39857 
" clip-path="url(#p226cb26a6b)" style="fill: none; stroke: #b0b0b0; stroke-width: 0.8; stroke-linecap: square"/>
     </g>
     <g id="line2d_46">
      <g>
       <use xlink:href="#m50685c4f3c" x="65.54" y="291.39857" style="stroke: #000000; stroke-width: 0.8"/>
      </g>
     </g>
     <g id="text_25">
      <!-- −25 -->
      <g transform="translate(37.435313 295.197789) scale(0.1 -0.1)">
       <use xlink:href="#DejaVuSans-2212"/>
       <use xlink:href="#DejaVuSans-32" transform="translate(83.789062 0)"/>
       <use xlink:href="#DejaVuSans-35" transform="translate(147.412109 0)"/>
      </g>
     </g>
    </g>
    <g id="ytick_8">
     <g id="line2d_47">
      <path d="M 65.54 268.227448 
L 853.2 268.227448 
" clip-path="url(#p226cb26a6b)" style="fill: none; stroke: #b0b0b0; stroke-width: 0.8; stroke-linecap: square"/>
     </g>
     <g id="line2d_48">
      <g>
       <use xlink:href="#m50685c4f3c" x="65.54" y="268.227448" style="stroke: #000000; stroke-width: 0.8"/>
      </g>
     </g>
     <g id="text_26">
      <!-- 0 -->
      <g transform="translate(52.1775 272.026667) scale(0.1 -0.1)">
       <use xlink:href="#DejaVuSans-30"/>
      </g>
     </g>
    </g>
    <g id="text_27">
     <!-- v -->
     <g transform="translate(24.993125 323.553559) rotate(-90) scale(0.1 -0.1)">
      <defs>
       <path id="DejaVuSans-76" d="M 191 3500 
L 800 3500 
L 1894 563 
L 2988 3500 
L 3597 3500 
L 2284 0 
L 1503 0 
L 191 3500 
z
" transform="scale(0.015625)"/>
      </defs>
      <use xlink:href="#DejaVuSans-76"/>
     </g>
    </g>
   </g>
   <g id="line2d_49">
    <path d="M 101.342727 269.617715 
L 103.794969 267.300603 
L 106.24721 268.227448 
L 113.603935 268.227448 
L 116.056177 267.764025 
L 118.508418 269.617715 
L 120.96066 267.300603 
L 123.412902 268.227448 
L 125.865143 267.764025 
L 128.317385 269.154293 
L 130.769626 268.69087 
L 133.221868 267.300603 
L 135.67411 268.227448 
L 138.126351 268.227448 
L 140.578593 267.764025 
L 143.030834 269.617715 
L 145.483076 267.300603 
L 147.935318 268.227448 
L 152.839801 268.227448 
L 155.292042 267.764025 
L 157.744284 269.617715 
L 160.196526 267.300603 
L 162.648767 267.764025 
L 165.101009 269.154293 
L 167.55325 268.227448 
L 170.005492 268.69087 
L 172.457733 266.83718 
L 174.909975 269.154293 
L 177.362217 268.227448 
L 179.814458 268.69087 
L 182.2667 267.300603 
L 184.718941 267.764025 
L 187.171183 269.154293 
L 189.623425 268.227448 
L 194.527908 268.227448 
L 196.980149 268.69087 
L 201.884633 270.54456 
L 204.336874 270.54456 
L 206.789116 271.007982 
L 209.241357 270.081138 
L 211.693599 271.934827 
L 214.145841 269.617715 
L 216.598082 270.54456 
L 219.050324 271.934827 
L 221.502565 269.617715 
L 223.954807 270.081138 
L 226.407049 271.934827 
L 228.85929 271.934827 
L 231.311532 272.39825 
L 233.763773 276.569052 
L 236.216015 273.788517 
L 238.668257 273.788517 
L 241.120498 276.569052 
L 246.024981 280.276431 
L 248.477223 279.349586 
L 250.929465 281.666699 
L 253.381706 282.593544 
L 255.833948 282.593544 
L 258.286189 285.374078 
L 260.738431 283.056966 
L 263.190672 284.910656 
L 265.642914 285.374078 
L 268.095156 287.227768 
L 270.547397 287.227768 
L 272.999639 290.935148 
L 275.45188 288.154613 
L 277.904122 291.861992 
L 280.356364 293.25226 
L 282.808605 293.715682 
L 285.260847 301.130441 
L 287.713088 299.276752 
L 290.16533 301.130441 
L 292.617572 314.10627 
L 295.069813 307.618356 
L 297.522055 311.325735 
L 299.974296 302.984131 
L 302.426538 321.984451 
L 304.87878 316.423382 
L 307.331021 314.10627 
L 309.783263 318.740494 
L 312.235504 325.228408 
L 314.687746 327.082098 
L 317.139988 328.008943 
L 319.592229 325.228408 
L 322.044471 339.131082 
L 324.496712 340.984771 
L 326.948954 343.765306 
L 329.401196 338.204237 
L 331.853437 357.204557 
L 334.305679 350.25322 
L 336.75792 360.448514 
L 339.210162 360.911937 
L 341.662403 368.790118 
L 344.114645 369.253541 
L 346.566887 372.497498 
L 349.019128 376.204877 
L 351.47137 375.741455 
L 353.923611 373.424343 
L 356.375853 375.278032 
L 358.828095 372.034075 
L 361.280336 369.716963 
L 363.732578 369.253541 
L 368.637061 367.399851 
L 371.089303 363.229049 
L 373.541544 363.692471 
L 375.993786 362.765626 
L 378.446027 361.375359 
L 380.898269 359.058247 
L 383.350511 359.058247 
L 385.802752 357.204557 
L 388.254994 356.277712 
L 390.707235 353.9606 
L 393.159477 353.9606 
L 395.611719 352.570333 
L 398.06396 350.25322 
L 400.516202 350.25322 
L 402.968443 348.399531 
L 405.420685 347.472686 
L 407.872927 345.618996 
L 410.325168 345.155573 
L 412.77741 344.228729 
L 415.229651 343.765306 
L 417.681893 340.984771 
L 420.134134 340.521349 
L 422.586376 338.667659 
L 425.038618 337.740814 
L 427.490859 335.423702 
L 429.943101 335.423702 
L 432.395342 334.033435 
L 434.847584 332.179745 
L 437.299826 331.716323 
L 439.752067 328.008943 
L 442.204309 328.472365 
L 444.65655 327.082098 
L 447.108792 327.082098 
L 449.561034 324.764986 
L 452.013275 323.374719 
L 454.465517 323.838141 
L 456.917758 320.594184 
L 459.37 320.594184 
L 461.822242 318.740494 
L 464.274483 317.813649 
L 466.726725 315.95996 
L 469.178966 315.033115 
L 471.631208 312.716002 
L 474.08345 312.25258 
L 478.987933 309.472045 
L 481.440174 309.472045 
L 483.892416 307.154933 
L 486.344658 306.691511 
L 488.796899 305.764666 
L 491.249141 304.374398 
L 493.701382 302.520709 
L 496.153624 302.520709 
L 498.605866 302.057286 
L 501.058107 300.667019 
L 505.96259 299.740174 
L 508.414832 297.886484 
L 510.867073 296.959639 
L 513.319315 295.569372 
L 515.771557 294.642527 
L 518.223798 292.325415 
L 520.67604 291.39857 
L 523.128281 289.081458 
L 525.580523 289.081458 
L 528.032765 287.227768 
L 530.485006 286.764346 
L 535.389489 284.910656 
L 537.841731 284.447233 
L 540.293973 282.593544 
L 542.746214 282.130121 
L 545.198456 278.422742 
L 547.650697 277.959319 
L 550.102939 278.422742 
L 552.555181 277.032474 
L 555.007422 276.105629 
L 557.459664 275.642207 
L 559.911905 275.642207 
L 562.364147 273.788517 
L 564.816389 272.39825 
L 567.26863 271.471405 
L 569.720872 271.471405 
L 572.173113 269.154293 
L 574.625355 267.300603 
L 577.077597 268.227448 
L 579.529838 268.227448 
L 581.98208 267.300603 
L 584.434321 269.154293 
L 589.338804 267.300603 
L 594.243288 269.154293 
L 596.695529 267.300603 
L 599.147771 269.154293 
L 601.600012 267.300603 
L 604.052254 269.154293 
L 606.504496 267.300603 
L 608.956737 267.300603 
L 611.408979 269.154293 
L 616.313462 267.300603 
L 618.765704 268.227448 
L 623.670187 268.227448 
L 626.122428 269.154293 
L 628.57467 267.300603 
L 631.026912 268.227448 
L 638.383636 268.227448 
L 640.835878 269.154293 
L 643.28812 268.227448 
L 645.740361 268.227448 
L 648.192603 269.154293 
L 650.644844 267.300603 
L 653.097086 269.617715 
L 655.549328 270.081138 
L 658.001569 269.154293 
L 660.453811 269.154293 
L 662.906052 268.227448 
L 697.237435 268.227448 
L 699.689676 267.764025 
L 702.141918 269.154293 
L 704.594159 268.227448 
L 709.498643 268.227448 
L 711.950884 269.154293 
L 714.403126 268.227448 
L 719.307609 268.227448 
L 721.759851 267.764025 
L 724.212092 271.934827 
L 726.664334 264.983491 
L 729.116575 267.300603 
L 734.021059 268.227448 
L 783.06589 268.227448 
L 785.518132 267.300603 
L 787.970374 268.227448 
L 802.683823 268.227448 
L 805.136065 269.154293 
L 807.588306 268.227448 
L 812.49279 268.227448 
L 814.945031 267.764025 
L 817.397273 269.154293 
L 817.397273 269.154293 
" clip-path="url(#p226cb26a6b)" style="fill: none; stroke: #008000; stroke-width: 1.5; stroke-linecap: square"/>
   </g>
   <g id="line2d_50">
    <path d="M 349.019128 381.765946 
L 349.019128 259.422421 
" clip-path="url(#p226cb26a6b)" style="fill: none; stroke-dasharray: 5.55,2.4; stroke-dashoffset: 0; stroke: #ff0000; stroke-opacity: 0.5; stroke-width: 1.5"/>
   </g>
   <g id="line2d_51">
    <path d="M 731.568817 381.765946 
L 731.568817 259.422421 
" clip-path="url(#p226cb26a6b)" style="fill: none; stroke-dasharray: 1.5,2.475; stroke-dashoffset: 0; stroke: #bf00bf; stroke-opacity: 0.7; stroke-width: 1.5"/>
   </g>
   <g id="patch_9">
    <path d="M 65.54 381.765946 
L 65.54 259.422421 
" style="fill: none; stroke: #000000; stroke-width: 0.8; stroke-linejoin: miter; stroke-linecap: square"/>
   </g>
   <g id="patch_10">
    <path d="M 853.2 381.765946 
L 853.2 259.422421 
" style="fill: none; stroke: #000000; stroke-width: 0.8; stroke-linejoin: miter; stroke-linecap: square"/>
   </g>
   <g id="patch_11">
    <path d="M 65.54 381.765946 
L 853.2 381.765946 
" style="fill: none; stroke: #000000; stroke-width: 0.8; stroke-linejoin: miter; stroke-linecap: square"/>
   </g>
   <g id="patch_12">
    <path d="M 65.54 259.422421 
L 853.2 259.422421 
" style="fill: none; stroke: #000000; stroke-width: 0.8; stroke-linejoin: miter; stroke-linecap: square"/>
   </g>
   <g id="legend_2">
    <g id="patch_13">
     <path d="M 778.98125 282.100546 
L 846.2 282.100546 
Q 848.2 282.100546 848.2 280.100546 
L 848.2 266.422421 
Q 848.2 264.422421 846.2 264.422421 
L 778.98125 264.422421 
Q 776.98125 264.422421 776.98125 266.422421 
L 776.98125 280.100546 
Q 776.98125 282.100546 778.98125 282.100546 
z
" style="fill: #ffffff; opacity: 0.8; stroke: #cccccc; stroke-linejoin: miter"/>
    </g>
    <g id="line2d_52">
     <path d="M 780.98125 272.520859 
L 790.98125 272.520859 
L 800.98125 272.520859 
" style="fill: none; stroke: #008000; stroke-width: 1.5; stroke-linecap: square"/>
    </g>
    <g id="text_28">
     <!-- v (m/s) -->
     <g transform="translate(808.98125 276.020859) scale(0.1 -0.1)">
      <defs>
       <path id="DejaVuSans-2f" d="M 1625 4666 
L 2156 4666 
L 531 -594 
L 0 -594 
L 1625 4666 
z
" transform="scale(0.015625)"/>
      </defs>
      <use xlink:href="#DejaVuSans-76"/>
      <use xlink:href="#DejaVuSans-20" transform="translate(59.179688 0)"/>
      <use xlink:href="#DejaVuSans-28" transform="translate(90.966797 0)"/>
      <use xlink:href="#DejaVuSans-6d" transform="translate(129.980469 0)"/>
      <use xlink:href="#DejaVuSans-2f" transform="translate(227.392578 0)"/>
      <use xlink:href="#DejaVuSans-73" transform="translate(261.083984 0)"/>
      <use xlink:href="#DejaVuSans-29" transform="translate(313.183594 0)"/>
     </g>
    </g>
   </g>
  </g>
  <g id="axes_3">
   <g id="patch_14">
    <path d="M 65.54 534.04 
L 853.2 534.04 
L 853.2 411.696475 
L 65.54 411.696475 
z
" style="fill: #ffffff"/>
   </g>
   <g id="matplotlib.axis_5">
    <g id="xtick_15">
     <g id="line2d_53">
      <path d="M 96.42139 534.04 
L 96.42139 411.696475 
" clip-path="url(#pac19438cbe)" style="fill: none; stroke: #b0b0b0; stroke-width: 0.8; stroke-linecap: square"/>
     </g>
     <g id="line2d_54">
      <g>
       <use xlink:href="#m4688543e0e" x="96.42139" y="534.04" style="stroke: #000000; stroke-width: 0.8"/>
      </g>
     </g>
     <g id="text_29">
      <!-- 0 -->
      <g transform="translate(93.24014 548.638438) scale(0.1 -0.1)">
       <use xlink:href="#DejaVuSans-30"/>
      </g>
     </g>
    </g>
    <g id="xtick_16">
     <g id="line2d_55">
      <path d="M 219.454817 534.04 
L 219.454817 411.696475 
" clip-path="url(#pac19438cbe)" style="fill: none; stroke: #b0b0b0; stroke-width: 0.8; stroke-linecap: square"/>
     </g>
     <g id="line2d_56">
      <g>
       <use xlink:href="#m4688543e0e" x="219.454817" y="534.04" style="stroke: #000000; stroke-width: 0.8"/>
      </g>
     </g>
     <g id="text_30">
      <!-- 1 -->
      <g transform="translate(216.273567 548.638438) scale(0.1 -0.1)">
       <use xlink:href="#DejaVuSans-31"/>
      </g>
     </g>
    </g>
    <g id="xtick_17">
     <g id="line2d_57">
      <path d="M 342.488244 534.04 
L 342.488244 411.696475 
" clip-path="url(#pac19438cbe)" style="fill: none; stroke: #b0b0b0; stroke-width: 0.8; stroke-linecap: square"/>
     </g>
     <g id="line2d_58">
      <g>
       <use xlink:href="#m4688543e0e" x="342.488244" y="534.04" style="stroke: #000000; stroke-width: 0.8"/>
      </g>
     </g>
     <g id="text_31">
      <!-- 2 -->
      <g transform="translate(339.306994 548.638438) scale(0.1 -0.1)">
       <use xlink:href="#DejaVuSans-32"/>
      </g>
     </g>
    </g>
    <g id="xtick_18">
     <g id="line2d_59">
      <path d="M 465.521671 534.04 
L 465.521671 411.696475 
" clip-path="url(#pac19438cbe)" style="fill: none; stroke: #b0b0b0; stroke-width: 0.8; stroke-linecap: square"/>
     </g>
     <g id="line2d_60">
      <g>
       <use xlink:href="#m4688543e0e" x="465.521671" y="534.04" style="stroke: #000000; stroke-width: 0.8"/>
      </g>
     </g>
     <g id="text_32">
      <!-- 3 -->
      <g transform="translate(462.340421 548.638438) scale(0.1 -0.1)">
       <use xlink:href="#DejaVuSans-33"/>
      </g>
     </g>
    </g>
    <g id="xtick_19">
     <g id="line2d_61">
      <path d="M 588.555098 534.04 
L 588.555098 411.696475 
" clip-path="url(#pac19438cbe)" style="fill: none; stroke: #b0b0b0; stroke-width: 0.8; stroke-linecap: square"/>
     </g>
     <g id="line2d_62">
      <g>
       <use xlink:href="#m4688543e0e" x="588.555098" y="534.04" style="stroke: #000000; stroke-width: 0.8"/>
      </g>
     </g>
     <g id="text_33">
      <!-- 4 -->
      <g transform="translate(585.373848 548.638438) scale(0.1 -0.1)">
       <use xlink:href="#DejaVuSans-34"/>
      </g>
     </g>
    </g>
    <g id="xtick_20">
     <g id="line2d_63">
      <path d="M 711.588525 534.04 
L 711.588525 411.696475 
" clip-path="url(#pac19438cbe)" style="fill: none; stroke: #b0b0b0; stroke-width: 0.8; stroke-linecap: square"/>
     </g>
     <g id="line2d_64">
      <g>
       <use xlink:href="#m4688543e0e" x="711.588525" y="534.04" style="stroke: #000000; stroke-width: 0.8"/>
      </g>
     </g>
     <g id="text_34">
      <!-- 5 -->
      <g transform="translate(708.407275 548.638438) scale(0.1 -0.1)">
       <use xlink:href="#DejaVuSans-35"/>
      </g>
     </g>
    </g>
    <g id="xtick_21">
     <g id="line2d_65">
      <path d="M 834.621953 534.04 
L 834.621953 411.696475 
" clip-path="url(#pac19438cbe)" style="fill: none; stroke: #b0b0b0; stroke-width: 0.8; stroke-linecap: square"/>
     </g>
     <g id="line2d_66">
      <g>
       <use xlink:href="#m4688543e0e" x="834.621953" y="534.04" style="stroke: #000000; stroke-width: 0.8"/>
      </g>
     </g>
     <g id="text_35">
      <!-- 6 -->
      <g transform="translate(831.440703 548.638438) scale(0.1 -0.1)">
       <use xlink:href="#DejaVuSans-36"/>
      </g>
     </g>
    </g>
    <g id="text_36">
     <!-- t -->
     <g transform="translate(457.409844 562.316562) scale(0.1 -0.1)">
      <defs>
       <path id="DejaVuSans-74" d="M 1172 4494 
L 1172 3500 
L 2356 3500 
L 2356 3053 
L 1172 3053 
L 1172 1153 
Q 1172 725 1289 603 
Q 1406 481 1766 481 
L 2356 481 
L 2356 0 
L 1766 0 
Q 1100 0 847 248 
Q 594 497 594 1153 
L 594 3053 
L 172 3053 
L 172 3500 
L 594 3500 
L 594 4494 
L 1172 4494 
z
" transform="scale(0.015625)"/>
      </defs>
      <use xlink:href="#DejaVuSans-74"/>
     </g>
    </g>
   </g>
   <g id="matplotlib.axis_6">
    <g id="ytick_9">
     <g id="line2d_67">
      <path d="M 65.54 526.593822 
L 853.2 526.593822 
" clip-path="url(#pac19438cbe)" style="fill: none; stroke: #b0b0b0; stroke-width: 0.8; stroke-linecap: square"/>
     </g>
     <g id="line2d_68">
      <g>
       <use xlink:href="#m50685c4f3c" x="65.54" y="526.593822" style="stroke: #000000; stroke-width: 0.8"/>
      </g>
     </g>
     <g id="text_37">
      <!-- −1000 -->
      <g transform="translate(24.710313 530.393041) scale(0.1 -0.1)">
       <use xlink:href="#DejaVuSans-2212"/>
       <use xlink:href="#DejaVuSans-31" transform="translate(83.789062 0)"/>
       <use xlink:href="#DejaVuSans-30" transform="translate(147.412109 0)"/>
       <use xlink:href="#DejaVuSans-30" transform="translate(211.035156 0)"/>
       <use xlink:href="#DejaVuSans-30" transform="translate(274.658203 0)"/>
      </g>
     </g>
    </g>
    <g id="ytick_10">
     <g id="line2d_69">
      <path d="M 65.54 488.891658 
L 853.2 488.891658 
" clip-path="url(#pac19438cbe)" style="fill: none; stroke: #b0b0b0; stroke-width: 0.8; stroke-linecap: square"/>
     </g>
     <g id="line2d_70">
      <g>
       <use xlink:href="#m50685c4f3c" x="65.54" y="488.891658" style="stroke: #000000; stroke-width: 0.8"/>
      </g>
     </g>
     <g id="text_38">
      <!-- −500 -->
      <g transform="translate(31.072813 492.690876) scale(0.1 -0.1)">
       <use xlink:href="#DejaVuSans-2212"/>
       <use xlink:href="#DejaVuSans-35" transform="translate(83.789062 0)"/>
       <use xlink:href="#DejaVuSans-30" transform="translate(147.412109 0)"/>
       <use xlink:href="#DejaVuSans-30" transform="translate(211.035156 0)"/>
      </g>
     </g>
    </g>
    <g id="ytick_11">
     <g id="line2d_71">
      <path d="M 65.54 451.189493 
L 853.2 451.189493 
" clip-path="url(#pac19438cbe)" style="fill: none; stroke: #b0b0b0; stroke-width: 0.8; stroke-linecap: square"/>
     </g>
     <g id="line2d_72">
      <g>
       <use xlink:href="#m50685c4f3c" x="65.54" y="451.189493" style="stroke: #000000; stroke-width: 0.8"/>
      </g>
     </g>
     <g id="text_39">
      <!-- 0 -->
      <g transform="translate(52.1775 454.988711) scale(0.1 -0.1)">
       <use xlink:href="#DejaVuSans-30"/>
      </g>
     </g>
    </g>
    <g id="ytick_12">
     <g id="line2d_73">
      <path d="M 65.54 413.487328 
L 853.2 413.487328 
" clip-path="url(#pac19438cbe)" style="fill: none; stroke: #b0b0b0; stroke-width: 0.8; stroke-linecap: square"/>
     </g>
     <g id="line2d_74">
      <g>
       <use xlink:href="#m50685c4f3c" x="65.54" y="413.487328" style="stroke: #000000; stroke-width: 0.8"/>
      </g>
     </g>
     <g id="text_40">
      <!-- 500 -->
      <g transform="translate(39.4525 417.286546) scale(0.1 -0.1)">
       <use xlink:href="#DejaVuSans-35"/>
       <use xlink:href="#DejaVuSans-30" transform="translate(63.623047 0)"/>
       <use xlink:href="#DejaVuSans-30" transform="translate(127.246094 0)"/>
      </g>
     </g>
    </g>
    <g id="text_41">
     <!-- a -->
     <g transform="translate(18.630625 475.9323) rotate(-90) scale(0.1 -0.1)">
      <use xlink:href="#DejaVuSans-61"/>
     </g>
    </g>
   </g>
   <g id="line2d_75">
    <path d="M 101.342727 441.763951 
L 103.803396 454.959709 
L 106.264064 451.189493 
L 111.185401 451.189493 
L 113.64607 449.304384 
L 116.106739 458.729926 
L 118.567407 441.763951 
L 121.028076 454.959709 
L 123.488744 449.304384 
L 125.949413 456.844817 
L 128.410081 449.304384 
L 130.87075 445.534168 
L 133.331418 454.959709 
L 135.792087 451.189493 
L 138.252755 449.304384 
L 140.713424 458.729926 
L 143.174092 441.763951 
L 145.634761 454.959709 
L 148.09543 451.189493 
L 150.556098 451.189493 
L 153.016767 449.304384 
L 155.477435 458.729926 
L 157.938104 441.763951 
L 160.398772 453.074601 
L 162.859441 456.844817 
L 165.320109 447.419276 
L 167.780778 453.074601 
L 170.241446 443.64906 
L 172.702115 460.615034 
L 175.162784 447.419276 
L 177.623452 453.074601 
L 180.084121 445.534168 
L 182.544789 453.074601 
L 185.005458 456.844817 
L 187.466126 447.419276 
L 189.926795 451.189493 
L 192.387463 451.189493 
L 197.3088 454.959709 
L 199.769469 454.959709 
L 202.230137 451.189493 
L 204.690806 453.074601 
L 207.151475 447.419276 
L 209.612143 458.729926 
L 212.072812 441.763951 
L 214.53348 454.959709 
L 216.994149 456.844817 
L 219.454817 441.763951 
L 221.915486 453.074601 
L 224.376154 458.729926 
L 226.836823 451.189493 
L 229.297491 453.074601 
L 231.75816 468.155467 
L 234.218828 439.878843 
L 239.140166 462.500142 
L 241.600834 458.729926 
L 244.061503 458.729926 
L 246.522171 447.419276 
L 248.98284 460.615034 
L 251.443508 454.959709 
L 253.904177 451.189493 
L 256.364845 462.500142 
L 258.825514 441.763951 
L 261.286182 458.729926 
L 263.746851 453.074601 
L 266.20752 458.729926 
L 268.668188 451.189493 
L 271.128857 466.270359 
L 273.589525 439.878843 
L 276.050194 466.270359 
L 278.510862 456.844817 
L 280.971531 453.074601 
L 283.432199 481.351225 
L 285.892868 443.64906 
L 288.353536 458.729926 
L 290.814205 503.972523 
L 293.274873 424.797977 
L 295.735542 466.270359 
L 298.196211 417.257544 
L 300.656879 528.478931 
L 303.117548 428.568194 
L 305.578216 441.763951 
L 308.038885 470.040575 
L 310.499553 477.581008 
L 312.960222 458.729926 
L 315.42089 454.959709 
L 317.881559 439.878843 
L 320.342227 507.74274 
L 322.802896 458.729926 
L 325.263565 462.500142 
L 327.724233 428.568194 
L 330.184902 528.478931 
L 332.64557 422.912869 
L 335.106239 492.661874 
L 337.566907 453.074601 
L 340.027576 483.236333 
L 342.488244 453.074601 
L 344.948913 464.38525 
L 347.409581 466.270359 
L 349.87025 449.304384 
L 352.330918 441.763951 
L 354.791587 458.729926 
L 357.252256 437.993735 
L 359.712924 441.763951 
L 362.173593 449.304384 
L 364.634261 447.419276 
L 367.09493 447.419276 
L 369.555598 434.223518 
L 372.016267 453.074601 
L 374.476935 447.419276 
L 376.937604 445.534168 
L 379.398272 441.763951 
L 381.858941 451.189493 
L 384.319609 443.64906 
L 386.780278 447.419276 
L 389.240947 441.763951 
L 391.701615 451.189493 
L 394.162284 445.534168 
L 396.622952 441.763951 
L 399.083621 451.189493 
L 401.544289 443.64906 
L 404.004958 447.419276 
L 406.465626 443.64906 
L 408.926295 449.304384 
L 411.386963 447.419276 
L 413.847632 449.304384 
L 416.308301 439.878843 
L 418.768969 449.304384 
L 421.229638 443.64906 
L 423.690306 447.419276 
L 426.150975 441.763951 
L 428.611643 451.189493 
L 431.072312 445.534168 
L 433.53298 443.64906 
L 435.993649 449.304384 
L 438.454317 436.108627 
L 440.914986 453.074601 
L 443.375654 445.534168 
L 445.836323 451.189493 
L 448.296992 441.763951 
L 450.75766 445.534168 
L 453.218329 453.074601 
L 455.678997 437.993735 
L 458.139666 451.189493 
L 460.600334 443.64906 
L 463.061003 447.419276 
L 465.521671 443.64906 
L 467.98234 447.419276 
L 470.443008 441.763951 
L 472.903677 449.304384 
L 475.364346 445.534168 
L 477.825014 445.534168 
L 480.285683 451.189493 
L 482.746351 441.763951 
L 485.20702 449.304384 
L 492.589025 443.64906 
L 495.049694 451.189493 
L 497.510362 449.304384 
L 499.971031 445.534168 
L 502.431699 449.304384 
L 504.892368 449.304384 
L 507.353037 443.64906 
L 509.813705 447.419276 
L 512.274374 445.534168 
L 514.735042 447.419276 
L 517.195711 441.763951 
L 519.656379 447.419276 
L 522.117048 441.763951 
L 524.577716 451.189493 
L 527.038385 443.64906 
L 529.499053 449.304384 
L 531.959722 447.419276 
L 534.420391 447.419276 
L 536.881059 449.304384 
L 539.341728 443.64906 
L 541.802396 449.304384 
L 544.263065 436.108627 
L 546.723733 449.304384 
L 549.184402 453.074601 
L 551.64507 445.534168 
L 559.027076 451.189493 
L 561.487744 443.64906 
L 566.409082 447.419276 
L 568.86975 451.189493 
L 571.330419 441.763951 
L 573.791087 443.64906 
L 576.251756 454.959709 
L 581.173093 447.419276 
L 583.633761 458.729926 
L 586.09443 447.419276 
L 588.555098 447.419276 
L 591.015767 454.959709 
L 593.476435 454.959709 
L 595.937104 443.64906 
L 598.397773 458.729926 
L 600.858441 443.64906 
L 603.31911 458.729926 
L 605.779778 443.64906 
L 610.701115 458.729926 
L 613.161784 447.419276 
L 615.622452 447.419276 
L 618.083121 454.959709 
L 620.543789 451.189493 
L 623.004458 451.189493 
L 625.465127 454.959709 
L 627.925795 443.64906 
L 630.386464 454.959709 
L 632.847132 451.189493 
L 637.768469 451.189493 
L 640.229138 454.959709 
L 642.689806 447.419276 
L 647.611143 454.959709 
L 650.071812 443.64906 
L 652.53248 460.615034 
L 654.993149 453.074601 
L 657.453818 447.419276 
L 659.914486 451.189493 
L 662.375155 447.419276 
L 664.835823 451.189493 
L 696.824514 451.189493 
L 699.285183 449.304384 
L 701.745851 456.844817 
L 704.20652 447.419276 
L 706.667188 451.189493 
L 709.127857 451.189493 
L 711.588525 454.959709 
L 714.049194 447.419276 
L 716.509863 451.189493 
L 718.970531 451.189493 
L 721.4312 449.304384 
L 723.891868 468.155467 
L 726.352537 422.912869 
L 728.813205 460.615034 
L 731.273874 453.074601 
L 733.734542 453.074601 
L 736.195211 451.189493 
L 782.947913 451.189493 
L 785.408582 447.419276 
L 787.86925 454.959709 
L 790.329919 451.189493 
L 802.633261 451.189493 
L 805.09393 454.959709 
L 807.554599 447.419276 
L 810.015267 451.189493 
L 812.475936 451.189493 
L 814.936604 449.304384 
L 817.397273 456.844817 
L 817.397273 456.844817 
" clip-path="url(#pac19438cbe)" style="fill: none; stroke: #ff0000; stroke-width: 1.5; stroke-linecap: square"/>
   </g>
   <g id="line2d_76">
    <path d="M 347.409581 534.04 
L 347.409581 411.696475 
" clip-path="url(#pac19438cbe)" style="fill: none; stroke-dasharray: 5.55,2.4; stroke-dashoffset: 0; stroke: #ff0000; stroke-opacity: 0.5; stroke-width: 1.5"/>
   </g>
   <g id="line2d_77">
    <path d="M 731.273874 534.04 
L 731.273874 411.696475 
" clip-path="url(#pac19438cbe)" style="fill: none; stroke-dasharray: 5.55,2.4; stroke-dashoffset: 0; stroke: #bf00bf; stroke-opacity: 0.7; stroke-width: 1.5"/>
   </g>
   <g id="patch_15">
    <path d="M 65.54 534.04 
L 65.54 411.696475 
" style="fill: none; stroke: #000000; stroke-width: 0.8; stroke-linejoin: miter; stroke-linecap: square"/>
   </g>
   <g id="patch_16">
    <path d="M 853.2 534.04 
L 853.2 411.696475 
" style="fill: none; stroke: #000000; stroke-width: 0.8; stroke-linejoin: miter; stroke-linecap: square"/>
   </g>
   <g id="patch_17">
    <path d="M 65.54 534.04 
L 853.2 534.04 
" style="fill: none; stroke: #000000; stroke-width: 0.8; stroke-linejoin: miter; stroke-linecap: square"/>
   </g>
   <g id="patch_18">
    <path d="M 65.54 411.696475 
L 853.2 411.696475 
" style="fill: none; stroke: #000000; stroke-width: 0.8; stroke-linejoin: miter; stroke-linecap: square"/>
   </g>
   <g id="legend_3">
    <g id="patch_19">
     <path d="M 764.029688 434.3746 
L 846.2 434.3746 
Q 848.2 434.3746 848.2 432.3746 
L 848.2 418.696475 
Q 848.2 416.696475 846.2 416.696475 
L 764.029688 416.696475 
Q 762.029688 416.696475 762.029688 418.696475 
L 762.029688 432.3746 
Q 762.029688 434.3746 764.029688 434.3746 
z
" style="fill: #ffffff; opacity: 0.8; stroke: #cccccc; stroke-linejoin: miter"/>
    </g>
    <g id="line2d_78">
     <path d="M 766.029688 424.794912 
L 776.029688 424.794912 
L 786.029688 424.794912 
" style="fill: none; stroke: #ff0000; stroke-width: 1.5; stroke-linecap: square"/>
    </g>
    <g id="text_42">
     <!-- a (m/s^2) -->
     <g transform="translate(794.029688 428.294912) scale(0.1 -0.1)">
      <defs>
       <path id="DejaVuSans-5e" d="M 2988 4666 
L 4684 2925 
L 4056 2925 
L 2681 4159 
L 1306 2925 
L 678 2925 
L 2375 4666 
L 2988 4666 
z
" transform="scale(0.015625)"/>
      </defs>
      <use xlink:href="#DejaVuSans-61"/>
      <use xlink:href="#DejaVuSans-20" transform="translate(61.279297 0)"/>
      <use xlink:href="#DejaVuSans-28" transform="translate(93.066406 0)"/>
      <use xlink:href="#DejaVuSans-6d" transform="translate(132.080078 0)"/>
      <use xlink:href="#DejaVuSans-2f" transform="translate(229.492188 0)"/>
      <use xlink:href="#DejaVuSans-73" transform="translate(263.183594 0)"/>
      <use xlink:href="#DejaVuSans-5e" transform="translate(315.283203 0)"/>
      <use xlink:href="#DejaVuSans-32" transform="translate(399.072266 0)"/>
      <use xlink:href="#DejaVuSans-29" transform="translate(462.695312 0)"/>
     </g>
    </g>
   </g>
  </g>
  <g id="text_43">
   <!-- Position, Velocity, and Acceleration of Cart Using Sonar run 3# Data -->
   <g transform="translate(227.715937 11.998125) scale(0.12 -0.12)">
    <defs>
     <path id="DejaVuSans-50" d="M 1259 4147 
L 1259 2394 
L 2053 2394 
Q 2494 2394 2734 2622 
Q 2975 2850 2975 3272 
Q 2975 3691 2734 3919 
Q 2494 4147 2053 4147 
L 1259 4147 
z
M 628 4666 
L 2053 4666 
Q 2838 4666 3239 4311 
Q 3641 3956 3641 3272 
Q 3641 2581 3239 2228 
Q 2838 1875 2053 1875 
L 1259 1875 
L 1259 0 
L 628 0 
L 628 4666 
z
" transform="scale(0.015625)"/>
     <path id="DejaVuSans-6f" d="M 1959 3097 
Q 1497 3097 1228 2736 
Q 959 2375 959 1747 
Q 959 1119 1226 758 
Q 1494 397 1959 397 
Q 2419 397 2687 759 
Q 2956 1122 2956 1747 
Q 2956 2369 2687 2733 
Q 2419 3097 1959 3097 
z
M 1959 3584 
Q 2709 3584 3137 3096 
Q 3566 2609 3566 1747 
Q 3566 888 3137 398 
Q 2709 -91 1959 -91 
Q 1206 -91 779 398 
Q 353 888 353 1747 
Q 353 2609 779 3096 
Q 1206 3584 1959 3584 
z
" transform="scale(0.015625)"/>
     <path id="DejaVuSans-69" d="M 603 3500 
L 1178 3500 
L 1178 0 
L 603 0 
L 603 3500 
z
M 603 4863 
L 1178 4863 
L 1178 4134 
L 603 4134 
L 603 4863 
z
" transform="scale(0.015625)"/>
     <path id="DejaVuSans-6e" d="M 3513 2113 
L 3513 0 
L 2938 0 
L 2938 2094 
Q 2938 2591 2744 2837 
Q 2550 3084 2163 3084 
Q 1697 3084 1428 2787 
Q 1159 2491 1159 1978 
L 1159 0 
L 581 0 
L 581 3500 
L 1159 3500 
L 1159 2956 
Q 1366 3272 1645 3428 
Q 1925 3584 2291 3584 
Q 2894 3584 3203 3211 
Q 3513 2838 3513 2113 
z
" transform="scale(0.015625)"/>
     <path id="DejaVuSans-56" d="M 1831 0 
L 50 4666 
L 709 4666 
L 2188 738 
L 3669 4666 
L 4325 4666 
L 2547 0 
L 1831 0 
z
" transform="scale(0.015625)"/>
     <path id="DejaVuSans-65" d="M 3597 1894 
L 3597 1613 
L 953 1613 
Q 991 1019 1311 708 
Q 1631 397 2203 397 
Q 2534 397 2845 478 
Q 3156 559 3463 722 
L 3463 178 
Q 3153 47 2828 -22 
Q 2503 -91 2169 -91 
Q 1331 -91 842 396 
Q 353 884 353 1716 
Q 353 2575 817 3079 
Q 1281 3584 2069 3584 
Q 2775 3584 3186 3129 
Q 3597 2675 3597 1894 
z
M 3022 2063 
Q 3016 2534 2758 2815 
Q 2500 3097 2075 3097 
Q 1594 3097 1305 2825 
Q 1016 2553 972 2059 
L 3022 2063 
z
" transform="scale(0.015625)"/>
     <path id="DejaVuSans-6c" d="M 603 4863 
L 1178 4863 
L 1178 0 
L 603 0 
L 603 4863 
z
" transform="scale(0.015625)"/>
     <path id="DejaVuSans-63" d="M 3122 3366 
L 3122 2828 
Q 2878 2963 2633 3030 
Q 2388 3097 2138 3097 
Q 1578 3097 1268 2742 
Q 959 2388 959 1747 
Q 959 1106 1268 751 
Q 1578 397 2138 397 
Q 2388 397 2633 464 
Q 2878 531 3122 666 
L 3122 134 
Q 2881 22 2623 -34 
Q 2366 -91 2075 -91 
Q 1284 -91 818 406 
Q 353 903 353 1747 
Q 353 2603 823 3093 
Q 1294 3584 2113 3584 
Q 2378 3584 2631 3529 
Q 2884 3475 3122 3366 
z
" transform="scale(0.015625)"/>
     <path id="DejaVuSans-79" d="M 2059 -325 
Q 1816 -950 1584 -1140 
Q 1353 -1331 966 -1331 
L 506 -1331 
L 506 -850 
L 844 -850 
Q 1081 -850 1212 -737 
Q 1344 -625 1503 -206 
L 1606 56 
L 191 3500 
L 800 3500 
L 1894 763 
L 2988 3500 
L 3597 3500 
L 2059 -325 
z
" transform="scale(0.015625)"/>
     <path id="DejaVuSans-64" d="M 2906 2969 
L 2906 4863 
L 3481 4863 
L 3481 0 
L 2906 0 
L 2906 525 
Q 2725 213 2448 61 
Q 2172 -91 1784 -91 
Q 1150 -91 751 415 
Q 353 922 353 1747 
Q 353 2572 751 3078 
Q 1150 3584 1784 3584 
Q 2172 3584 2448 3432 
Q 2725 3281 2906 2969 
z
M 947 1747 
Q 947 1113 1208 752 
Q 1469 391 1925 391 
Q 2381 391 2643 752 
Q 2906 1113 2906 1747 
Q 2906 2381 2643 2742 
Q 2381 3103 1925 3103 
Q 1469 3103 1208 2742 
Q 947 2381 947 1747 
z
" transform="scale(0.015625)"/>
     <path id="DejaVuSans-41" d="M 2188 4044 
L 1331 1722 
L 3047 1722 
L 2188 4044 
z
M 1831 4666 
L 2547 4666 
L 4325 0 
L 3669 0 
L 3244 1197 
L 1141 1197 
L 716 0 
L 50 0 
L 1831 4666 
z
" transform="scale(0.015625)"/>
     <path id="DejaVuSans-72" d="M 2631 2963 
Q 2534 3019 2420 3045 
Q 2306 3072 2169 3072 
Q 1681 3072 1420 2755 
Q 1159 2438 1159 1844 
L 1159 0 
L 581 0 
L 581 3500 
L 1159 3500 
L 1159 2956 
Q 1341 3275 1631 3429 
Q 1922 3584 2338 3584 
Q 2397 3584 2469 3576 
Q 2541 3569 2628 3553 
L 2631 2963 
z
" transform="scale(0.015625)"/>
     <path id="DejaVuSans-66" d="M 2375 4863 
L 2375 4384 
L 1825 4384 
Q 1516 4384 1395 4259 
Q 1275 4134 1275 3809 
L 1275 3500 
L 2222 3500 
L 2222 3053 
L 1275 3053 
L 1275 0 
L 697 0 
L 697 3053 
L 147 3053 
L 147 3500 
L 697 3500 
L 697 3744 
Q 697 4328 969 4595 
Q 1241 4863 1831 4863 
L 2375 4863 
z
" transform="scale(0.015625)"/>
     <path id="DejaVuSans-43" d="M 4122 4306 
L 4122 3641 
Q 3803 3938 3442 4084 
Q 3081 4231 2675 4231 
Q 1875 4231 1450 3742 
Q 1025 3253 1025 2328 
Q 1025 1406 1450 917 
Q 1875 428 2675 428 
Q 3081 428 3442 575 
Q 3803 722 4122 1019 
L 4122 359 
Q 3791 134 3420 21 
Q 3050 -91 2638 -91 
Q 1578 -91 968 557 
Q 359 1206 359 2328 
Q 359 3453 968 4101 
Q 1578 4750 2638 4750 
Q 3056 4750 3426 4639 
Q 3797 4528 4122 4306 
z
" transform="scale(0.015625)"/>
     <path id="DejaVuSans-55" d="M 556 4666 
L 1191 4666 
L 1191 1831 
Q 1191 1081 1462 751 
Q 1734 422 2344 422 
Q 2950 422 3222 751 
Q 3494 1081 3494 1831 
L 3494 4666 
L 4128 4666 
L 4128 1753 
Q 4128 841 3676 375 
Q 3225 -91 2344 -91 
Q 1459 -91 1007 375 
Q 556 841 556 1753 
L 556 4666 
z
" transform="scale(0.015625)"/>
     <path id="DejaVuSans-67" d="M 2906 1791 
Q 2906 2416 2648 2759 
Q 2391 3103 1925 3103 
Q 1463 3103 1205 2759 
Q 947 2416 947 1791 
Q 947 1169 1205 825 
Q 1463 481 1925 481 
Q 2391 481 2648 825 
Q 2906 1169 2906 1791 
z
M 3481 434 
Q 3481 -459 3084 -895 
Q 2688 -1331 1869 -1331 
Q 1566 -1331 1297 -1286 
Q 1028 -1241 775 -1147 
L 775 -588 
Q 1028 -725 1275 -790 
Q 1522 -856 1778 -856 
Q 2344 -856 2625 -561 
Q 2906 -266 2906 331 
L 2906 616 
Q 2728 306 2450 153 
Q 2172 0 1784 0 
Q 1141 0 747 490 
Q 353 981 353 1791 
Q 353 2603 747 3093 
Q 1141 3584 1784 3584 
Q 2172 3584 2450 3431 
Q 2728 3278 2906 2969 
L 2906 3500 
L 3481 3500 
L 3481 434 
z
" transform="scale(0.015625)"/>
     <path id="DejaVuSans-53" d="M 3425 4513 
L 3425 3897 
Q 3066 4069 2747 4153 
Q 2428 4238 2131 4238 
Q 1616 4238 1336 4038 
Q 1056 3838 1056 3469 
Q 1056 3159 1242 3001 
Q 1428 2844 1947 2747 
L 2328 2669 
Q 3034 2534 3370 2195 
Q 3706 1856 3706 1288 
Q 3706 609 3251 259 
Q 2797 -91 1919 -91 
Q 1588 -91 1214 -16 
Q 841 59 441 206 
L 441 856 
Q 825 641 1194 531 
Q 1563 422 1919 422 
Q 2459 422 2753 634 
Q 3047 847 3047 1241 
Q 3047 1584 2836 1778 
Q 2625 1972 2144 2069 
L 1759 2144 
Q 1053 2284 737 2584 
Q 422 2884 422 3419 
Q 422 4038 858 4394 
Q 1294 4750 2059 4750 
Q 2388 4750 2728 4690 
Q 3069 4631 3425 4513 
z
" transform="scale(0.015625)"/>
     <path id="DejaVuSans-75" d="M 544 1381 
L 544 3500 
L 1119 3500 
L 1119 1403 
Q 1119 906 1312 657 
Q 1506 409 1894 409 
Q 2359 409 2629 706 
Q 2900 1003 2900 1516 
L 2900 3500 
L 3475 3500 
L 3475 0 
L 2900 0 
L 2900 538 
Q 2691 219 2414 64 
Q 2138 -91 1772 -91 
Q 1169 -91 856 284 
Q 544 659 544 1381 
z
M 1991 3584 
L 1991 3584 
z
" transform="scale(0.015625)"/>
     <path id="DejaVuSans-23" d="M 3272 2816 
L 2363 2816 
L 2100 1772 
L 3016 1772 
L 3272 2816 
z
M 2803 4594 
L 2478 3297 
L 3391 3297 
L 3719 4594 
L 4219 4594 
L 3897 3297 
L 4872 3297 
L 4872 2816 
L 3775 2816 
L 3519 1772 
L 4513 1772 
L 4513 1294 
L 3397 1294 
L 3072 0 
L 2572 0 
L 2894 1294 
L 1978 1294 
L 1656 0 
L 1153 0 
L 1478 1294 
L 494 1294 
L 494 1772 
L 1594 1772 
L 1856 2816 
L 850 2816 
L 850 3297 
L 1978 3297 
L 2297 4594 
L 2803 4594 
z
" transform="scale(0.015625)"/>
     <path id="DejaVuSans-44" d="M 1259 4147 
L 1259 519 
L 2022 519 
Q 2988 519 3436 956 
Q 3884 1394 3884 2338 
Q 3884 3275 3436 3711 
Q 2988 4147 2022 4147 
L 1259 4147 
z
M 628 4666 
L 1925 4666 
Q 3281 4666 3915 4102 
Q 4550 3538 4550 2338 
Q 4550 1131 3912 565 
Q 3275 0 1925 0 
L 628 0 
L 628 4666 
z
" transform="scale(0.015625)"/>
    </defs>
    <use xlink:href="#DejaVuSans-50"/>
    <use xlink:href="#DejaVuSans-6f" transform="translate(56.677734 0)"/>
    <use xlink:href="#DejaVuSans-73" transform="translate(117.859375 0)"/>
    <use xlink:href="#DejaVuSans-69" transform="translate(169.958984 0)"/>
    <use xlink:href="#DejaVuSans-74" transform="translate(197.742188 0)"/>
    <use xlink:href="#DejaVuSans-69" transform="translate(236.951172 0)"/>
    <use xlink:href="#DejaVuSans-6f" transform="translate(264.734375 0)"/>
    <use xlink:href="#DejaVuSans-6e" transform="translate(325.916016 0)"/>
    <use xlink:href="#DejaVuSans-2c" transform="translate(389.294922 0)"/>
    <use xlink:href="#DejaVuSans-20" transform="translate(421.082031 0)"/>
    <use xlink:href="#DejaVuSans-56" transform="translate(452.869141 0)"/>
    <use xlink:href="#DejaVuSans-65" transform="translate(513.527344 0)"/>
    <use xlink:href="#DejaVuSans-6c" transform="translate(575.050781 0)"/>
    <use xlink:href="#DejaVuSans-6f" transform="translate(602.833984 0)"/>
    <use xlink:href="#DejaVuSans-63" transform="translate(664.015625 0)"/>
    <use xlink:href="#DejaVuSans-69" transform="translate(718.996094 0)"/>
    <use xlink:href="#DejaVuSans-74" transform="translate(746.779297 0)"/>
    <use xlink:href="#DejaVuSans-79" transform="translate(785.988281 0)"/>
    <use xlink:href="#DejaVuSans-2c" transform="translate(845.167969 0)"/>
    <use xlink:href="#DejaVuSans-20" transform="translate(876.955078 0)"/>
    <use xlink:href="#DejaVuSans-61" transform="translate(908.742188 0)"/>
    <use xlink:href="#DejaVuSans-6e" transform="translate(970.021484 0)"/>
    <use xlink:href="#DejaVuSans-64" transform="translate(1033.400391 0)"/>
    <use xlink:href="#DejaVuSans-20" transform="translate(1096.876953 0)"/>
    <use xlink:href="#DejaVuSans-41" transform="translate(1128.664062 0)"/>
    <use xlink:href="#DejaVuSans-63" transform="translate(1195.322266 0)"/>
    <use xlink:href="#DejaVuSans-63" transform="translate(1250.302734 0)"/>
    <use xlink:href="#DejaVuSans-65" transform="translate(1305.283203 0)"/>
    <use xlink:href="#DejaVuSans-6c" transform="translate(1366.806641 0)"/>
    <use xlink:href="#DejaVuSans-65" transform="translate(1394.589844 0)"/>
    <use xlink:href="#DejaVuSans-72" transform="translate(1456.113281 0)"/>
    <use xlink:href="#DejaVuSans-61" transform="translate(1497.226562 0)"/>
    <use xlink:href="#DejaVuSans-74" transform="translate(1558.505859 0)"/>
    <use xlink:href="#DejaVuSans-69" transform="translate(1597.714844 0)"/>
    <use xlink:href="#DejaVuSans-6f" transform="translate(1625.498047 0)"/>
    <use xlink:href="#DejaVuSans-6e" transform="translate(1686.679688 0)"/>
    <use xlink:href="#DejaVuSans-20" transform="translate(1750.058594 0)"/>
    <use xlink:href="#DejaVuSans-6f" transform="translate(1781.845703 0)"/>
    <use xlink:href="#DejaVuSans-66" transform="translate(1843.027344 0)"/>
    <use xlink:href="#DejaVuSans-20" transform="translate(1878.232422 0)"/>
    <use xlink:href="#DejaVuSans-43" transform="translate(1910.019531 0)"/>
    <use xlink:href="#DejaVuSans-61" transform="translate(1979.84375 0)"/>
    <use xlink:href="#DejaVuSans-72" transform="translate(2041.123047 0)"/>
    <use xlink:href="#DejaVuSans-74" transform="translate(2082.236328 0)"/>
    <use xlink:href="#DejaVuSans-20" transform="translate(2121.445312 0)"/>
    <use xlink:href="#DejaVuSans-55" transform="translate(2153.232422 0)"/>
    <use xlink:href="#DejaVuSans-73" transform="translate(2226.425781 0)"/>
    <use xlink:href="#DejaVuSans-69" transform="translate(2278.525391 0)"/>
    <use xlink:href="#DejaVuSans-6e" transform="translate(2306.308594 0)"/>
    <use xlink:href="#DejaVuSans-67" transform="translate(2369.6875 0)"/>
    <use xlink:href="#DejaVuSans-20" transform="translate(2433.164062 0)"/>
    <use xlink:href="#DejaVuSans-53" transform="translate(2464.951172 0)"/>
    <use xlink:href="#DejaVuSans-6f" transform="translate(2528.427734 0)"/>
    <use xlink:href="#DejaVuSans-6e" transform="translate(2589.609375 0)"/>
    <use xlink:href="#DejaVuSans-61" transform="translate(2652.988281 0)"/>
    <use xlink:href="#DejaVuSans-72" transform="translate(2714.267578 0)"/>
    <use xlink:href="#DejaVuSans-20" transform="translate(2755.380859 0)"/>
    <use xlink:href="#DejaVuSans-72" transform="translate(2787.167969 0)"/>
    <use xlink:href="#DejaVuSans-75" transform="translate(2828.28125 0)"/>
    <use xlink:href="#DejaVuSans-6e" transform="translate(2891.660156 0)"/>
    <use xlink:href="#DejaVuSans-20" transform="translate(2955.039062 0)"/>
    <use xlink:href="#DejaVuSans-33" transform="translate(2986.826172 0)"/>
    <use xlink:href="#DejaVuSans-23" transform="translate(3050.449219 0)"/>
    <use xlink:href="#DejaVuSans-20" transform="translate(3134.238281 0)"/>
    <use xlink:href="#DejaVuSans-44" transform="translate(3166.025391 0)"/>
    <use xlink:href="#DejaVuSans-61" transform="translate(3243.027344 0)"/>
    <use xlink:href="#DejaVuSans-74" transform="translate(3304.306641 0)"/>
    <use xlink:href="#DejaVuSans-61" transform="translate(3343.515625 0)"/>
   </g>
  </g>
 </g>
 <defs>
  <clipPath id="p4c7b409923">
   <rect x="65.54" y="107.148368" width="787.66" height="122.343525"/>
  </clipPath>
  <clipPath id="p226cb26a6b">
   <rect x="65.54" y="259.422421" width="787.66" height="122.343525"/>
  </clipPath>
  <clipPath id="pac19438cbe">
   <rect x="65.54" y="411.696475" width="787.66" height="122.343525"/>
  </clipPath>
 </defs>
</svg>
