<?xml version="1.0" encoding="utf-8" standalone="no"?>
<!DOCTYPE svg PUBLIC "-//W3C//DTD SVG 1.1//EN"
  "http://www.w3.org/Graphics/SVG/1.1/DTD/svg11.dtd">
<svg xmlns:xlink="http://www.w3.org/1999/xlink" width="864pt" height="576pt" viewBox="0 0 864 576" xmlns="http://www.w3.org/2000/svg" version="1.1">
 <metadata>
  <rdf:RDF xmlns:dc="http://purl.org/dc/elements/1.1/" xmlns:cc="http://creativecommons.org/ns#" xmlns:rdf="http://www.w3.org/1999/02/22-rdf-syntax-ns#">
   <cc:Work>
    <dc:type rdf:resource="http://purl.org/dc/dcmitype/StillImage"/>
    <dc:date>2025-01-14T15:26:12.587889</dc:date>
    <dc:format>image/svg+xml</dc:format>
    <dc:creator>
     <cc:Agent>
      <dc:title>Matplotlib v3.10.0, https://matplotlib.org/</dc:title>
     </cc:Agent>
    </dc:creator>
   </cc:Work>
  </rdf:RDF>
 </metadata>
 <defs>
  <style type="text/css">*{stroke-linejoin: round; stroke-linecap: butt}</style>
 </defs>
 <g id="figure_1">
  <g id="patch_1">
   <path d="M 0 576 
L 864 576 
L 864 0 
L 0 0 
z
" style="fill: #ffffff"/>
  </g>
  <g id="axes_1">
   <g id="patch_2">
    <path d="M 59.24 230.498912 
L 853.2 230.498912 
L 853.2 106.608368 
L 59.24 106.608368 
z
" style="fill: #ffffff"/>
   </g>
   <g id="matplotlib.axis_1">
    <g id="xtick_1">
     <g id="line2d_1">
      <path d="M 95.329091 230.498912 
L 95.329091 106.608368 
" clip-path="url(#p4ff8fc1d78)" style="fill: none; stroke: #b0b0b0; stroke-width: 0.8; stroke-linecap: square"/>
     </g>
     <g id="line2d_2">
      <defs>
       <path id="m15672dedc5" d="M 0 0 
L 0 3.5 
" style="stroke: #000000; stroke-width: 0.8"/>
      </defs>
      <g>
       <use xlink:href="#m15672dedc5" x="95.329091" y="230.498912" style="stroke: #000000; stroke-width: 0.8"/>
      </g>
     </g>
     <g id="text_1">
      <!-- 0 -->
      <g transform="translate(92.147841 245.097349) scale(0.1 -0.1)">
       <defs>
        <path id="DejaVuSans-30" d="M 2034 4250 
Q 1547 4250 1301 3770 
Q 1056 3291 1056 2328 
Q 1056 1369 1301 889 
Q 1547 409 2034 409 
Q 2525 409 2770 889 
Q 3016 1369 3016 2328 
Q 3016 3291 2770 3770 
Q 2525 4250 2034 4250 
z
M 2034 4750 
Q 2819 4750 3233 4129 
Q 3647 3509 3647 2328 
Q 3647 1150 3233 529 
Q 2819 -91 2034 -91 
Q 1250 -91 836 529 
Q 422 1150 422 2328 
Q 422 3509 836 4129 
Q 1250 4750 2034 4750 
z
" transform="scale(0.015625)"/>
       </defs>
       <use xlink:href="#DejaVuSans-30"/>
      </g>
     </g>
    </g>
    <g id="xtick_2">
     <g id="line2d_3">
      <path d="M 222.85238 230.498912 
L 222.85238 106.608368 
" clip-path="url(#p4ff8fc1d78)" style="fill: none; stroke: #b0b0b0; stroke-width: 0.8; stroke-linecap: square"/>
     </g>
     <g id="line2d_4">
      <g>
       <use xlink:href="#m15672dedc5" x="222.85238" y="230.498912" style="stroke: #000000; stroke-width: 0.8"/>
      </g>
     </g>
     <g id="text_2">
      <!-- 1 -->
      <g transform="translate(219.67113 245.097349) scale(0.1 -0.1)">
       <defs>
        <path id="DejaVuSans-31" d="M 794 531 
L 1825 531 
L 1825 4091 
L 703 3866 
L 703 4441 
L 1819 4666 
L 2450 4666 
L 2450 531 
L 3481 531 
L 3481 0 
L 794 0 
L 794 531 
z
" transform="scale(0.015625)"/>
       </defs>
       <use xlink:href="#DejaVuSans-31"/>
      </g>
     </g>
    </g>
    <g id="xtick_3">
     <g id="line2d_5">
      <path d="M 350.37567 230.498912 
L 350.37567 106.608368 
" clip-path="url(#p4ff8fc1d78)" style="fill: none; stroke: #b0b0b0; stroke-width: 0.8; stroke-linecap: square"/>
     </g>
     <g id="line2d_6">
      <g>
       <use xlink:href="#m15672dedc5" x="350.37567" y="230.498912" style="stroke: #000000; stroke-width: 0.8"/>
      </g>
     </g>
     <g id="text_3">
      <!-- 2 -->
      <g transform="translate(347.19442 245.097349) scale(0.1 -0.1)">
       <defs>
        <path id="DejaVuSans-32" d="M 1228 531 
L 3431 531 
L 3431 0 
L 469 0 
L 469 531 
Q 828 903 1448 1529 
Q 2069 2156 2228 2338 
Q 2531 2678 2651 2914 
Q 2772 3150 2772 3378 
Q 2772 3750 2511 3984 
Q 2250 4219 1831 4219 
Q 1534 4219 1204 4116 
Q 875 4013 500 3803 
L 500 4441 
Q 881 4594 1212 4672 
Q 1544 4750 1819 4750 
Q 2544 4750 2975 4387 
Q 3406 4025 3406 3419 
Q 3406 3131 3298 2873 
Q 3191 2616 2906 2266 
Q 2828 2175 2409 1742 
Q 1991 1309 1228 531 
z
" transform="scale(0.015625)"/>
       </defs>
       <use xlink:href="#DejaVuSans-32"/>
      </g>
     </g>
    </g>
    <g id="xtick_4">
     <g id="line2d_7">
      <path d="M 477.898959 230.498912 
L 477.898959 106.608368 
" clip-path="url(#p4ff8fc1d78)" style="fill: none; stroke: #b0b0b0; stroke-width: 0.8; stroke-linecap: square"/>
     </g>
     <g id="line2d_8">
      <g>
       <use xlink:href="#m15672dedc5" x="477.898959" y="230.498912" style="stroke: #000000; stroke-width: 0.8"/>
      </g>
     </g>
     <g id="text_4">
      <!-- 3 -->
      <g transform="translate(474.717709 245.097349) scale(0.1 -0.1)">
       <defs>
        <path id="DejaVuSans-33" d="M 2597 2516 
Q 3050 2419 3304 2112 
Q 3559 1806 3559 1356 
Q 3559 666 3084 287 
Q 2609 -91 1734 -91 
Q 1441 -91 1130 -33 
Q 819 25 488 141 
L 488 750 
Q 750 597 1062 519 
Q 1375 441 1716 441 
Q 2309 441 2620 675 
Q 2931 909 2931 1356 
Q 2931 1769 2642 2001 
Q 2353 2234 1838 2234 
L 1294 2234 
L 1294 2753 
L 1863 2753 
Q 2328 2753 2575 2939 
Q 2822 3125 2822 3475 
Q 2822 3834 2567 4026 
Q 2313 4219 1838 4219 
Q 1578 4219 1281 4162 
Q 984 4106 628 3988 
L 628 4550 
Q 988 4650 1302 4700 
Q 1616 4750 1894 4750 
Q 2613 4750 3031 4423 
Q 3450 4097 3450 3541 
Q 3450 3153 3228 2886 
Q 3006 2619 2597 2516 
z
" transform="scale(0.015625)"/>
       </defs>
       <use xlink:href="#DejaVuSans-33"/>
      </g>
     </g>
    </g>
    <g id="xtick_5">
     <g id="line2d_9">
      <path d="M 605.422249 230.498912 
L 605.422249 106.608368 
" clip-path="url(#p4ff8fc1d78)" style="fill: none; stroke: #b0b0b0; stroke-width: 0.8; stroke-linecap: square"/>
     </g>
     <g id="line2d_10">
      <g>
       <use xlink:href="#m15672dedc5" x="605.422249" y="230.498912" style="stroke: #000000; stroke-width: 0.8"/>
      </g>
     </g>
     <g id="text_5">
      <!-- 4 -->
      <g transform="translate(602.240999 245.097349) scale(0.1 -0.1)">
       <defs>
        <path id="DejaVuSans-34" d="M 2419 4116 
L 825 1625 
L 2419 1625 
L 2419 4116 
z
M 2253 4666 
L 3047 4666 
L 3047 1625 
L 3713 1625 
L 3713 1100 
L 3047 1100 
L 3047 0 
L 2419 0 
L 2419 1100 
L 313 1100 
L 313 1709 
L 2253 4666 
z
" transform="scale(0.015625)"/>
       </defs>
       <use xlink:href="#DejaVuSans-34"/>
      </g>
     </g>
    </g>
    <g id="xtick_6">
     <g id="line2d_11">
      <path d="M 732.945538 230.498912 
L 732.945538 106.608368 
" clip-path="url(#p4ff8fc1d78)" style="fill: none; stroke: #b0b0b0; stroke-width: 0.8; stroke-linecap: square"/>
     </g>
     <g id="line2d_12">
      <g>
       <use xlink:href="#m15672dedc5" x="732.945538" y="230.498912" style="stroke: #000000; stroke-width: 0.8"/>
      </g>
     </g>
     <g id="text_6">
      <!-- 5 -->
      <g transform="translate(729.764288 245.097349) scale(0.1 -0.1)">
       <defs>
        <path id="DejaVuSans-35" d="M 691 4666 
L 3169 4666 
L 3169 4134 
L 1269 4134 
L 1269 2991 
Q 1406 3038 1543 3061 
Q 1681 3084 1819 3084 
Q 2600 3084 3056 2656 
Q 3513 2228 3513 1497 
Q 3513 744 3044 326 
Q 2575 -91 1722 -91 
Q 1428 -91 1123 -41 
Q 819 9 494 109 
L 494 744 
Q 775 591 1075 516 
Q 1375 441 1709 441 
Q 2250 441 2565 725 
Q 2881 1009 2881 1497 
Q 2881 1984 2565 2268 
Q 2250 2553 1709 2553 
Q 1456 2553 1204 2497 
Q 953 2441 691 2322 
L 691 4666 
z
" transform="scale(0.015625)"/>
       </defs>
       <use xlink:href="#DejaVuSans-35"/>
      </g>
     </g>
    </g>
   </g>
   <g id="matplotlib.axis_2">
    <g id="ytick_1">
     <g id="line2d_13">
      <path d="M 59.24 229.193565 
L 853.2 229.193565 
" clip-path="url(#p4ff8fc1d78)" style="fill: none; stroke: #b0b0b0; stroke-width: 0.8; stroke-linecap: square"/>
     </g>
     <g id="line2d_14">
      <defs>
       <path id="ma48afd65cb" d="M 0 0 
L -3.5 0 
" style="stroke: #000000; stroke-width: 0.8"/>
      </defs>
      <g>
       <use xlink:href="#ma48afd65cb" x="59.24" y="229.193565" style="stroke: #000000; stroke-width: 0.8"/>
      </g>
     </g>
     <g id="text_7">
      <!-- 50 -->
      <g transform="translate(39.515 232.992783) scale(0.1 -0.1)">
       <use xlink:href="#DejaVuSans-35"/>
       <use xlink:href="#DejaVuSans-30" transform="translate(63.623047 0)"/>
      </g>
     </g>
    </g>
    <g id="ytick_2">
     <g id="line2d_15">
      <path d="M 59.24 207.031469 
L 853.2 207.031469 
" clip-path="url(#p4ff8fc1d78)" style="fill: none; stroke: #b0b0b0; stroke-width: 0.8; stroke-linecap: square"/>
     </g>
     <g id="line2d_16">
      <g>
       <use xlink:href="#ma48afd65cb" x="59.24" y="207.031469" style="stroke: #000000; stroke-width: 0.8"/>
      </g>
     </g>
     <g id="text_8">
      <!-- 75 -->
      <g transform="translate(39.515 210.830688) scale(0.1 -0.1)">
       <defs>
        <path id="DejaVuSans-37" d="M 525 4666 
L 3525 4666 
L 3525 4397 
L 1831 0 
L 1172 0 
L 2766 4134 
L 525 4134 
L 525 4666 
z
" transform="scale(0.015625)"/>
       </defs>
       <use xlink:href="#DejaVuSans-37"/>
       <use xlink:href="#DejaVuSans-35" transform="translate(63.623047 0)"/>
      </g>
     </g>
    </g>
    <g id="ytick_3">
     <g id="line2d_17">
      <path d="M 59.24 184.869374 
L 853.2 184.869374 
" clip-path="url(#p4ff8fc1d78)" style="fill: none; stroke: #b0b0b0; stroke-width: 0.8; stroke-linecap: square"/>
     </g>
     <g id="line2d_18">
      <g>
       <use xlink:href="#ma48afd65cb" x="59.24" y="184.869374" style="stroke: #000000; stroke-width: 0.8"/>
      </g>
     </g>
     <g id="text_9">
      <!-- 100 -->
      <g transform="translate(33.1525 188.668593) scale(0.1 -0.1)">
       <use xlink:href="#DejaVuSans-31"/>
       <use xlink:href="#DejaVuSans-30" transform="translate(63.623047 0)"/>
       <use xlink:href="#DejaVuSans-30" transform="translate(127.246094 0)"/>
      </g>
     </g>
    </g>
    <g id="ytick_4">
     <g id="line2d_19">
      <path d="M 59.24 162.707279 
L 853.2 162.707279 
" clip-path="url(#p4ff8fc1d78)" style="fill: none; stroke: #b0b0b0; stroke-width: 0.8; stroke-linecap: square"/>
     </g>
     <g id="line2d_20">
      <g>
       <use xlink:href="#ma48afd65cb" x="59.24" y="162.707279" style="stroke: #000000; stroke-width: 0.8"/>
      </g>
     </g>
     <g id="text_10">
      <!-- 125 -->
      <g transform="translate(33.1525 166.506498) scale(0.1 -0.1)">
       <use xlink:href="#DejaVuSans-31"/>
       <use xlink:href="#DejaVuSans-32" transform="translate(63.623047 0)"/>
       <use xlink:href="#DejaVuSans-35" transform="translate(127.246094 0)"/>
      </g>
     </g>
    </g>
    <g id="ytick_5">
     <g id="line2d_21">
      <path d="M 59.24 140.545184 
L 853.2 140.545184 
" clip-path="url(#p4ff8fc1d78)" style="fill: none; stroke: #b0b0b0; stroke-width: 0.8; stroke-linecap: square"/>
     </g>
     <g id="line2d_22">
      <g>
       <use xlink:href="#ma48afd65cb" x="59.24" y="140.545184" style="stroke: #000000; stroke-width: 0.8"/>
      </g>
     </g>
     <g id="text_11">
      <!-- 150 -->
      <g transform="translate(33.1525 144.344403) scale(0.1 -0.1)">
       <use xlink:href="#DejaVuSans-31"/>
       <use xlink:href="#DejaVuSans-35" transform="translate(63.623047 0)"/>
       <use xlink:href="#DejaVuSans-30" transform="translate(127.246094 0)"/>
      </g>
     </g>
    </g>
    <g id="ytick_6">
     <g id="line2d_23">
      <path d="M 59.24 118.383089 
L 853.2 118.383089 
" clip-path="url(#p4ff8fc1d78)" style="fill: none; stroke: #b0b0b0; stroke-width: 0.8; stroke-linecap: square"/>
     </g>
     <g id="line2d_24">
      <g>
       <use xlink:href="#ma48afd65cb" x="59.24" y="118.383089" style="stroke: #000000; stroke-width: 0.8"/>
      </g>
     </g>
     <g id="text_12">
      <!-- 175 -->
      <g transform="translate(33.1525 122.182308) scale(0.1 -0.1)">
       <use xlink:href="#DejaVuSans-31"/>
       <use xlink:href="#DejaVuSans-37" transform="translate(63.623047 0)"/>
       <use xlink:href="#DejaVuSans-35" transform="translate(127.246094 0)"/>
      </g>
     </g>
    </g>
    <g id="text_13">
     <!-- x -->
     <g transform="translate(27.072813 171.513015) rotate(-90) scale(0.1 -0.1)">
      <defs>
       <path id="DejaVuSans-78" d="M 3513 3500 
L 2247 1797 
L 3578 0 
L 2900 0 
L 1881 1375 
L 863 0 
L 184 0 
L 1544 1831 
L 300 3500 
L 978 3500 
L 1906 2253 
L 2834 3500 
L 3513 3500 
z
" transform="scale(0.015625)"/>
      </defs>
      <use xlink:href="#DejaVuSans-78"/>
     </g>
    </g>
   </g>
   <g id="line2d_25">
    <path d="M 95.329091 112.239756 
L 102.980488 112.257486 
L 276.412162 112.346134 
L 294.265422 112.57662 
L 301.91682 112.913484 
L 304.467286 113.10851 
L 307.017751 113.41878 
L 309.568217 113.587212 
L 312.118683 114.048183 
L 317.219615 114.819424 
L 322.320546 115.918664 
L 329.971943 117.993036 
L 332.522409 118.782007 
L 340.173807 121.556701 
L 342.724272 122.487509 
L 345.274738 123.542425 
L 352.926136 127.301116 
L 355.476601 128.817003 
L 358.027067 130.191053 
L 363.127999 133.444449 
L 368.22893 137.070168 
L 370.779396 139.020432 
L 380.981259 147.309056 
L 383.531725 149.24159 
L 386.082191 151.342557 
L 398.83452 160.845663 
L 406.485917 166.24435 
L 414.137314 171.421415 
L 426.889643 179.417499 
L 434.541041 183.911972 
L 442.192438 188.158229 
L 449.843836 192.156271 
L 457.495233 195.914963 
L 467.697096 200.560138 
L 475.348493 203.73375 
L 482.999891 206.659146 
L 490.651288 209.354057 
L 498.302686 211.871671 
L 505.954083 214.087881 
L 513.60548 216.126793 
L 521.256878 217.988409 
L 528.908275 219.56635 
L 536.559672 220.913806 
L 544.21107 222.03964 
L 554.412933 223.280718 
L 564.614796 224.176066 
L 572.266193 224.628173 
L 579.917591 224.832064 
L 597.770851 224.849794 
L 817.110909 224.849794 
L 817.110909 224.849794 
" clip-path="url(#p4ff8fc1d78)" style="fill: none; stroke: #0000ff; stroke-width: 1.5; stroke-linecap: square"/>
   </g>
   <g id="line2d_26">
    <path d="M 380.981259 230.498912 
L 380.981259 106.608368 
" clip-path="url(#p4ff8fc1d78)" style="fill: none; stroke-dasharray: 5.55,2.4; stroke-dashoffset: 0; stroke: #ff0000; stroke-opacity: 0.5; stroke-width: 1.5"/>
   </g>
   <g id="line2d_27">
    <path d="M 585.018522 230.498912 
L 585.018522 106.608368 
" clip-path="url(#p4ff8fc1d78)" style="fill: none; stroke-dasharray: 5.55,2.4; stroke-dashoffset: 0; stroke: #bf00bf; stroke-opacity: 0.7; stroke-width: 1.5"/>
   </g>
   <g id="patch_3">
    <path d="M 59.24 230.498912 
L 59.24 106.608368 
" style="fill: none; stroke: #000000; stroke-width: 0.8; stroke-linejoin: miter; stroke-linecap: square"/>
   </g>
   <g id="patch_4">
    <path d="M 853.2 230.498912 
L 853.2 106.608368 
" style="fill: none; stroke: #000000; stroke-width: 0.8; stroke-linejoin: miter; stroke-linecap: square"/>
   </g>
   <g id="patch_5">
    <path d="M 59.24 230.498912 
L 853.2 230.498912 
" style="fill: none; stroke: #000000; stroke-width: 0.8; stroke-linejoin: miter; stroke-linecap: square"/>
   </g>
   <g id="patch_6">
    <path d="M 59.24 106.608368 
L 853.2 106.608368 
" style="fill: none; stroke: #000000; stroke-width: 0.8; stroke-linejoin: miter; stroke-linecap: square"/>
   </g>
   <g id="text_14">
    <!--  $t_{v,\max}=2.24\,\mathrm{s}$ -->
    <g transform="translate(388.481259 106.608368) rotate(-90) scale(0.1 -0.1)">
     <defs>
      <path id="DejaVuSans-20" transform="scale(0.015625)"/>
      <path id="DejaVuSans-Oblique-74" d="M 2706 3500 
L 2619 3053 
L 1472 3053 
L 1100 1153 
Q 1081 1047 1072 975 
Q 1063 903 1063 863 
Q 1063 663 1183 572 
Q 1303 481 1569 481 
L 2150 481 
L 2053 0 
L 1503 0 
Q 991 0 739 200 
Q 488 400 488 806 
Q 488 878 497 964 
Q 506 1050 525 1153 
L 897 3053 
L 409 3053 
L 500 3500 
L 978 3500 
L 1172 4494 
L 1747 4494 
L 1556 3500 
L 2706 3500 
z
" transform="scale(0.015625)"/>
      <path id="DejaVuSans-Oblique-76" d="M 459 3500 
L 1069 3500 
L 1581 525 
L 3256 3500 
L 3866 3500 
L 1875 0 
L 1100 0 
L 459 3500 
z
" transform="scale(0.015625)"/>
      <path id="DejaVuSans-2c" d="M 750 794 
L 1409 794 
L 1409 256 
L 897 -744 
L 494 -744 
L 750 256 
L 750 794 
z
" transform="scale(0.015625)"/>
      <path id="DejaVuSans-6d" d="M 3328 2828 
Q 3544 3216 3844 3400 
Q 4144 3584 4550 3584 
Q 5097 3584 5394 3201 
Q 5691 2819 5691 2113 
L 5691 0 
L 5113 0 
L 5113 2094 
Q 5113 2597 4934 2840 
Q 4756 3084 4391 3084 
Q 3944 3084 3684 2787 
Q 3425 2491 3425 1978 
L 3425 0 
L 2847 0 
L 2847 2094 
Q 2847 2600 2669 2842 
Q 2491 3084 2119 3084 
Q 1678 3084 1418 2786 
Q 1159 2488 1159 1978 
L 1159 0 
L 581 0 
L 581 3500 
L 1159 3500 
L 1159 2956 
Q 1356 3278 1631 3431 
Q 1906 3584 2284 3584 
Q 2666 3584 2933 3390 
Q 3200 3197 3328 2828 
z
" transform="scale(0.015625)"/>
      <path id="DejaVuSans-61" d="M 2194 1759 
Q 1497 1759 1228 1600 
Q 959 1441 959 1056 
Q 959 750 1161 570 
Q 1363 391 1709 391 
Q 2188 391 2477 730 
Q 2766 1069 2766 1631 
L 2766 1759 
L 2194 1759 
z
M 3341 1997 
L 3341 0 
L 2766 0 
L 2766 531 
Q 2569 213 2275 61 
Q 1981 -91 1556 -91 
Q 1019 -91 701 211 
Q 384 513 384 1019 
Q 384 1609 779 1909 
Q 1175 2209 1959 2209 
L 2766 2209 
L 2766 2266 
Q 2766 2663 2505 2880 
Q 2244 3097 1772 3097 
Q 1472 3097 1187 3025 
Q 903 2953 641 2809 
L 641 3341 
Q 956 3463 1253 3523 
Q 1550 3584 1831 3584 
Q 2591 3584 2966 3190 
Q 3341 2797 3341 1997 
z
" transform="scale(0.015625)"/>
      <path id="DejaVuSans-3d" d="M 678 2906 
L 4684 2906 
L 4684 2381 
L 678 2381 
L 678 2906 
z
M 678 1631 
L 4684 1631 
L 4684 1100 
L 678 1100 
L 678 1631 
z
" transform="scale(0.015625)"/>
      <path id="DejaVuSans-2e" d="M 684 794 
L 1344 794 
L 1344 0 
L 684 0 
L 684 794 
z
" transform="scale(0.015625)"/>
      <path id="DejaVuSans-73" d="M 2834 3397 
L 2834 2853 
Q 2591 2978 2328 3040 
Q 2066 3103 1784 3103 
Q 1356 3103 1142 2972 
Q 928 2841 928 2578 
Q 928 2378 1081 2264 
Q 1234 2150 1697 2047 
L 1894 2003 
Q 2506 1872 2764 1633 
Q 3022 1394 3022 966 
Q 3022 478 2636 193 
Q 2250 -91 1575 -91 
Q 1294 -91 989 -36 
Q 684 19 347 128 
L 347 722 
Q 666 556 975 473 
Q 1284 391 1588 391 
Q 1994 391 2212 530 
Q 2431 669 2431 922 
Q 2431 1156 2273 1281 
Q 2116 1406 1581 1522 
L 1381 1569 
Q 847 1681 609 1914 
Q 372 2147 372 2553 
Q 372 3047 722 3315 
Q 1072 3584 1716 3584 
Q 2034 3584 2315 3537 
Q 2597 3491 2834 3397 
z
" transform="scale(0.015625)"/>
     </defs>
     <use xlink:href="#DejaVuSans-20" transform="translate(0 0.78125)"/>
     <use xlink:href="#DejaVuSans-Oblique-74" transform="translate(31.787109 0.78125)"/>
     <use xlink:href="#DejaVuSans-Oblique-76" transform="translate(70.996094 -15.625) scale(0.7)"/>
     <use xlink:href="#DejaVuSans-2c" transform="translate(112.421875 -15.625) scale(0.7)"/>
     <use xlink:href="#DejaVuSans-6d" transform="translate(148.310547 -15.625) scale(0.7)"/>
     <use xlink:href="#DejaVuSans-61" transform="translate(216.499023 -15.625) scale(0.7)"/>
     <use xlink:href="#DejaVuSans-78" transform="translate(259.394531 -15.625) scale(0.7)"/>
     <use xlink:href="#DejaVuSans-3d" transform="translate(323.037109 0.78125)"/>
     <use xlink:href="#DejaVuSans-32" transform="translate(426.308594 0.78125)"/>
     <use xlink:href="#DejaVuSans-2e" transform="translate(489.931641 0.78125)"/>
     <use xlink:href="#DejaVuSans-32" transform="translate(516.21875 0.78125)"/>
     <use xlink:href="#DejaVuSans-34" transform="translate(579.841797 0.78125)"/>
     <use xlink:href="#DejaVuSans-73" transform="translate(659.70052 0.78125)"/>
    </g>
   </g>
   <g id="text_15">
    <!--  $t_{stop}=3.84\,\mathrm{s}$ -->
    <g transform="translate(592.518522 106.608368) rotate(-90) scale(0.1 -0.1)">
     <defs>
      <path id="DejaVuSans-Oblique-73" d="M 3200 3397 
L 3091 2853 
Q 2863 2978 2609 3040 
Q 2356 3103 2088 3103 
Q 1634 3103 1373 2948 
Q 1113 2794 1113 2528 
Q 1113 2219 1719 2053 
Q 1766 2041 1788 2034 
L 1972 1978 
Q 2547 1819 2739 1644 
Q 2931 1469 2931 1166 
Q 2931 609 2489 259 
Q 2047 -91 1331 -91 
Q 1053 -91 747 -37 
Q 441 16 72 128 
L 184 722 
Q 500 559 806 475 
Q 1113 391 1394 391 
Q 1816 391 2080 572 
Q 2344 753 2344 1031 
Q 2344 1331 1650 1516 
L 1591 1531 
L 1394 1581 
Q 956 1697 753 1886 
Q 550 2075 550 2369 
Q 550 2928 970 3256 
Q 1391 3584 2113 3584 
Q 2397 3584 2667 3537 
Q 2938 3491 3200 3397 
z
" transform="scale(0.015625)"/>
      <path id="DejaVuSans-Oblique-6f" d="M 1625 -91 
Q 1009 -91 651 289 
Q 294 669 294 1325 
Q 294 1706 417 2101 
Q 541 2497 738 2766 
Q 1047 3184 1428 3384 
Q 1809 3584 2291 3584 
Q 2888 3584 3255 3212 
Q 3622 2841 3622 2241 
Q 3622 1825 3500 1412 
Q 3378 1000 3181 728 
Q 2875 309 2494 109 
Q 2113 -91 1625 -91 
z
M 891 1344 
Q 891 869 1089 633 
Q 1288 397 1691 397 
Q 2269 397 2648 901 
Q 3028 1406 3028 2181 
Q 3028 2634 2825 2865 
Q 2622 3097 2228 3097 
Q 1903 3097 1650 2945 
Q 1397 2794 1197 2484 
Q 1050 2253 970 1956 
Q 891 1659 891 1344 
z
" transform="scale(0.015625)"/>
      <path id="DejaVuSans-Oblique-70" d="M 3175 2156 
Q 3175 2616 2975 2859 
Q 2775 3103 2400 3103 
Q 2144 3103 1911 2972 
Q 1678 2841 1497 2591 
Q 1319 2344 1212 1994 
Q 1106 1644 1106 1300 
Q 1106 863 1306 627 
Q 1506 391 1875 391 
Q 2147 391 2380 519 
Q 2613 647 2778 891 
Q 2956 1147 3065 1494 
Q 3175 1841 3175 2156 
z
M 1394 2969 
Q 1625 3272 1939 3428 
Q 2253 3584 2638 3584 
Q 3175 3584 3472 3232 
Q 3769 2881 3769 2247 
Q 3769 1728 3584 1258 
Q 3400 788 3053 416 
Q 2822 169 2531 39 
Q 2241 -91 1919 -91 
Q 1547 -91 1294 64 
Q 1041 219 916 525 
L 556 -1331 
L -19 -1331 
L 922 3500 
L 1497 3500 
L 1394 2969 
z
" transform="scale(0.015625)"/>
      <path id="DejaVuSans-38" d="M 2034 2216 
Q 1584 2216 1326 1975 
Q 1069 1734 1069 1313 
Q 1069 891 1326 650 
Q 1584 409 2034 409 
Q 2484 409 2743 651 
Q 3003 894 3003 1313 
Q 3003 1734 2745 1975 
Q 2488 2216 2034 2216 
z
M 1403 2484 
Q 997 2584 770 2862 
Q 544 3141 544 3541 
Q 544 4100 942 4425 
Q 1341 4750 2034 4750 
Q 2731 4750 3128 4425 
Q 3525 4100 3525 3541 
Q 3525 3141 3298 2862 
Q 3072 2584 2669 2484 
Q 3125 2378 3379 2068 
Q 3634 1759 3634 1313 
Q 3634 634 3220 271 
Q 2806 -91 2034 -91 
Q 1263 -91 848 271 
Q 434 634 434 1313 
Q 434 1759 690 2068 
Q 947 2378 1403 2484 
z
M 1172 3481 
Q 1172 3119 1398 2916 
Q 1625 2713 2034 2713 
Q 2441 2713 2670 2916 
Q 2900 3119 2900 3481 
Q 2900 3844 2670 4047 
Q 2441 4250 2034 4250 
Q 1625 4250 1398 4047 
Q 1172 3844 1172 3481 
z
" transform="scale(0.015625)"/>
     </defs>
     <use xlink:href="#DejaVuSans-20" transform="translate(0 0.78125)"/>
     <use xlink:href="#DejaVuSans-Oblique-74" transform="translate(31.787109 0.78125)"/>
     <use xlink:href="#DejaVuSans-Oblique-73" transform="translate(70.996094 -15.625) scale(0.7)"/>
     <use xlink:href="#DejaVuSans-Oblique-74" transform="translate(107.46582 -15.625) scale(0.7)"/>
     <use xlink:href="#DejaVuSans-Oblique-6f" transform="translate(134.912109 -15.625) scale(0.7)"/>
     <use xlink:href="#DejaVuSans-Oblique-70" transform="translate(177.739258 -15.625) scale(0.7)"/>
     <use xlink:href="#DejaVuSans-3d" transform="translate(244.389648 0.78125)"/>
     <use xlink:href="#DejaVuSans-33" transform="translate(347.661133 0.78125)"/>
     <use xlink:href="#DejaVuSans-2e" transform="translate(411.28418 0.78125)"/>
     <use xlink:href="#DejaVuSans-38" transform="translate(440.446289 0.78125)"/>
     <use xlink:href="#DejaVuSans-34" transform="translate(504.069336 0.78125)"/>
     <use xlink:href="#DejaVuSans-73" transform="translate(583.928059 0.78125)"/>
    </g>
   </g>
   <g id="legend_1">
    <g id="patch_7">
     <path d="M 787.559375 129.286493 
L 846.2 129.286493 
Q 848.2 129.286493 848.2 127.286493 
L 848.2 113.608368 
Q 848.2 111.608368 846.2 111.608368 
L 787.559375 111.608368 
Q 785.559375 111.608368 785.559375 113.608368 
L 785.559375 127.286493 
Q 785.559375 129.286493 787.559375 129.286493 
z
" style="fill: #ffffff; opacity: 0.8; stroke: #cccccc; stroke-linejoin: miter"/>
    </g>
    <g id="line2d_28">
     <path d="M 789.559375 119.706805 
L 799.559375 119.706805 
L 809.559375 119.706805 
" style="fill: none; stroke: #0000ff; stroke-width: 1.5; stroke-linecap: square"/>
    </g>
    <g id="text_16">
     <!-- x (m) -->
     <g transform="translate(817.559375 123.206805) scale(0.1 -0.1)">
      <defs>
       <path id="DejaVuSans-28" d="M 1984 4856 
Q 1566 4138 1362 3434 
Q 1159 2731 1159 2009 
Q 1159 1288 1364 580 
Q 1569 -128 1984 -844 
L 1484 -844 
Q 1016 -109 783 600 
Q 550 1309 550 2009 
Q 550 2706 781 3412 
Q 1013 4119 1484 4856 
L 1984 4856 
z
" transform="scale(0.015625)"/>
       <path id="DejaVuSans-29" d="M 513 4856 
L 1013 4856 
Q 1481 4119 1714 3412 
Q 1947 2706 1947 2009 
Q 1947 1309 1714 600 
Q 1481 -109 1013 -844 
L 513 -844 
Q 928 -128 1133 580 
Q 1338 1288 1338 2009 
Q 1338 2731 1133 3434 
Q 928 4138 513 4856 
z
" transform="scale(0.015625)"/>
      </defs>
      <use xlink:href="#DejaVuSans-78"/>
      <use xlink:href="#DejaVuSans-20" transform="translate(59.179688 0)"/>
      <use xlink:href="#DejaVuSans-28" transform="translate(90.966797 0)"/>
      <use xlink:href="#DejaVuSans-6d" transform="translate(129.980469 0)"/>
      <use xlink:href="#DejaVuSans-29" transform="translate(227.392578 0)"/>
     </g>
    </g>
   </g>
  </g>
  <g id="axes_2">
   <g id="patch_8">
    <path d="M 59.24 382.269456 
L 853.2 382.269456 
L 853.2 258.378912 
L 59.24 258.378912 
z
" style="fill: #ffffff"/>
   </g>
   <g id="matplotlib.axis_3">
    <g id="xtick_7">
     <g id="line2d_29">
      <path d="M 92.769581 382.269456 
L 92.769581 258.378912 
" clip-path="url(#pbf9013ac20)" style="fill: none; stroke: #b0b0b0; stroke-width: 0.8; stroke-linecap: square"/>
     </g>
     <g id="line2d_30">
      <g>
       <use xlink:href="#m15672dedc5" x="92.769581" y="382.269456" style="stroke: #000000; stroke-width: 0.8"/>
      </g>
     </g>
     <g id="text_17">
      <!-- 0 -->
      <g transform="translate(89.588331 396.867893) scale(0.1 -0.1)">
       <use xlink:href="#DejaVuSans-30"/>
      </g>
     </g>
    </g>
    <g id="xtick_8">
     <g id="line2d_31">
      <path d="M 220.745081 382.269456 
L 220.745081 258.378912 
" clip-path="url(#pbf9013ac20)" style="fill: none; stroke: #b0b0b0; stroke-width: 0.8; stroke-linecap: square"/>
     </g>
     <g id="line2d_32">
      <g>
       <use xlink:href="#m15672dedc5" x="220.745081" y="382.269456" style="stroke: #000000; stroke-width: 0.8"/>
      </g>
     </g>
     <g id="text_18">
      <!-- 1 -->
      <g transform="translate(217.563831 396.867893) scale(0.1 -0.1)">
       <use xlink:href="#DejaVuSans-31"/>
      </g>
     </g>
    </g>
    <g id="xtick_9">
     <g id="line2d_33">
      <path d="M 348.72058 382.269456 
L 348.72058 258.378912 
" clip-path="url(#pbf9013ac20)" style="fill: none; stroke: #b0b0b0; stroke-width: 0.8; stroke-linecap: square"/>
     </g>
     <g id="line2d_34">
      <g>
       <use xlink:href="#m15672dedc5" x="348.72058" y="382.269456" style="stroke: #000000; stroke-width: 0.8"/>
      </g>
     </g>
     <g id="text_19">
      <!-- 2 -->
      <g transform="translate(345.53933 396.867893) scale(0.1 -0.1)">
       <use xlink:href="#DejaVuSans-32"/>
      </g>
     </g>
    </g>
    <g id="xtick_10">
     <g id="line2d_35">
      <path d="M 476.69608 382.269456 
L 476.69608 258.378912 
" clip-path="url(#pbf9013ac20)" style="fill: none; stroke: #b0b0b0; stroke-width: 0.8; stroke-linecap: square"/>
     </g>
     <g id="line2d_36">
      <g>
       <use xlink:href="#m15672dedc5" x="476.69608" y="382.269456" style="stroke: #000000; stroke-width: 0.8"/>
      </g>
     </g>
     <g id="text_20">
      <!-- 3 -->
      <g transform="translate(473.51483 396.867893) scale(0.1 -0.1)">
       <use xlink:href="#DejaVuSans-33"/>
      </g>
     </g>
    </g>
    <g id="xtick_11">
     <g id="line2d_37">
      <path d="M 604.67158 382.269456 
L 604.67158 258.378912 
" clip-path="url(#pbf9013ac20)" style="fill: none; stroke: #b0b0b0; stroke-width: 0.8; stroke-linecap: square"/>
     </g>
     <g id="line2d_38">
      <g>
       <use xlink:href="#m15672dedc5" x="604.67158" y="382.269456" style="stroke: #000000; stroke-width: 0.8"/>
      </g>
     </g>
     <g id="text_21">
      <!-- 4 -->
      <g transform="translate(601.49033 396.867893) scale(0.1 -0.1)">
       <use xlink:href="#DejaVuSans-34"/>
      </g>
     </g>
    </g>
    <g id="xtick_12">
     <g id="line2d_39">
      <path d="M 732.647079 382.269456 
L 732.647079 258.378912 
" clip-path="url(#pbf9013ac20)" style="fill: none; stroke: #b0b0b0; stroke-width: 0.8; stroke-linecap: square"/>
     </g>
     <g id="line2d_40">
      <g>
       <use xlink:href="#m15672dedc5" x="732.647079" y="382.269456" style="stroke: #000000; stroke-width: 0.8"/>
      </g>
     </g>
     <g id="text_22">
      <!-- 5 -->
      <g transform="translate(729.465829 396.867893) scale(0.1 -0.1)">
       <use xlink:href="#DejaVuSans-35"/>
      </g>
     </g>
    </g>
   </g>
   <g id="matplotlib.axis_4">
    <g id="ytick_7">
     <g id="line2d_41">
      <path d="M 59.24 381.272955 
L 853.2 381.272955 
" clip-path="url(#pbf9013ac20)" style="fill: none; stroke: #b0b0b0; stroke-width: 0.8; stroke-linecap: square"/>
     </g>
     <g id="line2d_42">
      <g>
       <use xlink:href="#ma48afd65cb" x="59.24" y="381.272955" style="stroke: #000000; stroke-width: 0.8"/>
      </g>
     </g>
     <g id="text_23">
      <!-- −125 -->
      <g transform="translate(24.772813 385.072174) scale(0.1 -0.1)">
       <defs>
        <path id="DejaVuSans-2212" d="M 678 2272 
L 4684 2272 
L 4684 1741 
L 678 1741 
L 678 2272 
z
" transform="scale(0.015625)"/>
       </defs>
       <use xlink:href="#DejaVuSans-2212"/>
       <use xlink:href="#DejaVuSans-31" transform="translate(83.789062 0)"/>
       <use xlink:href="#DejaVuSans-32" transform="translate(147.412109 0)"/>
       <use xlink:href="#DejaVuSans-35" transform="translate(211.035156 0)"/>
      </g>
     </g>
    </g>
    <g id="ytick_8">
     <g id="line2d_43">
      <path d="M 59.24 358.098517 
L 853.2 358.098517 
" clip-path="url(#pbf9013ac20)" style="fill: none; stroke: #b0b0b0; stroke-width: 0.8; stroke-linecap: square"/>
     </g>
     <g id="line2d_44">
      <g>
       <use xlink:href="#ma48afd65cb" x="59.24" y="358.098517" style="stroke: #000000; stroke-width: 0.8"/>
      </g>
     </g>
     <g id="text_24">
      <!-- −100 -->
      <g transform="translate(24.772813 361.897736) scale(0.1 -0.1)">
       <use xlink:href="#DejaVuSans-2212"/>
       <use xlink:href="#DejaVuSans-31" transform="translate(83.789062 0)"/>
       <use xlink:href="#DejaVuSans-30" transform="translate(147.412109 0)"/>
       <use xlink:href="#DejaVuSans-30" transform="translate(211.035156 0)"/>
      </g>
     </g>
    </g>
    <g id="ytick_9">
     <g id="line2d_45">
      <path d="M 59.24 334.92408 
L 853.2 334.92408 
" clip-path="url(#pbf9013ac20)" style="fill: none; stroke: #b0b0b0; stroke-width: 0.8; stroke-linecap: square"/>
     </g>
     <g id="line2d_46">
      <g>
       <use xlink:href="#ma48afd65cb" x="59.24" y="334.92408" style="stroke: #000000; stroke-width: 0.8"/>
      </g>
     </g>
     <g id="text_25">
      <!-- −75 -->
      <g transform="translate(31.135313 338.723298) scale(0.1 -0.1)">
       <use xlink:href="#DejaVuSans-2212"/>
       <use xlink:href="#DejaVuSans-37" transform="translate(83.789062 0)"/>
       <use xlink:href="#DejaVuSans-35" transform="translate(147.412109 0)"/>
      </g>
     </g>
    </g>
    <g id="ytick_10">
     <g id="line2d_47">
      <path d="M 59.24 311.749642 
L 853.2 311.749642 
" clip-path="url(#pbf9013ac20)" style="fill: none; stroke: #b0b0b0; stroke-width: 0.8; stroke-linecap: square"/>
     </g>
     <g id="line2d_48">
      <g>
       <use xlink:href="#ma48afd65cb" x="59.24" y="311.749642" style="stroke: #000000; stroke-width: 0.8"/>
      </g>
     </g>
     <g id="text_26">
      <!-- −50 -->
      <g transform="translate(31.135313 315.548861) scale(0.1 -0.1)">
       <use xlink:href="#DejaVuSans-2212"/>
       <use xlink:href="#DejaVuSans-35" transform="translate(83.789062 0)"/>
       <use xlink:href="#DejaVuSans-30" transform="translate(147.412109 0)"/>
      </g>
     </g>
    </g>
    <g id="ytick_11">
     <g id="line2d_49">
      <path d="M 59.24 288.575204 
L 853.2 288.575204 
" clip-path="url(#pbf9013ac20)" style="fill: none; stroke: #b0b0b0; stroke-width: 0.8; stroke-linecap: square"/>
     </g>
     <g id="line2d_50">
      <g>
       <use xlink:href="#ma48afd65cb" x="59.24" y="288.575204" style="stroke: #000000; stroke-width: 0.8"/>
      </g>
     </g>
     <g id="text_27">
      <!-- −25 -->
      <g transform="translate(31.135313 292.374423) scale(0.1 -0.1)">
       <use xlink:href="#DejaVuSans-2212"/>
       <use xlink:href="#DejaVuSans-32" transform="translate(83.789062 0)"/>
       <use xlink:href="#DejaVuSans-35" transform="translate(147.412109 0)"/>
      </g>
     </g>
    </g>
    <g id="ytick_12">
     <g id="line2d_51">
      <path d="M 59.24 265.400767 
L 853.2 265.400767 
" clip-path="url(#pbf9013ac20)" style="fill: none; stroke: #b0b0b0; stroke-width: 0.8; stroke-linecap: square"/>
     </g>
     <g id="line2d_52">
      <g>
       <use xlink:href="#ma48afd65cb" x="59.24" y="265.400767" style="stroke: #000000; stroke-width: 0.8"/>
      </g>
     </g>
     <g id="text_28">
      <!-- 0 -->
      <g transform="translate(45.8775 269.199985) scale(0.1 -0.1)">
       <use xlink:href="#DejaVuSans-30"/>
      </g>
     </g>
    </g>
    <g id="text_29">
     <!-- v -->
     <g transform="translate(18.693125 323.283559) rotate(-90) scale(0.1 -0.1)">
      <defs>
       <path id="DejaVuSans-76" d="M 191 3500 
L 800 3500 
L 1894 563 
L 2988 3500 
L 3597 3500 
L 2284 0 
L 1503 0 
L 191 3500 
z
" transform="scale(0.015625)"/>
      </defs>
      <use xlink:href="#DejaVuSans-76"/>
     </g>
    </g>
   </g>
   <g id="line2d_53">
    <path d="M 95.329091 267.254722 
L 97.888601 264.473789 
L 100.448111 265.400767 
L 126.043211 265.400767 
L 128.602721 266.327744 
L 131.162231 264.473789 
L 133.721741 265.400767 
L 174.673901 265.400767 
L 177.233411 266.327744 
L 179.792921 264.473789 
L 182.352431 265.400767 
L 256.578221 265.400767 
L 259.13773 265.864255 
L 261.69724 264.0103 
L 264.25675 267.254722 
L 266.81626 265.864255 
L 269.37577 265.864255 
L 271.93528 267.254722 
L 274.49479 266.327744 
L 277.0543 266.791233 
L 279.61381 266.791233 
L 282.17332 267.254722 
L 284.73283 267.254722 
L 287.29234 265.400767 
L 289.85185 269.572165 
L 292.41136 266.791233 
L 294.97087 270.499143 
L 297.53038 272.816587 
L 300.08989 270.499143 
L 302.6494 275.597519 
L 305.20891 281.622873 
L 307.76842 274.207053 
L 310.32793 289.502182 
L 312.88744 283.013339 
L 315.44695 288.111716 
L 318.00646 292.746603 
L 320.56597 295.527536 
L 323.12548 299.698934 
L 328.2445 303.406844 
L 330.80401 306.651266 
L 333.36352 315.457552 
L 335.92303 314.530575 
L 338.48254 311.286153 
L 341.04205 314.067086 
L 343.60156 320.555928 
L 346.16107 331.21617 
L 348.72058 327.971748 
L 351.28009 333.533613 
L 353.8396 344.657344 
L 356.39911 337.241523 
L 358.95862 349.292231 
L 361.51813 351.609675 
L 364.07764 358.098517 
L 366.63715 362.269916 
L 369.19666 367.368293 
L 371.75617 375.247601 
L 374.31568 372.930158 
L 376.87519 370.149225 
L 379.4347 376.638068 
L 381.99421 366.441315 
L 384.55372 375.247601 
L 387.11323 365.977826 
L 389.67274 366.441315 
L 392.23225 365.977826 
L 394.79176 363.196894 
L 397.35127 362.269916 
L 399.91078 361.806427 
L 402.47029 359.025495 
L 405.0298 357.635029 
L 407.58931 357.635029 
L 410.14882 354.390607 
L 412.70833 354.854096 
L 415.26784 350.219209 
L 417.82735 350.219209 
L 420.38686 349.292231 
L 422.94637 347.901765 
L 425.50588 347.438276 
L 428.06539 344.657344 
L 430.6249 344.193855 
L 435.74392 340.485945 
L 438.30343 339.095478 
L 440.86294 338.63199 
L 445.98196 334.92408 
L 451.10098 332.143147 
L 453.66049 331.21617 
L 458.77951 327.50826 
L 461.33902 327.971748 
L 466.45804 323.336861 
L 469.01755 322.409883 
L 471.57706 320.555928 
L 474.13657 319.165462 
L 476.69608 317.311507 
L 479.25559 316.848018 
L 481.8151 314.994063 
L 484.37461 313.603597 
L 486.93412 312.676619 
L 489.49363 310.822664 
L 492.05314 310.359176 
L 494.61265 308.505221 
L 497.17216 308.968709 
L 499.73167 305.260799 
L 502.29118 305.724288 
L 504.85069 301.089401 
L 507.4102 302.479867 
L 509.96971 299.698934 
L 512.52922 300.625912 
L 515.08873 299.235446 
L 517.64824 297.381491 
L 520.20775 296.918002 
L 522.76726 294.137069 
L 525.32677 293.673581 
L 527.88628 290.892648 
L 530.44579 290.429159 
L 533.0053 288.575204 
L 535.56481 287.648227 
L 540.68383 284.867294 
L 548.36236 282.086362 
L 550.92187 280.695895 
L 553.48138 280.695895 
L 556.04089 278.378452 
L 558.6004 278.378452 
L 561.15991 276.524497 
L 563.71942 275.13403 
L 566.27893 274.207053 
L 568.83844 273.743564 
L 573.95746 270.035654 
L 576.51697 268.645188 
L 579.07648 268.181699 
L 581.63599 266.327744 
L 584.1955 265.400767 
L 694.254429 265.400767 
L 696.813939 266.327744 
L 699.373449 264.473789 
L 701.932959 265.400767 
L 724.968549 265.400767 
L 727.528059 266.327744 
L 730.087569 264.473789 
L 732.647079 265.400767 
L 740.325609 265.400767 
L 742.885119 266.327744 
L 745.444629 264.473789 
L 748.004139 265.400767 
L 768.480219 265.400767 
L 771.039729 266.327744 
L 773.599239 264.473789 
L 776.158749 265.400767 
L 786.396789 265.400767 
L 788.956299 266.327744 
L 791.515809 264.473789 
L 794.075319 265.400767 
L 806.872869 265.400767 
L 809.432379 266.327744 
L 811.991889 264.473789 
L 814.551399 265.400767 
L 817.110909 265.400767 
L 817.110909 265.400767 
" clip-path="url(#pbf9013ac20)" style="fill: none; stroke: #008000; stroke-width: 1.5; stroke-linecap: square"/>
   </g>
   <g id="line2d_54">
    <path d="M 379.4347 382.269456 
L 379.4347 258.378912 
" clip-path="url(#pbf9013ac20)" style="fill: none; stroke-dasharray: 5.55,2.4; stroke-dashoffset: 0; stroke: #ff0000; stroke-opacity: 0.5; stroke-width: 1.5"/>
   </g>
   <g id="line2d_55">
    <path d="M 584.1955 382.269456 
L 584.1955 258.378912 
" clip-path="url(#pbf9013ac20)" style="fill: none; stroke-dasharray: 1.5,2.475; stroke-dashoffset: 0; stroke: #bf00bf; stroke-opacity: 0.7; stroke-width: 1.5"/>
   </g>
   <g id="patch_9">
    <path d="M 59.24 382.269456 
L 59.24 258.378912 
" style="fill: none; stroke: #000000; stroke-width: 0.8; stroke-linejoin: miter; stroke-linecap: square"/>
   </g>
   <g id="patch_10">
    <path d="M 853.2 382.269456 
L 853.2 258.378912 
" style="fill: none; stroke: #000000; stroke-width: 0.8; stroke-linejoin: miter; stroke-linecap: square"/>
   </g>
   <g id="patch_11">
    <path d="M 59.24 382.269456 
L 853.2 382.269456 
" style="fill: none; stroke: #000000; stroke-width: 0.8; stroke-linejoin: miter; stroke-linecap: square"/>
   </g>
   <g id="patch_12">
    <path d="M 59.24 258.378912 
L 853.2 258.378912 
" style="fill: none; stroke: #000000; stroke-width: 0.8; stroke-linejoin: miter; stroke-linecap: square"/>
   </g>
   <g id="legend_2">
    <g id="patch_13">
     <path d="M 778.98125 281.057037 
L 846.2 281.057037 
Q 848.2 281.057037 848.2 279.057037 
L 848.2 265.378912 
Q 848.2 263.378912 846.2 263.378912 
L 778.98125 263.378912 
Q 776.98125 263.378912 776.98125 265.378912 
L 776.98125 279.057037 
Q 776.98125 281.057037 778.98125 281.057037 
z
" style="fill: #ffffff; opacity: 0.8; stroke: #cccccc; stroke-linejoin: miter"/>
    </g>
    <g id="line2d_56">
     <path d="M 780.98125 271.477349 
L 790.98125 271.477349 
L 800.98125 271.477349 
" style="fill: none; stroke: #008000; stroke-width: 1.5; stroke-linecap: square"/>
    </g>
    <g id="text_30">
     <!-- v (m/s) -->
     <g transform="translate(808.98125 274.977349) scale(0.1 -0.1)">
      <defs>
       <path id="DejaVuSans-2f" d="M 1625 4666 
L 2156 4666 
L 531 -594 
L 0 -594 
L 1625 4666 
z
" transform="scale(0.015625)"/>
      </defs>
      <use xlink:href="#DejaVuSans-76"/>
      <use xlink:href="#DejaVuSans-20" transform="translate(59.179688 0)"/>
      <use xlink:href="#DejaVuSans-28" transform="translate(90.966797 0)"/>
      <use xlink:href="#DejaVuSans-6d" transform="translate(129.980469 0)"/>
      <use xlink:href="#DejaVuSans-2f" transform="translate(227.392578 0)"/>
      <use xlink:href="#DejaVuSans-73" transform="translate(261.083984 0)"/>
      <use xlink:href="#DejaVuSans-29" transform="translate(313.183594 0)"/>
     </g>
    </g>
   </g>
  </g>
  <g id="axes_3">
   <g id="patch_14">
    <path d="M 59.24 534.04 
L 853.2 534.04 
L 853.2 410.149456 
L 59.24 410.149456 
z
" style="fill: #ffffff"/>
   </g>
   <g id="matplotlib.axis_5">
    <g id="xtick_13">
     <g id="line2d_57">
      <path d="M 90.191854 534.04 
L 90.191854 410.149456 
" clip-path="url(#p4b9d76dbe3)" style="fill: none; stroke: #b0b0b0; stroke-width: 0.8; stroke-linecap: square"/>
     </g>
     <g id="line2d_58">
      <g>
       <use xlink:href="#m15672dedc5" x="90.191854" y="534.04" style="stroke: #000000; stroke-width: 0.8"/>
      </g>
     </g>
     <g id="text_31">
      <!-- 0 -->
      <g transform="translate(87.010604 548.638437) scale(0.1 -0.1)">
       <use xlink:href="#DejaVuSans-30"/>
      </g>
     </g>
    </g>
    <g id="xtick_14">
     <g id="line2d_59">
      <path d="M 218.622782 534.04 
L 218.622782 410.149456 
" clip-path="url(#p4b9d76dbe3)" style="fill: none; stroke: #b0b0b0; stroke-width: 0.8; stroke-linecap: square"/>
     </g>
     <g id="line2d_60">
      <g>
       <use xlink:href="#m15672dedc5" x="218.622782" y="534.04" style="stroke: #000000; stroke-width: 0.8"/>
      </g>
     </g>
     <g id="text_32">
      <!-- 1 -->
      <g transform="translate(215.441532 548.638437) scale(0.1 -0.1)">
       <use xlink:href="#DejaVuSans-31"/>
      </g>
     </g>
    </g>
    <g id="xtick_15">
     <g id="line2d_61">
      <path d="M 347.053711 534.04 
L 347.053711 410.149456 
" clip-path="url(#p4b9d76dbe3)" style="fill: none; stroke: #b0b0b0; stroke-width: 0.8; stroke-linecap: square"/>
     </g>
     <g id="line2d_62">
      <g>
       <use xlink:href="#m15672dedc5" x="347.053711" y="534.04" style="stroke: #000000; stroke-width: 0.8"/>
      </g>
     </g>
     <g id="text_33">
      <!-- 2 -->
      <g transform="translate(343.872461 548.638437) scale(0.1 -0.1)">
       <use xlink:href="#DejaVuSans-32"/>
      </g>
     </g>
    </g>
    <g id="xtick_16">
     <g id="line2d_63">
      <path d="M 475.484639 534.04 
L 475.484639 410.149456 
" clip-path="url(#p4b9d76dbe3)" style="fill: none; stroke: #b0b0b0; stroke-width: 0.8; stroke-linecap: square"/>
     </g>
     <g id="line2d_64">
      <g>
       <use xlink:href="#m15672dedc5" x="475.484639" y="534.04" style="stroke: #000000; stroke-width: 0.8"/>
      </g>
     </g>
     <g id="text_34">
      <!-- 3 -->
      <g transform="translate(472.303389 548.638437) scale(0.1 -0.1)">
       <use xlink:href="#DejaVuSans-33"/>
      </g>
     </g>
    </g>
    <g id="xtick_17">
     <g id="line2d_65">
      <path d="M 603.915568 534.04 
L 603.915568 410.149456 
" clip-path="url(#p4b9d76dbe3)" style="fill: none; stroke: #b0b0b0; stroke-width: 0.8; stroke-linecap: square"/>
     </g>
     <g id="line2d_66">
      <g>
       <use xlink:href="#m15672dedc5" x="603.915568" y="534.04" style="stroke: #000000; stroke-width: 0.8"/>
      </g>
     </g>
     <g id="text_35">
      <!-- 4 -->
      <g transform="translate(600.734318 548.638437) scale(0.1 -0.1)">
       <use xlink:href="#DejaVuSans-34"/>
      </g>
     </g>
    </g>
    <g id="xtick_18">
     <g id="line2d_67">
      <path d="M 732.346496 534.04 
L 732.346496 410.149456 
" clip-path="url(#p4b9d76dbe3)" style="fill: none; stroke: #b0b0b0; stroke-width: 0.8; stroke-linecap: square"/>
     </g>
     <g id="line2d_68">
      <g>
       <use xlink:href="#m15672dedc5" x="732.346496" y="534.04" style="stroke: #000000; stroke-width: 0.8"/>
      </g>
     </g>
     <g id="text_36">
      <!-- 5 -->
      <g transform="translate(729.165246 548.638437) scale(0.1 -0.1)">
       <use xlink:href="#DejaVuSans-35"/>
      </g>
     </g>
    </g>
    <g id="text_37">
     <!-- t -->
     <g transform="translate(454.259844 562.316562) scale(0.1 -0.1)">
      <defs>
       <path id="DejaVuSans-74" d="M 1172 4494 
L 1172 3500 
L 2356 3500 
L 2356 3053 
L 1172 3053 
L 1172 1153 
Q 1172 725 1289 603 
Q 1406 481 1766 481 
L 2356 481 
L 2356 0 
L 1766 0 
Q 1100 0 847 248 
Q 594 497 594 1153 
L 594 3053 
L 172 3053 
L 172 3500 
L 594 3500 
L 594 4494 
L 1172 4494 
z
" transform="scale(0.015625)"/>
      </defs>
      <use xlink:href="#DejaVuSans-74"/>
     </g>
    </g>
   </g>
   <g id="matplotlib.axis_6">
    <g id="ytick_13">
     <g id="line2d_69">
      <path d="M 59.24 501.787503 
L 853.2 501.787503 
" clip-path="url(#p4b9d76dbe3)" style="fill: none; stroke: #b0b0b0; stroke-width: 0.8; stroke-linecap: square"/>
     </g>
     <g id="line2d_70">
      <g>
       <use xlink:href="#ma48afd65cb" x="59.24" y="501.787503" style="stroke: #000000; stroke-width: 0.8"/>
      </g>
     </g>
     <g id="text_38">
      <!-- −500 -->
      <g transform="translate(24.772813 505.586722) scale(0.1 -0.1)">
       <use xlink:href="#DejaVuSans-2212"/>
       <use xlink:href="#DejaVuSans-35" transform="translate(83.789062 0)"/>
       <use xlink:href="#DejaVuSans-30" transform="translate(147.412109 0)"/>
       <use xlink:href="#DejaVuSans-30" transform="translate(211.035156 0)"/>
      </g>
     </g>
    </g>
    <g id="ytick_14">
     <g id="line2d_71">
      <path d="M 59.24 460.831951 
L 853.2 460.831951 
" clip-path="url(#p4b9d76dbe3)" style="fill: none; stroke: #b0b0b0; stroke-width: 0.8; stroke-linecap: square"/>
     </g>
     <g id="line2d_72">
      <g>
       <use xlink:href="#ma48afd65cb" x="59.24" y="460.831951" style="stroke: #000000; stroke-width: 0.8"/>
      </g>
     </g>
     <g id="text_39">
      <!-- 0 -->
      <g transform="translate(45.8775 464.63117) scale(0.1 -0.1)">
       <use xlink:href="#DejaVuSans-30"/>
      </g>
     </g>
    </g>
    <g id="ytick_15">
     <g id="line2d_73">
      <path d="M 59.24 419.8764 
L 853.2 419.8764 
" clip-path="url(#p4b9d76dbe3)" style="fill: none; stroke: #b0b0b0; stroke-width: 0.8; stroke-linecap: square"/>
     </g>
     <g id="line2d_74">
      <g>
       <use xlink:href="#ma48afd65cb" x="59.24" y="419.8764" style="stroke: #000000; stroke-width: 0.8"/>
      </g>
     </g>
     <g id="text_40">
      <!-- 500 -->
      <g transform="translate(33.1525 423.675618) scale(0.1 -0.1)">
       <use xlink:href="#DejaVuSans-35"/>
       <use xlink:href="#DejaVuSans-30" transform="translate(63.623047 0)"/>
       <use xlink:href="#DejaVuSans-30" transform="translate(127.246094 0)"/>
      </g>
     </g>
    </g>
    <g id="text_41">
     <!-- a -->
     <g transform="translate(18.693125 475.15879) rotate(-90) scale(0.1 -0.1)">
      <use xlink:href="#DejaVuSans-61"/>
     </g>
    </g>
   </g>
   <g id="line2d_75">
    <path d="M 95.329091 448.545286 
L 97.897709 464.927506 
L 100.466328 460.831951 
L 123.583895 460.831951 
L 126.152514 464.927506 
L 128.721132 452.640841 
L 131.289751 464.927506 
L 133.858369 460.831951 
L 172.387648 460.831951 
L 174.956267 464.927506 
L 177.524885 452.640841 
L 180.093504 464.927506 
L 182.662122 460.831951 
L 254.583442 460.831951 
L 257.152061 462.879729 
L 259.720679 452.640841 
L 262.289298 475.166394 
L 264.857917 454.688618 
L 269.995154 466.975284 
L 272.563772 456.736396 
L 275.132391 462.879729 
L 277.701009 460.831951 
L 280.269628 462.879729 
L 282.838247 460.831951 
L 285.406865 452.640841 
L 287.975484 479.26195 
L 290.544102 448.545286 
L 293.112721 477.214172 
L 295.681339 471.070839 
L 298.249958 450.593063 
L 300.818577 483.357505 
L 303.387195 487.45306 
L 305.955814 428.06751 
L 308.524432 528.408612 
L 311.093051 432.163065 
L 313.661669 483.357505 
L 316.230288 481.309727 
L 318.798907 473.118617 
L 321.367525 479.26195 
L 323.936144 469.023062 
L 326.504762 469.023062 
L 329.073381 475.166394 
L 331.641999 499.739725 
L 334.210618 456.736396 
L 336.779236 446.497508 
L 339.347855 473.118617 
L 341.916474 489.500837 
L 344.485092 507.930836 
L 347.053711 446.497508 
L 349.622329 485.405282 
L 352.190948 509.978613 
L 354.759566 428.06751 
L 357.328185 514.074169 
L 359.896804 471.070839 
L 362.465422 489.500837 
L 365.034041 479.26195 
L 367.602659 483.357505 
L 370.171278 495.64417 
L 372.739896 450.593063 
L 375.308515 448.545286 
L 377.877134 489.500837 
L 380.445752 415.780844 
L 383.014371 499.739725 
L 385.582989 419.8764 
L 388.151608 462.879729 
L 390.720226 458.784174 
L 393.288845 448.545286 
L 395.857464 456.736396 
L 398.426082 458.784174 
L 400.994701 448.545286 
L 406.131938 460.831951 
L 408.700556 446.497508 
L 411.269175 462.879729 
L 413.837794 440.354175 
L 416.406412 460.831951 
L 418.975031 456.736396 
L 421.543649 454.688618 
L 424.112268 458.784174 
L 426.680886 448.545286 
L 429.249505 458.784174 
L 431.818124 452.640841 
L 434.386742 452.640841 
L 436.955361 454.688618 
L 439.523979 458.784174 
L 442.092598 452.640841 
L 444.661216 452.640841 
L 447.229835 454.688618 
L 449.798454 454.688618 
L 452.367072 456.736396 
L 454.935691 452.640841 
L 457.504309 452.640841 
L 460.072928 462.879729 
L 462.641546 450.593063 
L 465.210165 450.593063 
L 467.778784 456.736396 
L 470.347402 452.640841 
L 472.916021 454.688618 
L 475.484639 452.640841 
L 478.053258 458.784174 
L 480.621876 452.640841 
L 485.759114 456.736396 
L 488.327732 452.640841 
L 490.896351 458.784174 
L 493.464969 452.640841 
L 496.033588 462.879729 
L 498.602206 444.449731 
L 501.170825 462.879729 
L 503.739444 440.354175 
L 506.308062 466.975284 
L 508.876681 448.545286 
L 511.445299 464.927506 
L 514.013918 454.688618 
L 516.582536 452.640841 
L 519.151155 458.784174 
L 521.719774 448.545286 
L 524.288392 458.784174 
L 526.857011 448.545286 
L 529.425629 458.784174 
L 531.994248 452.640841 
L 534.562866 456.736396 
L 537.131485 454.688618 
L 539.700104 454.688618 
L 542.268722 456.736396 
L 547.405959 456.736396 
L 549.974578 454.688618 
L 552.543196 460.831951 
L 555.111815 450.593063 
L 557.680434 460.831951 
L 560.249052 452.640841 
L 567.954908 458.784174 
L 570.523526 452.640841 
L 573.092145 452.640841 
L 575.660764 454.688618 
L 578.229382 458.784174 
L 580.798001 452.640841 
L 585.935238 460.831951 
L 693.817218 460.831951 
L 696.385836 464.927506 
L 698.954455 452.640841 
L 701.523073 464.927506 
L 704.091692 460.831951 
L 724.640641 460.831951 
L 727.209259 464.927506 
L 729.777878 452.640841 
L 732.346496 464.927506 
L 734.915115 460.831951 
L 740.052352 460.831951 
L 742.620971 464.927506 
L 745.189589 452.640841 
L 747.758208 464.927506 
L 750.326826 460.831951 
L 768.307156 460.831951 
L 770.875775 464.927506 
L 773.444393 452.640841 
L 776.013012 464.927506 
L 778.581631 460.831951 
L 786.287486 460.831951 
L 788.856105 464.927506 
L 791.424723 452.640841 
L 793.993342 464.927506 
L 796.561961 460.831951 
L 806.836435 460.831951 
L 809.405053 464.927506 
L 811.973672 452.640841 
L 814.542291 464.927506 
L 817.110909 460.831951 
L 817.110909 460.831951 
" clip-path="url(#p4b9d76dbe3)" style="fill: none; stroke: #ff0000; stroke-width: 1.5; stroke-linecap: square"/>
   </g>
   <g id="line2d_76">
    <path d="M 377.877134 534.04 
L 377.877134 410.149456 
" clip-path="url(#p4b9d76dbe3)" style="fill: none; stroke-dasharray: 5.55,2.4; stroke-dashoffset: 0; stroke: #ff0000; stroke-opacity: 0.5; stroke-width: 1.5"/>
   </g>
   <g id="line2d_77">
    <path d="M 583.366619 534.04 
L 583.366619 410.149456 
" clip-path="url(#p4b9d76dbe3)" style="fill: none; stroke-dasharray: 5.55,2.4; stroke-dashoffset: 0; stroke: #bf00bf; stroke-opacity: 0.7; stroke-width: 1.5"/>
   </g>
   <g id="patch_15">
    <path d="M 59.24 534.04 
L 59.24 410.149456 
" style="fill: none; stroke: #000000; stroke-width: 0.8; stroke-linejoin: miter; stroke-linecap: square"/>
   </g>
   <g id="patch_16">
    <path d="M 853.2 534.04 
L 853.2 410.149456 
" style="fill: none; stroke: #000000; stroke-width: 0.8; stroke-linejoin: miter; stroke-linecap: square"/>
   </g>
   <g id="patch_17">
    <path d="M 59.24 534.04 
L 853.2 534.04 
" style="fill: none; stroke: #000000; stroke-width: 0.8; stroke-linejoin: miter; stroke-linecap: square"/>
   </g>
   <g id="patch_18">
    <path d="M 59.24 410.149456 
L 853.2 410.149456 
" style="fill: none; stroke: #000000; stroke-width: 0.8; stroke-linejoin: miter; stroke-linecap: square"/>
   </g>
   <g id="legend_3">
    <g id="patch_19">
     <path d="M 764.029688 432.827581 
L 846.2 432.827581 
Q 848.2 432.827581 848.2 430.827581 
L 848.2 417.149456 
Q 848.2 415.149456 846.2 415.149456 
L 764.029688 415.149456 
Q 762.029688 415.149456 762.029688 417.149456 
L 762.029688 430.827581 
Q 762.029688 432.827581 764.029688 432.827581 
z
" style="fill: #ffffff; opacity: 0.8; stroke: #cccccc; stroke-linejoin: miter"/>
    </g>
    <g id="line2d_78">
     <path d="M 766.029688 423.247893 
L 776.029688 423.247893 
L 786.029688 423.247893 
" style="fill: none; stroke: #ff0000; stroke-width: 1.5; stroke-linecap: square"/>
    </g>
    <g id="text_42">
     <!-- a (m/s^2) -->
     <g transform="translate(794.029688 426.747893) scale(0.1 -0.1)">
      <defs>
       <path id="DejaVuSans-5e" d="M 2988 4666 
L 4684 2925 
L 4056 2925 
L 2681 4159 
L 1306 2925 
L 678 2925 
L 2375 4666 
L 2988 4666 
z
" transform="scale(0.015625)"/>
      </defs>
      <use xlink:href="#DejaVuSans-61"/>
      <use xlink:href="#DejaVuSans-20" transform="translate(61.279297 0)"/>
      <use xlink:href="#DejaVuSans-28" transform="translate(93.066406 0)"/>
      <use xlink:href="#DejaVuSans-6d" transform="translate(132.080078 0)"/>
      <use xlink:href="#DejaVuSans-2f" transform="translate(229.492188 0)"/>
      <use xlink:href="#DejaVuSans-73" transform="translate(263.183594 0)"/>
      <use xlink:href="#DejaVuSans-5e" transform="translate(315.283203 0)"/>
      <use xlink:href="#DejaVuSans-32" transform="translate(399.072266 0)"/>
      <use xlink:href="#DejaVuSans-29" transform="translate(462.695312 0)"/>
     </g>
    </g>
   </g>
  </g>
  <g id="text_43">
   <!-- Position, Velocity, and Acceleration of Cart Using Sonar run 6# Data -->
   <g transform="translate(227.715937 11.998125) scale(0.12 -0.12)">
    <defs>
     <path id="DejaVuSans-50" d="M 1259 4147 
L 1259 2394 
L 2053 2394 
Q 2494 2394 2734 2622 
Q 2975 2850 2975 3272 
Q 2975 3691 2734 3919 
Q 2494 4147 2053 4147 
L 1259 4147 
z
M 628 4666 
L 2053 4666 
Q 2838 4666 3239 4311 
Q 3641 3956 3641 3272 
Q 3641 2581 3239 2228 
Q 2838 1875 2053 1875 
L 1259 1875 
L 1259 0 
L 628 0 
L 628 4666 
z
" transform="scale(0.015625)"/>
     <path id="DejaVuSans-6f" d="M 1959 3097 
Q 1497 3097 1228 2736 
Q 959 2375 959 1747 
Q 959 1119 1226 758 
Q 1494 397 1959 397 
Q 2419 397 2687 759 
Q 2956 1122 2956 1747 
Q 2956 2369 2687 2733 
Q 2419 3097 1959 3097 
z
M 1959 3584 
Q 2709 3584 3137 3096 
Q 3566 2609 3566 1747 
Q 3566 888 3137 398 
Q 2709 -91 1959 -91 
Q 1206 -91 779 398 
Q 353 888 353 1747 
Q 353 2609 779 3096 
Q 1206 3584 1959 3584 
z
" transform="scale(0.015625)"/>
     <path id="DejaVuSans-69" d="M 603 3500 
L 1178 3500 
L 1178 0 
L 603 0 
L 603 3500 
z
M 603 4863 
L 1178 4863 
L 1178 4134 
L 603 4134 
L 603 4863 
z
" transform="scale(0.015625)"/>
     <path id="DejaVuSans-6e" d="M 3513 2113 
L 3513 0 
L 2938 0 
L 2938 2094 
Q 2938 2591 2744 2837 
Q 2550 3084 2163 3084 
Q 1697 3084 1428 2787 
Q 1159 2491 1159 1978 
L 1159 0 
L 581 0 
L 581 3500 
L 1159 3500 
L 1159 2956 
Q 1366 3272 1645 3428 
Q 1925 3584 2291 3584 
Q 2894 3584 3203 3211 
Q 3513 2838 3513 2113 
z
" transform="scale(0.015625)"/>
     <path id="DejaVuSans-56" d="M 1831 0 
L 50 4666 
L 709 4666 
L 2188 738 
L 3669 4666 
L 4325 4666 
L 2547 0 
L 1831 0 
z
" transform="scale(0.015625)"/>
     <path id="DejaVuSans-65" d="M 3597 1894 
L 3597 1613 
L 953 1613 
Q 991 1019 1311 708 
Q 1631 397 2203 397 
Q 2534 397 2845 478 
Q 3156 559 3463 722 
L 3463 178 
Q 3153 47 2828 -22 
Q 2503 -91 2169 -91 
Q 1331 -91 842 396 
Q 353 884 353 1716 
Q 353 2575 817 3079 
Q 1281 3584 2069 3584 
Q 2775 3584 3186 3129 
Q 3597 2675 3597 1894 
z
M 3022 2063 
Q 3016 2534 2758 2815 
Q 2500 3097 2075 3097 
Q 1594 3097 1305 2825 
Q 1016 2553 972 2059 
L 3022 2063 
z
" transform="scale(0.015625)"/>
     <path id="DejaVuSans-6c" d="M 603 4863 
L 1178 4863 
L 1178 0 
L 603 0 
L 603 4863 
z
" transform="scale(0.015625)"/>
     <path id="DejaVuSans-63" d="M 3122 3366 
L 3122 2828 
Q 2878 2963 2633 3030 
Q 2388 3097 2138 3097 
Q 1578 3097 1268 2742 
Q 959 2388 959 1747 
Q 959 1106 1268 751 
Q 1578 397 2138 397 
Q 2388 397 2633 464 
Q 2878 531 3122 666 
L 3122 134 
Q 2881 22 2623 -34 
Q 2366 -91 2075 -91 
Q 1284 -91 818 406 
Q 353 903 353 1747 
Q 353 2603 823 3093 
Q 1294 3584 2113 3584 
Q 2378 3584 2631 3529 
Q 2884 3475 3122 3366 
z
" transform="scale(0.015625)"/>
     <path id="DejaVuSans-79" d="M 2059 -325 
Q 1816 -950 1584 -1140 
Q 1353 -1331 966 -1331 
L 506 -1331 
L 506 -850 
L 844 -850 
Q 1081 -850 1212 -737 
Q 1344 -625 1503 -206 
L 1606 56 
L 191 3500 
L 800 3500 
L 1894 763 
L 2988 3500 
L 3597 3500 
L 2059 -325 
z
" transform="scale(0.015625)"/>
     <path id="DejaVuSans-64" d="M 2906 2969 
L 2906 4863 
L 3481 4863 
L 3481 0 
L 2906 0 
L 2906 525 
Q 2725 213 2448 61 
Q 2172 -91 1784 -91 
Q 1150 -91 751 415 
Q 353 922 353 1747 
Q 353 2572 751 3078 
Q 1150 3584 1784 3584 
Q 2172 3584 2448 3432 
Q 2725 3281 2906 2969 
z
M 947 1747 
Q 947 1113 1208 752 
Q 1469 391 1925 391 
Q 2381 391 2643 752 
Q 2906 1113 2906 1747 
Q 2906 2381 2643 2742 
Q 2381 3103 1925 3103 
Q 1469 3103 1208 2742 
Q 947 2381 947 1747 
z
" transform="scale(0.015625)"/>
     <path id="DejaVuSans-41" d="M 2188 4044 
L 1331 1722 
L 3047 1722 
L 2188 4044 
z
M 1831 4666 
L 2547 4666 
L 4325 0 
L 3669 0 
L 3244 1197 
L 1141 1197 
L 716 0 
L 50 0 
L 1831 4666 
z
" transform="scale(0.015625)"/>
     <path id="DejaVuSans-72" d="M 2631 2963 
Q 2534 3019 2420 3045 
Q 2306 3072 2169 3072 
Q 1681 3072 1420 2755 
Q 1159 2438 1159 1844 
L 1159 0 
L 581 0 
L 581 3500 
L 1159 3500 
L 1159 2956 
Q 1341 3275 1631 3429 
Q 1922 3584 2338 3584 
Q 2397 3584 2469 3576 
Q 2541 3569 2628 3553 
L 2631 2963 
z
" transform="scale(0.015625)"/>
     <path id="DejaVuSans-66" d="M 2375 4863 
L 2375 4384 
L 1825 4384 
Q 1516 4384 1395 4259 
Q 1275 4134 1275 3809 
L 1275 3500 
L 2222 3500 
L 2222 3053 
L 1275 3053 
L 1275 0 
L 697 0 
L 697 3053 
L 147 3053 
L 147 3500 
L 697 3500 
L 697 3744 
Q 697 4328 969 4595 
Q 1241 4863 1831 4863 
L 2375 4863 
z
" transform="scale(0.015625)"/>
     <path id="DejaVuSans-43" d="M 4122 4306 
L 4122 3641 
Q 3803 3938 3442 4084 
Q 3081 4231 2675 4231 
Q 1875 4231 1450 3742 
Q 1025 3253 1025 2328 
Q 1025 1406 1450 917 
Q 1875 428 2675 428 
Q 3081 428 3442 575 
Q 3803 722 4122 1019 
L 4122 359 
Q 3791 134 3420 21 
Q 3050 -91 2638 -91 
Q 1578 -91 968 557 
Q 359 1206 359 2328 
Q 359 3453 968 4101 
Q 1578 4750 2638 4750 
Q 3056 4750 3426 4639 
Q 3797 4528 4122 4306 
z
" transform="scale(0.015625)"/>
     <path id="DejaVuSans-55" d="M 556 4666 
L 1191 4666 
L 1191 1831 
Q 1191 1081 1462 751 
Q 1734 422 2344 422 
Q 2950 422 3222 751 
Q 3494 1081 3494 1831 
L 3494 4666 
L 4128 4666 
L 4128 1753 
Q 4128 841 3676 375 
Q 3225 -91 2344 -91 
Q 1459 -91 1007 375 
Q 556 841 556 1753 
L 556 4666 
z
" transform="scale(0.015625)"/>
     <path id="DejaVuSans-67" d="M 2906 1791 
Q 2906 2416 2648 2759 
Q 2391 3103 1925 3103 
Q 1463 3103 1205 2759 
Q 947 2416 947 1791 
Q 947 1169 1205 825 
Q 1463 481 1925 481 
Q 2391 481 2648 825 
Q 2906 1169 2906 1791 
z
M 3481 434 
Q 3481 -459 3084 -895 
Q 2688 -1331 1869 -1331 
Q 1566 -1331 1297 -1286 
Q 1028 -1241 775 -1147 
L 775 -588 
Q 1028 -725 1275 -790 
Q 1522 -856 1778 -856 
Q 2344 -856 2625 -561 
Q 2906 -266 2906 331 
L 2906 616 
Q 2728 306 2450 153 
Q 2172 0 1784 0 
Q 1141 0 747 490 
Q 353 981 353 1791 
Q 353 2603 747 3093 
Q 1141 3584 1784 3584 
Q 2172 3584 2450 3431 
Q 2728 3278 2906 2969 
L 2906 3500 
L 3481 3500 
L 3481 434 
z
" transform="scale(0.015625)"/>
     <path id="DejaVuSans-53" d="M 3425 4513 
L 3425 3897 
Q 3066 4069 2747 4153 
Q 2428 4238 2131 4238 
Q 1616 4238 1336 4038 
Q 1056 3838 1056 3469 
Q 1056 3159 1242 3001 
Q 1428 2844 1947 2747 
L 2328 2669 
Q 3034 2534 3370 2195 
Q 3706 1856 3706 1288 
Q 3706 609 3251 259 
Q 2797 -91 1919 -91 
Q 1588 -91 1214 -16 
Q 841 59 441 206 
L 441 856 
Q 825 641 1194 531 
Q 1563 422 1919 422 
Q 2459 422 2753 634 
Q 3047 847 3047 1241 
Q 3047 1584 2836 1778 
Q 2625 1972 2144 2069 
L 1759 2144 
Q 1053 2284 737 2584 
Q 422 2884 422 3419 
Q 422 4038 858 4394 
Q 1294 4750 2059 4750 
Q 2388 4750 2728 4690 
Q 3069 4631 3425 4513 
z
" transform="scale(0.015625)"/>
     <path id="DejaVuSans-75" d="M 544 1381 
L 544 3500 
L 1119 3500 
L 1119 1403 
Q 1119 906 1312 657 
Q 1506 409 1894 409 
Q 2359 409 2629 706 
Q 2900 1003 2900 1516 
L 2900 3500 
L 3475 3500 
L 3475 0 
L 2900 0 
L 2900 538 
Q 2691 219 2414 64 
Q 2138 -91 1772 -91 
Q 1169 -91 856 284 
Q 544 659 544 1381 
z
M 1991 3584 
L 1991 3584 
z
" transform="scale(0.015625)"/>
     <path id="DejaVuSans-36" d="M 2113 2584 
Q 1688 2584 1439 2293 
Q 1191 2003 1191 1497 
Q 1191 994 1439 701 
Q 1688 409 2113 409 
Q 2538 409 2786 701 
Q 3034 994 3034 1497 
Q 3034 2003 2786 2293 
Q 2538 2584 2113 2584 
z
M 3366 4563 
L 3366 3988 
Q 3128 4100 2886 4159 
Q 2644 4219 2406 4219 
Q 1781 4219 1451 3797 
Q 1122 3375 1075 2522 
Q 1259 2794 1537 2939 
Q 1816 3084 2150 3084 
Q 2853 3084 3261 2657 
Q 3669 2231 3669 1497 
Q 3669 778 3244 343 
Q 2819 -91 2113 -91 
Q 1303 -91 875 529 
Q 447 1150 447 2328 
Q 447 3434 972 4092 
Q 1497 4750 2381 4750 
Q 2619 4750 2861 4703 
Q 3103 4656 3366 4563 
z
" transform="scale(0.015625)"/>
     <path id="DejaVuSans-23" d="M 3272 2816 
L 2363 2816 
L 2100 1772 
L 3016 1772 
L 3272 2816 
z
M 2803 4594 
L 2478 3297 
L 3391 3297 
L 3719 4594 
L 4219 4594 
L 3897 3297 
L 4872 3297 
L 4872 2816 
L 3775 2816 
L 3519 1772 
L 4513 1772 
L 4513 1294 
L 3397 1294 
L 3072 0 
L 2572 0 
L 2894 1294 
L 1978 1294 
L 1656 0 
L 1153 0 
L 1478 1294 
L 494 1294 
L 494 1772 
L 1594 1772 
L 1856 2816 
L 850 2816 
L 850 3297 
L 1978 3297 
L 2297 4594 
L 2803 4594 
z
" transform="scale(0.015625)"/>
     <path id="DejaVuSans-44" d="M 1259 4147 
L 1259 519 
L 2022 519 
Q 2988 519 3436 956 
Q 3884 1394 3884 2338 
Q 3884 3275 3436 3711 
Q 2988 4147 2022 4147 
L 1259 4147 
z
M 628 4666 
L 1925 4666 
Q 3281 4666 3915 4102 
Q 4550 3538 4550 2338 
Q 4550 1131 3912 565 
Q 3275 0 1925 0 
L 628 0 
L 628 4666 
z
" transform="scale(0.015625)"/>
    </defs>
    <use xlink:href="#DejaVuSans-50"/>
    <use xlink:href="#DejaVuSans-6f" transform="translate(56.677734 0)"/>
    <use xlink:href="#DejaVuSans-73" transform="translate(117.859375 0)"/>
    <use xlink:href="#DejaVuSans-69" transform="translate(169.958984 0)"/>
    <use xlink:href="#DejaVuSans-74" transform="translate(197.742188 0)"/>
    <use xlink:href="#DejaVuSans-69" transform="translate(236.951172 0)"/>
    <use xlink:href="#DejaVuSans-6f" transform="translate(264.734375 0)"/>
    <use xlink:href="#DejaVuSans-6e" transform="translate(325.916016 0)"/>
    <use xlink:href="#DejaVuSans-2c" transform="translate(389.294922 0)"/>
    <use xlink:href="#DejaVuSans-20" transform="translate(421.082031 0)"/>
    <use xlink:href="#DejaVuSans-56" transform="translate(452.869141 0)"/>
    <use xlink:href="#DejaVuSans-65" transform="translate(513.527344 0)"/>
    <use xlink:href="#DejaVuSans-6c" transform="translate(575.050781 0)"/>
    <use xlink:href="#DejaVuSans-6f" transform="translate(602.833984 0)"/>
    <use xlink:href="#DejaVuSans-63" transform="translate(664.015625 0)"/>
    <use xlink:href="#DejaVuSans-69" transform="translate(718.996094 0)"/>
    <use xlink:href="#DejaVuSans-74" transform="translate(746.779297 0)"/>
    <use xlink:href="#DejaVuSans-79" transform="translate(785.988281 0)"/>
    <use xlink:href="#DejaVuSans-2c" transform="translate(845.167969 0)"/>
    <use xlink:href="#DejaVuSans-20" transform="translate(876.955078 0)"/>
    <use xlink:href="#DejaVuSans-61" transform="translate(908.742188 0)"/>
    <use xlink:href="#DejaVuSans-6e" transform="translate(970.021484 0)"/>
    <use xlink:href="#DejaVuSans-64" transform="translate(1033.400391 0)"/>
    <use xlink:href="#DejaVuSans-20" transform="translate(1096.876953 0)"/>
    <use xlink:href="#DejaVuSans-41" transform="translate(1128.664062 0)"/>
    <use xlink:href="#DejaVuSans-63" transform="translate(1195.322266 0)"/>
    <use xlink:href="#DejaVuSans-63" transform="translate(1250.302734 0)"/>
    <use xlink:href="#DejaVuSans-65" transform="translate(1305.283203 0)"/>
    <use xlink:href="#DejaVuSans-6c" transform="translate(1366.806641 0)"/>
    <use xlink:href="#DejaVuSans-65" transform="translate(1394.589844 0)"/>
    <use xlink:href="#DejaVuSans-72" transform="translate(1456.113281 0)"/>
    <use xlink:href="#DejaVuSans-61" transform="translate(1497.226562 0)"/>
    <use xlink:href="#DejaVuSans-74" transform="translate(1558.505859 0)"/>
    <use xlink:href="#DejaVuSans-69" transform="translate(1597.714844 0)"/>
    <use xlink:href="#DejaVuSans-6f" transform="translate(1625.498047 0)"/>
    <use xlink:href="#DejaVuSans-6e" transform="translate(1686.679688 0)"/>
    <use xlink:href="#DejaVuSans-20" transform="translate(1750.058594 0)"/>
    <use xlink:href="#DejaVuSans-6f" transform="translate(1781.845703 0)"/>
    <use xlink:href="#DejaVuSans-66" transform="translate(1843.027344 0)"/>
    <use xlink:href="#DejaVuSans-20" transform="translate(1878.232422 0)"/>
    <use xlink:href="#DejaVuSans-43" transform="translate(1910.019531 0)"/>
    <use xlink:href="#DejaVuSans-61" transform="translate(1979.84375 0)"/>
    <use xlink:href="#DejaVuSans-72" transform="translate(2041.123047 0)"/>
    <use xlink:href="#DejaVuSans-74" transform="translate(2082.236328 0)"/>
    <use xlink:href="#DejaVuSans-20" transform="translate(2121.445312 0)"/>
    <use xlink:href="#DejaVuSans-55" transform="translate(2153.232422 0)"/>
    <use xlink:href="#DejaVuSans-73" transform="translate(2226.425781 0)"/>
    <use xlink:href="#DejaVuSans-69" transform="translate(2278.525391 0)"/>
    <use xlink:href="#DejaVuSans-6e" transform="translate(2306.308594 0)"/>
    <use xlink:href="#DejaVuSans-67" transform="translate(2369.6875 0)"/>
    <use xlink:href="#DejaVuSans-20" transform="translate(2433.164062 0)"/>
    <use xlink:href="#DejaVuSans-53" transform="translate(2464.951172 0)"/>
    <use xlink:href="#DejaVuSans-6f" transform="translate(2528.427734 0)"/>
    <use xlink:href="#DejaVuSans-6e" transform="translate(2589.609375 0)"/>
    <use xlink:href="#DejaVuSans-61" transform="translate(2652.988281 0)"/>
    <use xlink:href="#DejaVuSans-72" transform="translate(2714.267578 0)"/>
    <use xlink:href="#DejaVuSans-20" transform="translate(2755.380859 0)"/>
    <use xlink:href="#DejaVuSans-72" transform="translate(2787.167969 0)"/>
    <use xlink:href="#DejaVuSans-75" transform="translate(2828.28125 0)"/>
    <use xlink:href="#DejaVuSans-6e" transform="translate(2891.660156 0)"/>
    <use xlink:href="#DejaVuSans-20" transform="translate(2955.039062 0)"/>
    <use xlink:href="#DejaVuSans-36" transform="translate(2986.826172 0)"/>
    <use xlink:href="#DejaVuSans-23" transform="translate(3050.449219 0)"/>
    <use xlink:href="#DejaVuSans-20" transform="translate(3134.238281 0)"/>
    <use xlink:href="#DejaVuSans-44" transform="translate(3166.025391 0)"/>
    <use xlink:href="#DejaVuSans-61" transform="translate(3243.027344 0)"/>
    <use xlink:href="#DejaVuSans-74" transform="translate(3304.306641 0)"/>
    <use xlink:href="#DejaVuSans-61" transform="translate(3343.515625 0)"/>
   </g>
  </g>
 </g>
 <defs>
  <clipPath id="p4ff8fc1d78">
   <rect x="59.24" y="106.608368" width="793.96" height="123.890544"/>
  </clipPath>
  <clipPath id="pbf9013ac20">
   <rect x="59.24" y="258.378912" width="793.96" height="123.890544"/>
  </clipPath>
  <clipPath id="p4b9d76dbe3">
   <rect x="59.24" y="410.149456" width="793.96" height="123.890544"/>
  </clipPath>
 </defs>
</svg>
