<?xml version="1.0" encoding="utf-8" standalone="no"?>
<!DOCTYPE svg PUBLIC "-//W3C//DTD SVG 1.1//EN"
  "http://www.w3.org/Graphics/SVG/1.1/DTD/svg11.dtd">
<svg xmlns:xlink="http://www.w3.org/1999/xlink" width="864pt" height="576pt" viewBox="0 0 864 576" xmlns="http://www.w3.org/2000/svg" version="1.1">
 <metadata>
  <rdf:RDF xmlns:dc="http://purl.org/dc/elements/1.1/" xmlns:cc="http://creativecommons.org/ns#" xmlns:rdf="http://www.w3.org/1999/02/22-rdf-syntax-ns#">
   <cc:Work>
    <dc:type rdf:resource="http://purl.org/dc/dcmitype/StillImage"/>
    <dc:date>2025-01-14T15:28:36.064469</dc:date>
    <dc:format>image/svg+xml</dc:format>
    <dc:creator>
     <cc:Agent>
      <dc:title>Matplotlib v3.10.0, https://matplotlib.org/</dc:title>
     </cc:Agent>
    </dc:creator>
   </cc:Work>
  </rdf:RDF>
 </metadata>
 <defs>
  <style type="text/css">*{stroke-linejoin: round; stroke-linecap: butt}</style>
 </defs>
 <g id="figure_1">
  <g id="patch_1">
   <path d="M 0 576 
L 864 576 
L 864 0 
L 0 0 
z
" style="fill: #ffffff"/>
  </g>
  <g id="axes_1">
   <g id="patch_2">
    <path d="M 71.84 230.498912 
L 853.2 230.498912 
L 853.2 106.608368 
L 71.84 106.608368 
z
" style="fill: #ffffff"/>
   </g>
   <g id="matplotlib.axis_1">
    <g id="xtick_1">
     <g id="line2d_1">
      <path d="M 107.356364 230.498912 
L 107.356364 106.608368 
" clip-path="url(#pf91130f099)" style="fill: none; stroke: #b0b0b0; stroke-width: 0.8; stroke-linecap: square"/>
     </g>
     <g id="line2d_2">
      <defs>
       <path id="m07bde6aab4" d="M 0 0 
L 0 3.5 
" style="stroke: #000000; stroke-width: 0.8"/>
      </defs>
      <g>
       <use xlink:href="#m07bde6aab4" x="107.356364" y="230.498912" style="stroke: #000000; stroke-width: 0.8"/>
      </g>
     </g>
     <g id="text_1">
      <!-- 0 -->
      <g transform="translate(104.175114 245.097349) scale(0.1 -0.1)">
       <defs>
        <path id="DejaVuSans-30" d="M 2034 4250 
Q 1547 4250 1301 3770 
Q 1056 3291 1056 2328 
Q 1056 1369 1301 889 
Q 1547 409 2034 409 
Q 2525 409 2770 889 
Q 3016 1369 3016 2328 
Q 3016 3291 2770 3770 
Q 2525 4250 2034 4250 
z
M 2034 4750 
Q 2819 4750 3233 4129 
Q 3647 3509 3647 2328 
Q 3647 1150 3233 529 
Q 2819 -91 2034 -91 
Q 1250 -91 836 529 
Q 422 1150 422 2328 
Q 422 3509 836 4129 
Q 1250 4750 2034 4750 
z
" transform="scale(0.015625)"/>
       </defs>
       <use xlink:href="#DejaVuSans-30"/>
      </g>
     </g>
    </g>
    <g id="xtick_2">
     <g id="line2d_3">
      <path d="M 237.452934 230.498912 
L 237.452934 106.608368 
" clip-path="url(#pf91130f099)" style="fill: none; stroke: #b0b0b0; stroke-width: 0.8; stroke-linecap: square"/>
     </g>
     <g id="line2d_4">
      <g>
       <use xlink:href="#m07bde6aab4" x="237.452934" y="230.498912" style="stroke: #000000; stroke-width: 0.8"/>
      </g>
     </g>
     <g id="text_2">
      <!-- 1 -->
      <g transform="translate(234.271684 245.097349) scale(0.1 -0.1)">
       <defs>
        <path id="DejaVuSans-31" d="M 794 531 
L 1825 531 
L 1825 4091 
L 703 3866 
L 703 4441 
L 1819 4666 
L 2450 4666 
L 2450 531 
L 3481 531 
L 3481 0 
L 794 0 
L 794 531 
z
" transform="scale(0.015625)"/>
       </defs>
       <use xlink:href="#DejaVuSans-31"/>
      </g>
     </g>
    </g>
    <g id="xtick_3">
     <g id="line2d_5">
      <path d="M 367.549504 230.498912 
L 367.549504 106.608368 
" clip-path="url(#pf91130f099)" style="fill: none; stroke: #b0b0b0; stroke-width: 0.8; stroke-linecap: square"/>
     </g>
     <g id="line2d_6">
      <g>
       <use xlink:href="#m07bde6aab4" x="367.549504" y="230.498912" style="stroke: #000000; stroke-width: 0.8"/>
      </g>
     </g>
     <g id="text_3">
      <!-- 2 -->
      <g transform="translate(364.368254 245.097349) scale(0.1 -0.1)">
       <defs>
        <path id="DejaVuSans-32" d="M 1228 531 
L 3431 531 
L 3431 0 
L 469 0 
L 469 531 
Q 828 903 1448 1529 
Q 2069 2156 2228 2338 
Q 2531 2678 2651 2914 
Q 2772 3150 2772 3378 
Q 2772 3750 2511 3984 
Q 2250 4219 1831 4219 
Q 1534 4219 1204 4116 
Q 875 4013 500 3803 
L 500 4441 
Q 881 4594 1212 4672 
Q 1544 4750 1819 4750 
Q 2544 4750 2975 4387 
Q 3406 4025 3406 3419 
Q 3406 3131 3298 2873 
Q 3191 2616 2906 2266 
Q 2828 2175 2409 1742 
Q 1991 1309 1228 531 
z
" transform="scale(0.015625)"/>
       </defs>
       <use xlink:href="#DejaVuSans-32"/>
      </g>
     </g>
    </g>
    <g id="xtick_4">
     <g id="line2d_7">
      <path d="M 497.646074 230.498912 
L 497.646074 106.608368 
" clip-path="url(#pf91130f099)" style="fill: none; stroke: #b0b0b0; stroke-width: 0.8; stroke-linecap: square"/>
     </g>
     <g id="line2d_8">
      <g>
       <use xlink:href="#m07bde6aab4" x="497.646074" y="230.498912" style="stroke: #000000; stroke-width: 0.8"/>
      </g>
     </g>
     <g id="text_4">
      <!-- 3 -->
      <g transform="translate(494.464824 245.097349) scale(0.1 -0.1)">
       <defs>
        <path id="DejaVuSans-33" d="M 2597 2516 
Q 3050 2419 3304 2112 
Q 3559 1806 3559 1356 
Q 3559 666 3084 287 
Q 2609 -91 1734 -91 
Q 1441 -91 1130 -33 
Q 819 25 488 141 
L 488 750 
Q 750 597 1062 519 
Q 1375 441 1716 441 
Q 2309 441 2620 675 
Q 2931 909 2931 1356 
Q 2931 1769 2642 2001 
Q 2353 2234 1838 2234 
L 1294 2234 
L 1294 2753 
L 1863 2753 
Q 2328 2753 2575 2939 
Q 2822 3125 2822 3475 
Q 2822 3834 2567 4026 
Q 2313 4219 1838 4219 
Q 1578 4219 1281 4162 
Q 984 4106 628 3988 
L 628 4550 
Q 988 4650 1302 4700 
Q 1616 4750 1894 4750 
Q 2613 4750 3031 4423 
Q 3450 4097 3450 3541 
Q 3450 3153 3228 2886 
Q 3006 2619 2597 2516 
z
" transform="scale(0.015625)"/>
       </defs>
       <use xlink:href="#DejaVuSans-33"/>
      </g>
     </g>
    </g>
    <g id="xtick_5">
     <g id="line2d_9">
      <path d="M 627.742644 230.498912 
L 627.742644 106.608368 
" clip-path="url(#pf91130f099)" style="fill: none; stroke: #b0b0b0; stroke-width: 0.8; stroke-linecap: square"/>
     </g>
     <g id="line2d_10">
      <g>
       <use xlink:href="#m07bde6aab4" x="627.742644" y="230.498912" style="stroke: #000000; stroke-width: 0.8"/>
      </g>
     </g>
     <g id="text_5">
      <!-- 4 -->
      <g transform="translate(624.561394 245.097349) scale(0.1 -0.1)">
       <defs>
        <path id="DejaVuSans-34" d="M 2419 4116 
L 825 1625 
L 2419 1625 
L 2419 4116 
z
M 2253 4666 
L 3047 4666 
L 3047 1625 
L 3713 1625 
L 3713 1100 
L 3047 1100 
L 3047 0 
L 2419 0 
L 2419 1100 
L 313 1100 
L 313 1709 
L 2253 4666 
z
" transform="scale(0.015625)"/>
       </defs>
       <use xlink:href="#DejaVuSans-34"/>
      </g>
     </g>
    </g>
    <g id="xtick_6">
     <g id="line2d_11">
      <path d="M 757.839214 230.498912 
L 757.839214 106.608368 
" clip-path="url(#pf91130f099)" style="fill: none; stroke: #b0b0b0; stroke-width: 0.8; stroke-linecap: square"/>
     </g>
     <g id="line2d_12">
      <g>
       <use xlink:href="#m07bde6aab4" x="757.839214" y="230.498912" style="stroke: #000000; stroke-width: 0.8"/>
      </g>
     </g>
     <g id="text_6">
      <!-- 5 -->
      <g transform="translate(754.657964 245.097349) scale(0.1 -0.1)">
       <defs>
        <path id="DejaVuSans-35" d="M 691 4666 
L 3169 4666 
L 3169 4134 
L 1269 4134 
L 1269 2991 
Q 1406 3038 1543 3061 
Q 1681 3084 1819 3084 
Q 2600 3084 3056 2656 
Q 3513 2228 3513 1497 
Q 3513 744 3044 326 
Q 2575 -91 1722 -91 
Q 1428 -91 1123 -41 
Q 819 9 494 109 
L 494 744 
Q 775 591 1075 516 
Q 1375 441 1709 441 
Q 2250 441 2565 725 
Q 2881 1009 2881 1497 
Q 2881 1984 2565 2268 
Q 2250 2553 1709 2553 
Q 1456 2553 1204 2497 
Q 953 2441 691 2322 
L 691 4666 
z
" transform="scale(0.015625)"/>
       </defs>
       <use xlink:href="#DejaVuSans-35"/>
      </g>
     </g>
    </g>
   </g>
   <g id="matplotlib.axis_2">
    <g id="ytick_1">
     <g id="line2d_13">
      <path d="M 71.84 196.448457 
L 853.2 196.448457 
" clip-path="url(#pf91130f099)" style="fill: none; stroke: #b0b0b0; stroke-width: 0.8; stroke-linecap: square"/>
     </g>
     <g id="line2d_14">
      <defs>
       <path id="mcee848af9a" d="M 0 0 
L -3.5 0 
" style="stroke: #000000; stroke-width: 0.8"/>
      </defs>
      <g>
       <use xlink:href="#mcee848af9a" x="71.84" y="196.448457" style="stroke: #000000; stroke-width: 0.8"/>
      </g>
     </g>
     <g id="text_7">
      <!-- 50 -->
      <g transform="translate(52.115 200.247676) scale(0.1 -0.1)">
       <use xlink:href="#DejaVuSans-35"/>
       <use xlink:href="#DejaVuSans-30" transform="translate(63.623047 0)"/>
      </g>
     </g>
    </g>
    <g id="ytick_2">
     <g id="line2d_15">
      <path d="M 71.84 162.183849 
L 853.2 162.183849 
" clip-path="url(#pf91130f099)" style="fill: none; stroke: #b0b0b0; stroke-width: 0.8; stroke-linecap: square"/>
     </g>
     <g id="line2d_16">
      <g>
       <use xlink:href="#mcee848af9a" x="71.84" y="162.183849" style="stroke: #000000; stroke-width: 0.8"/>
      </g>
     </g>
     <g id="text_8">
      <!-- 100 -->
      <g transform="translate(45.7525 165.983068) scale(0.1 -0.1)">
       <use xlink:href="#DejaVuSans-31"/>
       <use xlink:href="#DejaVuSans-30" transform="translate(63.623047 0)"/>
       <use xlink:href="#DejaVuSans-30" transform="translate(127.246094 0)"/>
      </g>
     </g>
    </g>
    <g id="ytick_3">
     <g id="line2d_17">
      <path d="M 71.84 127.919241 
L 853.2 127.919241 
" clip-path="url(#pf91130f099)" style="fill: none; stroke: #b0b0b0; stroke-width: 0.8; stroke-linecap: square"/>
     </g>
     <g id="line2d_18">
      <g>
       <use xlink:href="#mcee848af9a" x="71.84" y="127.919241" style="stroke: #000000; stroke-width: 0.8"/>
      </g>
     </g>
     <g id="text_9">
      <!-- 150 -->
      <g transform="translate(45.7525 131.71846) scale(0.1 -0.1)">
       <use xlink:href="#DejaVuSans-31"/>
       <use xlink:href="#DejaVuSans-35" transform="translate(63.623047 0)"/>
       <use xlink:href="#DejaVuSans-30" transform="translate(127.246094 0)"/>
      </g>
     </g>
    </g>
    <g id="text_10">
     <!-- x -->
     <g transform="translate(39.672812 171.513015) rotate(-90) scale(0.1 -0.1)">
      <defs>
       <path id="DejaVuSans-78" d="M 3513 3500 
L 2247 1797 
L 3578 0 
L 2900 0 
L 1881 1375 
L 863 0 
L 184 0 
L 1544 1831 
L 300 3500 
L 978 3500 
L 1906 2253 
L 2834 3500 
L 3513 3500 
z
" transform="scale(0.015625)"/>
      </defs>
      <use xlink:href="#DejaVuSans-78"/>
     </g>
    </g>
   </g>
   <g id="line2d_19">
    <path d="M 107.356364 112.253462 
L 128.171815 112.253462 
L 250.462591 112.34255 
L 266.074179 112.774284 
L 279.083836 113.439018 
L 286.88963 114.069486 
L 292.093493 114.583455 
L 302.501219 115.967746 
L 310.307013 117.276654 
L 312.908944 117.927681 
L 315.510876 118.379974 
L 323.31667 120.278233 
L 331.122464 122.464315 
L 341.53019 125.890776 
L 344.132121 126.987244 
L 346.734053 127.926094 
L 354.539847 131.558142 
L 359.74371 134.162253 
L 364.947572 137.006215 
L 372.753367 141.762143 
L 383.161092 148.532829 
L 385.763024 150.73947 
L 388.364955 151.897614 
L 390.966886 154.111108 
L 393.568818 155.193869 
L 396.170749 155.920279 
L 398.772681 162.834877 
L 401.374612 160.998294 
L 403.976543 161.292969 
L 406.578475 163.163817 
L 409.180406 164.411049 
L 419.588132 170.188062 
L 429.995857 175.684105 
L 440.403583 180.871767 
L 448.209377 184.558638 
L 463.820966 191.445825 
L 474.228691 195.653519 
L 484.636417 199.587096 
L 497.646074 204.082612 
L 505.451868 206.494841 
L 510.655731 207.961366 
L 518.461525 210.455829 
L 526.267319 212.511706 
L 536.675045 214.88967 
L 549.684702 217.603427 
L 560.092428 219.556509 
L 570.500153 221.235475 
L 580.907879 222.606059 
L 588.713673 223.42841 
L 596.519467 224.072585 
L 604.325261 224.511172 
L 614.732987 224.819553 
L 632.946507 224.853818 
L 817.683636 224.867524 
L 817.683636 224.867524 
" clip-path="url(#pf91130f099)" style="fill: none; stroke: #0000ff; stroke-width: 1.5; stroke-linecap: square"/>
   </g>
   <g id="line2d_20">
    <path d="M 398.772681 230.498912 
L 398.772681 106.608368 
" clip-path="url(#pf91130f099)" style="fill: none; stroke-dasharray: 5.55,2.4; stroke-dashoffset: 0; stroke: #ff0000; stroke-opacity: 0.5; stroke-width: 1.5"/>
   </g>
   <g id="line2d_21">
    <path d="M 619.93685 230.498912 
L 619.93685 106.608368 
" clip-path="url(#pf91130f099)" style="fill: none; stroke-dasharray: 5.55,2.4; stroke-dashoffset: 0; stroke: #bf00bf; stroke-opacity: 0.7; stroke-width: 1.5"/>
   </g>
   <g id="patch_3">
    <path d="M 71.84 230.498912 
L 71.84 106.608368 
" style="fill: none; stroke: #000000; stroke-width: 0.8; stroke-linejoin: miter; stroke-linecap: square"/>
   </g>
   <g id="patch_4">
    <path d="M 853.2 230.498912 
L 853.2 106.608368 
" style="fill: none; stroke: #000000; stroke-width: 0.8; stroke-linejoin: miter; stroke-linecap: square"/>
   </g>
   <g id="patch_5">
    <path d="M 71.84 230.498912 
L 853.2 230.498912 
" style="fill: none; stroke: #000000; stroke-width: 0.8; stroke-linejoin: miter; stroke-linecap: square"/>
   </g>
   <g id="patch_6">
    <path d="M 71.84 106.608368 
L 853.2 106.608368 
" style="fill: none; stroke: #000000; stroke-width: 0.8; stroke-linejoin: miter; stroke-linecap: square"/>
   </g>
   <g id="text_11">
    <!--  $t_{v,\max}=2.24\,\mathrm{s}$ -->
    <g transform="translate(406.272681 106.608368) rotate(-90) scale(0.1 -0.1)">
     <defs>
      <path id="DejaVuSans-20" transform="scale(0.015625)"/>
      <path id="DejaVuSans-Oblique-74" d="M 2706 3500 
L 2619 3053 
L 1472 3053 
L 1100 1153 
Q 1081 1047 1072 975 
Q 1063 903 1063 863 
Q 1063 663 1183 572 
Q 1303 481 1569 481 
L 2150 481 
L 2053 0 
L 1503 0 
Q 991 0 739 200 
Q 488 400 488 806 
Q 488 878 497 964 
Q 506 1050 525 1153 
L 897 3053 
L 409 3053 
L 500 3500 
L 978 3500 
L 1172 4494 
L 1747 4494 
L 1556 3500 
L 2706 3500 
z
" transform="scale(0.015625)"/>
      <path id="DejaVuSans-Oblique-76" d="M 459 3500 
L 1069 3500 
L 1581 525 
L 3256 3500 
L 3866 3500 
L 1875 0 
L 1100 0 
L 459 3500 
z
" transform="scale(0.015625)"/>
      <path id="DejaVuSans-2c" d="M 750 794 
L 1409 794 
L 1409 256 
L 897 -744 
L 494 -744 
L 750 256 
L 750 794 
z
" transform="scale(0.015625)"/>
      <path id="DejaVuSans-6d" d="M 3328 2828 
Q 3544 3216 3844 3400 
Q 4144 3584 4550 3584 
Q 5097 3584 5394 3201 
Q 5691 2819 5691 2113 
L 5691 0 
L 5113 0 
L 5113 2094 
Q 5113 2597 4934 2840 
Q 4756 3084 4391 3084 
Q 3944 3084 3684 2787 
Q 3425 2491 3425 1978 
L 3425 0 
L 2847 0 
L 2847 2094 
Q 2847 2600 2669 2842 
Q 2491 3084 2119 3084 
Q 1678 3084 1418 2786 
Q 1159 2488 1159 1978 
L 1159 0 
L 581 0 
L 581 3500 
L 1159 3500 
L 1159 2956 
Q 1356 3278 1631 3431 
Q 1906 3584 2284 3584 
Q 2666 3584 2933 3390 
Q 3200 3197 3328 2828 
z
" transform="scale(0.015625)"/>
      <path id="DejaVuSans-61" d="M 2194 1759 
Q 1497 1759 1228 1600 
Q 959 1441 959 1056 
Q 959 750 1161 570 
Q 1363 391 1709 391 
Q 2188 391 2477 730 
Q 2766 1069 2766 1631 
L 2766 1759 
L 2194 1759 
z
M 3341 1997 
L 3341 0 
L 2766 0 
L 2766 531 
Q 2569 213 2275 61 
Q 1981 -91 1556 -91 
Q 1019 -91 701 211 
Q 384 513 384 1019 
Q 384 1609 779 1909 
Q 1175 2209 1959 2209 
L 2766 2209 
L 2766 2266 
Q 2766 2663 2505 2880 
Q 2244 3097 1772 3097 
Q 1472 3097 1187 3025 
Q 903 2953 641 2809 
L 641 3341 
Q 956 3463 1253 3523 
Q 1550 3584 1831 3584 
Q 2591 3584 2966 3190 
Q 3341 2797 3341 1997 
z
" transform="scale(0.015625)"/>
      <path id="DejaVuSans-3d" d="M 678 2906 
L 4684 2906 
L 4684 2381 
L 678 2381 
L 678 2906 
z
M 678 1631 
L 4684 1631 
L 4684 1100 
L 678 1100 
L 678 1631 
z
" transform="scale(0.015625)"/>
      <path id="DejaVuSans-2e" d="M 684 794 
L 1344 794 
L 1344 0 
L 684 0 
L 684 794 
z
" transform="scale(0.015625)"/>
      <path id="DejaVuSans-73" d="M 2834 3397 
L 2834 2853 
Q 2591 2978 2328 3040 
Q 2066 3103 1784 3103 
Q 1356 3103 1142 2972 
Q 928 2841 928 2578 
Q 928 2378 1081 2264 
Q 1234 2150 1697 2047 
L 1894 2003 
Q 2506 1872 2764 1633 
Q 3022 1394 3022 966 
Q 3022 478 2636 193 
Q 2250 -91 1575 -91 
Q 1294 -91 989 -36 
Q 684 19 347 128 
L 347 722 
Q 666 556 975 473 
Q 1284 391 1588 391 
Q 1994 391 2212 530 
Q 2431 669 2431 922 
Q 2431 1156 2273 1281 
Q 2116 1406 1581 1522 
L 1381 1569 
Q 847 1681 609 1914 
Q 372 2147 372 2553 
Q 372 3047 722 3315 
Q 1072 3584 1716 3584 
Q 2034 3584 2315 3537 
Q 2597 3491 2834 3397 
z
" transform="scale(0.015625)"/>
     </defs>
     <use xlink:href="#DejaVuSans-20" transform="translate(0 0.78125)"/>
     <use xlink:href="#DejaVuSans-Oblique-74" transform="translate(31.787109 0.78125)"/>
     <use xlink:href="#DejaVuSans-Oblique-76" transform="translate(70.996094 -15.625) scale(0.7)"/>
     <use xlink:href="#DejaVuSans-2c" transform="translate(112.421875 -15.625) scale(0.7)"/>
     <use xlink:href="#DejaVuSans-6d" transform="translate(148.310547 -15.625) scale(0.7)"/>
     <use xlink:href="#DejaVuSans-61" transform="translate(216.499023 -15.625) scale(0.7)"/>
     <use xlink:href="#DejaVuSans-78" transform="translate(259.394531 -15.625) scale(0.7)"/>
     <use xlink:href="#DejaVuSans-3d" transform="translate(323.037109 0.78125)"/>
     <use xlink:href="#DejaVuSans-32" transform="translate(426.308594 0.78125)"/>
     <use xlink:href="#DejaVuSans-2e" transform="translate(489.931641 0.78125)"/>
     <use xlink:href="#DejaVuSans-32" transform="translate(516.21875 0.78125)"/>
     <use xlink:href="#DejaVuSans-34" transform="translate(579.841797 0.78125)"/>
     <use xlink:href="#DejaVuSans-73" transform="translate(659.70052 0.78125)"/>
    </g>
   </g>
   <g id="text_12">
    <!--  $t_{stop}=3.94\,\mathrm{s}$ -->
    <g transform="translate(627.43685 106.608368) rotate(-90) scale(0.1 -0.1)">
     <defs>
      <path id="DejaVuSans-Oblique-73" d="M 3200 3397 
L 3091 2853 
Q 2863 2978 2609 3040 
Q 2356 3103 2088 3103 
Q 1634 3103 1373 2948 
Q 1113 2794 1113 2528 
Q 1113 2219 1719 2053 
Q 1766 2041 1788 2034 
L 1972 1978 
Q 2547 1819 2739 1644 
Q 2931 1469 2931 1166 
Q 2931 609 2489 259 
Q 2047 -91 1331 -91 
Q 1053 -91 747 -37 
Q 441 16 72 128 
L 184 722 
Q 500 559 806 475 
Q 1113 391 1394 391 
Q 1816 391 2080 572 
Q 2344 753 2344 1031 
Q 2344 1331 1650 1516 
L 1591 1531 
L 1394 1581 
Q 956 1697 753 1886 
Q 550 2075 550 2369 
Q 550 2928 970 3256 
Q 1391 3584 2113 3584 
Q 2397 3584 2667 3537 
Q 2938 3491 3200 3397 
z
" transform="scale(0.015625)"/>
      <path id="DejaVuSans-Oblique-6f" d="M 1625 -91 
Q 1009 -91 651 289 
Q 294 669 294 1325 
Q 294 1706 417 2101 
Q 541 2497 738 2766 
Q 1047 3184 1428 3384 
Q 1809 3584 2291 3584 
Q 2888 3584 3255 3212 
Q 3622 2841 3622 2241 
Q 3622 1825 3500 1412 
Q 3378 1000 3181 728 
Q 2875 309 2494 109 
Q 2113 -91 1625 -91 
z
M 891 1344 
Q 891 869 1089 633 
Q 1288 397 1691 397 
Q 2269 397 2648 901 
Q 3028 1406 3028 2181 
Q 3028 2634 2825 2865 
Q 2622 3097 2228 3097 
Q 1903 3097 1650 2945 
Q 1397 2794 1197 2484 
Q 1050 2253 970 1956 
Q 891 1659 891 1344 
z
" transform="scale(0.015625)"/>
      <path id="DejaVuSans-Oblique-70" d="M 3175 2156 
Q 3175 2616 2975 2859 
Q 2775 3103 2400 3103 
Q 2144 3103 1911 2972 
Q 1678 2841 1497 2591 
Q 1319 2344 1212 1994 
Q 1106 1644 1106 1300 
Q 1106 863 1306 627 
Q 1506 391 1875 391 
Q 2147 391 2380 519 
Q 2613 647 2778 891 
Q 2956 1147 3065 1494 
Q 3175 1841 3175 2156 
z
M 1394 2969 
Q 1625 3272 1939 3428 
Q 2253 3584 2638 3584 
Q 3175 3584 3472 3232 
Q 3769 2881 3769 2247 
Q 3769 1728 3584 1258 
Q 3400 788 3053 416 
Q 2822 169 2531 39 
Q 2241 -91 1919 -91 
Q 1547 -91 1294 64 
Q 1041 219 916 525 
L 556 -1331 
L -19 -1331 
L 922 3500 
L 1497 3500 
L 1394 2969 
z
" transform="scale(0.015625)"/>
      <path id="DejaVuSans-39" d="M 703 97 
L 703 672 
Q 941 559 1184 500 
Q 1428 441 1663 441 
Q 2288 441 2617 861 
Q 2947 1281 2994 2138 
Q 2813 1869 2534 1725 
Q 2256 1581 1919 1581 
Q 1219 1581 811 2004 
Q 403 2428 403 3163 
Q 403 3881 828 4315 
Q 1253 4750 1959 4750 
Q 2769 4750 3195 4129 
Q 3622 3509 3622 2328 
Q 3622 1225 3098 567 
Q 2575 -91 1691 -91 
Q 1453 -91 1209 -44 
Q 966 3 703 97 
z
M 1959 2075 
Q 2384 2075 2632 2365 
Q 2881 2656 2881 3163 
Q 2881 3666 2632 3958 
Q 2384 4250 1959 4250 
Q 1534 4250 1286 3958 
Q 1038 3666 1038 3163 
Q 1038 2656 1286 2365 
Q 1534 2075 1959 2075 
z
" transform="scale(0.015625)"/>
     </defs>
     <use xlink:href="#DejaVuSans-20" transform="translate(0 0.78125)"/>
     <use xlink:href="#DejaVuSans-Oblique-74" transform="translate(31.787109 0.78125)"/>
     <use xlink:href="#DejaVuSans-Oblique-73" transform="translate(70.996094 -15.625) scale(0.7)"/>
     <use xlink:href="#DejaVuSans-Oblique-74" transform="translate(107.46582 -15.625) scale(0.7)"/>
     <use xlink:href="#DejaVuSans-Oblique-6f" transform="translate(134.912109 -15.625) scale(0.7)"/>
     <use xlink:href="#DejaVuSans-Oblique-70" transform="translate(177.739258 -15.625) scale(0.7)"/>
     <use xlink:href="#DejaVuSans-3d" transform="translate(244.389648 0.78125)"/>
     <use xlink:href="#DejaVuSans-33" transform="translate(347.661133 0.78125)"/>
     <use xlink:href="#DejaVuSans-2e" transform="translate(411.28418 0.78125)"/>
     <use xlink:href="#DejaVuSans-39" transform="translate(443.071289 0.78125)"/>
     <use xlink:href="#DejaVuSans-34" transform="translate(506.694336 0.78125)"/>
     <use xlink:href="#DejaVuSans-73" transform="translate(586.553059 0.78125)"/>
    </g>
   </g>
   <g id="legend_1">
    <g id="patch_7">
     <path d="M 787.559375 129.286493 
L 846.2 129.286493 
Q 848.2 129.286493 848.2 127.286493 
L 848.2 113.608368 
Q 848.2 111.608368 846.2 111.608368 
L 787.559375 111.608368 
Q 785.559375 111.608368 785.559375 113.608368 
L 785.559375 127.286493 
Q 785.559375 129.286493 787.559375 129.286493 
z
" style="fill: #ffffff; opacity: 0.8; stroke: #cccccc; stroke-linejoin: miter"/>
    </g>
    <g id="line2d_22">
     <path d="M 789.559375 119.706805 
L 799.559375 119.706805 
L 809.559375 119.706805 
" style="fill: none; stroke: #0000ff; stroke-width: 1.5; stroke-linecap: square"/>
    </g>
    <g id="text_13">
     <!-- x (m) -->
     <g transform="translate(817.559375 123.206805) scale(0.1 -0.1)">
      <defs>
       <path id="DejaVuSans-28" d="M 1984 4856 
Q 1566 4138 1362 3434 
Q 1159 2731 1159 2009 
Q 1159 1288 1364 580 
Q 1569 -128 1984 -844 
L 1484 -844 
Q 1016 -109 783 600 
Q 550 1309 550 2009 
Q 550 2706 781 3412 
Q 1013 4119 1484 4856 
L 1984 4856 
z
" transform="scale(0.015625)"/>
       <path id="DejaVuSans-29" d="M 513 4856 
L 1013 4856 
Q 1481 4119 1714 3412 
Q 1947 2706 1947 2009 
Q 1947 1309 1714 600 
Q 1481 -109 1013 -844 
L 513 -844 
Q 928 -128 1133 580 
Q 1338 1288 1338 2009 
Q 1338 2731 1133 3434 
Q 928 4138 513 4856 
z
" transform="scale(0.015625)"/>
      </defs>
      <use xlink:href="#DejaVuSans-78"/>
      <use xlink:href="#DejaVuSans-20" transform="translate(59.179688 0)"/>
      <use xlink:href="#DejaVuSans-28" transform="translate(90.966797 0)"/>
      <use xlink:href="#DejaVuSans-6d" transform="translate(129.980469 0)"/>
      <use xlink:href="#DejaVuSans-29" transform="translate(227.392578 0)"/>
     </g>
    </g>
   </g>
  </g>
  <g id="axes_2">
   <g id="patch_8">
    <path d="M 71.84 382.269456 
L 853.2 382.269456 
L 853.2 258.378912 
L 71.84 258.378912 
z
" style="fill: #ffffff"/>
   </g>
   <g id="matplotlib.axis_3">
    <g id="xtick_7">
     <g id="line2d_23">
      <path d="M 104.744866 382.269456 
L 104.744866 258.378912 
" clip-path="url(#p71c02c2d53)" style="fill: none; stroke: #b0b0b0; stroke-width: 0.8; stroke-linecap: square"/>
     </g>
     <g id="line2d_24">
      <g>
       <use xlink:href="#m07bde6aab4" x="104.744866" y="382.269456" style="stroke: #000000; stroke-width: 0.8"/>
      </g>
     </g>
     <g id="text_14">
      <!-- 0 -->
      <g transform="translate(101.563616 396.867893) scale(0.1 -0.1)">
       <use xlink:href="#DejaVuSans-30"/>
      </g>
     </g>
    </g>
    <g id="xtick_8">
     <g id="line2d_25">
      <path d="M 235.319733 382.269456 
L 235.319733 258.378912 
" clip-path="url(#p71c02c2d53)" style="fill: none; stroke: #b0b0b0; stroke-width: 0.8; stroke-linecap: square"/>
     </g>
     <g id="line2d_26">
      <g>
       <use xlink:href="#m07bde6aab4" x="235.319733" y="382.269456" style="stroke: #000000; stroke-width: 0.8"/>
      </g>
     </g>
     <g id="text_15">
      <!-- 1 -->
      <g transform="translate(232.138483 396.867893) scale(0.1 -0.1)">
       <use xlink:href="#DejaVuSans-31"/>
      </g>
     </g>
    </g>
    <g id="xtick_9">
     <g id="line2d_27">
      <path d="M 365.894599 382.269456 
L 365.894599 258.378912 
" clip-path="url(#p71c02c2d53)" style="fill: none; stroke: #b0b0b0; stroke-width: 0.8; stroke-linecap: square"/>
     </g>
     <g id="line2d_28">
      <g>
       <use xlink:href="#m07bde6aab4" x="365.894599" y="382.269456" style="stroke: #000000; stroke-width: 0.8"/>
      </g>
     </g>
     <g id="text_16">
      <!-- 2 -->
      <g transform="translate(362.713349 396.867893) scale(0.1 -0.1)">
       <use xlink:href="#DejaVuSans-32"/>
      </g>
     </g>
    </g>
    <g id="xtick_10">
     <g id="line2d_29">
      <path d="M 496.469465 382.269456 
L 496.469465 258.378912 
" clip-path="url(#p71c02c2d53)" style="fill: none; stroke: #b0b0b0; stroke-width: 0.8; stroke-linecap: square"/>
     </g>
     <g id="line2d_30">
      <g>
       <use xlink:href="#m07bde6aab4" x="496.469465" y="382.269456" style="stroke: #000000; stroke-width: 0.8"/>
      </g>
     </g>
     <g id="text_17">
      <!-- 3 -->
      <g transform="translate(493.288215 396.867893) scale(0.1 -0.1)">
       <use xlink:href="#DejaVuSans-33"/>
      </g>
     </g>
    </g>
    <g id="xtick_11">
     <g id="line2d_31">
      <path d="M 627.044332 382.269456 
L 627.044332 258.378912 
" clip-path="url(#p71c02c2d53)" style="fill: none; stroke: #b0b0b0; stroke-width: 0.8; stroke-linecap: square"/>
     </g>
     <g id="line2d_32">
      <g>
       <use xlink:href="#m07bde6aab4" x="627.044332" y="382.269456" style="stroke: #000000; stroke-width: 0.8"/>
      </g>
     </g>
     <g id="text_18">
      <!-- 4 -->
      <g transform="translate(623.863082 396.867893) scale(0.1 -0.1)">
       <use xlink:href="#DejaVuSans-34"/>
      </g>
     </g>
    </g>
    <g id="xtick_12">
     <g id="line2d_33">
      <path d="M 757.619198 382.269456 
L 757.619198 258.378912 
" clip-path="url(#p71c02c2d53)" style="fill: none; stroke: #b0b0b0; stroke-width: 0.8; stroke-linecap: square"/>
     </g>
     <g id="line2d_34">
      <g>
       <use xlink:href="#m07bde6aab4" x="757.619198" y="382.269456" style="stroke: #000000; stroke-width: 0.8"/>
      </g>
     </g>
     <g id="text_19">
      <!-- 5 -->
      <g transform="translate(754.437948 396.867893) scale(0.1 -0.1)">
       <use xlink:href="#DejaVuSans-35"/>
      </g>
     </g>
    </g>
   </g>
   <g id="matplotlib.axis_4">
    <g id="ytick_4">
     <g id="line2d_35">
      <path d="M 71.84 358.204862 
L 853.2 358.204862 
" clip-path="url(#p71c02c2d53)" style="fill: none; stroke: #b0b0b0; stroke-width: 0.8; stroke-linecap: square"/>
     </g>
     <g id="line2d_36">
      <g>
       <use xlink:href="#mcee848af9a" x="71.84" y="358.204862" style="stroke: #000000; stroke-width: 0.8"/>
      </g>
     </g>
     <g id="text_20">
      <!-- −400 -->
      <g transform="translate(37.372813 362.004081) scale(0.1 -0.1)">
       <defs>
        <path id="DejaVuSans-2212" d="M 678 2272 
L 4684 2272 
L 4684 1741 
L 678 1741 
L 678 2272 
z
" transform="scale(0.015625)"/>
       </defs>
       <use xlink:href="#DejaVuSans-2212"/>
       <use xlink:href="#DejaVuSans-34" transform="translate(83.789062 0)"/>
       <use xlink:href="#DejaVuSans-30" transform="translate(147.412109 0)"/>
       <use xlink:href="#DejaVuSans-30" transform="translate(211.035156 0)"/>
      </g>
     </g>
    </g>
    <g id="ytick_5">
     <g id="line2d_37">
      <path d="M 71.84 322.926 
L 853.2 322.926 
" clip-path="url(#p71c02c2d53)" style="fill: none; stroke: #b0b0b0; stroke-width: 0.8; stroke-linecap: square"/>
     </g>
     <g id="line2d_38">
      <g>
       <use xlink:href="#mcee848af9a" x="71.84" y="322.926" style="stroke: #000000; stroke-width: 0.8"/>
      </g>
     </g>
     <g id="text_21">
      <!-- −200 -->
      <g transform="translate(37.372813 326.725219) scale(0.1 -0.1)">
       <use xlink:href="#DejaVuSans-2212"/>
       <use xlink:href="#DejaVuSans-32" transform="translate(83.789062 0)"/>
       <use xlink:href="#DejaVuSans-30" transform="translate(147.412109 0)"/>
       <use xlink:href="#DejaVuSans-30" transform="translate(211.035156 0)"/>
      </g>
     </g>
    </g>
    <g id="ytick_6">
     <g id="line2d_39">
      <path d="M 71.84 287.647138 
L 853.2 287.647138 
" clip-path="url(#p71c02c2d53)" style="fill: none; stroke: #b0b0b0; stroke-width: 0.8; stroke-linecap: square"/>
     </g>
     <g id="line2d_40">
      <g>
       <use xlink:href="#mcee848af9a" x="71.84" y="287.647138" style="stroke: #000000; stroke-width: 0.8"/>
      </g>
     </g>
     <g id="text_22">
      <!-- 0 -->
      <g transform="translate(58.4775 291.446357) scale(0.1 -0.1)">
       <use xlink:href="#DejaVuSans-30"/>
      </g>
     </g>
    </g>
    <g id="text_23">
     <!-- v -->
     <g transform="translate(31.293125 323.283559) rotate(-90) scale(0.1 -0.1)">
      <defs>
       <path id="DejaVuSans-76" d="M 191 3500 
L 800 3500 
L 1894 563 
L 2988 3500 
L 3597 3500 
L 2284 0 
L 1503 0 
L 191 3500 
z
" transform="scale(0.015625)"/>
      </defs>
      <use xlink:href="#DejaVuSans-76"/>
     </g>
    </g>
   </g>
   <g id="line2d_41">
    <path d="M 107.356364 287.823532 
L 112.579358 287.470744 
L 115.190856 287.647138 
L 133.471337 287.647138 
L 136.082834 287.470744 
L 138.694332 287.823532 
L 141.305829 287.647138 
L 209.204759 287.647138 
L 211.816257 287.823532 
L 214.427754 287.647138 
L 217.039251 287.647138 
L 219.650749 287.470744 
L 224.873743 287.735335 
L 230.096738 287.911729 
L 232.708235 287.470744 
L 235.319733 287.470744 
L 237.93123 287.647138 
L 240.542727 287.558941 
L 243.154225 287.911729 
L 245.765722 287.911729 
L 250.988717 288.440912 
L 253.600214 288.264518 
L 256.211711 288.793701 
L 258.823209 288.440912 
L 261.434706 288.970095 
L 264.046203 288.529109 
L 266.657701 289.14649 
L 271.880695 289.234687 
L 274.492193 289.587475 
L 277.10369 289.675672 
L 279.715187 290.028461 
L 282.326684 290.204855 
L 284.938182 290.822235 
L 287.549679 290.734038 
L 290.161176 291.175024 
L 292.772674 291.880601 
L 295.384171 291.527813 
L 297.995668 293.644544 
L 300.607166 291.351418 
L 303.218663 293.46815 
L 305.83016 292.762573 
L 308.441658 293.556347 
L 311.053155 296.025868 
L 313.664652 293.46815 
L 316.27615 295.408488 
L 321.499144 296.202262 
L 324.110642 296.819642 
L 326.722139 296.202262 
L 329.333636 298.054402 
L 331.945134 298.318994 
L 334.556631 298.759979 
L 339.779626 298.848177 
L 342.391123 301.758683 
L 345.00262 299.730148 
L 347.614118 302.993443 
L 350.225615 302.817049 
L 352.837112 303.875414 
L 355.44861 304.051809 
L 358.060107 304.757386 
L 360.671604 305.992146 
L 363.283102 305.903949 
L 365.894599 307.756089 
L 368.506096 307.226906 
L 371.117594 309.167244 
L 373.729091 309.60823 
L 376.340588 310.313807 
L 378.952086 309.696427 
L 381.563583 308.108878 
L 384.17508 316.046622 
L 386.786578 302.552457 
L 389.398075 316.134819 
L 392.009572 301.582288 
L 394.62107 296.996036 
L 397.232567 376.638068 
L 399.844064 264.0103 
L 402.455561 291.439616 
L 405.067059 311.724961 
L 407.678556 303.69902 
L 410.290053 306.521329 
L 412.901551 306.433132 
L 415.513048 306.080343 
L 423.34754 305.462963 
L 431.182032 304.580992 
L 433.793529 304.580992 
L 436.405027 304.051809 
L 439.016524 304.140006 
L 441.628021 303.69902 
L 446.851016 303.258034 
L 449.462513 302.640654 
L 452.074011 302.905246 
L 454.685508 302.552457 
L 457.297005 302.46426 
L 465.131497 301.494091 
L 467.742995 301.494091 
L 472.965989 300.700317 
L 478.188984 300.435725 
L 483.411979 299.99474 
L 486.023476 299.465557 
L 488.634973 299.553754 
L 491.246471 299.200965 
L 493.857968 299.112768 
L 499.080963 298.318994 
L 501.69246 297.613416 
L 504.303957 298.054402 
L 506.915455 297.084234 
L 509.526952 297.084234 
L 512.138449 298.583585 
L 514.749947 299.200965 
L 517.361444 297.260628 
L 522.584439 296.290459 
L 525.195936 296.378656 
L 527.807433 295.584882 
L 530.41893 295.408488 
L 533.030428 295.055699 
L 535.641925 295.143896 
L 538.253422 294.879305 
L 543.476417 294.70291 
L 546.087914 294.438319 
L 553.922406 294.08553 
L 564.368396 293.115362 
L 566.979893 293.027164 
L 572.202888 292.321587 
L 574.814385 292.23339 
L 577.425882 291.880601 
L 580.03738 291.792404 
L 582.648877 291.439616 
L 585.260374 291.263221 
L 587.871872 290.822235 
L 590.483369 290.734038 
L 598.317861 289.76387 
L 608.76385 288.705504 
L 611.375348 288.617307 
L 616.598342 287.911729 
L 627.044332 287.647138 
L 637.490321 287.647138 
L 640.101818 287.823532 
L 642.713316 287.470744 
L 645.324813 287.647138 
L 757.619198 287.647138 
L 760.230695 287.823532 
L 762.842193 287.470744 
L 768.065187 287.823532 
L 770.676684 287.470744 
L 773.288182 287.823532 
L 775.899679 287.470744 
L 778.511176 287.823532 
L 781.122674 287.647138 
L 786.345668 287.647138 
L 788.957166 287.470744 
L 791.568663 287.823532 
L 794.18016 287.470744 
L 796.791658 287.823532 
L 799.403155 287.647138 
L 817.683636 287.647138 
L 817.683636 287.647138 
" clip-path="url(#p71c02c2d53)" style="fill: none; stroke: #008000; stroke-width: 1.5; stroke-linecap: square"/>
   </g>
   <g id="line2d_42">
    <path d="M 397.232567 382.269456 
L 397.232567 258.378912 
" clip-path="url(#p71c02c2d53)" style="fill: none; stroke-dasharray: 5.55,2.4; stroke-dashoffset: 0; stroke: #ff0000; stroke-opacity: 0.5; stroke-width: 1.5"/>
   </g>
   <g id="line2d_43">
    <path d="M 619.20984 382.269456 
L 619.20984 258.378912 
" clip-path="url(#p71c02c2d53)" style="fill: none; stroke-dasharray: 1.5,2.475; stroke-dashoffset: 0; stroke: #bf00bf; stroke-opacity: 0.7; stroke-width: 1.5"/>
   </g>
   <g id="patch_9">
    <path d="M 71.84 382.269456 
L 71.84 258.378912 
" style="fill: none; stroke: #000000; stroke-width: 0.8; stroke-linejoin: miter; stroke-linecap: square"/>
   </g>
   <g id="patch_10">
    <path d="M 853.2 382.269456 
L 853.2 258.378912 
" style="fill: none; stroke: #000000; stroke-width: 0.8; stroke-linejoin: miter; stroke-linecap: square"/>
   </g>
   <g id="patch_11">
    <path d="M 71.84 382.269456 
L 853.2 382.269456 
" style="fill: none; stroke: #000000; stroke-width: 0.8; stroke-linejoin: miter; stroke-linecap: square"/>
   </g>
   <g id="patch_12">
    <path d="M 71.84 258.378912 
L 853.2 258.378912 
" style="fill: none; stroke: #000000; stroke-width: 0.8; stroke-linejoin: miter; stroke-linecap: square"/>
   </g>
   <g id="legend_2">
    <g id="patch_13">
     <path d="M 778.98125 281.057037 
L 846.2 281.057037 
Q 848.2 281.057037 848.2 279.057037 
L 848.2 265.378912 
Q 848.2 263.378912 846.2 263.378912 
L 778.98125 263.378912 
Q 776.98125 263.378912 776.98125 265.378912 
L 776.98125 279.057037 
Q 776.98125 281.057037 778.98125 281.057037 
z
" style="fill: #ffffff; opacity: 0.8; stroke: #cccccc; stroke-linejoin: miter"/>
    </g>
    <g id="line2d_44">
     <path d="M 780.98125 271.477349 
L 790.98125 271.477349 
L 800.98125 271.477349 
" style="fill: none; stroke: #008000; stroke-width: 1.5; stroke-linecap: square"/>
    </g>
    <g id="text_24">
     <!-- v (m/s) -->
     <g transform="translate(808.98125 274.977349) scale(0.1 -0.1)">
      <defs>
       <path id="DejaVuSans-2f" d="M 1625 4666 
L 2156 4666 
L 531 -594 
L 0 -594 
L 1625 4666 
z
" transform="scale(0.015625)"/>
      </defs>
      <use xlink:href="#DejaVuSans-76"/>
      <use xlink:href="#DejaVuSans-20" transform="translate(59.179688 0)"/>
      <use xlink:href="#DejaVuSans-28" transform="translate(90.966797 0)"/>
      <use xlink:href="#DejaVuSans-6d" transform="translate(129.980469 0)"/>
      <use xlink:href="#DejaVuSans-2f" transform="translate(227.392578 0)"/>
      <use xlink:href="#DejaVuSans-73" transform="translate(261.083984 0)"/>
      <use xlink:href="#DejaVuSans-29" transform="translate(313.183594 0)"/>
     </g>
    </g>
   </g>
  </g>
  <g id="axes_3">
   <g id="patch_14">
    <path d="M 71.84 534.04 
L 853.2 534.04 
L 853.2 410.149456 
L 71.84 410.149456 
z
" style="fill: #ffffff"/>
   </g>
   <g id="matplotlib.axis_5">
    <g id="xtick_13">
     <g id="line2d_45">
      <path d="M 102.114096 534.04 
L 102.114096 410.149456 
" clip-path="url(#p553ccfb767)" style="fill: none; stroke: #b0b0b0; stroke-width: 0.8; stroke-linecap: square"/>
     </g>
     <g id="line2d_46">
      <g>
       <use xlink:href="#m07bde6aab4" x="102.114096" y="534.04" style="stroke: #000000; stroke-width: 0.8"/>
      </g>
     </g>
     <g id="text_25">
      <!-- 0 -->
      <g transform="translate(98.932846 548.638437) scale(0.1 -0.1)">
       <use xlink:href="#DejaVuSans-30"/>
      </g>
     </g>
    </g>
    <g id="xtick_14">
     <g id="line2d_47">
      <path d="M 233.170788 534.04 
L 233.170788 410.149456 
" clip-path="url(#p553ccfb767)" style="fill: none; stroke: #b0b0b0; stroke-width: 0.8; stroke-linecap: square"/>
     </g>
     <g id="line2d_48">
      <g>
       <use xlink:href="#m07bde6aab4" x="233.170788" y="534.04" style="stroke: #000000; stroke-width: 0.8"/>
      </g>
     </g>
     <g id="text_26">
      <!-- 1 -->
      <g transform="translate(229.989538 548.638437) scale(0.1 -0.1)">
       <use xlink:href="#DejaVuSans-31"/>
      </g>
     </g>
    </g>
    <g id="xtick_15">
     <g id="line2d_49">
      <path d="M 364.227481 534.04 
L 364.227481 410.149456 
" clip-path="url(#p553ccfb767)" style="fill: none; stroke: #b0b0b0; stroke-width: 0.8; stroke-linecap: square"/>
     </g>
     <g id="line2d_50">
      <g>
       <use xlink:href="#m07bde6aab4" x="364.227481" y="534.04" style="stroke: #000000; stroke-width: 0.8"/>
      </g>
     </g>
     <g id="text_27">
      <!-- 2 -->
      <g transform="translate(361.046231 548.638437) scale(0.1 -0.1)">
       <use xlink:href="#DejaVuSans-32"/>
      </g>
     </g>
    </g>
    <g id="xtick_16">
     <g id="line2d_51">
      <path d="M 495.284173 534.04 
L 495.284173 410.149456 
" clip-path="url(#p553ccfb767)" style="fill: none; stroke: #b0b0b0; stroke-width: 0.8; stroke-linecap: square"/>
     </g>
     <g id="line2d_52">
      <g>
       <use xlink:href="#m07bde6aab4" x="495.284173" y="534.04" style="stroke: #000000; stroke-width: 0.8"/>
      </g>
     </g>
     <g id="text_28">
      <!-- 3 -->
      <g transform="translate(492.102923 548.638437) scale(0.1 -0.1)">
       <use xlink:href="#DejaVuSans-33"/>
      </g>
     </g>
    </g>
    <g id="xtick_17">
     <g id="line2d_53">
      <path d="M 626.340865 534.04 
L 626.340865 410.149456 
" clip-path="url(#p553ccfb767)" style="fill: none; stroke: #b0b0b0; stroke-width: 0.8; stroke-linecap: square"/>
     </g>
     <g id="line2d_54">
      <g>
       <use xlink:href="#m07bde6aab4" x="626.340865" y="534.04" style="stroke: #000000; stroke-width: 0.8"/>
      </g>
     </g>
     <g id="text_29">
      <!-- 4 -->
      <g transform="translate(623.159615 548.638437) scale(0.1 -0.1)">
       <use xlink:href="#DejaVuSans-34"/>
      </g>
     </g>
    </g>
    <g id="xtick_18">
     <g id="line2d_55">
      <path d="M 757.397558 534.04 
L 757.397558 410.149456 
" clip-path="url(#p553ccfb767)" style="fill: none; stroke: #b0b0b0; stroke-width: 0.8; stroke-linecap: square"/>
     </g>
     <g id="line2d_56">
      <g>
       <use xlink:href="#m07bde6aab4" x="757.397558" y="534.04" style="stroke: #000000; stroke-width: 0.8"/>
      </g>
     </g>
     <g id="text_30">
      <!-- 5 -->
      <g transform="translate(754.216308 548.638437) scale(0.1 -0.1)">
       <use xlink:href="#DejaVuSans-35"/>
      </g>
     </g>
    </g>
    <g id="text_31">
     <!-- t -->
     <g transform="translate(460.559844 562.316562) scale(0.1 -0.1)">
      <defs>
       <path id="DejaVuSans-74" d="M 1172 4494 
L 1172 3500 
L 2356 3500 
L 2356 3053 
L 1172 3053 
L 1172 1153 
Q 1172 725 1289 603 
Q 1406 481 1766 481 
L 2356 481 
L 2356 0 
L 1766 0 
Q 1100 0 847 248 
Q 594 497 594 1153 
L 594 3053 
L 172 3053 
L 172 3500 
L 594 3500 
L 594 4494 
L 1172 4494 
z
" transform="scale(0.015625)"/>
      </defs>
      <use xlink:href="#DejaVuSans-74"/>
     </g>
    </g>
   </g>
   <g id="matplotlib.axis_6">
    <g id="ytick_7">
     <g id="line2d_57">
      <path d="M 71.84 523.087208 
L 853.2 523.087208 
" clip-path="url(#p553ccfb767)" style="fill: none; stroke: #b0b0b0; stroke-width: 0.8; stroke-linecap: square"/>
     </g>
     <g id="line2d_58">
      <g>
       <use xlink:href="#mcee848af9a" x="71.84" y="523.087208" style="stroke: #000000; stroke-width: 0.8"/>
      </g>
     </g>
     <g id="text_32">
      <!-- −20000 -->
      <g transform="translate(24.647813 526.886427) scale(0.1 -0.1)">
       <use xlink:href="#DejaVuSans-2212"/>
       <use xlink:href="#DejaVuSans-32" transform="translate(83.789062 0)"/>
       <use xlink:href="#DejaVuSans-30" transform="translate(147.412109 0)"/>
       <use xlink:href="#DejaVuSans-30" transform="translate(211.035156 0)"/>
       <use xlink:href="#DejaVuSans-30" transform="translate(274.658203 0)"/>
       <use xlink:href="#DejaVuSans-30" transform="translate(338.28125 0)"/>
      </g>
     </g>
    </g>
    <g id="ytick_8">
     <g id="line2d_59">
      <path d="M 71.84 502.421563 
L 853.2 502.421563 
" clip-path="url(#p553ccfb767)" style="fill: none; stroke: #b0b0b0; stroke-width: 0.8; stroke-linecap: square"/>
     </g>
     <g id="line2d_60">
      <g>
       <use xlink:href="#mcee848af9a" x="71.84" y="502.421563" style="stroke: #000000; stroke-width: 0.8"/>
      </g>
     </g>
     <g id="text_33">
      <!-- −10000 -->
      <g transform="translate(24.647813 506.220781) scale(0.1 -0.1)">
       <use xlink:href="#DejaVuSans-2212"/>
       <use xlink:href="#DejaVuSans-31" transform="translate(83.789062 0)"/>
       <use xlink:href="#DejaVuSans-30" transform="translate(147.412109 0)"/>
       <use xlink:href="#DejaVuSans-30" transform="translate(211.035156 0)"/>
       <use xlink:href="#DejaVuSans-30" transform="translate(274.658203 0)"/>
       <use xlink:href="#DejaVuSans-30" transform="translate(338.28125 0)"/>
      </g>
     </g>
    </g>
    <g id="ytick_9">
     <g id="line2d_61">
      <path d="M 71.84 481.755917 
L 853.2 481.755917 
" clip-path="url(#p553ccfb767)" style="fill: none; stroke: #b0b0b0; stroke-width: 0.8; stroke-linecap: square"/>
     </g>
     <g id="line2d_62">
      <g>
       <use xlink:href="#mcee848af9a" x="71.84" y="481.755917" style="stroke: #000000; stroke-width: 0.8"/>
      </g>
     </g>
     <g id="text_34">
      <!-- 0 -->
      <g transform="translate(58.4775 485.555136) scale(0.1 -0.1)">
       <use xlink:href="#DejaVuSans-30"/>
      </g>
     </g>
    </g>
    <g id="ytick_10">
     <g id="line2d_63">
      <path d="M 71.84 461.090272 
L 853.2 461.090272 
" clip-path="url(#p553ccfb767)" style="fill: none; stroke: #b0b0b0; stroke-width: 0.8; stroke-linecap: square"/>
     </g>
     <g id="line2d_64">
      <g>
       <use xlink:href="#mcee848af9a" x="71.84" y="461.090272" style="stroke: #000000; stroke-width: 0.8"/>
      </g>
     </g>
     <g id="text_35">
      <!-- 10000 -->
      <g transform="translate(33.0275 464.889491) scale(0.1 -0.1)">
       <use xlink:href="#DejaVuSans-31"/>
       <use xlink:href="#DejaVuSans-30" transform="translate(63.623047 0)"/>
       <use xlink:href="#DejaVuSans-30" transform="translate(127.246094 0)"/>
       <use xlink:href="#DejaVuSans-30" transform="translate(190.869141 0)"/>
       <use xlink:href="#DejaVuSans-30" transform="translate(254.492188 0)"/>
      </g>
     </g>
    </g>
    <g id="ytick_11">
     <g id="line2d_65">
      <path d="M 71.84 440.424626 
L 853.2 440.424626 
" clip-path="url(#p553ccfb767)" style="fill: none; stroke: #b0b0b0; stroke-width: 0.8; stroke-linecap: square"/>
     </g>
     <g id="line2d_66">
      <g>
       <use xlink:href="#mcee848af9a" x="71.84" y="440.424626" style="stroke: #000000; stroke-width: 0.8"/>
      </g>
     </g>
     <g id="text_36">
      <!-- 20000 -->
      <g transform="translate(33.0275 444.223845) scale(0.1 -0.1)">
       <use xlink:href="#DejaVuSans-32"/>
       <use xlink:href="#DejaVuSans-30" transform="translate(63.623047 0)"/>
       <use xlink:href="#DejaVuSans-30" transform="translate(127.246094 0)"/>
       <use xlink:href="#DejaVuSans-30" transform="translate(190.869141 0)"/>
       <use xlink:href="#DejaVuSans-30" transform="translate(254.492188 0)"/>
      </g>
     </g>
    </g>
    <g id="ytick_12">
     <g id="line2d_67">
      <path d="M 71.84 419.758981 
L 853.2 419.758981 
" clip-path="url(#p553ccfb767)" style="fill: none; stroke: #b0b0b0; stroke-width: 0.8; stroke-linecap: square"/>
     </g>
     <g id="line2d_68">
      <g>
       <use xlink:href="#mcee848af9a" x="71.84" y="419.758981" style="stroke: #000000; stroke-width: 0.8"/>
      </g>
     </g>
     <g id="text_37">
      <!-- 30000 -->
      <g transform="translate(33.0275 423.5582) scale(0.1 -0.1)">
       <use xlink:href="#DejaVuSans-33"/>
       <use xlink:href="#DejaVuSans-30" transform="translate(63.623047 0)"/>
       <use xlink:href="#DejaVuSans-30" transform="translate(127.246094 0)"/>
       <use xlink:href="#DejaVuSans-30" transform="translate(190.869141 0)"/>
       <use xlink:href="#DejaVuSans-30" transform="translate(254.492188 0)"/>
      </g>
     </g>
    </g>
    <g id="text_38">
     <!-- a -->
     <g transform="translate(18.568125 475.15879) rotate(-90) scale(0.1 -0.1)">
      <use xlink:href="#DejaVuSans-61"/>
     </g>
    </g>
   </g>
   <g id="line2d_69">
    <path d="M 107.356364 481.652589 
L 109.977497 481.652589 
L 112.598631 481.859245 
L 117.840899 481.755917 
L 133.567702 481.652589 
L 136.188836 481.962574 
L 138.80997 481.652589 
L 144.052238 481.755917 
L 227.928521 481.807581 
L 230.549654 481.497597 
L 233.170788 481.755917 
L 235.791922 481.859245 
L 238.413056 481.704253 
L 241.03419 481.962574 
L 243.655324 481.755917 
L 246.276458 481.91091 
L 248.897591 481.91091 
L 251.518725 481.652589 
L 254.139859 482.065902 
L 256.760993 481.549261 
L 259.382127 482.065902 
L 262.003261 481.497597 
L 264.624394 482.117566 
L 267.245528 481.755917 
L 277.730064 481.962574 
L 280.351198 481.859245 
L 282.972331 482.117566 
L 285.593465 481.704253 
L 288.214599 482.014238 
L 290.835733 482.16923 
L 293.456867 481.549261 
L 296.078001 482.995856 
L 298.699135 480.41265 
L 301.320268 482.995856 
L 303.941402 481.342604 
L 309.18367 483.202512 
L 311.804804 480.257658 
L 314.425938 482.892528 
L 317.047071 481.962574 
L 322.289339 482.117566 
L 324.910473 481.394268 
L 327.531607 482.840864 
L 330.152741 481.91091 
L 332.773875 482.014238 
L 335.395008 481.755917 
L 338.016142 481.807581 
L 340.637276 483.460833 
L 343.25841 480.567643 
L 345.879544 483.667489 
L 348.500678 481.652589 
L 351.121811 482.375887 
L 353.742945 481.859245 
L 358.985213 482.479215 
L 361.606347 481.704253 
L 364.227481 482.840864 
L 366.848615 481.445933 
L 369.469748 482.892528 
L 372.090882 482.014238 
L 374.712016 482.16923 
L 377.33315 481.394268 
L 379.954284 480.825963 
L 382.575418 486.405687 
L 385.196551 473.851308 
L 387.817685 489.712191 
L 390.438819 473.231338 
L 393.059953 479.069383 
L 395.681087 528.408612 
L 398.302221 415.780844 
L 400.923355 497.823456 
L 403.544488 493.638663 
L 406.165622 477.054483 
L 408.786756 483.409169 
L 411.40789 481.704253 
L 414.029024 481.549261 
L 416.650158 481.652589 
L 424.513559 481.600925 
L 427.134693 481.652589 
L 429.755827 481.497597 
L 432.376961 481.755917 
L 434.998095 481.445933 
L 437.619228 481.807581 
L 440.240362 481.497597 
L 445.48263 481.652589 
L 448.103764 481.394268 
L 450.724898 481.91091 
L 453.346032 481.549261 
L 455.967165 481.704253 
L 458.588299 481.549261 
L 466.451701 481.755917 
L 469.072835 481.497597 
L 482.178504 481.652589 
L 484.799638 481.445933 
L 487.420772 481.807581 
L 490.041905 481.549261 
L 492.663039 481.704253 
L 500.526441 481.342604 
L 503.147575 482.014238 
L 505.768708 481.187612 
L 508.389842 481.755917 
L 511.010976 482.634207 
L 513.63211 482.117566 
L 516.253244 480.619307 
L 518.874378 481.445933 
L 521.495512 481.497597 
L 524.116645 481.807581 
L 526.737779 481.29094 
L 529.358913 481.652589 
L 531.980047 481.549261 
L 534.601181 481.807581 
L 537.222315 481.600925 
L 542.464582 481.704253 
L 545.085716 481.600925 
L 547.70685 481.704253 
L 555.570252 481.600925 
L 560.812519 481.600925 
L 621.098598 481.652589 
L 626.340865 481.755917 
L 639.446535 481.859245 
L 642.067669 481.549261 
L 644.688802 481.859245 
L 649.93107 481.755917 
L 760.018692 481.859245 
L 762.639826 481.549261 
L 765.260959 481.859245 
L 767.882093 481.859245 
L 770.503227 481.549261 
L 773.124361 481.962574 
L 775.745495 481.549261 
L 778.366629 481.962574 
L 780.987762 481.652589 
L 786.23003 481.755917 
L 788.851164 481.652589 
L 791.472298 481.962574 
L 794.093432 481.549261 
L 796.714566 481.962574 
L 799.335699 481.652589 
L 804.577967 481.755917 
L 817.683636 481.755917 
L 817.683636 481.755917 
" clip-path="url(#p553ccfb767)" style="fill: none; stroke: #ff0000; stroke-width: 1.5; stroke-linecap: square"/>
   </g>
   <g id="line2d_70">
    <path d="M 395.681087 534.04 
L 395.681087 410.149456 
" clip-path="url(#p553ccfb767)" style="fill: none; stroke-dasharray: 5.55,2.4; stroke-dashoffset: 0; stroke: #ff0000; stroke-opacity: 0.5; stroke-width: 1.5"/>
   </g>
   <g id="line2d_71">
    <path d="M 618.477464 534.04 
L 618.477464 410.149456 
" clip-path="url(#p553ccfb767)" style="fill: none; stroke-dasharray: 5.55,2.4; stroke-dashoffset: 0; stroke: #bf00bf; stroke-opacity: 0.7; stroke-width: 1.5"/>
   </g>
   <g id="patch_15">
    <path d="M 71.84 534.04 
L 71.84 410.149456 
" style="fill: none; stroke: #000000; stroke-width: 0.8; stroke-linejoin: miter; stroke-linecap: square"/>
   </g>
   <g id="patch_16">
    <path d="M 853.2 534.04 
L 853.2 410.149456 
" style="fill: none; stroke: #000000; stroke-width: 0.8; stroke-linejoin: miter; stroke-linecap: square"/>
   </g>
   <g id="patch_17">
    <path d="M 71.84 534.04 
L 853.2 534.04 
" style="fill: none; stroke: #000000; stroke-width: 0.8; stroke-linejoin: miter; stroke-linecap: square"/>
   </g>
   <g id="patch_18">
    <path d="M 71.84 410.149456 
L 853.2 410.149456 
" style="fill: none; stroke: #000000; stroke-width: 0.8; stroke-linejoin: miter; stroke-linecap: square"/>
   </g>
   <g id="legend_3">
    <g id="patch_19">
     <path d="M 764.029688 432.827581 
L 846.2 432.827581 
Q 848.2 432.827581 848.2 430.827581 
L 848.2 417.149456 
Q 848.2 415.149456 846.2 415.149456 
L 764.029688 415.149456 
Q 762.029688 415.149456 762.029688 417.149456 
L 762.029688 430.827581 
Q 762.029688 432.827581 764.029688 432.827581 
z
" style="fill: #ffffff; opacity: 0.8; stroke: #cccccc; stroke-linejoin: miter"/>
    </g>
    <g id="line2d_72">
     <path d="M 766.029688 423.247893 
L 776.029688 423.247893 
L 786.029688 423.247893 
" style="fill: none; stroke: #ff0000; stroke-width: 1.5; stroke-linecap: square"/>
    </g>
    <g id="text_39">
     <!-- a (m/s^2) -->
     <g transform="translate(794.029688 426.747893) scale(0.1 -0.1)">
      <defs>
       <path id="DejaVuSans-5e" d="M 2988 4666 
L 4684 2925 
L 4056 2925 
L 2681 4159 
L 1306 2925 
L 678 2925 
L 2375 4666 
L 2988 4666 
z
" transform="scale(0.015625)"/>
      </defs>
      <use xlink:href="#DejaVuSans-61"/>
      <use xlink:href="#DejaVuSans-20" transform="translate(61.279297 0)"/>
      <use xlink:href="#DejaVuSans-28" transform="translate(93.066406 0)"/>
      <use xlink:href="#DejaVuSans-6d" transform="translate(132.080078 0)"/>
      <use xlink:href="#DejaVuSans-2f" transform="translate(229.492188 0)"/>
      <use xlink:href="#DejaVuSans-73" transform="translate(263.183594 0)"/>
      <use xlink:href="#DejaVuSans-5e" transform="translate(315.283203 0)"/>
      <use xlink:href="#DejaVuSans-32" transform="translate(399.072266 0)"/>
      <use xlink:href="#DejaVuSans-29" transform="translate(462.695312 0)"/>
     </g>
    </g>
   </g>
  </g>
  <g id="text_40">
   <!-- Position, Velocity, and Acceleration of Cart Using Sonar run 2# Data -->
   <g transform="translate(227.715937 11.998125) scale(0.12 -0.12)">
    <defs>
     <path id="DejaVuSans-50" d="M 1259 4147 
L 1259 2394 
L 2053 2394 
Q 2494 2394 2734 2622 
Q 2975 2850 2975 3272 
Q 2975 3691 2734 3919 
Q 2494 4147 2053 4147 
L 1259 4147 
z
M 628 4666 
L 2053 4666 
Q 2838 4666 3239 4311 
Q 3641 3956 3641 3272 
Q 3641 2581 3239 2228 
Q 2838 1875 2053 1875 
L 1259 1875 
L 1259 0 
L 628 0 
L 628 4666 
z
" transform="scale(0.015625)"/>
     <path id="DejaVuSans-6f" d="M 1959 3097 
Q 1497 3097 1228 2736 
Q 959 2375 959 1747 
Q 959 1119 1226 758 
Q 1494 397 1959 397 
Q 2419 397 2687 759 
Q 2956 1122 2956 1747 
Q 2956 2369 2687 2733 
Q 2419 3097 1959 3097 
z
M 1959 3584 
Q 2709 3584 3137 3096 
Q 3566 2609 3566 1747 
Q 3566 888 3137 398 
Q 2709 -91 1959 -91 
Q 1206 -91 779 398 
Q 353 888 353 1747 
Q 353 2609 779 3096 
Q 1206 3584 1959 3584 
z
" transform="scale(0.015625)"/>
     <path id="DejaVuSans-69" d="M 603 3500 
L 1178 3500 
L 1178 0 
L 603 0 
L 603 3500 
z
M 603 4863 
L 1178 4863 
L 1178 4134 
L 603 4134 
L 603 4863 
z
" transform="scale(0.015625)"/>
     <path id="DejaVuSans-6e" d="M 3513 2113 
L 3513 0 
L 2938 0 
L 2938 2094 
Q 2938 2591 2744 2837 
Q 2550 3084 2163 3084 
Q 1697 3084 1428 2787 
Q 1159 2491 1159 1978 
L 1159 0 
L 581 0 
L 581 3500 
L 1159 3500 
L 1159 2956 
Q 1366 3272 1645 3428 
Q 1925 3584 2291 3584 
Q 2894 3584 3203 3211 
Q 3513 2838 3513 2113 
z
" transform="scale(0.015625)"/>
     <path id="DejaVuSans-56" d="M 1831 0 
L 50 4666 
L 709 4666 
L 2188 738 
L 3669 4666 
L 4325 4666 
L 2547 0 
L 1831 0 
z
" transform="scale(0.015625)"/>
     <path id="DejaVuSans-65" d="M 3597 1894 
L 3597 1613 
L 953 1613 
Q 991 1019 1311 708 
Q 1631 397 2203 397 
Q 2534 397 2845 478 
Q 3156 559 3463 722 
L 3463 178 
Q 3153 47 2828 -22 
Q 2503 -91 2169 -91 
Q 1331 -91 842 396 
Q 353 884 353 1716 
Q 353 2575 817 3079 
Q 1281 3584 2069 3584 
Q 2775 3584 3186 3129 
Q 3597 2675 3597 1894 
z
M 3022 2063 
Q 3016 2534 2758 2815 
Q 2500 3097 2075 3097 
Q 1594 3097 1305 2825 
Q 1016 2553 972 2059 
L 3022 2063 
z
" transform="scale(0.015625)"/>
     <path id="DejaVuSans-6c" d="M 603 4863 
L 1178 4863 
L 1178 0 
L 603 0 
L 603 4863 
z
" transform="scale(0.015625)"/>
     <path id="DejaVuSans-63" d="M 3122 3366 
L 3122 2828 
Q 2878 2963 2633 3030 
Q 2388 3097 2138 3097 
Q 1578 3097 1268 2742 
Q 959 2388 959 1747 
Q 959 1106 1268 751 
Q 1578 397 2138 397 
Q 2388 397 2633 464 
Q 2878 531 3122 666 
L 3122 134 
Q 2881 22 2623 -34 
Q 2366 -91 2075 -91 
Q 1284 -91 818 406 
Q 353 903 353 1747 
Q 353 2603 823 3093 
Q 1294 3584 2113 3584 
Q 2378 3584 2631 3529 
Q 2884 3475 3122 3366 
z
" transform="scale(0.015625)"/>
     <path id="DejaVuSans-79" d="M 2059 -325 
Q 1816 -950 1584 -1140 
Q 1353 -1331 966 -1331 
L 506 -1331 
L 506 -850 
L 844 -850 
Q 1081 -850 1212 -737 
Q 1344 -625 1503 -206 
L 1606 56 
L 191 3500 
L 800 3500 
L 1894 763 
L 2988 3500 
L 3597 3500 
L 2059 -325 
z
" transform="scale(0.015625)"/>
     <path id="DejaVuSans-64" d="M 2906 2969 
L 2906 4863 
L 3481 4863 
L 3481 0 
L 2906 0 
L 2906 525 
Q 2725 213 2448 61 
Q 2172 -91 1784 -91 
Q 1150 -91 751 415 
Q 353 922 353 1747 
Q 353 2572 751 3078 
Q 1150 3584 1784 3584 
Q 2172 3584 2448 3432 
Q 2725 3281 2906 2969 
z
M 947 1747 
Q 947 1113 1208 752 
Q 1469 391 1925 391 
Q 2381 391 2643 752 
Q 2906 1113 2906 1747 
Q 2906 2381 2643 2742 
Q 2381 3103 1925 3103 
Q 1469 3103 1208 2742 
Q 947 2381 947 1747 
z
" transform="scale(0.015625)"/>
     <path id="DejaVuSans-41" d="M 2188 4044 
L 1331 1722 
L 3047 1722 
L 2188 4044 
z
M 1831 4666 
L 2547 4666 
L 4325 0 
L 3669 0 
L 3244 1197 
L 1141 1197 
L 716 0 
L 50 0 
L 1831 4666 
z
" transform="scale(0.015625)"/>
     <path id="DejaVuSans-72" d="M 2631 2963 
Q 2534 3019 2420 3045 
Q 2306 3072 2169 3072 
Q 1681 3072 1420 2755 
Q 1159 2438 1159 1844 
L 1159 0 
L 581 0 
L 581 3500 
L 1159 3500 
L 1159 2956 
Q 1341 3275 1631 3429 
Q 1922 3584 2338 3584 
Q 2397 3584 2469 3576 
Q 2541 3569 2628 3553 
L 2631 2963 
z
" transform="scale(0.015625)"/>
     <path id="DejaVuSans-66" d="M 2375 4863 
L 2375 4384 
L 1825 4384 
Q 1516 4384 1395 4259 
Q 1275 4134 1275 3809 
L 1275 3500 
L 2222 3500 
L 2222 3053 
L 1275 3053 
L 1275 0 
L 697 0 
L 697 3053 
L 147 3053 
L 147 3500 
L 697 3500 
L 697 3744 
Q 697 4328 969 4595 
Q 1241 4863 1831 4863 
L 2375 4863 
z
" transform="scale(0.015625)"/>
     <path id="DejaVuSans-43" d="M 4122 4306 
L 4122 3641 
Q 3803 3938 3442 4084 
Q 3081 4231 2675 4231 
Q 1875 4231 1450 3742 
Q 1025 3253 1025 2328 
Q 1025 1406 1450 917 
Q 1875 428 2675 428 
Q 3081 428 3442 575 
Q 3803 722 4122 1019 
L 4122 359 
Q 3791 134 3420 21 
Q 3050 -91 2638 -91 
Q 1578 -91 968 557 
Q 359 1206 359 2328 
Q 359 3453 968 4101 
Q 1578 4750 2638 4750 
Q 3056 4750 3426 4639 
Q 3797 4528 4122 4306 
z
" transform="scale(0.015625)"/>
     <path id="DejaVuSans-55" d="M 556 4666 
L 1191 4666 
L 1191 1831 
Q 1191 1081 1462 751 
Q 1734 422 2344 422 
Q 2950 422 3222 751 
Q 3494 1081 3494 1831 
L 3494 4666 
L 4128 4666 
L 4128 1753 
Q 4128 841 3676 375 
Q 3225 -91 2344 -91 
Q 1459 -91 1007 375 
Q 556 841 556 1753 
L 556 4666 
z
" transform="scale(0.015625)"/>
     <path id="DejaVuSans-67" d="M 2906 1791 
Q 2906 2416 2648 2759 
Q 2391 3103 1925 3103 
Q 1463 3103 1205 2759 
Q 947 2416 947 1791 
Q 947 1169 1205 825 
Q 1463 481 1925 481 
Q 2391 481 2648 825 
Q 2906 1169 2906 1791 
z
M 3481 434 
Q 3481 -459 3084 -895 
Q 2688 -1331 1869 -1331 
Q 1566 -1331 1297 -1286 
Q 1028 -1241 775 -1147 
L 775 -588 
Q 1028 -725 1275 -790 
Q 1522 -856 1778 -856 
Q 2344 -856 2625 -561 
Q 2906 -266 2906 331 
L 2906 616 
Q 2728 306 2450 153 
Q 2172 0 1784 0 
Q 1141 0 747 490 
Q 353 981 353 1791 
Q 353 2603 747 3093 
Q 1141 3584 1784 3584 
Q 2172 3584 2450 3431 
Q 2728 3278 2906 2969 
L 2906 3500 
L 3481 3500 
L 3481 434 
z
" transform="scale(0.015625)"/>
     <path id="DejaVuSans-53" d="M 3425 4513 
L 3425 3897 
Q 3066 4069 2747 4153 
Q 2428 4238 2131 4238 
Q 1616 4238 1336 4038 
Q 1056 3838 1056 3469 
Q 1056 3159 1242 3001 
Q 1428 2844 1947 2747 
L 2328 2669 
Q 3034 2534 3370 2195 
Q 3706 1856 3706 1288 
Q 3706 609 3251 259 
Q 2797 -91 1919 -91 
Q 1588 -91 1214 -16 
Q 841 59 441 206 
L 441 856 
Q 825 641 1194 531 
Q 1563 422 1919 422 
Q 2459 422 2753 634 
Q 3047 847 3047 1241 
Q 3047 1584 2836 1778 
Q 2625 1972 2144 2069 
L 1759 2144 
Q 1053 2284 737 2584 
Q 422 2884 422 3419 
Q 422 4038 858 4394 
Q 1294 4750 2059 4750 
Q 2388 4750 2728 4690 
Q 3069 4631 3425 4513 
z
" transform="scale(0.015625)"/>
     <path id="DejaVuSans-75" d="M 544 1381 
L 544 3500 
L 1119 3500 
L 1119 1403 
Q 1119 906 1312 657 
Q 1506 409 1894 409 
Q 2359 409 2629 706 
Q 2900 1003 2900 1516 
L 2900 3500 
L 3475 3500 
L 3475 0 
L 2900 0 
L 2900 538 
Q 2691 219 2414 64 
Q 2138 -91 1772 -91 
Q 1169 -91 856 284 
Q 544 659 544 1381 
z
M 1991 3584 
L 1991 3584 
z
" transform="scale(0.015625)"/>
     <path id="DejaVuSans-23" d="M 3272 2816 
L 2363 2816 
L 2100 1772 
L 3016 1772 
L 3272 2816 
z
M 2803 4594 
L 2478 3297 
L 3391 3297 
L 3719 4594 
L 4219 4594 
L 3897 3297 
L 4872 3297 
L 4872 2816 
L 3775 2816 
L 3519 1772 
L 4513 1772 
L 4513 1294 
L 3397 1294 
L 3072 0 
L 2572 0 
L 2894 1294 
L 1978 1294 
L 1656 0 
L 1153 0 
L 1478 1294 
L 494 1294 
L 494 1772 
L 1594 1772 
L 1856 2816 
L 850 2816 
L 850 3297 
L 1978 3297 
L 2297 4594 
L 2803 4594 
z
" transform="scale(0.015625)"/>
     <path id="DejaVuSans-44" d="M 1259 4147 
L 1259 519 
L 2022 519 
Q 2988 519 3436 956 
Q 3884 1394 3884 2338 
Q 3884 3275 3436 3711 
Q 2988 4147 2022 4147 
L 1259 4147 
z
M 628 4666 
L 1925 4666 
Q 3281 4666 3915 4102 
Q 4550 3538 4550 2338 
Q 4550 1131 3912 565 
Q 3275 0 1925 0 
L 628 0 
L 628 4666 
z
" transform="scale(0.015625)"/>
    </defs>
    <use xlink:href="#DejaVuSans-50"/>
    <use xlink:href="#DejaVuSans-6f" transform="translate(56.677734 0)"/>
    <use xlink:href="#DejaVuSans-73" transform="translate(117.859375 0)"/>
    <use xlink:href="#DejaVuSans-69" transform="translate(169.958984 0)"/>
    <use xlink:href="#DejaVuSans-74" transform="translate(197.742188 0)"/>
    <use xlink:href="#DejaVuSans-69" transform="translate(236.951172 0)"/>
    <use xlink:href="#DejaVuSans-6f" transform="translate(264.734375 0)"/>
    <use xlink:href="#DejaVuSans-6e" transform="translate(325.916016 0)"/>
    <use xlink:href="#DejaVuSans-2c" transform="translate(389.294922 0)"/>
    <use xlink:href="#DejaVuSans-20" transform="translate(421.082031 0)"/>
    <use xlink:href="#DejaVuSans-56" transform="translate(452.869141 0)"/>
    <use xlink:href="#DejaVuSans-65" transform="translate(513.527344 0)"/>
    <use xlink:href="#DejaVuSans-6c" transform="translate(575.050781 0)"/>
    <use xlink:href="#DejaVuSans-6f" transform="translate(602.833984 0)"/>
    <use xlink:href="#DejaVuSans-63" transform="translate(664.015625 0)"/>
    <use xlink:href="#DejaVuSans-69" transform="translate(718.996094 0)"/>
    <use xlink:href="#DejaVuSans-74" transform="translate(746.779297 0)"/>
    <use xlink:href="#DejaVuSans-79" transform="translate(785.988281 0)"/>
    <use xlink:href="#DejaVuSans-2c" transform="translate(845.167969 0)"/>
    <use xlink:href="#DejaVuSans-20" transform="translate(876.955078 0)"/>
    <use xlink:href="#DejaVuSans-61" transform="translate(908.742188 0)"/>
    <use xlink:href="#DejaVuSans-6e" transform="translate(970.021484 0)"/>
    <use xlink:href="#DejaVuSans-64" transform="translate(1033.400391 0)"/>
    <use xlink:href="#DejaVuSans-20" transform="translate(1096.876953 0)"/>
    <use xlink:href="#DejaVuSans-41" transform="translate(1128.664062 0)"/>
    <use xlink:href="#DejaVuSans-63" transform="translate(1195.322266 0)"/>
    <use xlink:href="#DejaVuSans-63" transform="translate(1250.302734 0)"/>
    <use xlink:href="#DejaVuSans-65" transform="translate(1305.283203 0)"/>
    <use xlink:href="#DejaVuSans-6c" transform="translate(1366.806641 0)"/>
    <use xlink:href="#DejaVuSans-65" transform="translate(1394.589844 0)"/>
    <use xlink:href="#DejaVuSans-72" transform="translate(1456.113281 0)"/>
    <use xlink:href="#DejaVuSans-61" transform="translate(1497.226562 0)"/>
    <use xlink:href="#DejaVuSans-74" transform="translate(1558.505859 0)"/>
    <use xlink:href="#DejaVuSans-69" transform="translate(1597.714844 0)"/>
    <use xlink:href="#DejaVuSans-6f" transform="translate(1625.498047 0)"/>
    <use xlink:href="#DejaVuSans-6e" transform="translate(1686.679688 0)"/>
    <use xlink:href="#DejaVuSans-20" transform="translate(1750.058594 0)"/>
    <use xlink:href="#DejaVuSans-6f" transform="translate(1781.845703 0)"/>
    <use xlink:href="#DejaVuSans-66" transform="translate(1843.027344 0)"/>
    <use xlink:href="#DejaVuSans-20" transform="translate(1878.232422 0)"/>
    <use xlink:href="#DejaVuSans-43" transform="translate(1910.019531 0)"/>
    <use xlink:href="#DejaVuSans-61" transform="translate(1979.84375 0)"/>
    <use xlink:href="#DejaVuSans-72" transform="translate(2041.123047 0)"/>
    <use xlink:href="#DejaVuSans-74" transform="translate(2082.236328 0)"/>
    <use xlink:href="#DejaVuSans-20" transform="translate(2121.445312 0)"/>
    <use xlink:href="#DejaVuSans-55" transform="translate(2153.232422 0)"/>
    <use xlink:href="#DejaVuSans-73" transform="translate(2226.425781 0)"/>
    <use xlink:href="#DejaVuSans-69" transform="translate(2278.525391 0)"/>
    <use xlink:href="#DejaVuSans-6e" transform="translate(2306.308594 0)"/>
    <use xlink:href="#DejaVuSans-67" transform="translate(2369.6875 0)"/>
    <use xlink:href="#DejaVuSans-20" transform="translate(2433.164062 0)"/>
    <use xlink:href="#DejaVuSans-53" transform="translate(2464.951172 0)"/>
    <use xlink:href="#DejaVuSans-6f" transform="translate(2528.427734 0)"/>
    <use xlink:href="#DejaVuSans-6e" transform="translate(2589.609375 0)"/>
    <use xlink:href="#DejaVuSans-61" transform="translate(2652.988281 0)"/>
    <use xlink:href="#DejaVuSans-72" transform="translate(2714.267578 0)"/>
    <use xlink:href="#DejaVuSans-20" transform="translate(2755.380859 0)"/>
    <use xlink:href="#DejaVuSans-72" transform="translate(2787.167969 0)"/>
    <use xlink:href="#DejaVuSans-75" transform="translate(2828.28125 0)"/>
    <use xlink:href="#DejaVuSans-6e" transform="translate(2891.660156 0)"/>
    <use xlink:href="#DejaVuSans-20" transform="translate(2955.039062 0)"/>
    <use xlink:href="#DejaVuSans-32" transform="translate(2986.826172 0)"/>
    <use xlink:href="#DejaVuSans-23" transform="translate(3050.449219 0)"/>
    <use xlink:href="#DejaVuSans-20" transform="translate(3134.238281 0)"/>
    <use xlink:href="#DejaVuSans-44" transform="translate(3166.025391 0)"/>
    <use xlink:href="#DejaVuSans-61" transform="translate(3243.027344 0)"/>
    <use xlink:href="#DejaVuSans-74" transform="translate(3304.306641 0)"/>
    <use xlink:href="#DejaVuSans-61" transform="translate(3343.515625 0)"/>
   </g>
  </g>
 </g>
 <defs>
  <clipPath id="pf91130f099">
   <rect x="71.84" y="106.608368" width="781.36" height="123.890544"/>
  </clipPath>
  <clipPath id="p71c02c2d53">
   <rect x="71.84" y="258.378912" width="781.36" height="123.890544"/>
  </clipPath>
  <clipPath id="p553ccfb767">
   <rect x="71.84" y="410.149456" width="781.36" height="123.890544"/>
  </clipPath>
 </defs>
</svg>
