<?xml version="1.0" encoding="utf-8" standalone="no"?>
<!DOCTYPE svg PUBLIC "-//W3C//DTD SVG 1.1//EN"
  "http://www.w3.org/Graphics/SVG/1.1/DTD/svg11.dtd">
<svg xmlns:xlink="http://www.w3.org/1999/xlink" width="864pt" height="576pt" viewBox="0 0 864 576" xmlns="http://www.w3.org/2000/svg" version="1.1">
 <metadata>
  <rdf:RDF xmlns:dc="http://purl.org/dc/elements/1.1/" xmlns:cc="http://creativecommons.org/ns#" xmlns:rdf="http://www.w3.org/1999/02/22-rdf-syntax-ns#">
   <cc:Work>
    <dc:type rdf:resource="http://purl.org/dc/dcmitype/StillImage"/>
    <dc:date>2025-01-14T15:26:37.225418</dc:date>
    <dc:format>image/svg+xml</dc:format>
    <dc:creator>
     <cc:Agent>
      <dc:title>Matplotlib v3.10.0, https://matplotlib.org/</dc:title>
     </cc:Agent>
    </dc:creator>
   </cc:Work>
  </rdf:RDF>
 </metadata>
 <defs>
  <style type="text/css">*{stroke-linejoin: round; stroke-linecap: butt}</style>
 </defs>
 <g id="figure_1">
  <g id="patch_1">
   <path d="M 0 576 
L 864 576 
L 864 0 
L 0 0 
z
" style="fill: #ffffff"/>
  </g>
  <g id="axes_1">
   <g id="patch_2">
    <path d="M 59.24 230.858912 
L 853.2 230.858912 
L 853.2 107.148368 
L 59.24 107.148368 
z
" style="fill: #ffffff"/>
   </g>
   <g id="matplotlib.axis_1">
    <g id="xtick_1">
     <g id="line2d_1">
      <path d="M 95.329091 230.858912 
L 95.329091 107.148368 
" clip-path="url(#p6a88da33da)" style="fill: none; stroke: #b0b0b0; stroke-width: 0.8; stroke-linecap: square"/>
     </g>
     <g id="line2d_2">
      <defs>
       <path id="m428ed6ed1a" d="M 0 0 
L 0 3.5 
" style="stroke: #000000; stroke-width: 0.8"/>
      </defs>
      <g>
       <use xlink:href="#m428ed6ed1a" x="95.329091" y="230.858912" style="stroke: #000000; stroke-width: 0.8"/>
      </g>
     </g>
     <g id="text_1">
      <!-- 0 -->
      <g transform="translate(92.147841 245.457349) scale(0.1 -0.1)">
       <defs>
        <path id="DejaVuSans-30" d="M 2034 4250 
Q 1547 4250 1301 3770 
Q 1056 3291 1056 2328 
Q 1056 1369 1301 889 
Q 1547 409 2034 409 
Q 2525 409 2770 889 
Q 3016 1369 3016 2328 
Q 3016 3291 2770 3770 
Q 2525 4250 2034 4250 
z
M 2034 4750 
Q 2819 4750 3233 4129 
Q 3647 3509 3647 2328 
Q 3647 1150 3233 529 
Q 2819 -91 2034 -91 
Q 1250 -91 836 529 
Q 422 1150 422 2328 
Q 422 3509 836 4129 
Q 1250 4750 2034 4750 
z
" transform="scale(0.015625)"/>
       </defs>
       <use xlink:href="#DejaVuSans-30"/>
      </g>
     </g>
    </g>
    <g id="xtick_2">
     <g id="line2d_3">
      <path d="M 203.704739 230.858912 
L 203.704739 107.148368 
" clip-path="url(#p6a88da33da)" style="fill: none; stroke: #b0b0b0; stroke-width: 0.8; stroke-linecap: square"/>
     </g>
     <g id="line2d_4">
      <g>
       <use xlink:href="#m428ed6ed1a" x="203.704739" y="230.858912" style="stroke: #000000; stroke-width: 0.8"/>
      </g>
     </g>
     <g id="text_2">
      <!-- 1 -->
      <g transform="translate(200.523489 245.457349) scale(0.1 -0.1)">
       <defs>
        <path id="DejaVuSans-31" d="M 794 531 
L 1825 531 
L 1825 4091 
L 703 3866 
L 703 4441 
L 1819 4666 
L 2450 4666 
L 2450 531 
L 3481 531 
L 3481 0 
L 794 0 
L 794 531 
z
" transform="scale(0.015625)"/>
       </defs>
       <use xlink:href="#DejaVuSans-31"/>
      </g>
     </g>
    </g>
    <g id="xtick_3">
     <g id="line2d_5">
      <path d="M 312.080388 230.858912 
L 312.080388 107.148368 
" clip-path="url(#p6a88da33da)" style="fill: none; stroke: #b0b0b0; stroke-width: 0.8; stroke-linecap: square"/>
     </g>
     <g id="line2d_6">
      <g>
       <use xlink:href="#m428ed6ed1a" x="312.080388" y="230.858912" style="stroke: #000000; stroke-width: 0.8"/>
      </g>
     </g>
     <g id="text_3">
      <!-- 2 -->
      <g transform="translate(308.899138 245.457349) scale(0.1 -0.1)">
       <defs>
        <path id="DejaVuSans-32" d="M 1228 531 
L 3431 531 
L 3431 0 
L 469 0 
L 469 531 
Q 828 903 1448 1529 
Q 2069 2156 2228 2338 
Q 2531 2678 2651 2914 
Q 2772 3150 2772 3378 
Q 2772 3750 2511 3984 
Q 2250 4219 1831 4219 
Q 1534 4219 1204 4116 
Q 875 4013 500 3803 
L 500 4441 
Q 881 4594 1212 4672 
Q 1544 4750 1819 4750 
Q 2544 4750 2975 4387 
Q 3406 4025 3406 3419 
Q 3406 3131 3298 2873 
Q 3191 2616 2906 2266 
Q 2828 2175 2409 1742 
Q 1991 1309 1228 531 
z
" transform="scale(0.015625)"/>
       </defs>
       <use xlink:href="#DejaVuSans-32"/>
      </g>
     </g>
    </g>
    <g id="xtick_4">
     <g id="line2d_7">
      <path d="M 420.456036 230.858912 
L 420.456036 107.148368 
" clip-path="url(#p6a88da33da)" style="fill: none; stroke: #b0b0b0; stroke-width: 0.8; stroke-linecap: square"/>
     </g>
     <g id="line2d_8">
      <g>
       <use xlink:href="#m428ed6ed1a" x="420.456036" y="230.858912" style="stroke: #000000; stroke-width: 0.8"/>
      </g>
     </g>
     <g id="text_4">
      <!-- 3 -->
      <g transform="translate(417.274786 245.457349) scale(0.1 -0.1)">
       <defs>
        <path id="DejaVuSans-33" d="M 2597 2516 
Q 3050 2419 3304 2112 
Q 3559 1806 3559 1356 
Q 3559 666 3084 287 
Q 2609 -91 1734 -91 
Q 1441 -91 1130 -33 
Q 819 25 488 141 
L 488 750 
Q 750 597 1062 519 
Q 1375 441 1716 441 
Q 2309 441 2620 675 
Q 2931 909 2931 1356 
Q 2931 1769 2642 2001 
Q 2353 2234 1838 2234 
L 1294 2234 
L 1294 2753 
L 1863 2753 
Q 2328 2753 2575 2939 
Q 2822 3125 2822 3475 
Q 2822 3834 2567 4026 
Q 2313 4219 1838 4219 
Q 1578 4219 1281 4162 
Q 984 4106 628 3988 
L 628 4550 
Q 988 4650 1302 4700 
Q 1616 4750 1894 4750 
Q 2613 4750 3031 4423 
Q 3450 4097 3450 3541 
Q 3450 3153 3228 2886 
Q 3006 2619 2597 2516 
z
" transform="scale(0.015625)"/>
       </defs>
       <use xlink:href="#DejaVuSans-33"/>
      </g>
     </g>
    </g>
    <g id="xtick_5">
     <g id="line2d_9">
      <path d="M 528.831684 230.858912 
L 528.831684 107.148368 
" clip-path="url(#p6a88da33da)" style="fill: none; stroke: #b0b0b0; stroke-width: 0.8; stroke-linecap: square"/>
     </g>
     <g id="line2d_10">
      <g>
       <use xlink:href="#m428ed6ed1a" x="528.831684" y="230.858912" style="stroke: #000000; stroke-width: 0.8"/>
      </g>
     </g>
     <g id="text_5">
      <!-- 4 -->
      <g transform="translate(525.650434 245.457349) scale(0.1 -0.1)">
       <defs>
        <path id="DejaVuSans-34" d="M 2419 4116 
L 825 1625 
L 2419 1625 
L 2419 4116 
z
M 2253 4666 
L 3047 4666 
L 3047 1625 
L 3713 1625 
L 3713 1100 
L 3047 1100 
L 3047 0 
L 2419 0 
L 2419 1100 
L 313 1100 
L 313 1709 
L 2253 4666 
z
" transform="scale(0.015625)"/>
       </defs>
       <use xlink:href="#DejaVuSans-34"/>
      </g>
     </g>
    </g>
    <g id="xtick_6">
     <g id="line2d_11">
      <path d="M 637.207333 230.858912 
L 637.207333 107.148368 
" clip-path="url(#p6a88da33da)" style="fill: none; stroke: #b0b0b0; stroke-width: 0.8; stroke-linecap: square"/>
     </g>
     <g id="line2d_12">
      <g>
       <use xlink:href="#m428ed6ed1a" x="637.207333" y="230.858912" style="stroke: #000000; stroke-width: 0.8"/>
      </g>
     </g>
     <g id="text_6">
      <!-- 5 -->
      <g transform="translate(634.026083 245.457349) scale(0.1 -0.1)">
       <defs>
        <path id="DejaVuSans-35" d="M 691 4666 
L 3169 4666 
L 3169 4134 
L 1269 4134 
L 1269 2991 
Q 1406 3038 1543 3061 
Q 1681 3084 1819 3084 
Q 2600 3084 3056 2656 
Q 3513 2228 3513 1497 
Q 3513 744 3044 326 
Q 2575 -91 1722 -91 
Q 1428 -91 1123 -41 
Q 819 9 494 109 
L 494 744 
Q 775 591 1075 516 
Q 1375 441 1709 441 
Q 2250 441 2565 725 
Q 2881 1009 2881 1497 
Q 2881 1984 2565 2268 
Q 2250 2553 1709 2553 
Q 1456 2553 1204 2497 
Q 953 2441 691 2322 
L 691 4666 
z
" transform="scale(0.015625)"/>
       </defs>
       <use xlink:href="#DejaVuSans-35"/>
      </g>
     </g>
    </g>
    <g id="xtick_7">
     <g id="line2d_13">
      <path d="M 745.582981 230.858912 
L 745.582981 107.148368 
" clip-path="url(#p6a88da33da)" style="fill: none; stroke: #b0b0b0; stroke-width: 0.8; stroke-linecap: square"/>
     </g>
     <g id="line2d_14">
      <g>
       <use xlink:href="#m428ed6ed1a" x="745.582981" y="230.858912" style="stroke: #000000; stroke-width: 0.8"/>
      </g>
     </g>
     <g id="text_7">
      <!-- 6 -->
      <g transform="translate(742.401731 245.457349) scale(0.1 -0.1)">
       <defs>
        <path id="DejaVuSans-36" d="M 2113 2584 
Q 1688 2584 1439 2293 
Q 1191 2003 1191 1497 
Q 1191 994 1439 701 
Q 1688 409 2113 409 
Q 2538 409 2786 701 
Q 3034 994 3034 1497 
Q 3034 2003 2786 2293 
Q 2538 2584 2113 2584 
z
M 3366 4563 
L 3366 3988 
Q 3128 4100 2886 4159 
Q 2644 4219 2406 4219 
Q 1781 4219 1451 3797 
Q 1122 3375 1075 2522 
Q 1259 2794 1537 2939 
Q 1816 3084 2150 3084 
Q 2853 3084 3261 2657 
Q 3669 2231 3669 1497 
Q 3669 778 3244 343 
Q 2819 -91 2113 -91 
Q 1303 -91 875 529 
Q 447 1150 447 2328 
Q 447 3434 972 4092 
Q 1497 4750 2381 4750 
Q 2619 4750 2861 4703 
Q 3103 4656 3366 4563 
z
" transform="scale(0.015625)"/>
       </defs>
       <use xlink:href="#DejaVuSans-36"/>
      </g>
     </g>
    </g>
   </g>
   <g id="matplotlib.axis_2">
    <g id="ytick_1">
     <g id="line2d_15">
      <path d="M 59.24 227.145604 
L 853.2 227.145604 
" clip-path="url(#p6a88da33da)" style="fill: none; stroke: #b0b0b0; stroke-width: 0.8; stroke-linecap: square"/>
     </g>
     <g id="line2d_16">
      <defs>
       <path id="m9aa9f4549d" d="M 0 0 
L -3.5 0 
" style="stroke: #000000; stroke-width: 0.8"/>
      </defs>
      <g>
       <use xlink:href="#m9aa9f4549d" x="59.24" y="227.145604" style="stroke: #000000; stroke-width: 0.8"/>
      </g>
     </g>
     <g id="text_8">
      <!-- 0 -->
      <g transform="translate(45.8775 230.944823) scale(0.1 -0.1)">
       <use xlink:href="#DejaVuSans-30"/>
      </g>
     </g>
    </g>
    <g id="ytick_2">
     <g id="line2d_17">
      <path d="M 59.24 195.732797 
L 853.2 195.732797 
" clip-path="url(#p6a88da33da)" style="fill: none; stroke: #b0b0b0; stroke-width: 0.8; stroke-linecap: square"/>
     </g>
     <g id="line2d_18">
      <g>
       <use xlink:href="#m9aa9f4549d" x="59.24" y="195.732797" style="stroke: #000000; stroke-width: 0.8"/>
      </g>
     </g>
     <g id="text_9">
      <!-- 50 -->
      <g transform="translate(39.515 199.532016) scale(0.1 -0.1)">
       <use xlink:href="#DejaVuSans-35"/>
       <use xlink:href="#DejaVuSans-30" transform="translate(63.623047 0)"/>
      </g>
     </g>
    </g>
    <g id="ytick_3">
     <g id="line2d_19">
      <path d="M 59.24 164.31999 
L 853.2 164.31999 
" clip-path="url(#p6a88da33da)" style="fill: none; stroke: #b0b0b0; stroke-width: 0.8; stroke-linecap: square"/>
     </g>
     <g id="line2d_20">
      <g>
       <use xlink:href="#m9aa9f4549d" x="59.24" y="164.31999" style="stroke: #000000; stroke-width: 0.8"/>
      </g>
     </g>
     <g id="text_10">
      <!-- 100 -->
      <g transform="translate(33.1525 168.119209) scale(0.1 -0.1)">
       <use xlink:href="#DejaVuSans-31"/>
       <use xlink:href="#DejaVuSans-30" transform="translate(63.623047 0)"/>
       <use xlink:href="#DejaVuSans-30" transform="translate(127.246094 0)"/>
      </g>
     </g>
    </g>
    <g id="ytick_4">
     <g id="line2d_21">
      <path d="M 59.24 132.907184 
L 853.2 132.907184 
" clip-path="url(#p6a88da33da)" style="fill: none; stroke: #b0b0b0; stroke-width: 0.8; stroke-linecap: square"/>
     </g>
     <g id="line2d_22">
      <g>
       <use xlink:href="#m9aa9f4549d" x="59.24" y="132.907184" style="stroke: #000000; stroke-width: 0.8"/>
      </g>
     </g>
     <g id="text_11">
      <!-- 150 -->
      <g transform="translate(33.1525 136.706402) scale(0.1 -0.1)">
       <use xlink:href="#DejaVuSans-31"/>
       <use xlink:href="#DejaVuSans-35" transform="translate(63.623047 0)"/>
       <use xlink:href="#DejaVuSans-30" transform="translate(127.246094 0)"/>
      </g>
     </g>
    </g>
    <g id="text_12">
     <!-- x -->
     <g transform="translate(27.072813 171.963015) rotate(-90) scale(0.1 -0.1)">
      <defs>
       <path id="DejaVuSans-78" d="M 3513 3500 
L 2247 1797 
L 3578 0 
L 2900 0 
L 1881 1375 
L 863 0 
L 184 0 
L 1544 1831 
L 300 3500 
L 978 3500 
L 1906 2253 
L 2834 3500 
L 3513 3500 
z
" transform="scale(0.015625)"/>
      </defs>
      <use xlink:href="#DejaVuSans-78"/>
     </g>
    </g>
   </g>
   <g id="line2d_23">
    <path d="M 95.329091 112.771574 
L 125.674272 112.840683 
L 305.577849 112.941204 
L 314.247901 113.142246 
L 325.085465 113.783067 
L 333.755517 114.587235 
L 342.425569 115.617575 
L 351.095621 116.949478 
L 357.59816 118.224838 
L 368.435725 121.033143 
L 370.603238 121.642551 
L 374.938264 123.200626 
L 379.27329 124.677028 
L 387.943342 128.396305 
L 390.110854 129.426645 
L 394.44588 131.8203 
L 400.948419 135.772032 
L 405.283445 138.768813 
L 413.953497 145.403198 
L 418.288523 148.607304 
L 426.958575 154.940126 
L 439.963653 163.823668 
L 448.633705 169.3963 
L 455.136244 173.392009 
L 463.806295 178.462036 
L 472.476347 183.243065 
L 478.978886 186.604236 
L 485.481425 189.85232 
L 494.151477 193.917137 
L 500.654016 196.79455 
L 509.324068 200.363045 
L 515.826607 202.775549 
L 522.329146 205.093814 
L 526.664171 207.035125 
L 533.16671 209.347108 
L 539.669249 211.451766 
L 550.506814 214.668437 
L 559.176866 216.986702 
L 567.846918 219.053665 
L 574.349457 220.429546 
L 583.019509 222.012751 
L 589.522048 223.017961 
L 598.192099 224.092279 
L 604.694638 224.670275 
L 611.197177 225.034663 
L 619.867229 225.235705 
L 817.110909 225.235705 
L 817.110909 225.235705 
" clip-path="url(#p6a88da33da)" style="fill: none; stroke: #0000ff; stroke-width: 1.5; stroke-linecap: square"/>
   </g>
   <g id="line2d_24">
    <path d="M 413.953497 230.858912 
L 413.953497 107.148368 
" clip-path="url(#p6a88da33da)" style="fill: none; stroke-dasharray: 5.55,2.4; stroke-dashoffset: 0; stroke: #ff0000; stroke-opacity: 0.5; stroke-width: 1.5"/>
   </g>
   <g id="line2d_25">
    <path d="M 622.034742 230.858912 
L 622.034742 107.148368 
" clip-path="url(#p6a88da33da)" style="fill: none; stroke-dasharray: 5.55,2.4; stroke-dashoffset: 0; stroke: #bf00bf; stroke-opacity: 0.7; stroke-width: 1.5"/>
   </g>
   <g id="patch_3">
    <path d="M 59.24 230.858912 
L 59.24 107.148368 
" style="fill: none; stroke: #000000; stroke-width: 0.8; stroke-linejoin: miter; stroke-linecap: square"/>
   </g>
   <g id="patch_4">
    <path d="M 853.2 230.858912 
L 853.2 107.148368 
" style="fill: none; stroke: #000000; stroke-width: 0.8; stroke-linejoin: miter; stroke-linecap: square"/>
   </g>
   <g id="patch_5">
    <path d="M 59.24 230.858912 
L 853.2 230.858912 
" style="fill: none; stroke: #000000; stroke-width: 0.8; stroke-linejoin: miter; stroke-linecap: square"/>
   </g>
   <g id="patch_6">
    <path d="M 59.24 107.148368 
L 853.2 107.148368 
" style="fill: none; stroke: #000000; stroke-width: 0.8; stroke-linejoin: miter; stroke-linecap: square"/>
   </g>
   <g id="text_13">
    <!--  $t_{v,\max}=2.94\,\mathrm{s}$ -->
    <g transform="translate(421.453497 107.148368) rotate(-90) scale(0.1 -0.1)">
     <defs>
      <path id="DejaVuSans-20" transform="scale(0.015625)"/>
      <path id="DejaVuSans-Oblique-74" d="M 2706 3500 
L 2619 3053 
L 1472 3053 
L 1100 1153 
Q 1081 1047 1072 975 
Q 1063 903 1063 863 
Q 1063 663 1183 572 
Q 1303 481 1569 481 
L 2150 481 
L 2053 0 
L 1503 0 
Q 991 0 739 200 
Q 488 400 488 806 
Q 488 878 497 964 
Q 506 1050 525 1153 
L 897 3053 
L 409 3053 
L 500 3500 
L 978 3500 
L 1172 4494 
L 1747 4494 
L 1556 3500 
L 2706 3500 
z
" transform="scale(0.015625)"/>
      <path id="DejaVuSans-Oblique-76" d="M 459 3500 
L 1069 3500 
L 1581 525 
L 3256 3500 
L 3866 3500 
L 1875 0 
L 1100 0 
L 459 3500 
z
" transform="scale(0.015625)"/>
      <path id="DejaVuSans-2c" d="M 750 794 
L 1409 794 
L 1409 256 
L 897 -744 
L 494 -744 
L 750 256 
L 750 794 
z
" transform="scale(0.015625)"/>
      <path id="DejaVuSans-6d" d="M 3328 2828 
Q 3544 3216 3844 3400 
Q 4144 3584 4550 3584 
Q 5097 3584 5394 3201 
Q 5691 2819 5691 2113 
L 5691 0 
L 5113 0 
L 5113 2094 
Q 5113 2597 4934 2840 
Q 4756 3084 4391 3084 
Q 3944 3084 3684 2787 
Q 3425 2491 3425 1978 
L 3425 0 
L 2847 0 
L 2847 2094 
Q 2847 2600 2669 2842 
Q 2491 3084 2119 3084 
Q 1678 3084 1418 2786 
Q 1159 2488 1159 1978 
L 1159 0 
L 581 0 
L 581 3500 
L 1159 3500 
L 1159 2956 
Q 1356 3278 1631 3431 
Q 1906 3584 2284 3584 
Q 2666 3584 2933 3390 
Q 3200 3197 3328 2828 
z
" transform="scale(0.015625)"/>
      <path id="DejaVuSans-61" d="M 2194 1759 
Q 1497 1759 1228 1600 
Q 959 1441 959 1056 
Q 959 750 1161 570 
Q 1363 391 1709 391 
Q 2188 391 2477 730 
Q 2766 1069 2766 1631 
L 2766 1759 
L 2194 1759 
z
M 3341 1997 
L 3341 0 
L 2766 0 
L 2766 531 
Q 2569 213 2275 61 
Q 1981 -91 1556 -91 
Q 1019 -91 701 211 
Q 384 513 384 1019 
Q 384 1609 779 1909 
Q 1175 2209 1959 2209 
L 2766 2209 
L 2766 2266 
Q 2766 2663 2505 2880 
Q 2244 3097 1772 3097 
Q 1472 3097 1187 3025 
Q 903 2953 641 2809 
L 641 3341 
Q 956 3463 1253 3523 
Q 1550 3584 1831 3584 
Q 2591 3584 2966 3190 
Q 3341 2797 3341 1997 
z
" transform="scale(0.015625)"/>
      <path id="DejaVuSans-3d" d="M 678 2906 
L 4684 2906 
L 4684 2381 
L 678 2381 
L 678 2906 
z
M 678 1631 
L 4684 1631 
L 4684 1100 
L 678 1100 
L 678 1631 
z
" transform="scale(0.015625)"/>
      <path id="DejaVuSans-2e" d="M 684 794 
L 1344 794 
L 1344 0 
L 684 0 
L 684 794 
z
" transform="scale(0.015625)"/>
      <path id="DejaVuSans-39" d="M 703 97 
L 703 672 
Q 941 559 1184 500 
Q 1428 441 1663 441 
Q 2288 441 2617 861 
Q 2947 1281 2994 2138 
Q 2813 1869 2534 1725 
Q 2256 1581 1919 1581 
Q 1219 1581 811 2004 
Q 403 2428 403 3163 
Q 403 3881 828 4315 
Q 1253 4750 1959 4750 
Q 2769 4750 3195 4129 
Q 3622 3509 3622 2328 
Q 3622 1225 3098 567 
Q 2575 -91 1691 -91 
Q 1453 -91 1209 -44 
Q 966 3 703 97 
z
M 1959 2075 
Q 2384 2075 2632 2365 
Q 2881 2656 2881 3163 
Q 2881 3666 2632 3958 
Q 2384 4250 1959 4250 
Q 1534 4250 1286 3958 
Q 1038 3666 1038 3163 
Q 1038 2656 1286 2365 
Q 1534 2075 1959 2075 
z
" transform="scale(0.015625)"/>
      <path id="DejaVuSans-73" d="M 2834 3397 
L 2834 2853 
Q 2591 2978 2328 3040 
Q 2066 3103 1784 3103 
Q 1356 3103 1142 2972 
Q 928 2841 928 2578 
Q 928 2378 1081 2264 
Q 1234 2150 1697 2047 
L 1894 2003 
Q 2506 1872 2764 1633 
Q 3022 1394 3022 966 
Q 3022 478 2636 193 
Q 2250 -91 1575 -91 
Q 1294 -91 989 -36 
Q 684 19 347 128 
L 347 722 
Q 666 556 975 473 
Q 1284 391 1588 391 
Q 1994 391 2212 530 
Q 2431 669 2431 922 
Q 2431 1156 2273 1281 
Q 2116 1406 1581 1522 
L 1381 1569 
Q 847 1681 609 1914 
Q 372 2147 372 2553 
Q 372 3047 722 3315 
Q 1072 3584 1716 3584 
Q 2034 3584 2315 3537 
Q 2597 3491 2834 3397 
z
" transform="scale(0.015625)"/>
     </defs>
     <use xlink:href="#DejaVuSans-20" transform="translate(0 0.78125)"/>
     <use xlink:href="#DejaVuSans-Oblique-74" transform="translate(31.787109 0.78125)"/>
     <use xlink:href="#DejaVuSans-Oblique-76" transform="translate(70.996094 -15.625) scale(0.7)"/>
     <use xlink:href="#DejaVuSans-2c" transform="translate(112.421875 -15.625) scale(0.7)"/>
     <use xlink:href="#DejaVuSans-6d" transform="translate(148.310547 -15.625) scale(0.7)"/>
     <use xlink:href="#DejaVuSans-61" transform="translate(216.499023 -15.625) scale(0.7)"/>
     <use xlink:href="#DejaVuSans-78" transform="translate(259.394531 -15.625) scale(0.7)"/>
     <use xlink:href="#DejaVuSans-3d" transform="translate(323.037109 0.78125)"/>
     <use xlink:href="#DejaVuSans-32" transform="translate(426.308594 0.78125)"/>
     <use xlink:href="#DejaVuSans-2e" transform="translate(489.931641 0.78125)"/>
     <use xlink:href="#DejaVuSans-39" transform="translate(521.71875 0.78125)"/>
     <use xlink:href="#DejaVuSans-34" transform="translate(585.341797 0.78125)"/>
     <use xlink:href="#DejaVuSans-73" transform="translate(665.20052 0.78125)"/>
    </g>
   </g>
   <g id="text_14">
    <!--  $t_{stop}=4.86\,\mathrm{s}$ -->
    <g transform="translate(629.534742 107.148368) rotate(-90) scale(0.1 -0.1)">
     <defs>
      <path id="DejaVuSans-Oblique-73" d="M 3200 3397 
L 3091 2853 
Q 2863 2978 2609 3040 
Q 2356 3103 2088 3103 
Q 1634 3103 1373 2948 
Q 1113 2794 1113 2528 
Q 1113 2219 1719 2053 
Q 1766 2041 1788 2034 
L 1972 1978 
Q 2547 1819 2739 1644 
Q 2931 1469 2931 1166 
Q 2931 609 2489 259 
Q 2047 -91 1331 -91 
Q 1053 -91 747 -37 
Q 441 16 72 128 
L 184 722 
Q 500 559 806 475 
Q 1113 391 1394 391 
Q 1816 391 2080 572 
Q 2344 753 2344 1031 
Q 2344 1331 1650 1516 
L 1591 1531 
L 1394 1581 
Q 956 1697 753 1886 
Q 550 2075 550 2369 
Q 550 2928 970 3256 
Q 1391 3584 2113 3584 
Q 2397 3584 2667 3537 
Q 2938 3491 3200 3397 
z
" transform="scale(0.015625)"/>
      <path id="DejaVuSans-Oblique-6f" d="M 1625 -91 
Q 1009 -91 651 289 
Q 294 669 294 1325 
Q 294 1706 417 2101 
Q 541 2497 738 2766 
Q 1047 3184 1428 3384 
Q 1809 3584 2291 3584 
Q 2888 3584 3255 3212 
Q 3622 2841 3622 2241 
Q 3622 1825 3500 1412 
Q 3378 1000 3181 728 
Q 2875 309 2494 109 
Q 2113 -91 1625 -91 
z
M 891 1344 
Q 891 869 1089 633 
Q 1288 397 1691 397 
Q 2269 397 2648 901 
Q 3028 1406 3028 2181 
Q 3028 2634 2825 2865 
Q 2622 3097 2228 3097 
Q 1903 3097 1650 2945 
Q 1397 2794 1197 2484 
Q 1050 2253 970 1956 
Q 891 1659 891 1344 
z
" transform="scale(0.015625)"/>
      <path id="DejaVuSans-Oblique-70" d="M 3175 2156 
Q 3175 2616 2975 2859 
Q 2775 3103 2400 3103 
Q 2144 3103 1911 2972 
Q 1678 2841 1497 2591 
Q 1319 2344 1212 1994 
Q 1106 1644 1106 1300 
Q 1106 863 1306 627 
Q 1506 391 1875 391 
Q 2147 391 2380 519 
Q 2613 647 2778 891 
Q 2956 1147 3065 1494 
Q 3175 1841 3175 2156 
z
M 1394 2969 
Q 1625 3272 1939 3428 
Q 2253 3584 2638 3584 
Q 3175 3584 3472 3232 
Q 3769 2881 3769 2247 
Q 3769 1728 3584 1258 
Q 3400 788 3053 416 
Q 2822 169 2531 39 
Q 2241 -91 1919 -91 
Q 1547 -91 1294 64 
Q 1041 219 916 525 
L 556 -1331 
L -19 -1331 
L 922 3500 
L 1497 3500 
L 1394 2969 
z
" transform="scale(0.015625)"/>
      <path id="DejaVuSans-38" d="M 2034 2216 
Q 1584 2216 1326 1975 
Q 1069 1734 1069 1313 
Q 1069 891 1326 650 
Q 1584 409 2034 409 
Q 2484 409 2743 651 
Q 3003 894 3003 1313 
Q 3003 1734 2745 1975 
Q 2488 2216 2034 2216 
z
M 1403 2484 
Q 997 2584 770 2862 
Q 544 3141 544 3541 
Q 544 4100 942 4425 
Q 1341 4750 2034 4750 
Q 2731 4750 3128 4425 
Q 3525 4100 3525 3541 
Q 3525 3141 3298 2862 
Q 3072 2584 2669 2484 
Q 3125 2378 3379 2068 
Q 3634 1759 3634 1313 
Q 3634 634 3220 271 
Q 2806 -91 2034 -91 
Q 1263 -91 848 271 
Q 434 634 434 1313 
Q 434 1759 690 2068 
Q 947 2378 1403 2484 
z
M 1172 3481 
Q 1172 3119 1398 2916 
Q 1625 2713 2034 2713 
Q 2441 2713 2670 2916 
Q 2900 3119 2900 3481 
Q 2900 3844 2670 4047 
Q 2441 4250 2034 4250 
Q 1625 4250 1398 4047 
Q 1172 3844 1172 3481 
z
" transform="scale(0.015625)"/>
     </defs>
     <use xlink:href="#DejaVuSans-20" transform="translate(0 0.78125)"/>
     <use xlink:href="#DejaVuSans-Oblique-74" transform="translate(31.787109 0.78125)"/>
     <use xlink:href="#DejaVuSans-Oblique-73" transform="translate(70.996094 -15.625) scale(0.7)"/>
     <use xlink:href="#DejaVuSans-Oblique-74" transform="translate(107.46582 -15.625) scale(0.7)"/>
     <use xlink:href="#DejaVuSans-Oblique-6f" transform="translate(134.912109 -15.625) scale(0.7)"/>
     <use xlink:href="#DejaVuSans-Oblique-70" transform="translate(177.739258 -15.625) scale(0.7)"/>
     <use xlink:href="#DejaVuSans-3d" transform="translate(244.389648 0.78125)"/>
     <use xlink:href="#DejaVuSans-34" transform="translate(347.661133 0.78125)"/>
     <use xlink:href="#DejaVuSans-2e" transform="translate(411.28418 0.78125)"/>
     <use xlink:href="#DejaVuSans-38" transform="translate(440.446289 0.78125)"/>
     <use xlink:href="#DejaVuSans-36" transform="translate(504.069336 0.78125)"/>
     <use xlink:href="#DejaVuSans-73" transform="translate(583.928059 0.78125)"/>
    </g>
   </g>
   <g id="legend_1">
    <g id="patch_7">
     <path d="M 787.559375 129.826493 
L 846.2 129.826493 
Q 848.2 129.826493 848.2 127.826493 
L 848.2 114.148368 
Q 848.2 112.148368 846.2 112.148368 
L 787.559375 112.148368 
Q 785.559375 112.148368 785.559375 114.148368 
L 785.559375 127.826493 
Q 785.559375 129.826493 787.559375 129.826493 
z
" style="fill: #ffffff; opacity: 0.8; stroke: #cccccc; stroke-linejoin: miter"/>
    </g>
    <g id="line2d_26">
     <path d="M 789.559375 120.246805 
L 799.559375 120.246805 
L 809.559375 120.246805 
" style="fill: none; stroke: #0000ff; stroke-width: 1.5; stroke-linecap: square"/>
    </g>
    <g id="text_15">
     <!-- x (m) -->
     <g transform="translate(817.559375 123.746805) scale(0.1 -0.1)">
      <defs>
       <path id="DejaVuSans-28" d="M 1984 4856 
Q 1566 4138 1362 3434 
Q 1159 2731 1159 2009 
Q 1159 1288 1364 580 
Q 1569 -128 1984 -844 
L 1484 -844 
Q 1016 -109 783 600 
Q 550 1309 550 2009 
Q 550 2706 781 3412 
Q 1013 4119 1484 4856 
L 1984 4856 
z
" transform="scale(0.015625)"/>
       <path id="DejaVuSans-29" d="M 513 4856 
L 1013 4856 
Q 1481 4119 1714 3412 
Q 1947 2706 1947 2009 
Q 1947 1309 1714 600 
Q 1481 -109 1013 -844 
L 513 -844 
Q 928 -128 1133 580 
Q 1338 1288 1338 2009 
Q 1338 2731 1133 3434 
Q 928 4138 513 4856 
z
" transform="scale(0.015625)"/>
      </defs>
      <use xlink:href="#DejaVuSans-78"/>
      <use xlink:href="#DejaVuSans-20" transform="translate(59.179688 0)"/>
      <use xlink:href="#DejaVuSans-28" transform="translate(90.966797 0)"/>
      <use xlink:href="#DejaVuSans-6d" transform="translate(129.980469 0)"/>
      <use xlink:href="#DejaVuSans-29" transform="translate(227.392578 0)"/>
     </g>
    </g>
   </g>
  </g>
  <g id="axes_2">
   <g id="patch_8">
    <path d="M 59.24 382.449456 
L 853.2 382.449456 
L 853.2 258.738912 
L 59.24 258.738912 
z
" style="fill: #ffffff"/>
   </g>
   <g id="matplotlib.axis_3">
    <g id="xtick_8">
     <g id="line2d_27">
      <path d="M 93.155049 382.449456 
L 93.155049 258.738912 
" clip-path="url(#p40e44e1051)" style="fill: none; stroke: #b0b0b0; stroke-width: 0.8; stroke-linecap: square"/>
     </g>
     <g id="line2d_28">
      <g>
       <use xlink:href="#m428ed6ed1a" x="93.155049" y="382.449456" style="stroke: #000000; stroke-width: 0.8"/>
      </g>
     </g>
     <g id="text_16">
      <!-- 0 -->
      <g transform="translate(89.973799 397.047893) scale(0.1 -0.1)">
       <use xlink:href="#DejaVuSans-30"/>
      </g>
     </g>
    </g>
    <g id="xtick_9">
     <g id="line2d_29">
      <path d="M 201.85713 382.449456 
L 201.85713 258.738912 
" clip-path="url(#p40e44e1051)" style="fill: none; stroke: #b0b0b0; stroke-width: 0.8; stroke-linecap: square"/>
     </g>
     <g id="line2d_30">
      <g>
       <use xlink:href="#m428ed6ed1a" x="201.85713" y="382.449456" style="stroke: #000000; stroke-width: 0.8"/>
      </g>
     </g>
     <g id="text_17">
      <!-- 1 -->
      <g transform="translate(198.67588 397.047893) scale(0.1 -0.1)">
       <use xlink:href="#DejaVuSans-31"/>
      </g>
     </g>
    </g>
    <g id="xtick_10">
     <g id="line2d_31">
      <path d="M 310.559211 382.449456 
L 310.559211 258.738912 
" clip-path="url(#p40e44e1051)" style="fill: none; stroke: #b0b0b0; stroke-width: 0.8; stroke-linecap: square"/>
     </g>
     <g id="line2d_32">
      <g>
       <use xlink:href="#m428ed6ed1a" x="310.559211" y="382.449456" style="stroke: #000000; stroke-width: 0.8"/>
      </g>
     </g>
     <g id="text_18">
      <!-- 2 -->
      <g transform="translate(307.377961 397.047893) scale(0.1 -0.1)">
       <use xlink:href="#DejaVuSans-32"/>
      </g>
     </g>
    </g>
    <g id="xtick_11">
     <g id="line2d_33">
      <path d="M 419.261292 382.449456 
L 419.261292 258.738912 
" clip-path="url(#p40e44e1051)" style="fill: none; stroke: #b0b0b0; stroke-width: 0.8; stroke-linecap: square"/>
     </g>
     <g id="line2d_34">
      <g>
       <use xlink:href="#m428ed6ed1a" x="419.261292" y="382.449456" style="stroke: #000000; stroke-width: 0.8"/>
      </g>
     </g>
     <g id="text_19">
      <!-- 3 -->
      <g transform="translate(416.080042 397.047893) scale(0.1 -0.1)">
       <use xlink:href="#DejaVuSans-33"/>
      </g>
     </g>
    </g>
    <g id="xtick_12">
     <g id="line2d_35">
      <path d="M 527.963373 382.449456 
L 527.963373 258.738912 
" clip-path="url(#p40e44e1051)" style="fill: none; stroke: #b0b0b0; stroke-width: 0.8; stroke-linecap: square"/>
     </g>
     <g id="line2d_36">
      <g>
       <use xlink:href="#m428ed6ed1a" x="527.963373" y="382.449456" style="stroke: #000000; stroke-width: 0.8"/>
      </g>
     </g>
     <g id="text_20">
      <!-- 4 -->
      <g transform="translate(524.782123 397.047893) scale(0.1 -0.1)">
       <use xlink:href="#DejaVuSans-34"/>
      </g>
     </g>
    </g>
    <g id="xtick_13">
     <g id="line2d_37">
      <path d="M 636.665455 382.449456 
L 636.665455 258.738912 
" clip-path="url(#p40e44e1051)" style="fill: none; stroke: #b0b0b0; stroke-width: 0.8; stroke-linecap: square"/>
     </g>
     <g id="line2d_38">
      <g>
       <use xlink:href="#m428ed6ed1a" x="636.665455" y="382.449456" style="stroke: #000000; stroke-width: 0.8"/>
      </g>
     </g>
     <g id="text_21">
      <!-- 5 -->
      <g transform="translate(633.484205 397.047893) scale(0.1 -0.1)">
       <use xlink:href="#DejaVuSans-35"/>
      </g>
     </g>
    </g>
    <g id="xtick_14">
     <g id="line2d_39">
      <path d="M 745.367536 382.449456 
L 745.367536 258.738912 
" clip-path="url(#p40e44e1051)" style="fill: none; stroke: #b0b0b0; stroke-width: 0.8; stroke-linecap: square"/>
     </g>
     <g id="line2d_40">
      <g>
       <use xlink:href="#m428ed6ed1a" x="745.367536" y="382.449456" style="stroke: #000000; stroke-width: 0.8"/>
      </g>
     </g>
     <g id="text_22">
      <!-- 6 -->
      <g transform="translate(742.186286 397.047893) scale(0.1 -0.1)">
       <use xlink:href="#DejaVuSans-36"/>
      </g>
     </g>
    </g>
   </g>
   <g id="matplotlib.axis_4">
    <g id="ytick_5">
     <g id="line2d_41">
      <path d="M 59.24 369.718851 
L 853.2 369.718851 
" clip-path="url(#p40e44e1051)" style="fill: none; stroke: #b0b0b0; stroke-width: 0.8; stroke-linecap: square"/>
     </g>
     <g id="line2d_42">
      <g>
       <use xlink:href="#m9aa9f4549d" x="59.24" y="369.718851" style="stroke: #000000; stroke-width: 0.8"/>
      </g>
     </g>
     <g id="text_23">
      <!-- −125 -->
      <g transform="translate(24.772813 373.51807) scale(0.1 -0.1)">
       <defs>
        <path id="DejaVuSans-2212" d="M 678 2272 
L 4684 2272 
L 4684 1741 
L 678 1741 
L 678 2272 
z
" transform="scale(0.015625)"/>
       </defs>
       <use xlink:href="#DejaVuSans-2212"/>
       <use xlink:href="#DejaVuSans-31" transform="translate(83.789062 0)"/>
       <use xlink:href="#DejaVuSans-32" transform="translate(147.412109 0)"/>
       <use xlink:href="#DejaVuSans-35" transform="translate(211.035156 0)"/>
      </g>
     </g>
    </g>
    <g id="ytick_6">
     <g id="line2d_43">
      <path d="M 59.24 348.814737 
L 853.2 348.814737 
" clip-path="url(#p40e44e1051)" style="fill: none; stroke: #b0b0b0; stroke-width: 0.8; stroke-linecap: square"/>
     </g>
     <g id="line2d_44">
      <g>
       <use xlink:href="#m9aa9f4549d" x="59.24" y="348.814737" style="stroke: #000000; stroke-width: 0.8"/>
      </g>
     </g>
     <g id="text_24">
      <!-- −100 -->
      <g transform="translate(24.772813 352.613956) scale(0.1 -0.1)">
       <use xlink:href="#DejaVuSans-2212"/>
       <use xlink:href="#DejaVuSans-31" transform="translate(83.789062 0)"/>
       <use xlink:href="#DejaVuSans-30" transform="translate(147.412109 0)"/>
       <use xlink:href="#DejaVuSans-30" transform="translate(211.035156 0)"/>
      </g>
     </g>
    </g>
    <g id="ytick_7">
     <g id="line2d_45">
      <path d="M 59.24 327.910624 
L 853.2 327.910624 
" clip-path="url(#p40e44e1051)" style="fill: none; stroke: #b0b0b0; stroke-width: 0.8; stroke-linecap: square"/>
     </g>
     <g id="line2d_46">
      <g>
       <use xlink:href="#m9aa9f4549d" x="59.24" y="327.910624" style="stroke: #000000; stroke-width: 0.8"/>
      </g>
     </g>
     <g id="text_25">
      <!-- −75 -->
      <g transform="translate(31.135313 331.709842) scale(0.1 -0.1)">
       <defs>
        <path id="DejaVuSans-37" d="M 525 4666 
L 3525 4666 
L 3525 4397 
L 1831 0 
L 1172 0 
L 2766 4134 
L 525 4134 
L 525 4666 
z
" transform="scale(0.015625)"/>
       </defs>
       <use xlink:href="#DejaVuSans-2212"/>
       <use xlink:href="#DejaVuSans-37" transform="translate(83.789062 0)"/>
       <use xlink:href="#DejaVuSans-35" transform="translate(147.412109 0)"/>
      </g>
     </g>
    </g>
    <g id="ytick_8">
     <g id="line2d_47">
      <path d="M 59.24 307.00651 
L 853.2 307.00651 
" clip-path="url(#p40e44e1051)" style="fill: none; stroke: #b0b0b0; stroke-width: 0.8; stroke-linecap: square"/>
     </g>
     <g id="line2d_48">
      <g>
       <use xlink:href="#m9aa9f4549d" x="59.24" y="307.00651" style="stroke: #000000; stroke-width: 0.8"/>
      </g>
     </g>
     <g id="text_26">
      <!-- −50 -->
      <g transform="translate(31.135313 310.805729) scale(0.1 -0.1)">
       <use xlink:href="#DejaVuSans-2212"/>
       <use xlink:href="#DejaVuSans-35" transform="translate(83.789062 0)"/>
       <use xlink:href="#DejaVuSans-30" transform="translate(147.412109 0)"/>
      </g>
     </g>
    </g>
    <g id="ytick_9">
     <g id="line2d_49">
      <path d="M 59.24 286.102397 
L 853.2 286.102397 
" clip-path="url(#p40e44e1051)" style="fill: none; stroke: #b0b0b0; stroke-width: 0.8; stroke-linecap: square"/>
     </g>
     <g id="line2d_50">
      <g>
       <use xlink:href="#m9aa9f4549d" x="59.24" y="286.102397" style="stroke: #000000; stroke-width: 0.8"/>
      </g>
     </g>
     <g id="text_27">
      <!-- −25 -->
      <g transform="translate(31.135313 289.901615) scale(0.1 -0.1)">
       <use xlink:href="#DejaVuSans-2212"/>
       <use xlink:href="#DejaVuSans-32" transform="translate(83.789062 0)"/>
       <use xlink:href="#DejaVuSans-35" transform="translate(147.412109 0)"/>
      </g>
     </g>
    </g>
    <g id="ytick_10">
     <g id="line2d_51">
      <path d="M 59.24 265.198283 
L 853.2 265.198283 
" clip-path="url(#p40e44e1051)" style="fill: none; stroke: #b0b0b0; stroke-width: 0.8; stroke-linecap: square"/>
     </g>
     <g id="line2d_52">
      <g>
       <use xlink:href="#m9aa9f4549d" x="59.24" y="265.198283" style="stroke: #000000; stroke-width: 0.8"/>
      </g>
     </g>
     <g id="text_28">
      <!-- 0 -->
      <g transform="translate(45.8775 268.997502) scale(0.1 -0.1)">
       <use xlink:href="#DejaVuSans-30"/>
      </g>
     </g>
    </g>
    <g id="text_29">
     <!-- v -->
     <g transform="translate(18.693125 323.553559) rotate(-90) scale(0.1 -0.1)">
      <defs>
       <path id="DejaVuSans-76" d="M 191 3500 
L 800 3500 
L 1894 563 
L 2988 3500 
L 3597 3500 
L 2284 0 
L 1503 0 
L 191 3500 
z
" transform="scale(0.015625)"/>
      </defs>
      <use xlink:href="#DejaVuSans-76"/>
     </g>
    </g>
   </g>
   <g id="line2d_53">
    <path d="M 95.329091 266.034448 
L 97.503133 265.616365 
L 99.677174 264.362118 
L 101.851216 264.780201 
L 104.025257 266.45253 
L 108.373341 265.616365 
L 110.547382 267.288694 
L 112.721424 265.198283 
L 132.287798 265.198283 
L 134.46184 264.362118 
L 136.635882 265.198283 
L 147.50609 265.198283 
L 149.680131 266.034448 
L 151.854173 264.362118 
L 154.028215 266.034448 
L 156.202256 265.198283 
L 160.55034 265.198283 
L 162.724381 264.362118 
L 164.898423 266.034448 
L 167.072464 265.198283 
L 175.768631 265.198283 
L 177.942673 264.362118 
L 180.116714 266.034448 
L 182.290756 265.198283 
L 190.986922 265.198283 
L 193.160964 264.780201 
L 195.335005 266.45253 
L 197.509047 264.362118 
L 199.683089 265.198283 
L 201.85713 264.362118 
L 204.031172 266.034448 
L 206.205214 265.198283 
L 245.337963 265.198283 
L 247.512004 264.780201 
L 249.686046 266.45253 
L 251.860088 264.362118 
L 254.034129 265.198283 
L 262.730296 265.198283 
L 264.904337 264.362118 
L 267.078379 266.034448 
L 269.252421 264.362118 
L 271.426462 266.034448 
L 273.600504 265.198283 
L 282.29667 265.198283 
L 284.470712 264.362118 
L 286.644754 266.034448 
L 288.818795 265.198283 
L 290.992837 265.198283 
L 293.166878 264.780201 
L 295.34092 266.034448 
L 297.514962 265.616365 
L 301.863045 267.288694 
L 304.037087 267.706777 
L 306.211128 266.870612 
L 308.38517 267.706777 
L 310.559211 270.21527 
L 312.733253 269.379106 
L 314.907295 272.305682 
L 317.081336 271.887599 
L 319.255378 274.814175 
L 321.429419 273.978011 
L 323.603461 275.65034 
L 325.777503 276.904587 
L 327.951544 278.994998 
L 330.125586 278.158833 
L 332.299628 280.249245 
L 334.473669 280.667327 
L 336.647711 282.339656 
L 338.821752 282.757738 
L 340.995794 283.593903 
L 343.169836 285.684314 
L 347.517919 287.356643 
L 349.691961 289.865137 
L 351.866002 292.791713 
L 354.040044 293.627877 
L 356.214085 294.04596 
L 358.388127 301.571441 
L 360.562169 296.136371 
L 362.73621 302.407605 
L 364.910252 302.407605 
L 367.084294 310.351168 
L 369.258335 305.752263 
L 371.432377 319.548978 
L 373.606418 314.531991 
L 375.78046 310.769251 
L 377.954502 317.876649 
L 380.128543 325.820212 
L 382.302585 324.147883 
L 384.476627 327.074459 
L 386.650668 331.255282 
L 388.82471 333.763775 
L 390.998751 342.125421 
L 393.172793 347.56049 
L 395.346835 350.905149 
L 397.520876 348.814737 
L 399.694918 358.848712 
L 401.868959 362.19337 
L 404.043001 367.628439 
L 406.217043 375.990085 
L 408.391084 373.063509 
L 410.565126 376.408167 
L 412.739168 376.826249 
L 414.913209 368.046522 
L 417.087251 375.572003 
L 419.261292 371.809262 
L 421.435334 372.645427 
L 423.609376 370.555015 
L 425.783417 367.210357 
L 427.957459 365.119946 
L 430.131501 366.792275 
L 432.305542 364.283781 
L 434.479584 362.611452 
L 436.653625 362.19337 
L 438.827667 361.357205 
L 441.001709 359.266794 
L 445.349792 357.594465 
L 447.523834 356.340218 
L 449.697875 355.504054 
L 451.871917 353.413642 
L 454.045958 352.577478 
L 456.22 351.323231 
L 458.394042 350.487066 
L 460.568083 348.814737 
L 464.916166 346.306244 
L 467.090208 346.306244 
L 469.26425 342.961585 
L 471.438291 343.379668 
L 473.612333 341.707339 
L 475.786375 338.780763 
L 480.134458 338.780763 
L 482.308499 336.690351 
L 484.482541 336.272269 
L 486.656583 334.181858 
L 488.830624 334.181858 
L 491.004666 332.091446 
L 493.178708 330.8372 
L 495.352749 330.419117 
L 497.526791 328.746788 
L 499.700832 327.910624 
L 501.874874 325.820212 
L 504.048916 325.820212 
L 506.222957 323.729801 
L 508.396999 322.893636 
L 510.571041 320.803225 
L 512.745082 319.548978 
L 514.919124 315.786238 
L 517.093165 315.368156 
L 519.267207 317.876649 
L 521.441249 316.622402 
L 523.61529 331.255282 
L 525.789332 328.328706 
L 527.963373 318.712814 
L 530.137415 315.786238 
L 532.311457 314.950073 
L 534.485498 313.277744 
L 536.65954 312.44158 
L 538.833582 309.933086 
L 541.007623 309.096921 
L 543.181665 309.933086 
L 545.355706 307.424592 
L 549.70379 306.588428 
L 551.877831 304.916099 
L 554.051873 304.498017 
L 556.225915 303.661852 
L 558.399956 301.989523 
L 564.922081 299.481029 
L 567.096123 297.390618 
L 569.270164 296.972536 
L 571.444206 295.300207 
L 573.618248 294.882124 
L 575.792289 292.791713 
L 577.966331 292.373631 
L 582.314414 289.865137 
L 584.488456 289.028972 
L 586.662497 286.520479 
L 588.836539 286.938561 
L 591.010581 284.84815 
L 593.184622 284.011985 
L 595.358664 282.339656 
L 599.706747 279.831163 
L 601.880789 277.322669 
L 604.05483 276.904587 
L 606.228872 274.396093 
L 608.402913 273.141846 
L 610.576955 272.305682 
L 612.750997 270.21527 
L 614.925038 268.961023 
L 617.09908 268.124859 
L 619.273122 266.870612 
L 621.447163 265.198283 
L 817.110909 265.198283 
L 817.110909 265.198283 
" clip-path="url(#p40e44e1051)" style="fill: none; stroke: #008000; stroke-width: 1.5; stroke-linecap: square"/>
   </g>
   <g id="line2d_54">
    <path d="M 412.739168 382.449456 
L 412.739168 258.738912 
" clip-path="url(#p40e44e1051)" style="fill: none; stroke-dasharray: 5.55,2.4; stroke-dashoffset: 0; stroke: #ff0000; stroke-opacity: 0.5; stroke-width: 1.5"/>
   </g>
   <g id="line2d_55">
    <path d="M 621.447163 382.449456 
L 621.447163 258.738912 
" clip-path="url(#p40e44e1051)" style="fill: none; stroke-dasharray: 1.5,2.475; stroke-dashoffset: 0; stroke: #bf00bf; stroke-opacity: 0.7; stroke-width: 1.5"/>
   </g>
   <g id="patch_9">
    <path d="M 59.24 382.449456 
L 59.24 258.738912 
" style="fill: none; stroke: #000000; stroke-width: 0.8; stroke-linejoin: miter; stroke-linecap: square"/>
   </g>
   <g id="patch_10">
    <path d="M 853.2 382.449456 
L 853.2 258.738912 
" style="fill: none; stroke: #000000; stroke-width: 0.8; stroke-linejoin: miter; stroke-linecap: square"/>
   </g>
   <g id="patch_11">
    <path d="M 59.24 382.449456 
L 853.2 382.449456 
" style="fill: none; stroke: #000000; stroke-width: 0.8; stroke-linejoin: miter; stroke-linecap: square"/>
   </g>
   <g id="patch_12">
    <path d="M 59.24 258.738912 
L 853.2 258.738912 
" style="fill: none; stroke: #000000; stroke-width: 0.8; stroke-linejoin: miter; stroke-linecap: square"/>
   </g>
   <g id="legend_2">
    <g id="patch_13">
     <path d="M 778.98125 281.417037 
L 846.2 281.417037 
Q 848.2 281.417037 848.2 279.417037 
L 848.2 265.738912 
Q 848.2 263.738912 846.2 263.738912 
L 778.98125 263.738912 
Q 776.98125 263.738912 776.98125 265.738912 
L 776.98125 279.417037 
Q 776.98125 281.417037 778.98125 281.417037 
z
" style="fill: #ffffff; opacity: 0.8; stroke: #cccccc; stroke-linejoin: miter"/>
    </g>
    <g id="line2d_56">
     <path d="M 780.98125 271.837349 
L 790.98125 271.837349 
L 800.98125 271.837349 
" style="fill: none; stroke: #008000; stroke-width: 1.5; stroke-linecap: square"/>
    </g>
    <g id="text_30">
     <!-- v (m/s) -->
     <g transform="translate(808.98125 275.337349) scale(0.1 -0.1)">
      <defs>
       <path id="DejaVuSans-2f" d="M 1625 4666 
L 2156 4666 
L 531 -594 
L 0 -594 
L 1625 4666 
z
" transform="scale(0.015625)"/>
      </defs>
      <use xlink:href="#DejaVuSans-76"/>
      <use xlink:href="#DejaVuSans-20" transform="translate(59.179688 0)"/>
      <use xlink:href="#DejaVuSans-28" transform="translate(90.966797 0)"/>
      <use xlink:href="#DejaVuSans-6d" transform="translate(129.980469 0)"/>
      <use xlink:href="#DejaVuSans-2f" transform="translate(227.392578 0)"/>
      <use xlink:href="#DejaVuSans-73" transform="translate(261.083984 0)"/>
      <use xlink:href="#DejaVuSans-29" transform="translate(313.183594 0)"/>
     </g>
    </g>
   </g>
  </g>
  <g id="axes_3">
   <g id="patch_14">
    <path d="M 59.24 534.04 
L 853.2 534.04 
L 853.2 410.329456 
L 59.24 410.329456 
z
" style="fill: #ffffff"/>
   </g>
   <g id="matplotlib.axis_5">
    <g id="xtick_15">
     <g id="line2d_57">
      <path d="M 90.967871 534.04 
L 90.967871 410.329456 
" clip-path="url(#p9cc0fbf3c2)" style="fill: none; stroke: #b0b0b0; stroke-width: 0.8; stroke-linecap: square"/>
     </g>
     <g id="line2d_58">
      <g>
       <use xlink:href="#m428ed6ed1a" x="90.967871" y="534.04" style="stroke: #000000; stroke-width: 0.8"/>
      </g>
     </g>
     <g id="text_31">
      <!-- 0 -->
      <g transform="translate(87.786621 548.638438) scale(0.1 -0.1)">
       <use xlink:href="#DejaVuSans-30"/>
      </g>
     </g>
    </g>
    <g id="xtick_16">
     <g id="line2d_59">
      <path d="M 199.998358 534.04 
L 199.998358 410.329456 
" clip-path="url(#p9cc0fbf3c2)" style="fill: none; stroke: #b0b0b0; stroke-width: 0.8; stroke-linecap: square"/>
     </g>
     <g id="line2d_60">
      <g>
       <use xlink:href="#m428ed6ed1a" x="199.998358" y="534.04" style="stroke: #000000; stroke-width: 0.8"/>
      </g>
     </g>
     <g id="text_32">
      <!-- 1 -->
      <g transform="translate(196.817108 548.638438) scale(0.1 -0.1)">
       <use xlink:href="#DejaVuSans-31"/>
      </g>
     </g>
    </g>
    <g id="xtick_17">
     <g id="line2d_61">
      <path d="M 309.028844 534.04 
L 309.028844 410.329456 
" clip-path="url(#p9cc0fbf3c2)" style="fill: none; stroke: #b0b0b0; stroke-width: 0.8; stroke-linecap: square"/>
     </g>
     <g id="line2d_62">
      <g>
       <use xlink:href="#m428ed6ed1a" x="309.028844" y="534.04" style="stroke: #000000; stroke-width: 0.8"/>
      </g>
     </g>
     <g id="text_33">
      <!-- 2 -->
      <g transform="translate(305.847594 548.638438) scale(0.1 -0.1)">
       <use xlink:href="#DejaVuSans-32"/>
      </g>
     </g>
    </g>
    <g id="xtick_18">
     <g id="line2d_63">
      <path d="M 418.05933 534.04 
L 418.05933 410.329456 
" clip-path="url(#p9cc0fbf3c2)" style="fill: none; stroke: #b0b0b0; stroke-width: 0.8; stroke-linecap: square"/>
     </g>
     <g id="line2d_64">
      <g>
       <use xlink:href="#m428ed6ed1a" x="418.05933" y="534.04" style="stroke: #000000; stroke-width: 0.8"/>
      </g>
     </g>
     <g id="text_34">
      <!-- 3 -->
      <g transform="translate(414.87808 548.638438) scale(0.1 -0.1)">
       <use xlink:href="#DejaVuSans-33"/>
      </g>
     </g>
    </g>
    <g id="xtick_19">
     <g id="line2d_65">
      <path d="M 527.089816 534.04 
L 527.089816 410.329456 
" clip-path="url(#p9cc0fbf3c2)" style="fill: none; stroke: #b0b0b0; stroke-width: 0.8; stroke-linecap: square"/>
     </g>
     <g id="line2d_66">
      <g>
       <use xlink:href="#m428ed6ed1a" x="527.089816" y="534.04" style="stroke: #000000; stroke-width: 0.8"/>
      </g>
     </g>
     <g id="text_35">
      <!-- 4 -->
      <g transform="translate(523.908566 548.638438) scale(0.1 -0.1)">
       <use xlink:href="#DejaVuSans-34"/>
      </g>
     </g>
    </g>
    <g id="xtick_20">
     <g id="line2d_67">
      <path d="M 636.120302 534.04 
L 636.120302 410.329456 
" clip-path="url(#p9cc0fbf3c2)" style="fill: none; stroke: #b0b0b0; stroke-width: 0.8; stroke-linecap: square"/>
     </g>
     <g id="line2d_68">
      <g>
       <use xlink:href="#m428ed6ed1a" x="636.120302" y="534.04" style="stroke: #000000; stroke-width: 0.8"/>
      </g>
     </g>
     <g id="text_36">
      <!-- 5 -->
      <g transform="translate(632.939052 548.638438) scale(0.1 -0.1)">
       <use xlink:href="#DejaVuSans-35"/>
      </g>
     </g>
    </g>
    <g id="xtick_21">
     <g id="line2d_69">
      <path d="M 745.150788 534.04 
L 745.150788 410.329456 
" clip-path="url(#p9cc0fbf3c2)" style="fill: none; stroke: #b0b0b0; stroke-width: 0.8; stroke-linecap: square"/>
     </g>
     <g id="line2d_70">
      <g>
       <use xlink:href="#m428ed6ed1a" x="745.150788" y="534.04" style="stroke: #000000; stroke-width: 0.8"/>
      </g>
     </g>
     <g id="text_37">
      <!-- 6 -->
      <g transform="translate(741.969538 548.638438) scale(0.1 -0.1)">
       <use xlink:href="#DejaVuSans-36"/>
      </g>
     </g>
    </g>
    <g id="text_38">
     <!-- t -->
     <g transform="translate(454.259844 562.316563) scale(0.1 -0.1)">
      <defs>
       <path id="DejaVuSans-74" d="M 1172 4494 
L 1172 3500 
L 2356 3500 
L 2356 3053 
L 1172 3053 
L 1172 1153 
Q 1172 725 1289 603 
Q 1406 481 1766 481 
L 2356 481 
L 2356 0 
L 1766 0 
Q 1100 0 847 248 
Q 594 497 594 1153 
L 594 3053 
L 172 3053 
L 172 3500 
L 594 3500 
L 594 4494 
L 1172 4494 
z
" transform="scale(0.015625)"/>
      </defs>
      <use xlink:href="#DejaVuSans-74"/>
     </g>
    </g>
   </g>
   <g id="matplotlib.axis_6">
    <g id="ytick_11">
     <g id="line2d_71">
      <path d="M 59.24 499.331242 
L 853.2 499.331242 
" clip-path="url(#p9cc0fbf3c2)" style="fill: none; stroke: #b0b0b0; stroke-width: 0.8; stroke-linecap: square"/>
     </g>
     <g id="line2d_72">
      <g>
       <use xlink:href="#m9aa9f4549d" x="59.24" y="499.331242" style="stroke: #000000; stroke-width: 0.8"/>
      </g>
     </g>
     <g id="text_39">
      <!-- −500 -->
      <g transform="translate(24.772813 503.130461) scale(0.1 -0.1)">
       <use xlink:href="#DejaVuSans-2212"/>
       <use xlink:href="#DejaVuSans-35" transform="translate(83.789062 0)"/>
       <use xlink:href="#DejaVuSans-30" transform="translate(147.412109 0)"/>
       <use xlink:href="#DejaVuSans-30" transform="translate(211.035156 0)"/>
      </g>
     </g>
    </g>
    <g id="ytick_12">
     <g id="line2d_73">
      <path d="M 59.24 460.550508 
L 853.2 460.550508 
" clip-path="url(#p9cc0fbf3c2)" style="fill: none; stroke: #b0b0b0; stroke-width: 0.8; stroke-linecap: square"/>
     </g>
     <g id="line2d_74">
      <g>
       <use xlink:href="#m9aa9f4549d" x="59.24" y="460.550508" style="stroke: #000000; stroke-width: 0.8"/>
      </g>
     </g>
     <g id="text_40">
      <!-- 0 -->
      <g transform="translate(45.8775 464.349726) scale(0.1 -0.1)">
       <use xlink:href="#DejaVuSans-30"/>
      </g>
     </g>
    </g>
    <g id="ytick_13">
     <g id="line2d_75">
      <path d="M 59.24 421.769773 
L 853.2 421.769773 
" clip-path="url(#p9cc0fbf3c2)" style="fill: none; stroke: #b0b0b0; stroke-width: 0.8; stroke-linecap: square"/>
     </g>
     <g id="line2d_76">
      <g>
       <use xlink:href="#m9aa9f4549d" x="59.24" y="421.769773" style="stroke: #000000; stroke-width: 0.8"/>
      </g>
     </g>
     <g id="text_41">
      <!-- 500 -->
      <g transform="translate(33.1525 425.568991) scale(0.1 -0.1)">
       <use xlink:href="#DejaVuSans-35"/>
       <use xlink:href="#DejaVuSans-30" transform="translate(63.623047 0)"/>
       <use xlink:href="#DejaVuSans-30" transform="translate(127.246094 0)"/>
      </g>
     </g>
    </g>
    <g id="text_42">
     <!-- a -->
     <g transform="translate(18.693125 475.24879) rotate(-90) scale(0.1 -0.1)">
      <use xlink:href="#DejaVuSans-61"/>
     </g>
    </g>
   </g>
   <g id="line2d_77">
    <path d="M 95.329091 458.611471 
L 97.509701 454.733397 
L 99.69031 462.489544 
L 101.87092 468.306655 
L 104.05153 458.611471 
L 106.23214 458.611471 
L 108.412749 468.306655 
L 110.593359 450.855324 
L 112.773969 460.550508 
L 130.218846 460.550508 
L 132.399456 456.672434 
L 134.580066 464.428581 
L 136.760676 460.550508 
L 145.483115 460.550508 
L 147.663724 464.428581 
L 149.844334 452.794361 
L 152.024944 468.306655 
L 154.205553 456.672434 
L 156.386163 460.550508 
L 158.566773 460.550508 
L 160.747383 456.672434 
L 162.927992 468.306655 
L 165.108602 456.672434 
L 167.289212 460.550508 
L 173.831041 460.550508 
L 176.011651 456.672434 
L 178.19226 468.306655 
L 180.37287 456.672434 
L 182.55348 460.550508 
L 189.095309 460.550508 
L 191.275919 458.611471 
L 193.456528 468.306655 
L 195.637138 450.855324 
L 197.817748 464.428581 
L 199.998358 456.672434 
L 202.178967 468.306655 
L 204.359577 456.672434 
L 206.540187 460.550508 
L 243.610552 460.550508 
L 245.791162 458.611471 
L 247.971771 468.306655 
L 250.152381 450.855324 
L 252.332991 464.428581 
L 254.513601 460.550508 
L 261.05543 460.550508 
L 263.23604 456.672434 
L 265.416649 468.306655 
L 267.597259 452.794361 
L 269.777869 468.306655 
L 271.958478 456.672434 
L 274.139088 460.550508 
L 280.680917 460.550508 
L 282.861527 456.672434 
L 285.042137 468.306655 
L 287.222746 456.672434 
L 289.403356 460.550508 
L 291.583966 458.611471 
L 293.764576 466.367618 
L 295.945185 458.611471 
L 298.125795 464.428581 
L 300.306405 464.428581 
L 302.487015 462.489544 
L 304.667624 456.672434 
L 309.028844 472.184728 
L 311.209453 456.672434 
L 313.390063 474.123765 
L 315.570673 458.611471 
L 317.751283 474.123765 
L 319.931892 456.672434 
L 322.112502 468.306655 
L 324.293112 466.367618 
L 326.473722 470.245691 
L 328.654331 456.672434 
L 330.834941 470.245691 
L 333.015551 462.489544 
L 335.19616 468.306655 
L 337.37677 462.489544 
L 339.55738 464.428581 
L 341.73799 470.245691 
L 343.918599 464.428581 
L 346.099209 464.428581 
L 348.279819 472.184728 
L 350.460428 474.123765 
L 352.641038 464.428581 
L 354.821648 462.489544 
L 357.002258 495.453169 
L 359.182867 435.34303 
L 361.363477 489.636059 
L 363.544087 460.550508 
L 365.724697 497.392206 
L 367.905306 439.221103 
L 370.085916 524.53872 
L 372.266526 437.282067 
L 374.447135 443.099177 
L 376.627745 493.514132 
L 378.808355 497.392206 
L 380.988965 452.794361 
L 383.169574 474.123765 
L 385.350184 479.940875 
L 387.530794 472.184728 
L 389.711403 499.331242 
L 391.892013 485.757985 
L 394.072623 476.062801 
L 396.253233 450.855324 
L 398.433842 507.087389 
L 400.614452 476.062801 
L 402.795062 485.757985 
L 404.975672 499.331242 
L 407.156281 446.97725 
L 409.336891 476.062801 
L 411.517501 462.489544 
L 413.69811 419.830736 
L 415.87872 495.453169 
L 418.05933 443.099177 
L 420.23994 464.428581 
L 422.420549 450.855324 
L 424.601159 445.038214 
L 426.781769 450.855324 
L 428.962378 468.306655 
L 431.142988 448.916287 
L 433.323598 452.794361 
L 435.504208 458.611471 
L 437.684817 456.672434 
L 439.865427 450.855324 
L 442.046037 456.672434 
L 444.226647 456.672434 
L 446.407256 454.733397 
L 448.587866 456.672434 
L 450.768476 450.855324 
L 452.949085 456.672434 
L 455.129695 454.733397 
L 457.310305 456.672434 
L 459.490915 452.794361 
L 461.671524 454.733397 
L 463.852134 454.733397 
L 466.032744 460.550508 
L 468.213353 445.038214 
L 470.393963 462.489544 
L 472.574573 452.794361 
L 474.755183 446.97725 
L 476.935792 460.550508 
L 479.116402 460.550508 
L 481.297012 450.855324 
L 483.477622 458.611471 
L 485.658231 450.855324 
L 487.838841 460.550508 
L 490.019451 450.855324 
L 494.38067 458.611471 
L 496.56128 452.794361 
L 498.74189 456.672434 
L 500.922499 450.855324 
L 503.103109 460.550508 
L 505.283719 450.855324 
L 507.464328 456.672434 
L 509.644938 450.855324 
L 511.825548 454.733397 
L 514.006158 443.099177 
L 516.186767 458.611471 
L 518.367377 472.184728 
L 520.547987 454.733397 
L 522.728597 528.416793 
L 524.909206 446.97725 
L 527.089816 415.952663 
L 529.270426 446.97725 
L 531.451035 456.672434 
L 533.631645 452.794361 
L 535.812255 456.672434 
L 537.992865 448.916287 
L 542.354084 464.428581 
L 544.534694 448.916287 
L 546.715303 458.611471 
L 548.895913 458.611471 
L 551.076523 452.794361 
L 553.257133 458.611471 
L 555.437742 456.672434 
L 557.618352 452.794361 
L 559.798962 456.672434 
L 564.160181 456.672434 
L 566.340791 450.855324 
L 568.521401 458.611471 
L 570.70201 452.794361 
L 572.88262 458.611471 
L 575.06323 450.855324 
L 577.24384 458.611471 
L 579.424449 454.733397 
L 581.605059 454.733397 
L 583.785669 456.672434 
L 585.966278 448.916287 
L 588.146888 462.489544 
L 590.327498 450.855324 
L 592.508108 456.672434 
L 594.688717 452.794361 
L 596.869327 454.733397 
L 599.049937 454.733397 
L 601.230547 448.916287 
L 603.411156 458.611471 
L 605.591766 448.916287 
L 607.772376 454.733397 
L 609.952985 456.672434 
L 612.133595 450.855324 
L 614.314205 454.733397 
L 616.494815 456.672434 
L 620.856034 452.794361 
L 623.036644 460.550508 
L 817.110909 460.550508 
L 817.110909 460.550508 
" clip-path="url(#p9cc0fbf3c2)" style="fill: none; stroke: #ff0000; stroke-width: 1.5; stroke-linecap: square"/>
   </g>
   <g id="line2d_78">
    <path d="M 411.517501 534.04 
L 411.517501 410.329456 
" clip-path="url(#p9cc0fbf3c2)" style="fill: none; stroke-dasharray: 5.55,2.4; stroke-dashoffset: 0; stroke: #ff0000; stroke-opacity: 0.5; stroke-width: 1.5"/>
   </g>
   <g id="line2d_79">
    <path d="M 620.856034 534.04 
L 620.856034 410.329456 
" clip-path="url(#p9cc0fbf3c2)" style="fill: none; stroke-dasharray: 5.55,2.4; stroke-dashoffset: 0; stroke: #bf00bf; stroke-opacity: 0.7; stroke-width: 1.5"/>
   </g>
   <g id="patch_15">
    <path d="M 59.24 534.04 
L 59.24 410.329456 
" style="fill: none; stroke: #000000; stroke-width: 0.8; stroke-linejoin: miter; stroke-linecap: square"/>
   </g>
   <g id="patch_16">
    <path d="M 853.2 534.04 
L 853.2 410.329456 
" style="fill: none; stroke: #000000; stroke-width: 0.8; stroke-linejoin: miter; stroke-linecap: square"/>
   </g>
   <g id="patch_17">
    <path d="M 59.24 534.04 
L 853.2 534.04 
" style="fill: none; stroke: #000000; stroke-width: 0.8; stroke-linejoin: miter; stroke-linecap: square"/>
   </g>
   <g id="patch_18">
    <path d="M 59.24 410.329456 
L 853.2 410.329456 
" style="fill: none; stroke: #000000; stroke-width: 0.8; stroke-linejoin: miter; stroke-linecap: square"/>
   </g>
   <g id="legend_3">
    <g id="patch_19">
     <path d="M 764.029688 433.007581 
L 846.2 433.007581 
Q 848.2 433.007581 848.2 431.007581 
L 848.2 417.329456 
Q 848.2 415.329456 846.2 415.329456 
L 764.029688 415.329456 
Q 762.029688 415.329456 762.029688 417.329456 
L 762.029688 431.007581 
Q 762.029688 433.007581 764.029688 433.007581 
z
" style="fill: #ffffff; opacity: 0.8; stroke: #cccccc; stroke-linejoin: miter"/>
    </g>
    <g id="line2d_80">
     <path d="M 766.029688 423.427893 
L 776.029688 423.427893 
L 786.029688 423.427893 
" style="fill: none; stroke: #ff0000; stroke-width: 1.5; stroke-linecap: square"/>
    </g>
    <g id="text_43">
     <!-- a (m/s^2) -->
     <g transform="translate(794.029688 426.927893) scale(0.1 -0.1)">
      <defs>
       <path id="DejaVuSans-5e" d="M 2988 4666 
L 4684 2925 
L 4056 2925 
L 2681 4159 
L 1306 2925 
L 678 2925 
L 2375 4666 
L 2988 4666 
z
" transform="scale(0.015625)"/>
      </defs>
      <use xlink:href="#DejaVuSans-61"/>
      <use xlink:href="#DejaVuSans-20" transform="translate(61.279297 0)"/>
      <use xlink:href="#DejaVuSans-28" transform="translate(93.066406 0)"/>
      <use xlink:href="#DejaVuSans-6d" transform="translate(132.080078 0)"/>
      <use xlink:href="#DejaVuSans-2f" transform="translate(229.492188 0)"/>
      <use xlink:href="#DejaVuSans-73" transform="translate(263.183594 0)"/>
      <use xlink:href="#DejaVuSans-5e" transform="translate(315.283203 0)"/>
      <use xlink:href="#DejaVuSans-32" transform="translate(399.072266 0)"/>
      <use xlink:href="#DejaVuSans-29" transform="translate(462.695312 0)"/>
     </g>
    </g>
   </g>
  </g>
  <g id="text_44">
   <!-- Position, Velocity, and Acceleration of Cart Using Sonar run 4# Data -->
   <g transform="translate(227.715937 11.998125) scale(0.12 -0.12)">
    <defs>
     <path id="DejaVuSans-50" d="M 1259 4147 
L 1259 2394 
L 2053 2394 
Q 2494 2394 2734 2622 
Q 2975 2850 2975 3272 
Q 2975 3691 2734 3919 
Q 2494 4147 2053 4147 
L 1259 4147 
z
M 628 4666 
L 2053 4666 
Q 2838 4666 3239 4311 
Q 3641 3956 3641 3272 
Q 3641 2581 3239 2228 
Q 2838 1875 2053 1875 
L 1259 1875 
L 1259 0 
L 628 0 
L 628 4666 
z
" transform="scale(0.015625)"/>
     <path id="DejaVuSans-6f" d="M 1959 3097 
Q 1497 3097 1228 2736 
Q 959 2375 959 1747 
Q 959 1119 1226 758 
Q 1494 397 1959 397 
Q 2419 397 2687 759 
Q 2956 1122 2956 1747 
Q 2956 2369 2687 2733 
Q 2419 3097 1959 3097 
z
M 1959 3584 
Q 2709 3584 3137 3096 
Q 3566 2609 3566 1747 
Q 3566 888 3137 398 
Q 2709 -91 1959 -91 
Q 1206 -91 779 398 
Q 353 888 353 1747 
Q 353 2609 779 3096 
Q 1206 3584 1959 3584 
z
" transform="scale(0.015625)"/>
     <path id="DejaVuSans-69" d="M 603 3500 
L 1178 3500 
L 1178 0 
L 603 0 
L 603 3500 
z
M 603 4863 
L 1178 4863 
L 1178 4134 
L 603 4134 
L 603 4863 
z
" transform="scale(0.015625)"/>
     <path id="DejaVuSans-6e" d="M 3513 2113 
L 3513 0 
L 2938 0 
L 2938 2094 
Q 2938 2591 2744 2837 
Q 2550 3084 2163 3084 
Q 1697 3084 1428 2787 
Q 1159 2491 1159 1978 
L 1159 0 
L 581 0 
L 581 3500 
L 1159 3500 
L 1159 2956 
Q 1366 3272 1645 3428 
Q 1925 3584 2291 3584 
Q 2894 3584 3203 3211 
Q 3513 2838 3513 2113 
z
" transform="scale(0.015625)"/>
     <path id="DejaVuSans-56" d="M 1831 0 
L 50 4666 
L 709 4666 
L 2188 738 
L 3669 4666 
L 4325 4666 
L 2547 0 
L 1831 0 
z
" transform="scale(0.015625)"/>
     <path id="DejaVuSans-65" d="M 3597 1894 
L 3597 1613 
L 953 1613 
Q 991 1019 1311 708 
Q 1631 397 2203 397 
Q 2534 397 2845 478 
Q 3156 559 3463 722 
L 3463 178 
Q 3153 47 2828 -22 
Q 2503 -91 2169 -91 
Q 1331 -91 842 396 
Q 353 884 353 1716 
Q 353 2575 817 3079 
Q 1281 3584 2069 3584 
Q 2775 3584 3186 3129 
Q 3597 2675 3597 1894 
z
M 3022 2063 
Q 3016 2534 2758 2815 
Q 2500 3097 2075 3097 
Q 1594 3097 1305 2825 
Q 1016 2553 972 2059 
L 3022 2063 
z
" transform="scale(0.015625)"/>
     <path id="DejaVuSans-6c" d="M 603 4863 
L 1178 4863 
L 1178 0 
L 603 0 
L 603 4863 
z
" transform="scale(0.015625)"/>
     <path id="DejaVuSans-63" d="M 3122 3366 
L 3122 2828 
Q 2878 2963 2633 3030 
Q 2388 3097 2138 3097 
Q 1578 3097 1268 2742 
Q 959 2388 959 1747 
Q 959 1106 1268 751 
Q 1578 397 2138 397 
Q 2388 397 2633 464 
Q 2878 531 3122 666 
L 3122 134 
Q 2881 22 2623 -34 
Q 2366 -91 2075 -91 
Q 1284 -91 818 406 
Q 353 903 353 1747 
Q 353 2603 823 3093 
Q 1294 3584 2113 3584 
Q 2378 3584 2631 3529 
Q 2884 3475 3122 3366 
z
" transform="scale(0.015625)"/>
     <path id="DejaVuSans-79" d="M 2059 -325 
Q 1816 -950 1584 -1140 
Q 1353 -1331 966 -1331 
L 506 -1331 
L 506 -850 
L 844 -850 
Q 1081 -850 1212 -737 
Q 1344 -625 1503 -206 
L 1606 56 
L 191 3500 
L 800 3500 
L 1894 763 
L 2988 3500 
L 3597 3500 
L 2059 -325 
z
" transform="scale(0.015625)"/>
     <path id="DejaVuSans-64" d="M 2906 2969 
L 2906 4863 
L 3481 4863 
L 3481 0 
L 2906 0 
L 2906 525 
Q 2725 213 2448 61 
Q 2172 -91 1784 -91 
Q 1150 -91 751 415 
Q 353 922 353 1747 
Q 353 2572 751 3078 
Q 1150 3584 1784 3584 
Q 2172 3584 2448 3432 
Q 2725 3281 2906 2969 
z
M 947 1747 
Q 947 1113 1208 752 
Q 1469 391 1925 391 
Q 2381 391 2643 752 
Q 2906 1113 2906 1747 
Q 2906 2381 2643 2742 
Q 2381 3103 1925 3103 
Q 1469 3103 1208 2742 
Q 947 2381 947 1747 
z
" transform="scale(0.015625)"/>
     <path id="DejaVuSans-41" d="M 2188 4044 
L 1331 1722 
L 3047 1722 
L 2188 4044 
z
M 1831 4666 
L 2547 4666 
L 4325 0 
L 3669 0 
L 3244 1197 
L 1141 1197 
L 716 0 
L 50 0 
L 1831 4666 
z
" transform="scale(0.015625)"/>
     <path id="DejaVuSans-72" d="M 2631 2963 
Q 2534 3019 2420 3045 
Q 2306 3072 2169 3072 
Q 1681 3072 1420 2755 
Q 1159 2438 1159 1844 
L 1159 0 
L 581 0 
L 581 3500 
L 1159 3500 
L 1159 2956 
Q 1341 3275 1631 3429 
Q 1922 3584 2338 3584 
Q 2397 3584 2469 3576 
Q 2541 3569 2628 3553 
L 2631 2963 
z
" transform="scale(0.015625)"/>
     <path id="DejaVuSans-66" d="M 2375 4863 
L 2375 4384 
L 1825 4384 
Q 1516 4384 1395 4259 
Q 1275 4134 1275 3809 
L 1275 3500 
L 2222 3500 
L 2222 3053 
L 1275 3053 
L 1275 0 
L 697 0 
L 697 3053 
L 147 3053 
L 147 3500 
L 697 3500 
L 697 3744 
Q 697 4328 969 4595 
Q 1241 4863 1831 4863 
L 2375 4863 
z
" transform="scale(0.015625)"/>
     <path id="DejaVuSans-43" d="M 4122 4306 
L 4122 3641 
Q 3803 3938 3442 4084 
Q 3081 4231 2675 4231 
Q 1875 4231 1450 3742 
Q 1025 3253 1025 2328 
Q 1025 1406 1450 917 
Q 1875 428 2675 428 
Q 3081 428 3442 575 
Q 3803 722 4122 1019 
L 4122 359 
Q 3791 134 3420 21 
Q 3050 -91 2638 -91 
Q 1578 -91 968 557 
Q 359 1206 359 2328 
Q 359 3453 968 4101 
Q 1578 4750 2638 4750 
Q 3056 4750 3426 4639 
Q 3797 4528 4122 4306 
z
" transform="scale(0.015625)"/>
     <path id="DejaVuSans-55" d="M 556 4666 
L 1191 4666 
L 1191 1831 
Q 1191 1081 1462 751 
Q 1734 422 2344 422 
Q 2950 422 3222 751 
Q 3494 1081 3494 1831 
L 3494 4666 
L 4128 4666 
L 4128 1753 
Q 4128 841 3676 375 
Q 3225 -91 2344 -91 
Q 1459 -91 1007 375 
Q 556 841 556 1753 
L 556 4666 
z
" transform="scale(0.015625)"/>
     <path id="DejaVuSans-67" d="M 2906 1791 
Q 2906 2416 2648 2759 
Q 2391 3103 1925 3103 
Q 1463 3103 1205 2759 
Q 947 2416 947 1791 
Q 947 1169 1205 825 
Q 1463 481 1925 481 
Q 2391 481 2648 825 
Q 2906 1169 2906 1791 
z
M 3481 434 
Q 3481 -459 3084 -895 
Q 2688 -1331 1869 -1331 
Q 1566 -1331 1297 -1286 
Q 1028 -1241 775 -1147 
L 775 -588 
Q 1028 -725 1275 -790 
Q 1522 -856 1778 -856 
Q 2344 -856 2625 -561 
Q 2906 -266 2906 331 
L 2906 616 
Q 2728 306 2450 153 
Q 2172 0 1784 0 
Q 1141 0 747 490 
Q 353 981 353 1791 
Q 353 2603 747 3093 
Q 1141 3584 1784 3584 
Q 2172 3584 2450 3431 
Q 2728 3278 2906 2969 
L 2906 3500 
L 3481 3500 
L 3481 434 
z
" transform="scale(0.015625)"/>
     <path id="DejaVuSans-53" d="M 3425 4513 
L 3425 3897 
Q 3066 4069 2747 4153 
Q 2428 4238 2131 4238 
Q 1616 4238 1336 4038 
Q 1056 3838 1056 3469 
Q 1056 3159 1242 3001 
Q 1428 2844 1947 2747 
L 2328 2669 
Q 3034 2534 3370 2195 
Q 3706 1856 3706 1288 
Q 3706 609 3251 259 
Q 2797 -91 1919 -91 
Q 1588 -91 1214 -16 
Q 841 59 441 206 
L 441 856 
Q 825 641 1194 531 
Q 1563 422 1919 422 
Q 2459 422 2753 634 
Q 3047 847 3047 1241 
Q 3047 1584 2836 1778 
Q 2625 1972 2144 2069 
L 1759 2144 
Q 1053 2284 737 2584 
Q 422 2884 422 3419 
Q 422 4038 858 4394 
Q 1294 4750 2059 4750 
Q 2388 4750 2728 4690 
Q 3069 4631 3425 4513 
z
" transform="scale(0.015625)"/>
     <path id="DejaVuSans-75" d="M 544 1381 
L 544 3500 
L 1119 3500 
L 1119 1403 
Q 1119 906 1312 657 
Q 1506 409 1894 409 
Q 2359 409 2629 706 
Q 2900 1003 2900 1516 
L 2900 3500 
L 3475 3500 
L 3475 0 
L 2900 0 
L 2900 538 
Q 2691 219 2414 64 
Q 2138 -91 1772 -91 
Q 1169 -91 856 284 
Q 544 659 544 1381 
z
M 1991 3584 
L 1991 3584 
z
" transform="scale(0.015625)"/>
     <path id="DejaVuSans-23" d="M 3272 2816 
L 2363 2816 
L 2100 1772 
L 3016 1772 
L 3272 2816 
z
M 2803 4594 
L 2478 3297 
L 3391 3297 
L 3719 4594 
L 4219 4594 
L 3897 3297 
L 4872 3297 
L 4872 2816 
L 3775 2816 
L 3519 1772 
L 4513 1772 
L 4513 1294 
L 3397 1294 
L 3072 0 
L 2572 0 
L 2894 1294 
L 1978 1294 
L 1656 0 
L 1153 0 
L 1478 1294 
L 494 1294 
L 494 1772 
L 1594 1772 
L 1856 2816 
L 850 2816 
L 850 3297 
L 1978 3297 
L 2297 4594 
L 2803 4594 
z
" transform="scale(0.015625)"/>
     <path id="DejaVuSans-44" d="M 1259 4147 
L 1259 519 
L 2022 519 
Q 2988 519 3436 956 
Q 3884 1394 3884 2338 
Q 3884 3275 3436 3711 
Q 2988 4147 2022 4147 
L 1259 4147 
z
M 628 4666 
L 1925 4666 
Q 3281 4666 3915 4102 
Q 4550 3538 4550 2338 
Q 4550 1131 3912 565 
Q 3275 0 1925 0 
L 628 0 
L 628 4666 
z
" transform="scale(0.015625)"/>
    </defs>
    <use xlink:href="#DejaVuSans-50"/>
    <use xlink:href="#DejaVuSans-6f" transform="translate(56.677734 0)"/>
    <use xlink:href="#DejaVuSans-73" transform="translate(117.859375 0)"/>
    <use xlink:href="#DejaVuSans-69" transform="translate(169.958984 0)"/>
    <use xlink:href="#DejaVuSans-74" transform="translate(197.742188 0)"/>
    <use xlink:href="#DejaVuSans-69" transform="translate(236.951172 0)"/>
    <use xlink:href="#DejaVuSans-6f" transform="translate(264.734375 0)"/>
    <use xlink:href="#DejaVuSans-6e" transform="translate(325.916016 0)"/>
    <use xlink:href="#DejaVuSans-2c" transform="translate(389.294922 0)"/>
    <use xlink:href="#DejaVuSans-20" transform="translate(421.082031 0)"/>
    <use xlink:href="#DejaVuSans-56" transform="translate(452.869141 0)"/>
    <use xlink:href="#DejaVuSans-65" transform="translate(513.527344 0)"/>
    <use xlink:href="#DejaVuSans-6c" transform="translate(575.050781 0)"/>
    <use xlink:href="#DejaVuSans-6f" transform="translate(602.833984 0)"/>
    <use xlink:href="#DejaVuSans-63" transform="translate(664.015625 0)"/>
    <use xlink:href="#DejaVuSans-69" transform="translate(718.996094 0)"/>
    <use xlink:href="#DejaVuSans-74" transform="translate(746.779297 0)"/>
    <use xlink:href="#DejaVuSans-79" transform="translate(785.988281 0)"/>
    <use xlink:href="#DejaVuSans-2c" transform="translate(845.167969 0)"/>
    <use xlink:href="#DejaVuSans-20" transform="translate(876.955078 0)"/>
    <use xlink:href="#DejaVuSans-61" transform="translate(908.742188 0)"/>
    <use xlink:href="#DejaVuSans-6e" transform="translate(970.021484 0)"/>
    <use xlink:href="#DejaVuSans-64" transform="translate(1033.400391 0)"/>
    <use xlink:href="#DejaVuSans-20" transform="translate(1096.876953 0)"/>
    <use xlink:href="#DejaVuSans-41" transform="translate(1128.664062 0)"/>
    <use xlink:href="#DejaVuSans-63" transform="translate(1195.322266 0)"/>
    <use xlink:href="#DejaVuSans-63" transform="translate(1250.302734 0)"/>
    <use xlink:href="#DejaVuSans-65" transform="translate(1305.283203 0)"/>
    <use xlink:href="#DejaVuSans-6c" transform="translate(1366.806641 0)"/>
    <use xlink:href="#DejaVuSans-65" transform="translate(1394.589844 0)"/>
    <use xlink:href="#DejaVuSans-72" transform="translate(1456.113281 0)"/>
    <use xlink:href="#DejaVuSans-61" transform="translate(1497.226562 0)"/>
    <use xlink:href="#DejaVuSans-74" transform="translate(1558.505859 0)"/>
    <use xlink:href="#DejaVuSans-69" transform="translate(1597.714844 0)"/>
    <use xlink:href="#DejaVuSans-6f" transform="translate(1625.498047 0)"/>
    <use xlink:href="#DejaVuSans-6e" transform="translate(1686.679688 0)"/>
    <use xlink:href="#DejaVuSans-20" transform="translate(1750.058594 0)"/>
    <use xlink:href="#DejaVuSans-6f" transform="translate(1781.845703 0)"/>
    <use xlink:href="#DejaVuSans-66" transform="translate(1843.027344 0)"/>
    <use xlink:href="#DejaVuSans-20" transform="translate(1878.232422 0)"/>
    <use xlink:href="#DejaVuSans-43" transform="translate(1910.019531 0)"/>
    <use xlink:href="#DejaVuSans-61" transform="translate(1979.84375 0)"/>
    <use xlink:href="#DejaVuSans-72" transform="translate(2041.123047 0)"/>
    <use xlink:href="#DejaVuSans-74" transform="translate(2082.236328 0)"/>
    <use xlink:href="#DejaVuSans-20" transform="translate(2121.445312 0)"/>
    <use xlink:href="#DejaVuSans-55" transform="translate(2153.232422 0)"/>
    <use xlink:href="#DejaVuSans-73" transform="translate(2226.425781 0)"/>
    <use xlink:href="#DejaVuSans-69" transform="translate(2278.525391 0)"/>
    <use xlink:href="#DejaVuSans-6e" transform="translate(2306.308594 0)"/>
    <use xlink:href="#DejaVuSans-67" transform="translate(2369.6875 0)"/>
    <use xlink:href="#DejaVuSans-20" transform="translate(2433.164062 0)"/>
    <use xlink:href="#DejaVuSans-53" transform="translate(2464.951172 0)"/>
    <use xlink:href="#DejaVuSans-6f" transform="translate(2528.427734 0)"/>
    <use xlink:href="#DejaVuSans-6e" transform="translate(2589.609375 0)"/>
    <use xlink:href="#DejaVuSans-61" transform="translate(2652.988281 0)"/>
    <use xlink:href="#DejaVuSans-72" transform="translate(2714.267578 0)"/>
    <use xlink:href="#DejaVuSans-20" transform="translate(2755.380859 0)"/>
    <use xlink:href="#DejaVuSans-72" transform="translate(2787.167969 0)"/>
    <use xlink:href="#DejaVuSans-75" transform="translate(2828.28125 0)"/>
    <use xlink:href="#DejaVuSans-6e" transform="translate(2891.660156 0)"/>
    <use xlink:href="#DejaVuSans-20" transform="translate(2955.039062 0)"/>
    <use xlink:href="#DejaVuSans-34" transform="translate(2986.826172 0)"/>
    <use xlink:href="#DejaVuSans-23" transform="translate(3050.449219 0)"/>
    <use xlink:href="#DejaVuSans-20" transform="translate(3134.238281 0)"/>
    <use xlink:href="#DejaVuSans-44" transform="translate(3166.025391 0)"/>
    <use xlink:href="#DejaVuSans-61" transform="translate(3243.027344 0)"/>
    <use xlink:href="#DejaVuSans-74" transform="translate(3304.306641 0)"/>
    <use xlink:href="#DejaVuSans-61" transform="translate(3343.515625 0)"/>
   </g>
  </g>
 </g>
 <defs>
  <clipPath id="p6a88da33da">
   <rect x="59.24" y="107.148368" width="793.96" height="123.710544"/>
  </clipPath>
  <clipPath id="p40e44e1051">
   <rect x="59.24" y="258.738912" width="793.96" height="123.710544"/>
  </clipPath>
  <clipPath id="p9cc0fbf3c2">
   <rect x="59.24" y="410.329456" width="793.96" height="123.710544"/>
  </clipPath>
 </defs>
</svg>
