<?xml version="1.0" encoding="utf-8" standalone="no"?>
<!DOCTYPE svg PUBLIC "-//W3C//DTD SVG 1.1//EN"
  "http://www.w3.org/Graphics/SVG/1.1/DTD/svg11.dtd">
<svg xmlns:xlink="http://www.w3.org/1999/xlink" width="864pt" height="576pt" viewBox="0 0 864 576" xmlns="http://www.w3.org/2000/svg" version="1.1">
 <metadata>
  <rdf:RDF xmlns:dc="http://purl.org/dc/elements/1.1/" xmlns:cc="http://creativecommons.org/ns#" xmlns:rdf="http://www.w3.org/1999/02/22-rdf-syntax-ns#">
   <cc:Work>
    <dc:type rdf:resource="http://purl.org/dc/dcmitype/StillImage"/>
    <dc:date>2025-01-14T15:29:46.813899</dc:date>
    <dc:format>image/svg+xml</dc:format>
    <dc:creator>
     <cc:Agent>
      <dc:title>Matplotlib v3.10.0, https://matplotlib.org/</dc:title>
     </cc:Agent>
    </dc:creator>
   </cc:Work>
  </rdf:RDF>
 </metadata>
 <defs>
  <style type="text/css">*{stroke-linejoin: round; stroke-linecap: butt}</style>
 </defs>
 <g id="figure_1">
  <g id="patch_1">
   <path d="M 0 576 
L 864 576 
L 864 0 
L 0 0 
z
" style="fill: #ffffff"/>
  </g>
  <g id="axes_1">
   <g id="patch_2">
    <path d="M 71.75 230.321225 
L 853.2 230.321225 
L 853.2 107.148368 
L 71.75 107.148368 
z
" style="fill: #ffffff"/>
   </g>
   <g id="matplotlib.axis_1">
    <g id="xtick_1">
     <g id="line2d_1">
      <path d="M 107.270455 230.321225 
L 107.270455 107.148368 
" clip-path="url(#p73e63c5b60)" style="fill: none; stroke: #b0b0b0; stroke-width: 0.8; stroke-linecap: square"/>
     </g>
     <g id="line2d_2">
      <defs>
       <path id="m54f2f92799" d="M 0 0 
L 0 3.5 
" style="stroke: #000000; stroke-width: 0.8"/>
      </defs>
      <g>
       <use xlink:href="#m54f2f92799" x="107.270455" y="230.321225" style="stroke: #000000; stroke-width: 0.8"/>
      </g>
     </g>
     <g id="text_1">
      <!-- 0 -->
      <g transform="translate(104.089205 244.919663) scale(0.1 -0.1)">
       <defs>
        <path id="DejaVuSans-30" d="M 2034 4250 
Q 1547 4250 1301 3770 
Q 1056 3291 1056 2328 
Q 1056 1369 1301 889 
Q 1547 409 2034 409 
Q 2525 409 2770 889 
Q 3016 1369 3016 2328 
Q 3016 3291 2770 3770 
Q 2525 4250 2034 4250 
z
M 2034 4750 
Q 2819 4750 3233 4129 
Q 3647 3509 3647 2328 
Q 3647 1150 3233 529 
Q 2819 -91 2034 -91 
Q 1250 -91 836 529 
Q 422 1150 422 2328 
Q 422 3509 836 4129 
Q 1250 4750 2034 4750 
z
" transform="scale(0.015625)"/>
       </defs>
       <use xlink:href="#DejaVuSans-30"/>
      </g>
     </g>
    </g>
    <g id="xtick_2">
     <g id="line2d_3">
      <path d="M 270.208319 230.321225 
L 270.208319 107.148368 
" clip-path="url(#p73e63c5b60)" style="fill: none; stroke: #b0b0b0; stroke-width: 0.8; stroke-linecap: square"/>
     </g>
     <g id="line2d_4">
      <g>
       <use xlink:href="#m54f2f92799" x="270.208319" y="230.321225" style="stroke: #000000; stroke-width: 0.8"/>
      </g>
     </g>
     <g id="text_2">
      <!-- 1 -->
      <g transform="translate(267.027069 244.919663) scale(0.1 -0.1)">
       <defs>
        <path id="DejaVuSans-31" d="M 794 531 
L 1825 531 
L 1825 4091 
L 703 3866 
L 703 4441 
L 1819 4666 
L 2450 4666 
L 2450 531 
L 3481 531 
L 3481 0 
L 794 0 
L 794 531 
z
" transform="scale(0.015625)"/>
       </defs>
       <use xlink:href="#DejaVuSans-31"/>
      </g>
     </g>
    </g>
    <g id="xtick_3">
     <g id="line2d_5">
      <path d="M 433.146184 230.321225 
L 433.146184 107.148368 
" clip-path="url(#p73e63c5b60)" style="fill: none; stroke: #b0b0b0; stroke-width: 0.8; stroke-linecap: square"/>
     </g>
     <g id="line2d_6">
      <g>
       <use xlink:href="#m54f2f92799" x="433.146184" y="230.321225" style="stroke: #000000; stroke-width: 0.8"/>
      </g>
     </g>
     <g id="text_3">
      <!-- 2 -->
      <g transform="translate(429.964934 244.919663) scale(0.1 -0.1)">
       <defs>
        <path id="DejaVuSans-32" d="M 1228 531 
L 3431 531 
L 3431 0 
L 469 0 
L 469 531 
Q 828 903 1448 1529 
Q 2069 2156 2228 2338 
Q 2531 2678 2651 2914 
Q 2772 3150 2772 3378 
Q 2772 3750 2511 3984 
Q 2250 4219 1831 4219 
Q 1534 4219 1204 4116 
Q 875 4013 500 3803 
L 500 4441 
Q 881 4594 1212 4672 
Q 1544 4750 1819 4750 
Q 2544 4750 2975 4387 
Q 3406 4025 3406 3419 
Q 3406 3131 3298 2873 
Q 3191 2616 2906 2266 
Q 2828 2175 2409 1742 
Q 1991 1309 1228 531 
z
" transform="scale(0.015625)"/>
       </defs>
       <use xlink:href="#DejaVuSans-32"/>
      </g>
     </g>
    </g>
    <g id="xtick_4">
     <g id="line2d_7">
      <path d="M 596.084049 230.321225 
L 596.084049 107.148368 
" clip-path="url(#p73e63c5b60)" style="fill: none; stroke: #b0b0b0; stroke-width: 0.8; stroke-linecap: square"/>
     </g>
     <g id="line2d_8">
      <g>
       <use xlink:href="#m54f2f92799" x="596.084049" y="230.321225" style="stroke: #000000; stroke-width: 0.8"/>
      </g>
     </g>
     <g id="text_4">
      <!-- 3 -->
      <g transform="translate(592.902799 244.919663) scale(0.1 -0.1)">
       <defs>
        <path id="DejaVuSans-33" d="M 2597 2516 
Q 3050 2419 3304 2112 
Q 3559 1806 3559 1356 
Q 3559 666 3084 287 
Q 2609 -91 1734 -91 
Q 1441 -91 1130 -33 
Q 819 25 488 141 
L 488 750 
Q 750 597 1062 519 
Q 1375 441 1716 441 
Q 2309 441 2620 675 
Q 2931 909 2931 1356 
Q 2931 1769 2642 2001 
Q 2353 2234 1838 2234 
L 1294 2234 
L 1294 2753 
L 1863 2753 
Q 2328 2753 2575 2939 
Q 2822 3125 2822 3475 
Q 2822 3834 2567 4026 
Q 2313 4219 1838 4219 
Q 1578 4219 1281 4162 
Q 984 4106 628 3988 
L 628 4550 
Q 988 4650 1302 4700 
Q 1616 4750 1894 4750 
Q 2613 4750 3031 4423 
Q 3450 4097 3450 3541 
Q 3450 3153 3228 2886 
Q 3006 2619 2597 2516 
z
" transform="scale(0.015625)"/>
       </defs>
       <use xlink:href="#DejaVuSans-33"/>
      </g>
     </g>
    </g>
    <g id="xtick_5">
     <g id="line2d_9">
      <path d="M 759.021914 230.321225 
L 759.021914 107.148368 
" clip-path="url(#p73e63c5b60)" style="fill: none; stroke: #b0b0b0; stroke-width: 0.8; stroke-linecap: square"/>
     </g>
     <g id="line2d_10">
      <g>
       <use xlink:href="#m54f2f92799" x="759.021914" y="230.321225" style="stroke: #000000; stroke-width: 0.8"/>
      </g>
     </g>
     <g id="text_5">
      <!-- 4 -->
      <g transform="translate(755.840664 244.919663) scale(0.1 -0.1)">
       <defs>
        <path id="DejaVuSans-34" d="M 2419 4116 
L 825 1625 
L 2419 1625 
L 2419 4116 
z
M 2253 4666 
L 3047 4666 
L 3047 1625 
L 3713 1625 
L 3713 1100 
L 3047 1100 
L 3047 0 
L 2419 0 
L 2419 1100 
L 313 1100 
L 313 1709 
L 2253 4666 
z
" transform="scale(0.015625)"/>
       </defs>
       <use xlink:href="#DejaVuSans-34"/>
      </g>
     </g>
    </g>
   </g>
   <g id="matplotlib.axis_2">
    <g id="ytick_1">
     <g id="line2d_11">
      <path d="M 71.75 228.586663 
L 853.2 228.586663 
" clip-path="url(#p73e63c5b60)" style="fill: none; stroke: #b0b0b0; stroke-width: 0.8; stroke-linecap: square"/>
     </g>
     <g id="line2d_12">
      <defs>
       <path id="m0e94d0f32a" d="M 0 0 
L -3.5 0 
" style="stroke: #000000; stroke-width: 0.8"/>
      </defs>
      <g>
       <use xlink:href="#m0e94d0f32a" x="71.75" y="228.586663" style="stroke: #000000; stroke-width: 0.8"/>
      </g>
     </g>
     <g id="text_6">
      <!-- 60 -->
      <g transform="translate(52.025 232.385882) scale(0.1 -0.1)">
       <defs>
        <path id="DejaVuSans-36" d="M 2113 2584 
Q 1688 2584 1439 2293 
Q 1191 2003 1191 1497 
Q 1191 994 1439 701 
Q 1688 409 2113 409 
Q 2538 409 2786 701 
Q 3034 994 3034 1497 
Q 3034 2003 2786 2293 
Q 2538 2584 2113 2584 
z
M 3366 4563 
L 3366 3988 
Q 3128 4100 2886 4159 
Q 2644 4219 2406 4219 
Q 1781 4219 1451 3797 
Q 1122 3375 1075 2522 
Q 1259 2794 1537 2939 
Q 1816 3084 2150 3084 
Q 2853 3084 3261 2657 
Q 3669 2231 3669 1497 
Q 3669 778 3244 343 
Q 2819 -91 2113 -91 
Q 1303 -91 875 529 
Q 447 1150 447 2328 
Q 447 3434 972 4092 
Q 1497 4750 2381 4750 
Q 2619 4750 2861 4703 
Q 3103 4656 3366 4563 
z
" transform="scale(0.015625)"/>
       </defs>
       <use xlink:href="#DejaVuSans-36"/>
       <use xlink:href="#DejaVuSans-30" transform="translate(63.623047 0)"/>
      </g>
     </g>
    </g>
    <g id="ytick_2">
     <g id="line2d_13">
      <path d="M 71.75 206.938461 
L 853.2 206.938461 
" clip-path="url(#p73e63c5b60)" style="fill: none; stroke: #b0b0b0; stroke-width: 0.8; stroke-linecap: square"/>
     </g>
     <g id="line2d_14">
      <g>
       <use xlink:href="#m0e94d0f32a" x="71.75" y="206.938461" style="stroke: #000000; stroke-width: 0.8"/>
      </g>
     </g>
     <g id="text_7">
      <!-- 80 -->
      <g transform="translate(52.025 210.73768) scale(0.1 -0.1)">
       <defs>
        <path id="DejaVuSans-38" d="M 2034 2216 
Q 1584 2216 1326 1975 
Q 1069 1734 1069 1313 
Q 1069 891 1326 650 
Q 1584 409 2034 409 
Q 2484 409 2743 651 
Q 3003 894 3003 1313 
Q 3003 1734 2745 1975 
Q 2488 2216 2034 2216 
z
M 1403 2484 
Q 997 2584 770 2862 
Q 544 3141 544 3541 
Q 544 4100 942 4425 
Q 1341 4750 2034 4750 
Q 2731 4750 3128 4425 
Q 3525 4100 3525 3541 
Q 3525 3141 3298 2862 
Q 3072 2584 2669 2484 
Q 3125 2378 3379 2068 
Q 3634 1759 3634 1313 
Q 3634 634 3220 271 
Q 2806 -91 2034 -91 
Q 1263 -91 848 271 
Q 434 634 434 1313 
Q 434 1759 690 2068 
Q 947 2378 1403 2484 
z
M 1172 3481 
Q 1172 3119 1398 2916 
Q 1625 2713 2034 2713 
Q 2441 2713 2670 2916 
Q 2900 3119 2900 3481 
Q 2900 3844 2670 4047 
Q 2441 4250 2034 4250 
Q 1625 4250 1398 4047 
Q 1172 3844 1172 3481 
z
" transform="scale(0.015625)"/>
       </defs>
       <use xlink:href="#DejaVuSans-38"/>
       <use xlink:href="#DejaVuSans-30" transform="translate(63.623047 0)"/>
      </g>
     </g>
    </g>
    <g id="ytick_3">
     <g id="line2d_15">
      <path d="M 71.75 185.290259 
L 853.2 185.290259 
" clip-path="url(#p73e63c5b60)" style="fill: none; stroke: #b0b0b0; stroke-width: 0.8; stroke-linecap: square"/>
     </g>
     <g id="line2d_16">
      <g>
       <use xlink:href="#m0e94d0f32a" x="71.75" y="185.290259" style="stroke: #000000; stroke-width: 0.8"/>
      </g>
     </g>
     <g id="text_8">
      <!-- 100 -->
      <g transform="translate(45.6625 189.089478) scale(0.1 -0.1)">
       <use xlink:href="#DejaVuSans-31"/>
       <use xlink:href="#DejaVuSans-30" transform="translate(63.623047 0)"/>
       <use xlink:href="#DejaVuSans-30" transform="translate(127.246094 0)"/>
      </g>
     </g>
    </g>
    <g id="ytick_4">
     <g id="line2d_17">
      <path d="M 71.75 163.642057 
L 853.2 163.642057 
" clip-path="url(#p73e63c5b60)" style="fill: none; stroke: #b0b0b0; stroke-width: 0.8; stroke-linecap: square"/>
     </g>
     <g id="line2d_18">
      <g>
       <use xlink:href="#m0e94d0f32a" x="71.75" y="163.642057" style="stroke: #000000; stroke-width: 0.8"/>
      </g>
     </g>
     <g id="text_9">
      <!-- 120 -->
      <g transform="translate(45.6625 167.441276) scale(0.1 -0.1)">
       <use xlink:href="#DejaVuSans-31"/>
       <use xlink:href="#DejaVuSans-32" transform="translate(63.623047 0)"/>
       <use xlink:href="#DejaVuSans-30" transform="translate(127.246094 0)"/>
      </g>
     </g>
    </g>
    <g id="ytick_5">
     <g id="line2d_19">
      <path d="M 71.75 141.993855 
L 853.2 141.993855 
" clip-path="url(#p73e63c5b60)" style="fill: none; stroke: #b0b0b0; stroke-width: 0.8; stroke-linecap: square"/>
     </g>
     <g id="line2d_20">
      <g>
       <use xlink:href="#m0e94d0f32a" x="71.75" y="141.993855" style="stroke: #000000; stroke-width: 0.8"/>
      </g>
     </g>
     <g id="text_10">
      <!-- 140 -->
      <g transform="translate(45.6625 145.793074) scale(0.1 -0.1)">
       <use xlink:href="#DejaVuSans-31"/>
       <use xlink:href="#DejaVuSans-34" transform="translate(63.623047 0)"/>
       <use xlink:href="#DejaVuSans-30" transform="translate(127.246094 0)"/>
      </g>
     </g>
    </g>
    <g id="ytick_6">
     <g id="line2d_21">
      <path d="M 71.75 120.345653 
L 853.2 120.345653 
" clip-path="url(#p73e63c5b60)" style="fill: none; stroke: #b0b0b0; stroke-width: 0.8; stroke-linecap: square"/>
     </g>
     <g id="line2d_22">
      <g>
       <use xlink:href="#m0e94d0f32a" x="71.75" y="120.345653" style="stroke: #000000; stroke-width: 0.8"/>
      </g>
     </g>
     <g id="text_11">
      <!-- 160 -->
      <g transform="translate(45.6625 124.144872) scale(0.1 -0.1)">
       <use xlink:href="#DejaVuSans-31"/>
       <use xlink:href="#DejaVuSans-36" transform="translate(63.623047 0)"/>
       <use xlink:href="#DejaVuSans-30" transform="translate(127.246094 0)"/>
      </g>
     </g>
    </g>
    <g id="text_12">
     <!-- x -->
     <g transform="translate(39.582812 171.694172) rotate(-90) scale(0.1 -0.1)">
      <defs>
       <path id="DejaVuSans-78" d="M 3513 3500 
L 2247 1797 
L 3578 0 
L 2900 0 
L 1881 1375 
L 863 0 
L 184 0 
L 1544 1831 
L 300 3500 
L 978 3500 
L 1906 2253 
L 2834 3500 
L 3513 3500 
z
" transform="scale(0.015625)"/>
      </defs>
      <use xlink:href="#DejaVuSans-78"/>
     </g>
    </g>
   </g>
   <g id="line2d_23">
    <path d="M 107.270455 112.747134 
L 113.787969 113.039385 
L 117.046726 112.855375 
L 120.305484 113.255867 
L 123.564241 113.309987 
L 126.822998 113.006913 
L 130.081756 113.245043 
L 133.340513 113.266691 
L 136.59927 113.104329 
L 139.858028 113.255867 
L 143.116785 113.071857 
L 146.375542 113.234219 
L 156.151814 113.299163 
L 159.410571 113.147626 
L 162.669329 113.331636 
L 169.186843 113.959433 
L 178.963115 113.883665 
L 182.221872 113.872841 
L 185.48063 114.067674 
L 188.739387 114.078499 
L 191.998144 113.851192 
L 195.256902 114.046026 
L 198.515659 114.067674 
L 201.774416 113.81872 
L 205.033173 114.046026 
L 208.291931 113.786248 
L 211.550688 114.00273 
L 214.809445 114.046026 
L 218.068203 113.81872 
L 221.32696 114.00273 
L 224.585717 114.046026 
L 227.844475 113.807896 
L 231.103232 114.024378 
L 234.361989 114.067674 
L 237.620746 113.786248 
L 240.879504 114.00273 
L 244.138261 114.067674 
L 247.397018 113.786248 
L 250.655776 114.00273 
L 253.914533 114.046026 
L 257.17329 113.81872 
L 260.432048 113.981082 
L 270.208319 114.089323 
L 273.467077 114.219212 
L 279.984591 114.976899 
L 283.243349 115.215029 
L 286.502106 115.572224 
L 293.019621 116.903589 
L 299.537135 118.105064 
L 302.795892 118.830279 
L 315.830922 122.921789 
L 322.348436 125.519573 
L 328.865951 128.268895 
L 332.124708 130.065696 
L 335.383465 131.537773 
L 345.159737 137.285371 
L 351.677252 141.550067 
L 354.936009 143.931369 
L 361.453524 148.390899 
L 364.712281 150.415006 
L 367.971038 154.106024 
L 371.229796 151.443295 
L 374.488553 176.468617 
L 377.74731 159.821149 
L 381.006068 161.206634 
L 390.782339 167.21401 
L 400.558611 172.929136 
L 407.076126 176.598506 
L 416.852398 181.826547 
L 426.62867 186.751513 
L 436.404942 191.351756 
L 446.181214 195.6381 
L 455.957485 199.621369 
L 462.475 202.121736 
L 472.251272 205.5638 
L 482.027544 208.702789 
L 488.545058 210.661952 
L 498.32133 213.281384 
L 508.097602 215.651862 
L 514.615117 217.102292 
L 521.132631 218.39036 
L 530.908903 220.068096 
L 537.426418 220.966496 
L 547.20269 222.167971 
L 553.720204 222.860714 
L 563.496476 223.704993 
L 573.272748 224.289495 
L 579.790263 224.538449 
L 586.307777 224.679163 
L 596.084049 224.722459 
L 817.679545 224.722459 
L 817.679545 224.722459 
" clip-path="url(#p73e63c5b60)" style="fill: none; stroke: #0000ff; stroke-width: 1.5; stroke-linecap: square"/>
   </g>
   <g id="line2d_24">
    <path d="M 374.488553 230.321225 
L 374.488553 107.148368 
" clip-path="url(#p73e63c5b60)" style="fill: none; stroke-dasharray: 5.55,2.4; stroke-dashoffset: 0; stroke: #ff0000; stroke-opacity: 0.5; stroke-width: 1.5"/>
   </g>
   <g id="line2d_25">
    <path d="M 605.860321 230.321225 
L 605.860321 107.148368 
" clip-path="url(#p73e63c5b60)" style="fill: none; stroke-dasharray: 5.55,2.4; stroke-dashoffset: 0; stroke: #bf00bf; stroke-opacity: 0.7; stroke-width: 1.5"/>
   </g>
   <g id="patch_3">
    <path d="M 71.75 230.321225 
L 71.75 107.148368 
" style="fill: none; stroke: #000000; stroke-width: 0.8; stroke-linejoin: miter; stroke-linecap: square"/>
   </g>
   <g id="patch_4">
    <path d="M 853.2 230.321225 
L 853.2 107.148368 
" style="fill: none; stroke: #000000; stroke-width: 0.8; stroke-linejoin: miter; stroke-linecap: square"/>
   </g>
   <g id="patch_5">
    <path d="M 71.75 230.321225 
L 853.2 230.321225 
" style="fill: none; stroke: #000000; stroke-width: 0.8; stroke-linejoin: miter; stroke-linecap: square"/>
   </g>
   <g id="patch_6">
    <path d="M 71.75 107.148368 
L 853.2 107.148368 
" style="fill: none; stroke: #000000; stroke-width: 0.8; stroke-linejoin: miter; stroke-linecap: square"/>
   </g>
   <g id="text_13">
    <!--  $t_{v,\max}=1.64\,\mathrm{s}$ -->
    <g transform="translate(381.988553 107.148368) rotate(-90) scale(0.1 -0.1)">
     <defs>
      <path id="DejaVuSans-20" transform="scale(0.015625)"/>
      <path id="DejaVuSans-Oblique-74" d="M 2706 3500 
L 2619 3053 
L 1472 3053 
L 1100 1153 
Q 1081 1047 1072 975 
Q 1063 903 1063 863 
Q 1063 663 1183 572 
Q 1303 481 1569 481 
L 2150 481 
L 2053 0 
L 1503 0 
Q 991 0 739 200 
Q 488 400 488 806 
Q 488 878 497 964 
Q 506 1050 525 1153 
L 897 3053 
L 409 3053 
L 500 3500 
L 978 3500 
L 1172 4494 
L 1747 4494 
L 1556 3500 
L 2706 3500 
z
" transform="scale(0.015625)"/>
      <path id="DejaVuSans-Oblique-76" d="M 459 3500 
L 1069 3500 
L 1581 525 
L 3256 3500 
L 3866 3500 
L 1875 0 
L 1100 0 
L 459 3500 
z
" transform="scale(0.015625)"/>
      <path id="DejaVuSans-2c" d="M 750 794 
L 1409 794 
L 1409 256 
L 897 -744 
L 494 -744 
L 750 256 
L 750 794 
z
" transform="scale(0.015625)"/>
      <path id="DejaVuSans-6d" d="M 3328 2828 
Q 3544 3216 3844 3400 
Q 4144 3584 4550 3584 
Q 5097 3584 5394 3201 
Q 5691 2819 5691 2113 
L 5691 0 
L 5113 0 
L 5113 2094 
Q 5113 2597 4934 2840 
Q 4756 3084 4391 3084 
Q 3944 3084 3684 2787 
Q 3425 2491 3425 1978 
L 3425 0 
L 2847 0 
L 2847 2094 
Q 2847 2600 2669 2842 
Q 2491 3084 2119 3084 
Q 1678 3084 1418 2786 
Q 1159 2488 1159 1978 
L 1159 0 
L 581 0 
L 581 3500 
L 1159 3500 
L 1159 2956 
Q 1356 3278 1631 3431 
Q 1906 3584 2284 3584 
Q 2666 3584 2933 3390 
Q 3200 3197 3328 2828 
z
" transform="scale(0.015625)"/>
      <path id="DejaVuSans-61" d="M 2194 1759 
Q 1497 1759 1228 1600 
Q 959 1441 959 1056 
Q 959 750 1161 570 
Q 1363 391 1709 391 
Q 2188 391 2477 730 
Q 2766 1069 2766 1631 
L 2766 1759 
L 2194 1759 
z
M 3341 1997 
L 3341 0 
L 2766 0 
L 2766 531 
Q 2569 213 2275 61 
Q 1981 -91 1556 -91 
Q 1019 -91 701 211 
Q 384 513 384 1019 
Q 384 1609 779 1909 
Q 1175 2209 1959 2209 
L 2766 2209 
L 2766 2266 
Q 2766 2663 2505 2880 
Q 2244 3097 1772 3097 
Q 1472 3097 1187 3025 
Q 903 2953 641 2809 
L 641 3341 
Q 956 3463 1253 3523 
Q 1550 3584 1831 3584 
Q 2591 3584 2966 3190 
Q 3341 2797 3341 1997 
z
" transform="scale(0.015625)"/>
      <path id="DejaVuSans-3d" d="M 678 2906 
L 4684 2906 
L 4684 2381 
L 678 2381 
L 678 2906 
z
M 678 1631 
L 4684 1631 
L 4684 1100 
L 678 1100 
L 678 1631 
z
" transform="scale(0.015625)"/>
      <path id="DejaVuSans-2e" d="M 684 794 
L 1344 794 
L 1344 0 
L 684 0 
L 684 794 
z
" transform="scale(0.015625)"/>
      <path id="DejaVuSans-73" d="M 2834 3397 
L 2834 2853 
Q 2591 2978 2328 3040 
Q 2066 3103 1784 3103 
Q 1356 3103 1142 2972 
Q 928 2841 928 2578 
Q 928 2378 1081 2264 
Q 1234 2150 1697 2047 
L 1894 2003 
Q 2506 1872 2764 1633 
Q 3022 1394 3022 966 
Q 3022 478 2636 193 
Q 2250 -91 1575 -91 
Q 1294 -91 989 -36 
Q 684 19 347 128 
L 347 722 
Q 666 556 975 473 
Q 1284 391 1588 391 
Q 1994 391 2212 530 
Q 2431 669 2431 922 
Q 2431 1156 2273 1281 
Q 2116 1406 1581 1522 
L 1381 1569 
Q 847 1681 609 1914 
Q 372 2147 372 2553 
Q 372 3047 722 3315 
Q 1072 3584 1716 3584 
Q 2034 3584 2315 3537 
Q 2597 3491 2834 3397 
z
" transform="scale(0.015625)"/>
     </defs>
     <use xlink:href="#DejaVuSans-20" transform="translate(0 0.78125)"/>
     <use xlink:href="#DejaVuSans-Oblique-74" transform="translate(31.787109 0.78125)"/>
     <use xlink:href="#DejaVuSans-Oblique-76" transform="translate(70.996094 -15.625) scale(0.7)"/>
     <use xlink:href="#DejaVuSans-2c" transform="translate(112.421875 -15.625) scale(0.7)"/>
     <use xlink:href="#DejaVuSans-6d" transform="translate(148.310547 -15.625) scale(0.7)"/>
     <use xlink:href="#DejaVuSans-61" transform="translate(216.499023 -15.625) scale(0.7)"/>
     <use xlink:href="#DejaVuSans-78" transform="translate(259.394531 -15.625) scale(0.7)"/>
     <use xlink:href="#DejaVuSans-3d" transform="translate(323.037109 0.78125)"/>
     <use xlink:href="#DejaVuSans-31" transform="translate(426.308594 0.78125)"/>
     <use xlink:href="#DejaVuSans-2e" transform="translate(489.931641 0.78125)"/>
     <use xlink:href="#DejaVuSans-36" transform="translate(521.71875 0.78125)"/>
     <use xlink:href="#DejaVuSans-34" transform="translate(585.341797 0.78125)"/>
     <use xlink:href="#DejaVuSans-73" transform="translate(665.20052 0.78125)"/>
    </g>
   </g>
   <g id="text_14">
    <!--  $t_{stop}=3.06\,\mathrm{s}$ -->
    <g transform="translate(613.360321 107.148368) rotate(-90) scale(0.1 -0.1)">
     <defs>
      <path id="DejaVuSans-Oblique-73" d="M 3200 3397 
L 3091 2853 
Q 2863 2978 2609 3040 
Q 2356 3103 2088 3103 
Q 1634 3103 1373 2948 
Q 1113 2794 1113 2528 
Q 1113 2219 1719 2053 
Q 1766 2041 1788 2034 
L 1972 1978 
Q 2547 1819 2739 1644 
Q 2931 1469 2931 1166 
Q 2931 609 2489 259 
Q 2047 -91 1331 -91 
Q 1053 -91 747 -37 
Q 441 16 72 128 
L 184 722 
Q 500 559 806 475 
Q 1113 391 1394 391 
Q 1816 391 2080 572 
Q 2344 753 2344 1031 
Q 2344 1331 1650 1516 
L 1591 1531 
L 1394 1581 
Q 956 1697 753 1886 
Q 550 2075 550 2369 
Q 550 2928 970 3256 
Q 1391 3584 2113 3584 
Q 2397 3584 2667 3537 
Q 2938 3491 3200 3397 
z
" transform="scale(0.015625)"/>
      <path id="DejaVuSans-Oblique-6f" d="M 1625 -91 
Q 1009 -91 651 289 
Q 294 669 294 1325 
Q 294 1706 417 2101 
Q 541 2497 738 2766 
Q 1047 3184 1428 3384 
Q 1809 3584 2291 3584 
Q 2888 3584 3255 3212 
Q 3622 2841 3622 2241 
Q 3622 1825 3500 1412 
Q 3378 1000 3181 728 
Q 2875 309 2494 109 
Q 2113 -91 1625 -91 
z
M 891 1344 
Q 891 869 1089 633 
Q 1288 397 1691 397 
Q 2269 397 2648 901 
Q 3028 1406 3028 2181 
Q 3028 2634 2825 2865 
Q 2622 3097 2228 3097 
Q 1903 3097 1650 2945 
Q 1397 2794 1197 2484 
Q 1050 2253 970 1956 
Q 891 1659 891 1344 
z
" transform="scale(0.015625)"/>
      <path id="DejaVuSans-Oblique-70" d="M 3175 2156 
Q 3175 2616 2975 2859 
Q 2775 3103 2400 3103 
Q 2144 3103 1911 2972 
Q 1678 2841 1497 2591 
Q 1319 2344 1212 1994 
Q 1106 1644 1106 1300 
Q 1106 863 1306 627 
Q 1506 391 1875 391 
Q 2147 391 2380 519 
Q 2613 647 2778 891 
Q 2956 1147 3065 1494 
Q 3175 1841 3175 2156 
z
M 1394 2969 
Q 1625 3272 1939 3428 
Q 2253 3584 2638 3584 
Q 3175 3584 3472 3232 
Q 3769 2881 3769 2247 
Q 3769 1728 3584 1258 
Q 3400 788 3053 416 
Q 2822 169 2531 39 
Q 2241 -91 1919 -91 
Q 1547 -91 1294 64 
Q 1041 219 916 525 
L 556 -1331 
L -19 -1331 
L 922 3500 
L 1497 3500 
L 1394 2969 
z
" transform="scale(0.015625)"/>
     </defs>
     <use xlink:href="#DejaVuSans-20" transform="translate(0 0.78125)"/>
     <use xlink:href="#DejaVuSans-Oblique-74" transform="translate(31.787109 0.78125)"/>
     <use xlink:href="#DejaVuSans-Oblique-73" transform="translate(70.996094 -15.625) scale(0.7)"/>
     <use xlink:href="#DejaVuSans-Oblique-74" transform="translate(107.46582 -15.625) scale(0.7)"/>
     <use xlink:href="#DejaVuSans-Oblique-6f" transform="translate(134.912109 -15.625) scale(0.7)"/>
     <use xlink:href="#DejaVuSans-Oblique-70" transform="translate(177.739258 -15.625) scale(0.7)"/>
     <use xlink:href="#DejaVuSans-3d" transform="translate(244.389648 0.78125)"/>
     <use xlink:href="#DejaVuSans-33" transform="translate(347.661133 0.78125)"/>
     <use xlink:href="#DejaVuSans-2e" transform="translate(411.28418 0.78125)"/>
     <use xlink:href="#DejaVuSans-30" transform="translate(443.071289 0.78125)"/>
     <use xlink:href="#DejaVuSans-36" transform="translate(506.694336 0.78125)"/>
     <use xlink:href="#DejaVuSans-73" transform="translate(586.553059 0.78125)"/>
    </g>
   </g>
   <g id="legend_1">
    <g id="patch_7">
     <path d="M 787.559375 129.826493 
L 846.2 129.826493 
Q 848.2 129.826493 848.2 127.826493 
L 848.2 114.148368 
Q 848.2 112.148368 846.2 112.148368 
L 787.559375 112.148368 
Q 785.559375 112.148368 785.559375 114.148368 
L 785.559375 127.826493 
Q 785.559375 129.826493 787.559375 129.826493 
z
" style="fill: #ffffff; opacity: 0.8; stroke: #cccccc; stroke-linejoin: miter"/>
    </g>
    <g id="line2d_26">
     <path d="M 789.559375 120.246805 
L 799.559375 120.246805 
L 809.559375 120.246805 
" style="fill: none; stroke: #0000ff; stroke-width: 1.5; stroke-linecap: square"/>
    </g>
    <g id="text_15">
     <!-- x (m) -->
     <g transform="translate(817.559375 123.746805) scale(0.1 -0.1)">
      <defs>
       <path id="DejaVuSans-28" d="M 1984 4856 
Q 1566 4138 1362 3434 
Q 1159 2731 1159 2009 
Q 1159 1288 1364 580 
Q 1569 -128 1984 -844 
L 1484 -844 
Q 1016 -109 783 600 
Q 550 1309 550 2009 
Q 550 2706 781 3412 
Q 1013 4119 1484 4856 
L 1984 4856 
z
" transform="scale(0.015625)"/>
       <path id="DejaVuSans-29" d="M 513 4856 
L 1013 4856 
Q 1481 4119 1714 3412 
Q 1947 2706 1947 2009 
Q 1947 1309 1714 600 
Q 1481 -109 1013 -844 
L 513 -844 
Q 928 -128 1133 580 
Q 1338 1288 1338 2009 
Q 1338 2731 1133 3434 
Q 928 4138 513 4856 
z
" transform="scale(0.015625)"/>
      </defs>
      <use xlink:href="#DejaVuSans-78"/>
      <use xlink:href="#DejaVuSans-20" transform="translate(59.179688 0)"/>
      <use xlink:href="#DejaVuSans-28" transform="translate(90.966797 0)"/>
      <use xlink:href="#DejaVuSans-6d" transform="translate(129.980469 0)"/>
      <use xlink:href="#DejaVuSans-29" transform="translate(227.392578 0)"/>
     </g>
    </g>
   </g>
  </g>
  <g id="axes_2">
   <g id="patch_8">
    <path d="M 71.75 382.180613 
L 853.2 382.180613 
L 853.2 259.007755 
L 71.75 259.007755 
z
" style="fill: #ffffff"/>
   </g>
   <g id="matplotlib.axis_3">
    <g id="xtick_6">
     <g id="line2d_27">
      <path d="M 103.99668 382.180613 
L 103.99668 259.007755 
" clip-path="url(#p04aa6e9e36)" style="fill: none; stroke: #b0b0b0; stroke-width: 0.8; stroke-linecap: square"/>
     </g>
     <g id="line2d_28">
      <g>
       <use xlink:href="#m54f2f92799" x="103.99668" y="382.180613" style="stroke: #000000; stroke-width: 0.8"/>
      </g>
     </g>
     <g id="text_16">
      <!-- 0 -->
      <g transform="translate(100.81543 396.77905) scale(0.1 -0.1)">
       <use xlink:href="#DejaVuSans-30"/>
      </g>
     </g>
    </g>
    <g id="xtick_7">
     <g id="line2d_29">
      <path d="M 267.685411 382.180613 
L 267.685411 259.007755 
" clip-path="url(#p04aa6e9e36)" style="fill: none; stroke: #b0b0b0; stroke-width: 0.8; stroke-linecap: square"/>
     </g>
     <g id="line2d_30">
      <g>
       <use xlink:href="#m54f2f92799" x="267.685411" y="382.180613" style="stroke: #000000; stroke-width: 0.8"/>
      </g>
     </g>
     <g id="text_17">
      <!-- 1 -->
      <g transform="translate(264.504161 396.77905) scale(0.1 -0.1)">
       <use xlink:href="#DejaVuSans-31"/>
      </g>
     </g>
    </g>
    <g id="xtick_8">
     <g id="line2d_31">
      <path d="M 431.374141 382.180613 
L 431.374141 259.007755 
" clip-path="url(#p04aa6e9e36)" style="fill: none; stroke: #b0b0b0; stroke-width: 0.8; stroke-linecap: square"/>
     </g>
     <g id="line2d_32">
      <g>
       <use xlink:href="#m54f2f92799" x="431.374141" y="382.180613" style="stroke: #000000; stroke-width: 0.8"/>
      </g>
     </g>
     <g id="text_18">
      <!-- 2 -->
      <g transform="translate(428.192891 396.77905) scale(0.1 -0.1)">
       <use xlink:href="#DejaVuSans-32"/>
      </g>
     </g>
    </g>
    <g id="xtick_9">
     <g id="line2d_33">
      <path d="M 595.062872 382.180613 
L 595.062872 259.007755 
" clip-path="url(#p04aa6e9e36)" style="fill: none; stroke: #b0b0b0; stroke-width: 0.8; stroke-linecap: square"/>
     </g>
     <g id="line2d_34">
      <g>
       <use xlink:href="#m54f2f92799" x="595.062872" y="382.180613" style="stroke: #000000; stroke-width: 0.8"/>
      </g>
     </g>
     <g id="text_19">
      <!-- 3 -->
      <g transform="translate(591.881622 396.77905) scale(0.1 -0.1)">
       <use xlink:href="#DejaVuSans-33"/>
      </g>
     </g>
    </g>
    <g id="xtick_10">
     <g id="line2d_35">
      <path d="M 758.751602 382.180613 
L 758.751602 259.007755 
" clip-path="url(#p04aa6e9e36)" style="fill: none; stroke: #b0b0b0; stroke-width: 0.8; stroke-linecap: square"/>
     </g>
     <g id="line2d_36">
      <g>
       <use xlink:href="#m54f2f92799" x="758.751602" y="382.180613" style="stroke: #000000; stroke-width: 0.8"/>
      </g>
     </g>
     <g id="text_20">
      <!-- 4 -->
      <g transform="translate(755.570352 396.77905) scale(0.1 -0.1)">
       <use xlink:href="#DejaVuSans-34"/>
      </g>
     </g>
    </g>
   </g>
   <g id="matplotlib.axis_4">
    <g id="ytick_7">
     <g id="line2d_37">
      <path d="M 71.75 367.507482 
L 853.2 367.507482 
" clip-path="url(#p04aa6e9e36)" style="fill: none; stroke: #b0b0b0; stroke-width: 0.8; stroke-linecap: square"/>
     </g>
     <g id="line2d_38">
      <g>
       <use xlink:href="#m0e94d0f32a" x="71.75" y="367.507482" style="stroke: #000000; stroke-width: 0.8"/>
      </g>
     </g>
     <g id="text_21">
      <!-- −1000 -->
      <g transform="translate(30.920313 371.306701) scale(0.1 -0.1)">
       <defs>
        <path id="DejaVuSans-2212" d="M 678 2272 
L 4684 2272 
L 4684 1741 
L 678 1741 
L 678 2272 
z
" transform="scale(0.015625)"/>
       </defs>
       <use xlink:href="#DejaVuSans-2212"/>
       <use xlink:href="#DejaVuSans-31" transform="translate(83.789062 0)"/>
       <use xlink:href="#DejaVuSans-30" transform="translate(147.412109 0)"/>
       <use xlink:href="#DejaVuSans-30" transform="translate(211.035156 0)"/>
       <use xlink:href="#DejaVuSans-30" transform="translate(274.658203 0)"/>
      </g>
     </g>
    </g>
    <g id="ytick_8">
     <g id="line2d_39">
      <path d="M 71.75 338.422982 
L 853.2 338.422982 
" clip-path="url(#p04aa6e9e36)" style="fill: none; stroke: #b0b0b0; stroke-width: 0.8; stroke-linecap: square"/>
     </g>
     <g id="line2d_40">
      <g>
       <use xlink:href="#m0e94d0f32a" x="71.75" y="338.422982" style="stroke: #000000; stroke-width: 0.8"/>
      </g>
     </g>
     <g id="text_22">
      <!-- −500 -->
      <g transform="translate(37.282812 342.222201) scale(0.1 -0.1)">
       <defs>
        <path id="DejaVuSans-35" d="M 691 4666 
L 3169 4666 
L 3169 4134 
L 1269 4134 
L 1269 2991 
Q 1406 3038 1543 3061 
Q 1681 3084 1819 3084 
Q 2600 3084 3056 2656 
Q 3513 2228 3513 1497 
Q 3513 744 3044 326 
Q 2575 -91 1722 -91 
Q 1428 -91 1123 -41 
Q 819 9 494 109 
L 494 744 
Q 775 591 1075 516 
Q 1375 441 1709 441 
Q 2250 441 2565 725 
Q 2881 1009 2881 1497 
Q 2881 1984 2565 2268 
Q 2250 2553 1709 2553 
Q 1456 2553 1204 2497 
Q 953 2441 691 2322 
L 691 4666 
z
" transform="scale(0.015625)"/>
       </defs>
       <use xlink:href="#DejaVuSans-2212"/>
       <use xlink:href="#DejaVuSans-35" transform="translate(83.789062 0)"/>
       <use xlink:href="#DejaVuSans-30" transform="translate(147.412109 0)"/>
       <use xlink:href="#DejaVuSans-30" transform="translate(211.035156 0)"/>
      </g>
     </g>
    </g>
    <g id="ytick_9">
     <g id="line2d_41">
      <path d="M 71.75 309.338482 
L 853.2 309.338482 
" clip-path="url(#p04aa6e9e36)" style="fill: none; stroke: #b0b0b0; stroke-width: 0.8; stroke-linecap: square"/>
     </g>
     <g id="line2d_42">
      <g>
       <use xlink:href="#m0e94d0f32a" x="71.75" y="309.338482" style="stroke: #000000; stroke-width: 0.8"/>
      </g>
     </g>
     <g id="text_23">
      <!-- 0 -->
      <g transform="translate(58.3875 313.137701) scale(0.1 -0.1)">
       <use xlink:href="#DejaVuSans-30"/>
      </g>
     </g>
    </g>
    <g id="ytick_10">
     <g id="line2d_43">
      <path d="M 71.75 280.253983 
L 853.2 280.253983 
" clip-path="url(#p04aa6e9e36)" style="fill: none; stroke: #b0b0b0; stroke-width: 0.8; stroke-linecap: square"/>
     </g>
     <g id="line2d_44">
      <g>
       <use xlink:href="#m0e94d0f32a" x="71.75" y="280.253983" style="stroke: #000000; stroke-width: 0.8"/>
      </g>
     </g>
     <g id="text_24">
      <!-- 500 -->
      <g transform="translate(45.6625 284.053201) scale(0.1 -0.1)">
       <use xlink:href="#DejaVuSans-35"/>
       <use xlink:href="#DejaVuSans-30" transform="translate(63.623047 0)"/>
       <use xlink:href="#DejaVuSans-30" transform="translate(127.246094 0)"/>
      </g>
     </g>
    </g>
    <g id="text_25">
     <!-- v -->
     <g transform="translate(24.840625 323.553559) rotate(-90) scale(0.1 -0.1)">
      <defs>
       <path id="DejaVuSans-76" d="M 191 3500 
L 800 3500 
L 1894 563 
L 2988 3500 
L 3597 3500 
L 2284 0 
L 1503 0 
L 191 3500 
z
" transform="scale(0.015625)"/>
      </defs>
      <use xlink:href="#DejaVuSans-76"/>
     </g>
    </g>
   </g>
   <g id="line2d_45">
    <path d="M 107.270455 309.862003 
L 110.544229 309.600243 
L 113.818004 308.844046 
L 117.091778 310.414609 
L 123.639328 308.524116 
L 126.913102 309.978341 
L 133.460651 308.902215 
L 136.734426 309.745665 
L 140.008201 308.844046 
L 143.281975 309.77475 
L 149.829525 309.163975 
L 153.103299 309.600243 
L 156.377074 308.931299 
L 159.650848 309.832919 
L 162.924623 310.181933 
L 166.198398 310.181933 
L 169.472172 309.19306 
L 172.745947 309.367567 
L 176.019721 309.251229 
L 179.293496 309.309398 
L 182.567271 309.862003 
L 185.841045 309.367567 
L 189.11482 308.727708 
L 192.388594 309.862003 
L 195.662369 309.396651 
L 198.936144 308.669539 
L 202.209918 309.949257 
L 205.483693 308.640454 
L 208.757468 309.920172 
L 212.031242 309.45482 
L 215.305017 308.727708 
L 218.578791 309.832919 
L 221.852566 309.45482 
L 225.126341 308.698623 
L 228.400115 309.920172 
L 231.67389 309.45482 
L 234.947664 308.582285 
L 238.221439 309.920172 
L 241.495214 309.512989 
L 244.768988 308.582285 
L 248.042763 309.920172 
L 251.316537 309.45482 
L 254.590312 308.727708 
L 257.864087 309.77475 
L 261.137861 309.338482 
L 264.411636 309.571158 
L 267.685411 309.396651 
L 270.959185 309.687496 
L 274.23296 310.414609 
L 277.506734 310.298271 
L 280.780509 309.978341 
L 284.054284 310.298271 
L 287.328058 311.258059 
L 293.875607 310.821792 
L 300.423157 311.287144 
L 303.696931 312.014256 
L 306.970706 311.868834 
L 310.244481 312.217848 
L 313.518255 312.246932 
L 316.79203 312.6832 
L 320.065804 312.974045 
L 323.339579 313.061298 
L 326.613354 313.003129 
L 329.887128 314.166509 
L 333.160903 313.293974 
L 336.434677 314.457354 
L 339.708452 314.370101 
L 342.982227 314.631861 
L 346.256001 315.039044 
L 349.529776 315.097213 
L 352.80355 315.737072 
L 356.077325 315.358974 
L 359.3511 315.300805 
L 362.624874 314.777284 
L 365.898649 319.256297 
L 369.172424 302.183695 
L 372.446198 376.581846 
L 375.719973 264.606522 
L 378.993747 313.061298 
L 382.267522 314.806368 
L 392.088846 314.544608 
L 395.36262 314.399185 
L 398.636395 314.42827 
L 411.731494 314.021087 
L 415.005268 313.992002 
L 418.279043 313.788411 
L 421.552817 313.788411 
L 437.92169 313.26489 
L 447.743014 313.003129 
L 487.02831 311.927003 
L 490.302084 311.752496 
L 509.944732 311.374397 
L 513.218506 311.19989 
L 519.766056 310.996299 
L 532.861154 310.647285 
L 536.134929 310.443693 
L 539.408703 310.501862 
L 545.956253 310.35644 
L 549.230027 310.35644 
L 552.503802 310.181933 
L 562.325126 310.03651 
L 578.693999 309.571158 
L 581.967773 309.629327 
L 585.241548 309.425736 
L 588.515323 309.45482 
L 591.789097 309.280313 
L 595.062872 309.396651 
L 601.610421 309.280313 
L 608.15797 309.338482 
L 817.679545 309.338482 
L 817.679545 309.338482 
" clip-path="url(#p04aa6e9e36)" style="fill: none; stroke: #008000; stroke-width: 1.5; stroke-linecap: square"/>
   </g>
   <g id="line2d_46">
    <path d="M 372.446198 382.180613 
L 372.446198 259.007755 
" clip-path="url(#p04aa6e9e36)" style="fill: none; stroke-dasharray: 5.55,2.4; stroke-dashoffset: 0; stroke: #ff0000; stroke-opacity: 0.5; stroke-width: 1.5"/>
   </g>
   <g id="line2d_47">
    <path d="M 604.884196 382.180613 
L 604.884196 259.007755 
" clip-path="url(#p04aa6e9e36)" style="fill: none; stroke-dasharray: 1.5,2.475; stroke-dashoffset: 0; stroke: #bf00bf; stroke-opacity: 0.7; stroke-width: 1.5"/>
   </g>
   <g id="patch_9">
    <path d="M 71.75 382.180613 
L 71.75 259.007755 
" style="fill: none; stroke: #000000; stroke-width: 0.8; stroke-linejoin: miter; stroke-linecap: square"/>
   </g>
   <g id="patch_10">
    <path d="M 853.2 382.180613 
L 853.2 259.007755 
" style="fill: none; stroke: #000000; stroke-width: 0.8; stroke-linejoin: miter; stroke-linecap: square"/>
   </g>
   <g id="patch_11">
    <path d="M 71.75 382.180613 
L 853.2 382.180613 
" style="fill: none; stroke: #000000; stroke-width: 0.8; stroke-linejoin: miter; stroke-linecap: square"/>
   </g>
   <g id="patch_12">
    <path d="M 71.75 259.007755 
L 853.2 259.007755 
" style="fill: none; stroke: #000000; stroke-width: 0.8; stroke-linejoin: miter; stroke-linecap: square"/>
   </g>
   <g id="legend_2">
    <g id="patch_13">
     <path d="M 778.98125 281.68588 
L 846.2 281.68588 
Q 848.2 281.68588 848.2 279.68588 
L 848.2 266.007755 
Q 848.2 264.007755 846.2 264.007755 
L 778.98125 264.007755 
Q 776.98125 264.007755 776.98125 266.007755 
L 776.98125 279.68588 
Q 776.98125 281.68588 778.98125 281.68588 
z
" style="fill: #ffffff; opacity: 0.8; stroke: #cccccc; stroke-linejoin: miter"/>
    </g>
    <g id="line2d_48">
     <path d="M 780.98125 272.106193 
L 790.98125 272.106193 
L 800.98125 272.106193 
" style="fill: none; stroke: #008000; stroke-width: 1.5; stroke-linecap: square"/>
    </g>
    <g id="text_26">
     <!-- v (m/s) -->
     <g transform="translate(808.98125 275.606193) scale(0.1 -0.1)">
      <defs>
       <path id="DejaVuSans-2f" d="M 1625 4666 
L 2156 4666 
L 531 -594 
L 0 -594 
L 1625 4666 
z
" transform="scale(0.015625)"/>
      </defs>
      <use xlink:href="#DejaVuSans-76"/>
      <use xlink:href="#DejaVuSans-20" transform="translate(59.179688 0)"/>
      <use xlink:href="#DejaVuSans-28" transform="translate(90.966797 0)"/>
      <use xlink:href="#DejaVuSans-6d" transform="translate(129.980469 0)"/>
      <use xlink:href="#DejaVuSans-2f" transform="translate(227.392578 0)"/>
      <use xlink:href="#DejaVuSans-73" transform="translate(261.083984 0)"/>
      <use xlink:href="#DejaVuSans-29" transform="translate(313.183594 0)"/>
     </g>
    </g>
   </g>
  </g>
  <g id="axes_3">
   <g id="patch_14">
    <path d="M 71.75 534.04 
L 853.2 534.04 
L 853.2 410.867143 
L 71.75 410.867143 
z
" style="fill: #ffffff"/>
   </g>
   <g id="matplotlib.axis_5">
    <g id="xtick_11">
     <g id="line2d_49">
      <path d="M 100.692593 534.04 
L 100.692593 410.867143 
" clip-path="url(#p26b27d9152)" style="fill: none; stroke: #b0b0b0; stroke-width: 0.8; stroke-linecap: square"/>
     </g>
     <g id="line2d_50">
      <g>
       <use xlink:href="#m54f2f92799" x="100.692593" y="534.04" style="stroke: #000000; stroke-width: 0.8"/>
      </g>
     </g>
     <g id="text_27">
      <!-- 0 -->
      <g transform="translate(97.511343 548.638438) scale(0.1 -0.1)">
       <use xlink:href="#DejaVuSans-30"/>
      </g>
     </g>
    </g>
    <g id="xtick_12">
     <g id="line2d_51">
      <path d="M 265.139141 534.04 
L 265.139141 410.867143 
" clip-path="url(#p26b27d9152)" style="fill: none; stroke: #b0b0b0; stroke-width: 0.8; stroke-linecap: square"/>
     </g>
     <g id="line2d_52">
      <g>
       <use xlink:href="#m54f2f92799" x="265.139141" y="534.04" style="stroke: #000000; stroke-width: 0.8"/>
      </g>
     </g>
     <g id="text_28">
      <!-- 1 -->
      <g transform="translate(261.957891 548.638438) scale(0.1 -0.1)">
       <use xlink:href="#DejaVuSans-31"/>
      </g>
     </g>
    </g>
    <g id="xtick_13">
     <g id="line2d_53">
      <path d="M 429.58569 534.04 
L 429.58569 410.867143 
" clip-path="url(#p26b27d9152)" style="fill: none; stroke: #b0b0b0; stroke-width: 0.8; stroke-linecap: square"/>
     </g>
     <g id="line2d_54">
      <g>
       <use xlink:href="#m54f2f92799" x="429.58569" y="534.04" style="stroke: #000000; stroke-width: 0.8"/>
      </g>
     </g>
     <g id="text_29">
      <!-- 2 -->
      <g transform="translate(426.40444 548.638438) scale(0.1 -0.1)">
       <use xlink:href="#DejaVuSans-32"/>
      </g>
     </g>
    </g>
    <g id="xtick_14">
     <g id="line2d_55">
      <path d="M 594.032239 534.04 
L 594.032239 410.867143 
" clip-path="url(#p26b27d9152)" style="fill: none; stroke: #b0b0b0; stroke-width: 0.8; stroke-linecap: square"/>
     </g>
     <g id="line2d_56">
      <g>
       <use xlink:href="#m54f2f92799" x="594.032239" y="534.04" style="stroke: #000000; stroke-width: 0.8"/>
      </g>
     </g>
     <g id="text_30">
      <!-- 3 -->
      <g transform="translate(590.850989 548.638438) scale(0.1 -0.1)">
       <use xlink:href="#DejaVuSans-33"/>
      </g>
     </g>
    </g>
    <g id="xtick_15">
     <g id="line2d_57">
      <path d="M 758.478788 534.04 
L 758.478788 410.867143 
" clip-path="url(#p26b27d9152)" style="fill: none; stroke: #b0b0b0; stroke-width: 0.8; stroke-linecap: square"/>
     </g>
     <g id="line2d_58">
      <g>
       <use xlink:href="#m54f2f92799" x="758.478788" y="534.04" style="stroke: #000000; stroke-width: 0.8"/>
      </g>
     </g>
     <g id="text_31">
      <!-- 4 -->
      <g transform="translate(755.297538 548.638438) scale(0.1 -0.1)">
       <use xlink:href="#DejaVuSans-34"/>
      </g>
     </g>
    </g>
    <g id="text_32">
     <!-- t -->
     <g transform="translate(460.514844 562.316562) scale(0.1 -0.1)">
      <defs>
       <path id="DejaVuSans-74" d="M 1172 4494 
L 1172 3500 
L 2356 3500 
L 2356 3053 
L 1172 3053 
L 1172 1153 
Q 1172 725 1289 603 
Q 1406 481 1766 481 
L 2356 481 
L 2356 0 
L 1766 0 
Q 1100 0 847 248 
Q 594 497 594 1153 
L 594 3053 
L 172 3053 
L 172 3500 
L 594 3500 
L 594 4494 
L 1172 4494 
z
" transform="scale(0.015625)"/>
      </defs>
      <use xlink:href="#DejaVuSans-74"/>
     </g>
    </g>
   </g>
   <g id="matplotlib.axis_6">
    <g id="ytick_11">
     <g id="line2d_59">
      <path d="M 71.75 518.690573 
L 853.2 518.690573 
" clip-path="url(#p26b27d9152)" style="fill: none; stroke: #b0b0b0; stroke-width: 0.8; stroke-linecap: square"/>
     </g>
     <g id="line2d_60">
      <g>
       <use xlink:href="#m0e94d0f32a" x="71.75" y="518.690573" style="stroke: #000000; stroke-width: 0.8"/>
      </g>
     </g>
     <g id="text_33">
      <!-- −50000 -->
      <g transform="translate(24.557812 522.489792) scale(0.1 -0.1)">
       <use xlink:href="#DejaVuSans-2212"/>
       <use xlink:href="#DejaVuSans-35" transform="translate(83.789062 0)"/>
       <use xlink:href="#DejaVuSans-30" transform="translate(147.412109 0)"/>
       <use xlink:href="#DejaVuSans-30" transform="translate(211.035156 0)"/>
       <use xlink:href="#DejaVuSans-30" transform="translate(274.658203 0)"/>
       <use xlink:href="#DejaVuSans-30" transform="translate(338.28125 0)"/>
      </g>
     </g>
    </g>
    <g id="ytick_12">
     <g id="line2d_61">
      <path d="M 71.75 483.74197 
L 853.2 483.74197 
" clip-path="url(#p26b27d9152)" style="fill: none; stroke: #b0b0b0; stroke-width: 0.8; stroke-linecap: square"/>
     </g>
     <g id="line2d_62">
      <g>
       <use xlink:href="#m0e94d0f32a" x="71.75" y="483.74197" style="stroke: #000000; stroke-width: 0.8"/>
      </g>
     </g>
     <g id="text_34">
      <!-- 0 -->
      <g transform="translate(58.3875 487.541189) scale(0.1 -0.1)">
       <use xlink:href="#DejaVuSans-30"/>
      </g>
     </g>
    </g>
    <g id="ytick_13">
     <g id="line2d_63">
      <path d="M 71.75 448.793367 
L 853.2 448.793367 
" clip-path="url(#p26b27d9152)" style="fill: none; stroke: #b0b0b0; stroke-width: 0.8; stroke-linecap: square"/>
     </g>
     <g id="line2d_64">
      <g>
       <use xlink:href="#m0e94d0f32a" x="71.75" y="448.793367" style="stroke: #000000; stroke-width: 0.8"/>
      </g>
     </g>
     <g id="text_35">
      <!-- 50000 -->
      <g transform="translate(32.9375 452.592586) scale(0.1 -0.1)">
       <use xlink:href="#DejaVuSans-35"/>
       <use xlink:href="#DejaVuSans-30" transform="translate(63.623047 0)"/>
       <use xlink:href="#DejaVuSans-30" transform="translate(127.246094 0)"/>
       <use xlink:href="#DejaVuSans-30" transform="translate(190.869141 0)"/>
       <use xlink:href="#DejaVuSans-30" transform="translate(254.492188 0)"/>
      </g>
     </g>
    </g>
    <g id="ytick_14">
     <g id="line2d_65">
      <path d="M 71.75 413.844764 
L 853.2 413.844764 
" clip-path="url(#p26b27d9152)" style="fill: none; stroke: #b0b0b0; stroke-width: 0.8; stroke-linecap: square"/>
     </g>
     <g id="line2d_66">
      <g>
       <use xlink:href="#m0e94d0f32a" x="71.75" y="413.844764" style="stroke: #000000; stroke-width: 0.8"/>
      </g>
     </g>
     <g id="text_36">
      <!-- 100000 -->
      <g transform="translate(26.575 417.643982) scale(0.1 -0.1)">
       <use xlink:href="#DejaVuSans-31"/>
       <use xlink:href="#DejaVuSans-30" transform="translate(63.623047 0)"/>
       <use xlink:href="#DejaVuSans-30" transform="translate(127.246094 0)"/>
       <use xlink:href="#DejaVuSans-30" transform="translate(190.869141 0)"/>
       <use xlink:href="#DejaVuSans-30" transform="translate(254.492188 0)"/>
       <use xlink:href="#DejaVuSans-30" transform="translate(318.115234 0)"/>
      </g>
     </g>
    </g>
    <g id="text_37">
     <!-- a -->
     <g transform="translate(18.478125 475.517634) rotate(-90) scale(0.1 -0.1)">
      <use xlink:href="#DejaVuSans-61"/>
     </g>
    </g>
   </g>
   <g id="line2d_67">
    <path d="M 107.270455 483.584701 
L 110.559386 483.287638 
L 113.848316 484.685582 
L 117.137247 483.182793 
L 120.426178 483.165318 
L 123.715109 484.615685 
L 127.00404 483.392484 
L 130.292971 483.444907 
L 133.581902 484.248725 
L 136.870833 483.200267 
L 140.159764 484.301148 
L 143.448695 483.532279 
L 146.737626 483.584701 
L 150.026557 484.004085 
L 153.315488 483.340061 
L 156.604419 484.283674 
L 159.89335 483.951662 
L 163.182281 483.74197 
L 166.471212 483.147844 
L 169.760143 483.846816 
L 173.049074 483.672073 
L 176.338005 483.776919 
L 179.626936 484.073982 
L 182.915867 483.444907 
L 186.204798 483.357536 
L 189.493729 484.423468 
L 192.78266 483.462381 
L 196.071591 483.305113 
L 199.360522 484.510839 
L 202.649453 482.955627 
L 205.938384 484.510839 
L 209.227315 483.462381 
L 212.516246 483.305113 
L 215.805177 484.405994 
L 219.094108 483.514804 
L 222.383039 483.287638 
L 225.67197 484.475891 
L 228.960901 483.462381 
L 232.249832 483.217741 
L 235.538763 484.545788 
L 238.827694 483.49733 
L 242.116625 483.182793 
L 245.405556 484.545788 
L 248.694487 483.462381 
L 251.983418 483.305113 
L 255.272348 484.371045 
L 258.561279 483.479856 
L 261.85021 483.881765 
L 265.139141 483.637124 
L 271.717003 484.178828 
L 275.005934 483.672073 
L 278.294865 483.549753 
L 284.872727 484.318622 
L 288.161658 483.584701 
L 291.450589 483.637124 
L 294.73952 483.899239 
L 298.028451 483.86429 
L 301.317382 484.178828 
L 304.606313 483.654599 
L 307.895244 483.951662 
L 311.184175 483.759444 
L 314.473106 484.004085 
L 324.339899 483.707022 
L 327.62883 484.440942 
L 330.917761 483.217741 
L 334.206692 484.440942 
L 337.495623 483.689547 
L 340.784554 483.899239 
L 344.073485 483.98661 
L 347.362416 483.776919 
L 350.651347 484.126405 
L 353.940278 483.514804 
L 357.229209 483.707022 
L 360.51814 483.427433 
L 363.807071 486.433013 
L 367.096002 473.484555 
L 370.384933 528.441234 
L 373.673864 416.465909 
L 376.962795 512.854157 
L 380.251726 484.790428 
L 383.540657 483.707022 
L 393.407449 483.654599 
L 396.69638 483.759444 
L 403.274242 483.689547 
L 406.563173 483.637124 
L 413.141035 483.724496 
L 416.429966 483.61965 
L 419.718897 483.74197 
L 426.296759 483.637124 
L 432.874621 483.707022 
L 442.741414 483.654599 
L 449.319276 483.689547 
L 465.763931 483.672073 
L 472.341793 483.672073 
L 485.497517 483.689547 
L 488.786448 483.637124 
L 495.36431 483.689547 
L 508.520034 483.724496 
L 511.808965 483.637124 
L 515.097896 483.707022 
L 521.675758 483.689547 
L 531.542551 483.672073 
L 534.831481 483.61965 
L 538.120412 483.776919 
L 541.409343 483.672073 
L 547.987205 483.74197 
L 551.276136 483.637124 
L 557.853998 483.707022 
L 817.679545 483.74197 
L 817.679545 483.74197 
" clip-path="url(#p26b27d9152)" style="fill: none; stroke: #ff0000; stroke-width: 1.5; stroke-linecap: square"/>
   </g>
   <g id="line2d_68">
    <path d="M 370.384933 534.04 
L 370.384933 410.867143 
" clip-path="url(#p26b27d9152)" style="fill: none; stroke-dasharray: 5.55,2.4; stroke-dashoffset: 0; stroke: #ff0000; stroke-opacity: 0.5; stroke-width: 1.5"/>
   </g>
   <g id="line2d_69">
    <path d="M 603.899032 534.04 
L 603.899032 410.867143 
" clip-path="url(#p26b27d9152)" style="fill: none; stroke-dasharray: 5.55,2.4; stroke-dashoffset: 0; stroke: #bf00bf; stroke-opacity: 0.7; stroke-width: 1.5"/>
   </g>
   <g id="patch_15">
    <path d="M 71.75 534.04 
L 71.75 410.867143 
" style="fill: none; stroke: #000000; stroke-width: 0.8; stroke-linejoin: miter; stroke-linecap: square"/>
   </g>
   <g id="patch_16">
    <path d="M 853.2 534.04 
L 853.2 410.867143 
" style="fill: none; stroke: #000000; stroke-width: 0.8; stroke-linejoin: miter; stroke-linecap: square"/>
   </g>
   <g id="patch_17">
    <path d="M 71.75 534.04 
L 853.2 534.04 
" style="fill: none; stroke: #000000; stroke-width: 0.8; stroke-linejoin: miter; stroke-linecap: square"/>
   </g>
   <g id="patch_18">
    <path d="M 71.75 410.867143 
L 853.2 410.867143 
" style="fill: none; stroke: #000000; stroke-width: 0.8; stroke-linejoin: miter; stroke-linecap: square"/>
   </g>
   <g id="legend_3">
    <g id="patch_19">
     <path d="M 764.029688 433.545268 
L 846.2 433.545268 
Q 848.2 433.545268 848.2 431.545268 
L 848.2 417.867143 
Q 848.2 415.867143 846.2 415.867143 
L 764.029688 415.867143 
Q 762.029688 415.867143 762.029688 417.867143 
L 762.029688 431.545268 
Q 762.029688 433.545268 764.029688 433.545268 
z
" style="fill: #ffffff; opacity: 0.8; stroke: #cccccc; stroke-linejoin: miter"/>
    </g>
    <g id="line2d_70">
     <path d="M 766.029688 423.96558 
L 776.029688 423.96558 
L 786.029688 423.96558 
" style="fill: none; stroke: #ff0000; stroke-width: 1.5; stroke-linecap: square"/>
    </g>
    <g id="text_38">
     <!-- a (m/s^2) -->
     <g transform="translate(794.029688 427.46558) scale(0.1 -0.1)">
      <defs>
       <path id="DejaVuSans-5e" d="M 2988 4666 
L 4684 2925 
L 4056 2925 
L 2681 4159 
L 1306 2925 
L 678 2925 
L 2375 4666 
L 2988 4666 
z
" transform="scale(0.015625)"/>
      </defs>
      <use xlink:href="#DejaVuSans-61"/>
      <use xlink:href="#DejaVuSans-20" transform="translate(61.279297 0)"/>
      <use xlink:href="#DejaVuSans-28" transform="translate(93.066406 0)"/>
      <use xlink:href="#DejaVuSans-6d" transform="translate(132.080078 0)"/>
      <use xlink:href="#DejaVuSans-2f" transform="translate(229.492188 0)"/>
      <use xlink:href="#DejaVuSans-73" transform="translate(263.183594 0)"/>
      <use xlink:href="#DejaVuSans-5e" transform="translate(315.283203 0)"/>
      <use xlink:href="#DejaVuSans-32" transform="translate(399.072266 0)"/>
      <use xlink:href="#DejaVuSans-29" transform="translate(462.695312 0)"/>
     </g>
    </g>
   </g>
  </g>
  <g id="text_39">
   <!-- Position, Velocity, and Acceleration of Cart Using Sonar run 1# Data -->
   <g transform="translate(227.715937 11.998125) scale(0.12 -0.12)">
    <defs>
     <path id="DejaVuSans-50" d="M 1259 4147 
L 1259 2394 
L 2053 2394 
Q 2494 2394 2734 2622 
Q 2975 2850 2975 3272 
Q 2975 3691 2734 3919 
Q 2494 4147 2053 4147 
L 1259 4147 
z
M 628 4666 
L 2053 4666 
Q 2838 4666 3239 4311 
Q 3641 3956 3641 3272 
Q 3641 2581 3239 2228 
Q 2838 1875 2053 1875 
L 1259 1875 
L 1259 0 
L 628 0 
L 628 4666 
z
" transform="scale(0.015625)"/>
     <path id="DejaVuSans-6f" d="M 1959 3097 
Q 1497 3097 1228 2736 
Q 959 2375 959 1747 
Q 959 1119 1226 758 
Q 1494 397 1959 397 
Q 2419 397 2687 759 
Q 2956 1122 2956 1747 
Q 2956 2369 2687 2733 
Q 2419 3097 1959 3097 
z
M 1959 3584 
Q 2709 3584 3137 3096 
Q 3566 2609 3566 1747 
Q 3566 888 3137 398 
Q 2709 -91 1959 -91 
Q 1206 -91 779 398 
Q 353 888 353 1747 
Q 353 2609 779 3096 
Q 1206 3584 1959 3584 
z
" transform="scale(0.015625)"/>
     <path id="DejaVuSans-69" d="M 603 3500 
L 1178 3500 
L 1178 0 
L 603 0 
L 603 3500 
z
M 603 4863 
L 1178 4863 
L 1178 4134 
L 603 4134 
L 603 4863 
z
" transform="scale(0.015625)"/>
     <path id="DejaVuSans-6e" d="M 3513 2113 
L 3513 0 
L 2938 0 
L 2938 2094 
Q 2938 2591 2744 2837 
Q 2550 3084 2163 3084 
Q 1697 3084 1428 2787 
Q 1159 2491 1159 1978 
L 1159 0 
L 581 0 
L 581 3500 
L 1159 3500 
L 1159 2956 
Q 1366 3272 1645 3428 
Q 1925 3584 2291 3584 
Q 2894 3584 3203 3211 
Q 3513 2838 3513 2113 
z
" transform="scale(0.015625)"/>
     <path id="DejaVuSans-56" d="M 1831 0 
L 50 4666 
L 709 4666 
L 2188 738 
L 3669 4666 
L 4325 4666 
L 2547 0 
L 1831 0 
z
" transform="scale(0.015625)"/>
     <path id="DejaVuSans-65" d="M 3597 1894 
L 3597 1613 
L 953 1613 
Q 991 1019 1311 708 
Q 1631 397 2203 397 
Q 2534 397 2845 478 
Q 3156 559 3463 722 
L 3463 178 
Q 3153 47 2828 -22 
Q 2503 -91 2169 -91 
Q 1331 -91 842 396 
Q 353 884 353 1716 
Q 353 2575 817 3079 
Q 1281 3584 2069 3584 
Q 2775 3584 3186 3129 
Q 3597 2675 3597 1894 
z
M 3022 2063 
Q 3016 2534 2758 2815 
Q 2500 3097 2075 3097 
Q 1594 3097 1305 2825 
Q 1016 2553 972 2059 
L 3022 2063 
z
" transform="scale(0.015625)"/>
     <path id="DejaVuSans-6c" d="M 603 4863 
L 1178 4863 
L 1178 0 
L 603 0 
L 603 4863 
z
" transform="scale(0.015625)"/>
     <path id="DejaVuSans-63" d="M 3122 3366 
L 3122 2828 
Q 2878 2963 2633 3030 
Q 2388 3097 2138 3097 
Q 1578 3097 1268 2742 
Q 959 2388 959 1747 
Q 959 1106 1268 751 
Q 1578 397 2138 397 
Q 2388 397 2633 464 
Q 2878 531 3122 666 
L 3122 134 
Q 2881 22 2623 -34 
Q 2366 -91 2075 -91 
Q 1284 -91 818 406 
Q 353 903 353 1747 
Q 353 2603 823 3093 
Q 1294 3584 2113 3584 
Q 2378 3584 2631 3529 
Q 2884 3475 3122 3366 
z
" transform="scale(0.015625)"/>
     <path id="DejaVuSans-79" d="M 2059 -325 
Q 1816 -950 1584 -1140 
Q 1353 -1331 966 -1331 
L 506 -1331 
L 506 -850 
L 844 -850 
Q 1081 -850 1212 -737 
Q 1344 -625 1503 -206 
L 1606 56 
L 191 3500 
L 800 3500 
L 1894 763 
L 2988 3500 
L 3597 3500 
L 2059 -325 
z
" transform="scale(0.015625)"/>
     <path id="DejaVuSans-64" d="M 2906 2969 
L 2906 4863 
L 3481 4863 
L 3481 0 
L 2906 0 
L 2906 525 
Q 2725 213 2448 61 
Q 2172 -91 1784 -91 
Q 1150 -91 751 415 
Q 353 922 353 1747 
Q 353 2572 751 3078 
Q 1150 3584 1784 3584 
Q 2172 3584 2448 3432 
Q 2725 3281 2906 2969 
z
M 947 1747 
Q 947 1113 1208 752 
Q 1469 391 1925 391 
Q 2381 391 2643 752 
Q 2906 1113 2906 1747 
Q 2906 2381 2643 2742 
Q 2381 3103 1925 3103 
Q 1469 3103 1208 2742 
Q 947 2381 947 1747 
z
" transform="scale(0.015625)"/>
     <path id="DejaVuSans-41" d="M 2188 4044 
L 1331 1722 
L 3047 1722 
L 2188 4044 
z
M 1831 4666 
L 2547 4666 
L 4325 0 
L 3669 0 
L 3244 1197 
L 1141 1197 
L 716 0 
L 50 0 
L 1831 4666 
z
" transform="scale(0.015625)"/>
     <path id="DejaVuSans-72" d="M 2631 2963 
Q 2534 3019 2420 3045 
Q 2306 3072 2169 3072 
Q 1681 3072 1420 2755 
Q 1159 2438 1159 1844 
L 1159 0 
L 581 0 
L 581 3500 
L 1159 3500 
L 1159 2956 
Q 1341 3275 1631 3429 
Q 1922 3584 2338 3584 
Q 2397 3584 2469 3576 
Q 2541 3569 2628 3553 
L 2631 2963 
z
" transform="scale(0.015625)"/>
     <path id="DejaVuSans-66" d="M 2375 4863 
L 2375 4384 
L 1825 4384 
Q 1516 4384 1395 4259 
Q 1275 4134 1275 3809 
L 1275 3500 
L 2222 3500 
L 2222 3053 
L 1275 3053 
L 1275 0 
L 697 0 
L 697 3053 
L 147 3053 
L 147 3500 
L 697 3500 
L 697 3744 
Q 697 4328 969 4595 
Q 1241 4863 1831 4863 
L 2375 4863 
z
" transform="scale(0.015625)"/>
     <path id="DejaVuSans-43" d="M 4122 4306 
L 4122 3641 
Q 3803 3938 3442 4084 
Q 3081 4231 2675 4231 
Q 1875 4231 1450 3742 
Q 1025 3253 1025 2328 
Q 1025 1406 1450 917 
Q 1875 428 2675 428 
Q 3081 428 3442 575 
Q 3803 722 4122 1019 
L 4122 359 
Q 3791 134 3420 21 
Q 3050 -91 2638 -91 
Q 1578 -91 968 557 
Q 359 1206 359 2328 
Q 359 3453 968 4101 
Q 1578 4750 2638 4750 
Q 3056 4750 3426 4639 
Q 3797 4528 4122 4306 
z
" transform="scale(0.015625)"/>
     <path id="DejaVuSans-55" d="M 556 4666 
L 1191 4666 
L 1191 1831 
Q 1191 1081 1462 751 
Q 1734 422 2344 422 
Q 2950 422 3222 751 
Q 3494 1081 3494 1831 
L 3494 4666 
L 4128 4666 
L 4128 1753 
Q 4128 841 3676 375 
Q 3225 -91 2344 -91 
Q 1459 -91 1007 375 
Q 556 841 556 1753 
L 556 4666 
z
" transform="scale(0.015625)"/>
     <path id="DejaVuSans-67" d="M 2906 1791 
Q 2906 2416 2648 2759 
Q 2391 3103 1925 3103 
Q 1463 3103 1205 2759 
Q 947 2416 947 1791 
Q 947 1169 1205 825 
Q 1463 481 1925 481 
Q 2391 481 2648 825 
Q 2906 1169 2906 1791 
z
M 3481 434 
Q 3481 -459 3084 -895 
Q 2688 -1331 1869 -1331 
Q 1566 -1331 1297 -1286 
Q 1028 -1241 775 -1147 
L 775 -588 
Q 1028 -725 1275 -790 
Q 1522 -856 1778 -856 
Q 2344 -856 2625 -561 
Q 2906 -266 2906 331 
L 2906 616 
Q 2728 306 2450 153 
Q 2172 0 1784 0 
Q 1141 0 747 490 
Q 353 981 353 1791 
Q 353 2603 747 3093 
Q 1141 3584 1784 3584 
Q 2172 3584 2450 3431 
Q 2728 3278 2906 2969 
L 2906 3500 
L 3481 3500 
L 3481 434 
z
" transform="scale(0.015625)"/>
     <path id="DejaVuSans-53" d="M 3425 4513 
L 3425 3897 
Q 3066 4069 2747 4153 
Q 2428 4238 2131 4238 
Q 1616 4238 1336 4038 
Q 1056 3838 1056 3469 
Q 1056 3159 1242 3001 
Q 1428 2844 1947 2747 
L 2328 2669 
Q 3034 2534 3370 2195 
Q 3706 1856 3706 1288 
Q 3706 609 3251 259 
Q 2797 -91 1919 -91 
Q 1588 -91 1214 -16 
Q 841 59 441 206 
L 441 856 
Q 825 641 1194 531 
Q 1563 422 1919 422 
Q 2459 422 2753 634 
Q 3047 847 3047 1241 
Q 3047 1584 2836 1778 
Q 2625 1972 2144 2069 
L 1759 2144 
Q 1053 2284 737 2584 
Q 422 2884 422 3419 
Q 422 4038 858 4394 
Q 1294 4750 2059 4750 
Q 2388 4750 2728 4690 
Q 3069 4631 3425 4513 
z
" transform="scale(0.015625)"/>
     <path id="DejaVuSans-75" d="M 544 1381 
L 544 3500 
L 1119 3500 
L 1119 1403 
Q 1119 906 1312 657 
Q 1506 409 1894 409 
Q 2359 409 2629 706 
Q 2900 1003 2900 1516 
L 2900 3500 
L 3475 3500 
L 3475 0 
L 2900 0 
L 2900 538 
Q 2691 219 2414 64 
Q 2138 -91 1772 -91 
Q 1169 -91 856 284 
Q 544 659 544 1381 
z
M 1991 3584 
L 1991 3584 
z
" transform="scale(0.015625)"/>
     <path id="DejaVuSans-23" d="M 3272 2816 
L 2363 2816 
L 2100 1772 
L 3016 1772 
L 3272 2816 
z
M 2803 4594 
L 2478 3297 
L 3391 3297 
L 3719 4594 
L 4219 4594 
L 3897 3297 
L 4872 3297 
L 4872 2816 
L 3775 2816 
L 3519 1772 
L 4513 1772 
L 4513 1294 
L 3397 1294 
L 3072 0 
L 2572 0 
L 2894 1294 
L 1978 1294 
L 1656 0 
L 1153 0 
L 1478 1294 
L 494 1294 
L 494 1772 
L 1594 1772 
L 1856 2816 
L 850 2816 
L 850 3297 
L 1978 3297 
L 2297 4594 
L 2803 4594 
z
" transform="scale(0.015625)"/>
     <path id="DejaVuSans-44" d="M 1259 4147 
L 1259 519 
L 2022 519 
Q 2988 519 3436 956 
Q 3884 1394 3884 2338 
Q 3884 3275 3436 3711 
Q 2988 4147 2022 4147 
L 1259 4147 
z
M 628 4666 
L 1925 4666 
Q 3281 4666 3915 4102 
Q 4550 3538 4550 2338 
Q 4550 1131 3912 565 
Q 3275 0 1925 0 
L 628 0 
L 628 4666 
z
" transform="scale(0.015625)"/>
    </defs>
    <use xlink:href="#DejaVuSans-50"/>
    <use xlink:href="#DejaVuSans-6f" transform="translate(56.677734 0)"/>
    <use xlink:href="#DejaVuSans-73" transform="translate(117.859375 0)"/>
    <use xlink:href="#DejaVuSans-69" transform="translate(169.958984 0)"/>
    <use xlink:href="#DejaVuSans-74" transform="translate(197.742188 0)"/>
    <use xlink:href="#DejaVuSans-69" transform="translate(236.951172 0)"/>
    <use xlink:href="#DejaVuSans-6f" transform="translate(264.734375 0)"/>
    <use xlink:href="#DejaVuSans-6e" transform="translate(325.916016 0)"/>
    <use xlink:href="#DejaVuSans-2c" transform="translate(389.294922 0)"/>
    <use xlink:href="#DejaVuSans-20" transform="translate(421.082031 0)"/>
    <use xlink:href="#DejaVuSans-56" transform="translate(452.869141 0)"/>
    <use xlink:href="#DejaVuSans-65" transform="translate(513.527344 0)"/>
    <use xlink:href="#DejaVuSans-6c" transform="translate(575.050781 0)"/>
    <use xlink:href="#DejaVuSans-6f" transform="translate(602.833984 0)"/>
    <use xlink:href="#DejaVuSans-63" transform="translate(664.015625 0)"/>
    <use xlink:href="#DejaVuSans-69" transform="translate(718.996094 0)"/>
    <use xlink:href="#DejaVuSans-74" transform="translate(746.779297 0)"/>
    <use xlink:href="#DejaVuSans-79" transform="translate(785.988281 0)"/>
    <use xlink:href="#DejaVuSans-2c" transform="translate(845.167969 0)"/>
    <use xlink:href="#DejaVuSans-20" transform="translate(876.955078 0)"/>
    <use xlink:href="#DejaVuSans-61" transform="translate(908.742188 0)"/>
    <use xlink:href="#DejaVuSans-6e" transform="translate(970.021484 0)"/>
    <use xlink:href="#DejaVuSans-64" transform="translate(1033.400391 0)"/>
    <use xlink:href="#DejaVuSans-20" transform="translate(1096.876953 0)"/>
    <use xlink:href="#DejaVuSans-41" transform="translate(1128.664062 0)"/>
    <use xlink:href="#DejaVuSans-63" transform="translate(1195.322266 0)"/>
    <use xlink:href="#DejaVuSans-63" transform="translate(1250.302734 0)"/>
    <use xlink:href="#DejaVuSans-65" transform="translate(1305.283203 0)"/>
    <use xlink:href="#DejaVuSans-6c" transform="translate(1366.806641 0)"/>
    <use xlink:href="#DejaVuSans-65" transform="translate(1394.589844 0)"/>
    <use xlink:href="#DejaVuSans-72" transform="translate(1456.113281 0)"/>
    <use xlink:href="#DejaVuSans-61" transform="translate(1497.226562 0)"/>
    <use xlink:href="#DejaVuSans-74" transform="translate(1558.505859 0)"/>
    <use xlink:href="#DejaVuSans-69" transform="translate(1597.714844 0)"/>
    <use xlink:href="#DejaVuSans-6f" transform="translate(1625.498047 0)"/>
    <use xlink:href="#DejaVuSans-6e" transform="translate(1686.679688 0)"/>
    <use xlink:href="#DejaVuSans-20" transform="translate(1750.058594 0)"/>
    <use xlink:href="#DejaVuSans-6f" transform="translate(1781.845703 0)"/>
    <use xlink:href="#DejaVuSans-66" transform="translate(1843.027344 0)"/>
    <use xlink:href="#DejaVuSans-20" transform="translate(1878.232422 0)"/>
    <use xlink:href="#DejaVuSans-43" transform="translate(1910.019531 0)"/>
    <use xlink:href="#DejaVuSans-61" transform="translate(1979.84375 0)"/>
    <use xlink:href="#DejaVuSans-72" transform="translate(2041.123047 0)"/>
    <use xlink:href="#DejaVuSans-74" transform="translate(2082.236328 0)"/>
    <use xlink:href="#DejaVuSans-20" transform="translate(2121.445312 0)"/>
    <use xlink:href="#DejaVuSans-55" transform="translate(2153.232422 0)"/>
    <use xlink:href="#DejaVuSans-73" transform="translate(2226.425781 0)"/>
    <use xlink:href="#DejaVuSans-69" transform="translate(2278.525391 0)"/>
    <use xlink:href="#DejaVuSans-6e" transform="translate(2306.308594 0)"/>
    <use xlink:href="#DejaVuSans-67" transform="translate(2369.6875 0)"/>
    <use xlink:href="#DejaVuSans-20" transform="translate(2433.164062 0)"/>
    <use xlink:href="#DejaVuSans-53" transform="translate(2464.951172 0)"/>
    <use xlink:href="#DejaVuSans-6f" transform="translate(2528.427734 0)"/>
    <use xlink:href="#DejaVuSans-6e" transform="translate(2589.609375 0)"/>
    <use xlink:href="#DejaVuSans-61" transform="translate(2652.988281 0)"/>
    <use xlink:href="#DejaVuSans-72" transform="translate(2714.267578 0)"/>
    <use xlink:href="#DejaVuSans-20" transform="translate(2755.380859 0)"/>
    <use xlink:href="#DejaVuSans-72" transform="translate(2787.167969 0)"/>
    <use xlink:href="#DejaVuSans-75" transform="translate(2828.28125 0)"/>
    <use xlink:href="#DejaVuSans-6e" transform="translate(2891.660156 0)"/>
    <use xlink:href="#DejaVuSans-20" transform="translate(2955.039062 0)"/>
    <use xlink:href="#DejaVuSans-31" transform="translate(2986.826172 0)"/>
    <use xlink:href="#DejaVuSans-23" transform="translate(3050.449219 0)"/>
    <use xlink:href="#DejaVuSans-20" transform="translate(3134.238281 0)"/>
    <use xlink:href="#DejaVuSans-44" transform="translate(3166.025391 0)"/>
    <use xlink:href="#DejaVuSans-61" transform="translate(3243.027344 0)"/>
    <use xlink:href="#DejaVuSans-74" transform="translate(3304.306641 0)"/>
    <use xlink:href="#DejaVuSans-61" transform="translate(3343.515625 0)"/>
   </g>
  </g>
 </g>
 <defs>
  <clipPath id="p73e63c5b60">
   <rect x="71.75" y="107.148368" width="781.45" height="123.172857"/>
  </clipPath>
  <clipPath id="p04aa6e9e36">
   <rect x="71.75" y="259.007755" width="781.45" height="123.172857"/>
  </clipPath>
  <clipPath id="p26b27d9152">
   <rect x="71.75" y="410.867143" width="781.45" height="123.172857"/>
  </clipPath>
 </defs>
</svg>
